{
	"asset":{
		"generator":"Khronos glTF Blender I/O v4.0.44",
		"version":"2.0"
	},
	"scene":0,
	"scenes":[
		{
			"name":"Scene",
			"nodes":[
				0
			]
		}
	],
	"nodes":[
		{
			"mesh":0,
			"name":"BirchTree_1"
		}
	],
	"materials":[
		{
			"doubleSided":true,
			"name":"BirchTree_Bark",
			"normalTexture":{
				"index":0
			},
			"pbrMetallicRoughness":{
				"baseColorTexture":{
					"index":1
				},
				"metallicFactor":0,
				"roughnessFactor":0.5
			}
		},
		{
			"alphaMode":"BLEND",
			"doubleSided":true,
			"name":"BirchTree_Leaves",
			"pbrMetallicRoughness":{
				"baseColorTexture":{
					"index":2
				},
				"metallicFactor":0,
				"roughnessFactor":0.5
			}
		}
	],
	"meshes":[
		{
			"name":"BirchTree_1",
			"primitives":[
				{
					"attributes":{
						"POSITION":0,
						"NORMAL":1,
						"TEXCOORD_0":2
					},
					"indices":3,
					"material":0
				},
				{
					"attributes":{
						"POSITION":4,
						"NORMAL":5,
						"TEXCOORD_0":6
					},
					"indices":7,
					"material":1
				}
			]
		}
	],
	"textures":[
		{
			"sampler":0,
			"source":0
		},
		{
			"sampler":0,
			"source":1
		},
		{
			"sampler":0,
			"source":2
		}
	],
	"images":[
		{
			"mimeType":"image/png",
			"name":"BirchTree_Bark_Normal",
			"uri":"BirchTree_Bark_Normal.png"
		},
		{
			"mimeType":"image/jpeg",
			"name":"BirchTree_Bark",
			"uri":"BirchTree_Bark.jpg"
		},
		{
			"mimeType":"image/png",
			"name":"BirchTree_Leaves",
			"uri":"BirchTree_Leaves.png"
		}
	],
	"accessors":[
		{
			"bufferView":0,
			"componentType":5126,
			"count":1634,
			"max":[
				0.9670372009277344,
				4.8608198165893555,
				0.6318668127059937
			],
			"min":[
				-0.8300637602806091,
				-0.01774914562702179,
				-0.5289766192436218
			],
			"type":"VEC3"
		},
		{
			"bufferView":1,
			"componentType":5126,
			"count":1634,
			"type":"VEC3"
		},
		{
			"bufferView":2,
			"componentType":5126,
			"count":1634,
			"type":"VEC2"
		},
		{
			"bufferView":3,
			"componentType":5123,
			"count":8064,
			"type":"SCALAR"
		},
		{
			"bufferView":4,
			"componentType":5126,
			"count":3816,
			"max":[
				1.3658959865570068,
				5.43514347076416,
				1.068799376487732
			],
			"min":[
				-1.341935396194458,
				2.142258405685425,
				-0.8737319111824036
			],
			"type":"VEC3"
		},
		{
			"bufferView":5,
			"componentType":5126,
			"count":3816,
			"type":"VEC3"
		},
		{
			"bufferView":6,
			"componentType":5126,
			"count":3816,
			"type":"VEC2"
		},
		{
			"bufferView":7,
			"componentType":5123,
			"count":5724,
			"type":"SCALAR"
		}
	],
	"bufferViews":[
		{
			"buffer":0,
			"byteLength":19608,
			"byteOffset":0,
			"target":34962
		},
		{
			"buffer":0,
			"byteLength":19608,
			"byteOffset":19608,
			"target":34962
		},
		{
			"buffer":0,
			"byteLength":13072,
			"byteOffset":39216,
			"target":34962
		},
		{
			"buffer":0,
			"byteLength":16128,
			"byteOffset":52288,
			"target":34963
		},
		{
			"buffer":0,
			"byteLength":45792,
			"byteOffset":68416,
			"target":34962
		},
		{
			"buffer":0,
			"byteLength":45792,
			"byteOffset":114208,
			"target":34962
		},
		{
			"buffer":0,
			"byteLength":30528,
			"byteOffset":160000,
			"target":34962
		},
		{
			"buffer":0,
			"byteLength":11448,
			"byteOffset":190528,
			"target":34963
		}
	],
	"samplers":[
		{
			"magFilter":9729,
			"minFilter":9987
		}
	],
	"buffers":[
		{
			"byteLength":201976,
			"uri":"BirchTree_1.bin"
		}
	]
}
