{
	"asset":{
		"generator":"Khronos glTF Blender I/O v4.0.44",
		"version":"2.0"
	},
	"scene":0,
	"scenes":[
		{
			"name":"Scene",
			"nodes":[
				0
			]
		}
	],
	"nodes":[
		{
			"mesh":0,
			"name":"MapleTree_2"
		}
	],
	"materials":[
		{
			"doubleSided":true,
			"name":"MapleTree_Bark",
			"normalTexture":{
				"index":0
			},
			"pbrMetallicRoughness":{
				"baseColorTexture":{
					"index":1
				},
				"metallicFactor":0,
				"roughnessFactor":0.5
			}
		},
		{
			"alphaMode":"BLEND",
			"doubleSided":true,
			"name":"MapleTree_Leaves",
			"pbrMetallicRoughness":{
				"baseColorTexture":{
					"index":2
				},
				"metallicFactor":0,
				"roughnessFactor":0.5
			}
		}
	],
	"meshes":[
		{
			"name":"Cube.009",
			"primitives":[
				{
					"attributes":{
						"POSITION":0,
						"NORMAL":1,
						"TEXCOORD_0":2
					},
					"indices":3,
					"material":0
				},
				{
					"attributes":{
						"POSITION":4,
						"NORMAL":5,
						"TEXCOORD_0":6
					},
					"indices":7,
					"material":1
				}
			]
		}
	],
	"textures":[
		{
			"sampler":0,
			"source":0
		},
		{
			"sampler":0,
			"source":1
		},
		{
			"sampler":0,
			"source":2
		}
	],
	"images":[
		{
			"mimeType":"image/png",
			"name":"MapleTree_Bark_Normal",
			"uri":"MapleTree_Bark_Normal.png"
		},
		{
			"mimeType":"image/jpeg",
			"name":"MapleTree_Bark",
			"uri":"MapleTree_Bark.jpg"
		},
		{
			"mimeType":"image/png",
			"name":"MapleTree_Leaves",
			"uri":"MapleTree_Leaves.png"
		}
	],
	"accessors":[
		{
			"bufferView":0,
			"componentType":5126,
			"count":2122,
			"max":[
				1.9898109436035156,
				6.314578056335449,
				2.1632957458496094
			],
			"min":[
				-4.147556304931641,
				0.0006933771073818207,
				-2.870760679244995
			],
			"type":"VEC3"
		},
		{
			"bufferView":1,
			"componentType":5126,
			"count":2122,
			"type":"VEC3"
		},
		{
			"bufferView":2,
			"componentType":5126,
			"count":2122,
			"type":"VEC2"
		},
		{
			"bufferView":3,
			"componentType":5123,
			"count":10512,
			"type":"SCALAR"
		},
		{
			"bufferView":4,
			"componentType":5126,
			"count":2592,
			"max":[
				2.3588104248046875,
				6.7145233154296875,
				2.748694658279419
			],
			"min":[
				-4.34197473526001,
				2.8553481101989746,
				-3.4952290058135986
			],
			"type":"VEC3"
		},
		{
			"bufferView":5,
			"componentType":5126,
			"count":2592,
			"type":"VEC3"
		},
		{
			"bufferView":6,
			"componentType":5126,
			"count":2592,
			"type":"VEC2"
		},
		{
			"bufferView":7,
			"componentType":5123,
			"count":3888,
			"type":"SCALAR"
		}
	],
	"bufferViews":[
		{
			"buffer":0,
			"byteLength":25464,
			"byteOffset":0,
			"target":34962
		},
		{
			"buffer":0,
			"byteLength":25464,
			"byteOffset":25464,
			"target":34962
		},
		{
			"buffer":0,
			"byteLength":16976,
			"byteOffset":50928,
			"target":34962
		},
		{
			"buffer":0,
			"byteLength":21024,
			"byteOffset":67904,
			"target":34963
		},
		{
			"buffer":0,
			"byteLength":31104,
			"byteOffset":88928,
			"target":34962
		},
		{
			"buffer":0,
			"byteLength":31104,
			"byteOffset":120032,
			"target":34962
		},
		{
			"buffer":0,
			"byteLength":20736,
			"byteOffset":151136,
			"target":34962
		},
		{
			"buffer":0,
			"byteLength":7776,
			"byteOffset":171872,
			"target":34963
		}
	],
	"samplers":[
		{
			"magFilter":9729,
			"minFilter":9987
		}
	],
	"buffers":[
		{
			"byteLength":179648,
			"uri":"MapleTree_2.bin"
		}
	]
}
