<?xml version="1.0" standalone="no"?> 
	<!DOCTYPE svg PUBLIC "-//W3C//DTD SVG 20010904//EN"  
	  "http://www.w3.org/TR/2001/REC-SVG-20010904/DTD/svg10.dtd"> 
	<svg width="1.51764026284" height="4.05599999428"  viewBox="0 0 1.51764026284 4.05599999428" 
		 xmlns="http://www.w3.org/2000/svg"> 
	<title>coubre de bezier : Curve</title> 
	  <desc>Un trace dessinant une courbe de type bezie issue de blender</desc> 
	<g transform="translate(--0.778671383858 -3.28035140038)"> 
			<path d="M 0.375471740961 5.63635134697
C 0.375471740961 5.07888817787 0.375471770763 4.68442732096 0.375471770763 4.20846533775 
C 0.342405289412 4.06036925316 0.140632435679 4.04955787677 -0.0291156675667 4.04923452204 
C -0.18822927773 4.04893142497 -0.374005258083 4.05361713236 -0.407071739435 4.20171321929 
C -0.409772574902 4.67992591858 -0.415174245834 5.07888817787 -0.415174245834 5.63635134697 
"/></g>
<g transform="translate(--0.778671383858 -3.28035140038)"> 
			<path d="M -0.415174245834 7.33635139465
C -0.415174245834 6.78977537155 -0.415174245834 6.48292732239 -0.415174245834 5.93635129929 
"/></g>
<g transform="translate(--0.778671383858 -3.28035140038)"> 
			<path d="M 0.377446323633 4.45136451721
C 0.485301762819 4.43537184596 0.51547908783 4.41523742676 0.590643286705 4.38265752792 
C 0.690684437752 4.33929473162 0.781964182854 4.20797967911 0.714065909386 4.12241864204 
C 0.488139927387 3.8377212435 0.0919902399182 3.855005458 -0.0372182130814 3.85598659515 
C -0.16113358736 3.85692754388 -0.527842462063 3.8377212435 -0.753768444061 4.12241864204 
C -0.821666717529 4.20797967911 -0.730386972427 4.33929467201 -0.630345761776 4.38265752792 
C -0.555181622505 4.41523742676 -0.525004267693 4.43537184596 -0.417148828506 4.45136451721 
"/></g>
<g transform="translate(--0.778671383858 -3.28035140038)"> 
			<path d="M 0.738968849182 4.12241864204
C 0.738968849182 4.02241857722 0.738968849182 3.92241851985 0.738968849182 3.82241845131 
C 0.724429011345 3.81206941605 0.704706788063 3.80172038078 0.69534933567 3.79137134552 
C 0.69534933567 3.70966640115 0.69534933567 3.62796148658 0.69534933567 3.54625654221 
C 0.66229313612 3.51694256067 0.629236876965 3.48762863874 0.596180677414 3.45831465721 
C 0.596180677414 3.53818893433 0.596180677414 3.61806324124 0.596180677414 3.69793751836 
C 0.530691981316 3.65739691257 0.465203285217 3.61685627699 0.399714589119 3.57631567121 
C 0.399714589119 3.50697487593 0.399714589119 3.42442655563 0.399714589119 3.36829328537 
C 0.367635458708 3.31030297279 0.181398108602 3.27966547012 0.0872398614883 3.28035140038 
C 0.0872398614883 3.35179567337 0.0872398614883 3.42323976755 0.0872398614883 3.49468398094 
C 0.0515428222716 3.48546737432 0.0184773635119 3.48351460695 -0.0198512524366 3.48352468014 
C -0.0581790022552 3.48353475332 -0.0912453308702 3.48546737432 -0.126942366362 3.49468398094 
C -0.126942366362 3.42323976755 -0.126942366362 3.35179567337 -0.126942366362 3.28035140038 
C -0.221100613475 3.27966547012 -0.407337963581 3.31030297279 -0.439417093992 3.36829328537 
C -0.439417093992 3.42442655563 -0.439417093992 3.50697487593 -0.439417093992 3.57631567121 
C -0.504905819893 3.61685627699 -0.570394515991 3.65739691257 -0.63588321209 3.69793751836 
C -0.63588321209 3.61806324124 -0.63588321209 3.53818893433 -0.63588321209 3.45831465721 
C -0.66893941164 3.48762863874 -0.701995670795 3.51694256067 -0.735051870346 3.54625654221 
C -0.735051870346 3.62796148658 -0.735051870346 3.70966640115 -0.735051870346 3.79137134552 
C -0.744409263134 3.80172038078 -0.764131546021 3.81206941605 -0.778671383858 3.82241845131 
C -0.778671383858 3.92241851985 -0.778671383858 4.02241857722 -0.778671383858 4.12241864204 
"/></g>
<g transform="translate(--0.778671383858 -3.28035140038)"> 
			<path d="M -0.519545793533 3.61601141095
C -0.519545793533 3.57733687758 -0.519545793533 3.53866237402 -0.519545793533 3.49998784065 
C -0.558324933052 3.48609679937 -0.597104072571 3.47220569849 -0.63588321209 3.45831465721 
"/></g>
<g transform="translate(--0.778671383858 -3.28035140038)"> 
			<path d="M 0.375471740961 7.33635139465
C 0.375471740961 6.78977537155 0.375471740961 6.48292732239 0.375471740961 5.93635129929 
"/></g>
<g transform="translate(--0.778671383858 -3.28035140038)"> 
			<path d="M 0.47984328866 3.61601141095
C 0.47984328866 3.57733687758 0.47984328866 3.53866237402 0.47984328866 3.49998784065 
C 0.518622398376 3.48609679937 0.557401537895 3.47220569849 0.596180677414 3.45831465721 
"/></g>
</svg>