<?xml version="1.0" encoding="UTF-8" standalone="no"?>
<svg
   xmlns:dc="http://purl.org/dc/elements/1.1/"
   xmlns:cc="http://creativecommons.org/ns#"
   xmlns:rdf="http://www.w3.org/1999/02/22-rdf-syntax-ns#"
   xmlns:svg="http://www.w3.org/2000/svg"
   xmlns="http://www.w3.org/2000/svg"
   xmlns:sodipodi="http://sodipodi.sourceforge.net/DTD/sodipodi-0.dtd"
   xmlns:inkscape="http://www.inkscape.org/namespaces/inkscape"
   width="10"
   height="10"
   viewBox="0 0 1.5176403 4.056"
   id="svg2464"
   sodipodi:version="0.32"
   inkscape:version="0.46"
   sodipodi:docname="final_2_filled.svg"
   inkscape:output_extension="org.inkscape.output.svg.inkscape"
   version="1.0">
  <metadata
     id="metadata2501">
    <rdf:RDF>
      <cc:Work
         rdf:about="">
        <dc:format>image/svg+xml</dc:format>
        <dc:type
           rdf:resource="http://purl.org/dc/dcmitype/StillImage" />
      </cc:Work>
    </rdf:RDF>
  </metadata>
  <defs
     id="defs2499">
    <inkscape:perspective
       sodipodi:type="inkscape:persp3d"
       inkscape:vp_x="0 : 2.0280001 : 1"
       inkscape:vp_y="0 : 1000 : 0"
       inkscape:vp_z="1.5176402 : 2.0280001 : 1"
       inkscape:persp3d-origin="0.75882012 : 1.3520001 : 1"
       id="perspective2503" />
    <inkscape:perspective
       id="perspective3404"
       inkscape:persp3d-origin="1.4805682 : 0.38136911 : 1"
       inkscape:vp_z="2.9611363 : 0.57205367 : 1"
       inkscape:vp_y="0 : 1000 : 0"
       inkscape:vp_x="0 : 0.57205367 : 1"
       sodipodi:type="inkscape:persp3d" />
  </defs>
  <sodipodi:namedview
     inkscape:window-height="716"
     inkscape:window-width="907"
     inkscape:pageshadow="2"
     inkscape:pageopacity="0.0"
     guidetolerance="10.0"
     gridtolerance="10.0"
     objecttolerance="10.0"
     borderopacity="1.0"
     bordercolor="#666666"
     pagecolor="#ffffff"
     id="base"
     showgrid="false"
     inkscape:zoom="32"
     inkscape:cx="4.8099728"
     inkscape:cy="5.8488748"
     inkscape:window-x="61"
     inkscape:window-y="33"
     inkscape:current-layer="svg2464" />
  <title
     id="title2466">coubre de bezier : Curve</title>
  <desc
     id="desc2468">Un trace dessinant une courbe de type bezie issue de blender</desc>
  <g
     id="g2474">
    <path
       d="M -0.41517425,7.3363514 C -0.41517425,6.7897754 -0.41517425,6.4829273 -0.41517425,5.9363513"
       id="path2476" />
  </g>
  <g
     transform="translate(0.7286246,-3.1846464)"
     id="g2486">
    <path
       d="M -0.68759414,3.757172 C -0.68759414,3.7378348 -0.5150645,3.6983317 -0.5150645,3.6789944 C -0.5150645,3.6596572 -0.51836024,3.5912664 -0.51954579,3.4999878 C -0.57058325,3.4818562 -0.59038214,3.4722057 -0.63588321,3.4583147"
       id="path2488"
       style="fill:#635c65;stroke:#000000;stroke-width:0.01000000000000000;stroke-miterlimit:4;stroke-dasharray:none;stroke-opacity:1;fill-opacity:1"
       sodipodi:nodetypes="cscc" />
  </g>
  <g
     id="g2490">
    <path
       d="M 0.37547174,7.3363514 C 0.37547174,6.7897754 0.37547174,6.4829273 0.37547174,5.9363513"
       id="path2492" />
  </g>
  <g
     transform="translate(0.7286246,-3.1846464)"
     id="g2494">
    <path
       d="M 0.5961807,3.4583147 C 0.6596069,3.7222636 0.6523729,3.7720279 0.6165226,3.8019849 C 0.6210039,3.7042251 0.4671976,3.6736681 0.4663994,3.6543474 C 0.464815,3.6159976 0.466142,3.596404 0.4663994,3.4708594 C 0.5212152,3.4660591 0.5589859,3.4611151 0.5961807,3.4583147 z"
       id="path2496"
       style="fill:#635c65;fill-opacity:1;stroke:#000000;stroke-width:0.01000000000000000;stroke-miterlimit:4;stroke-dasharray:none;stroke-opacity:1"
       sodipodi:nodetypes="ccscc" />
  </g>
  <g
     transform="translate(0.7286246,-3.1846464)"
     id="g2482"
     style="fill-opacity:1">
    <path
       d="M 0.73896885,4.1963599 C 0.73896885,4.0963599 0.73896885,3.9224185 0.73896885,3.8224185 C 0.72442901,3.8120694 0.70470679,3.8017204 0.69534934,3.7913713 C 0.69534934,3.7096664 0.69534934,3.6279615 0.69534934,3.5462565 C 0.66229314,3.5169426 0.62923688,3.4876286 0.59618068,3.4583147 C 0.59618068,3.5381889 0.59618068,3.6180632 0.59618068,3.6979375 C 0.53069198,3.6573969 0.46520329,3.6168563 0.39971459,3.5763157 C 0.39971459,3.5069749 0.39971459,3.4244266 0.39971459,3.3682933 C 0.36763546,3.310303 0.18139811,3.2796655 0.087239861,3.2803514 C 0.087239861,3.3517957 0.087239861,3.4232398 0.087239861,3.494684 C 0.051542822,3.4854674 0.018477364,3.4835146 -0.019851252,3.4835247 C -0.058179002,3.4835348 -0.091245331,3.4854674 -0.12694237,3.494684 C -0.12694237,3.4232398 -0.12694237,3.3517957 -0.12694237,3.2803514 C -0.22110061,3.2796655 -0.40733796,3.310303 -0.43941709,3.3682933 C -0.43941709,3.4244266 -0.43941709,3.5069749 -0.43941709,3.5763157 C -0.50490582,3.6168563 -0.57039452,3.6573969 -0.63588321,3.6979375 C -0.63588321,3.6180632 -0.63588321,3.5381889 -0.63588321,3.4583147 C -0.66893941,3.4876286 -0.70199567,3.5169426 -0.73505187,3.5462565 C -0.73505187,3.6279615 -0.73505187,3.7096664 -0.73505187,3.7913713 C -0.74440926,3.8017204 -0.76413155,3.8120694 -0.77867138,3.8224185 C -0.77867138,3.9224185 -0.77867138,4.0941192 -0.77867138,4.1941192"
       id="path2484"
       style="fill-opacity:1;stroke:#000000;stroke-width:0.01000000000000000;stroke-linejoin:miter;stroke-miterlimit:4;stroke-dasharray:none;stroke-opacity:1;fill:#5a4c4a"
       sodipodi:nodetypes="csscccccccscccccccssc" />
  </g>
  <g
     transform="translate(0.7286246,-3.1846464)"
     id="g2478"
     style="fill-opacity:1">
    <path
       d="M 0.37744632,4.4513645 C 0.48530176,4.4353718 0.51547909,4.4152374 0.59064329,4.3826575 C 0.69068444,4.3392947 0.78196418,4.2079797 0.71406591,4.1224186 C 0.48813993,3.8377212 0.09199024,3.8550055 -0.037218213,3.8559866 C -0.16113359,3.8569275 -0.52784246,3.8377212 -0.75376844,4.1224186 C -0.82166672,4.2079797 -0.73038697,4.3392947 -0.63034576,4.3826575 C -0.55518162,4.4152374 -0.52500427,4.4353718 -0.41714883,4.4513645"
       id="path2480"
       style="stroke:#000000;stroke-width:0.01000000000000000;stroke-miterlimit:4;stroke-dasharray:none;stroke-opacity:1;fill-opacity:1;fill:#493a38" />
  </g>
  <g
     transform="translate(0.7286246,-3.1846464)"
     id="g2470"
     style="fill-opacity:1">
    <path
       d="M 0.37547174,5.6363513 C 0.37547174,5.0788882 0.37547177,4.6844273 0.37547177,4.2084653 C 0.34240529,4.0603693 0.14063244,4.0495579 -0.029115668,4.0492345 C -0.18822928,4.0489314 -0.37400526,4.0536171 -0.40707174,4.2017132 C -0.40977257,4.6799259 -0.41517425,5.0788882 -0.41517425,5.6363513"
       id="path2472"
       style="stroke:#000000;stroke-width:0.01014000000000000;stroke-miterlimit:4;stroke-dasharray:none;stroke-opacity:1;fill-opacity:1;fill:#5a4c4a" />
  </g>
  <g
     id="g3407"
     transform="translate(0.7885339,-2.0502838)"
     style="fill:#75382c;stroke:#000000;stroke-width:0.01000000000000000;stroke-miterlimit:4;stroke-dasharray:none;stroke-opacity:1;fill-opacity:1">
    <g
       id="g3391"
       style="fill:#75382c;stroke:#000000;stroke-width:0.01000000000000000;stroke-miterlimit:4;stroke-dasharray:none;stroke-opacity:1;fill-opacity:1">
      <path
         id="path3393"
         d="M -1.5205144,5.6280575 C -1.3859639,5.2466884 -1.2514133,4.8653193 -1.1168629,4.4839501 C -0.40645039,4.4839501 0.30396211,4.4839501 1.0143746,4.4839501 C 1.1564571,4.861258 1.2985396,5.2385659 1.4406221,5.6158738 C 0.45357665,5.619935 -0.5334689,5.6239963 -1.5205144,5.6280575 z"
         style="fill:#75382c;stroke:#000000;stroke-width:0.01000000000000000;stroke-miterlimit:4;stroke-dasharray:none;stroke-opacity:1;fill-opacity:1" />
    </g>
    <g
       id="g3395"
       style="fill:#75382c;stroke:#000000;stroke-width:0.01000000000000000;stroke-miterlimit:4;stroke-dasharray:none;stroke-opacity:1;fill-opacity:1">
      <path
         id="path3397"
         d="M -0.25138831,5.6076307 C -0.22752716,5.236228 -0.20366599,4.864825 -0.17980483,4.4934223"
         style="fill:#75382c;stroke:#000000;stroke-width:0.01000000000000000;stroke-miterlimit:4;stroke-dasharray:none;stroke-opacity:1;fill-opacity:1" />
    </g>
  </g>
</svg>
