<?xml version="1.0" encoding="UTF-8" standalone="no"?>
<svg
   xmlns:dc="http://purl.org/dc/elements/1.1/"
   xmlns:cc="http://creativecommons.org/ns#"
   xmlns:rdf="http://www.w3.org/1999/02/22-rdf-syntax-ns#"
   xmlns:svg="http://www.w3.org/2000/svg"
   xmlns="http://www.w3.org/2000/svg"
   xmlns:xlink="http://www.w3.org/1999/xlink"
   xmlns:sodipodi="http://sodipodi.sourceforge.net/DTD/sodipodi-0.dtd"
   xmlns:inkscape="http://www.inkscape.org/namespaces/inkscape"
   width="48"
   height="48"
   viewBox="0 0 1.5176403 4.056"
   id="svg2464"
   sodipodi:version="0.32"
   inkscape:version="0.46"
   sodipodi:docname="7_tentacles_kasia.svg"
   inkscape:output_extension="org.inkscape.output.svg.inkscape"
   version="1.0">
  <metadata
     id="metadata2501">
    <rdf:RDF>
      <cc:Work
         rdf:about="">
        <dc:format>image/svg+xml</dc:format>
        <dc:type
           rdf:resource="http://purl.org/dc/dcmitype/StillImage" />
      </cc:Work>
    </rdf:RDF>
  </metadata>
  <defs
     id="defs2499">
    <linearGradient
       id="linearGradient3167">
      <stop
         style="stop-color:#2e3436;stop-opacity:1;"
         offset="0"
         id="stop3169" />
      <stop
         id="stop3175"
         offset="0.06061278"
         style="stop-color:#2e3436;stop-opacity:1;" />
      <stop
         style="stop-color:#7d8074;stop-opacity:1;"
         offset="0.40697148"
         id="stop3177" />
      <stop
         style="stop-color:#807d74;stop-opacity:1;"
         offset="1"
         id="stop3171" />
    </linearGradient>
    <inkscape:perspective
       sodipodi:type="inkscape:persp3d"
       inkscape:vp_x="0 : 2.0280001 : 1"
       inkscape:vp_y="0 : 1000 : 0"
       inkscape:vp_z="1.5176402 : 2.0280001 : 1"
       inkscape:persp3d-origin="0.75882012 : 1.3520001 : 1"
       id="perspective2503" />
    <inkscape:perspective
       id="perspective3404"
       inkscape:persp3d-origin="1.4805682 : 0.38136911 : 1"
       inkscape:vp_z="2.9611363 : 0.57205367 : 1"
       inkscape:vp_y="0 : 1000 : 0"
       inkscape:vp_x="0 : 0.57205367 : 1"
       sodipodi:type="inkscape:persp3d" />
    <linearGradient
       inkscape:collect="always"
       xlink:href="#linearGradient3167"
       id="linearGradient3185"
       x1="-0.63802892"
       y1="4.0923672"
       x2="0.077149987"
       y2="3.4864626"
       gradientUnits="userSpaceOnUse" />
    <linearGradient
       inkscape:collect="always"
       xlink:href="#linearGradient3167"
       id="linearGradient3211"
       x1="-0.77867138"
       y1="3.7383499"
       x2="0.36128464"
       y2="3.7383499"
       gradientUnits="userSpaceOnUse" />
    <linearGradient
       inkscape:collect="always"
       xlink:href="#linearGradient3167"
       id="linearGradient3200"
       x1="-0.47767425"
       y1="4.8427873"
       x2="0.43797177"
       y2="4.8427873"
       gradientUnits="userSpaceOnUse" />
  </defs>
  <sodipodi:namedview
     inkscape:window-height="705"
     inkscape:window-width="1020"
     inkscape:pageshadow="2"
     inkscape:pageopacity="0.0"
     guidetolerance="10.0"
     gridtolerance="10.0"
     objecttolerance="10.0"
     borderopacity="0.77254902"
     bordercolor="#d8d8d8"
     pagecolor="#ffffff"
     id="base"
     showgrid="false"
     inkscape:zoom="5.6568542"
     inkscape:cx="-47.179313"
     inkscape:cy="59.482237"
     inkscape:window-x="4"
     inkscape:window-y="63"
     inkscape:current-layer="svg2464"
     inkscape:showpageshadow="false"
     showborder="true"
     borderlayer="false" />
  <title
     id="title2466">coubre de bezier : Curve</title>
  <desc
     id="desc2468">Un trace dessinant une courbe de type bezie issue de blender</desc>
  <path
     sodipodi:type="arc"
     style="opacity:0.78620689;fill:#d7f4ee;fill-opacity:1;stroke:none;stroke-width:0.01;stroke-miterlimit:4;stroke-dasharray:none;stroke-opacity:1"
     id="path3426"
     sodipodi:cx="-6.5869765"
     sodipodi:cy="-2.4866824"
     sodipodi:rx="2.1211436"
     sodipodi:ry="1.9269544"
     d="M -4.4658329,-2.4866824 A 2.1211436,1.9269544 0 1 1 -8.7081201,-2.4866824 A 2.1211436,1.9269544 0 1 1 -4.4658329,-2.4866824 z"
     transform="matrix(1.4404026,0,0,1.2866159,4.1482137,1.8032784)"
      />
  <path
     style="fill:#d7f4ee;fill-rule:evenodd;stroke:#000000;stroke-width:0.00142926;stroke-linecap:butt;stroke-linejoin:miter;stroke-miterlimit:4;stroke-dasharray:none;stroke-opacity:1"
     d="M -4.0770373,-3.3411611 C -8.3249041,-4.8827056 -10.088348,0.033933338 -5.6095245,0.20094973 C -8.2285223,-1.2617166 -5.9405996,-3.8024 -3.4581361,-2.4602235 L -3.4950051,-2.7045614 L -3.8790568,-3.0928837 L -4.0770373,-3.3411611 z"
     id="path3409"
     sodipodi:nodetypes="cccccc"
      />
  <path
     style="fill:#000000;fill-opacity:1;fill-rule:evenodd;stroke:#060606;stroke-width:0.05776893;stroke-miterlimit:4;stroke-dasharray:none;stroke-opacity:1"
     d="M -4.9884882,1.7538061 L -3.1634999,1.7538061 C -3.1572897,1.7538061 -3.1501789,1.7495115 -3.1501788,1.7457611 L -3.1501788,1.2550143 C -3.1501788,1.2512638 -3.1572897,1.2469693 -3.1634999,1.2469693 L -4.9884882,0.97343838 L -4.9884882,1.7538061 z"
     id="path3405"
      />
  <path
     style="fill:#000000;fill-opacity:1;fill-rule:evenodd;stroke:#060606;stroke-width:0.05776893;stroke-miterlimit:4;stroke-dasharray:none;stroke-opacity:1"
     d="M -5.0301827,1.7454126 L -5.0301827,0.96504488 C -5.0363929,0.96504488 -6.6819969,1.2428702 -6.6819969,1.2466208 L -6.6819969,1.7373676 C -6.6819969,1.7411181 -6.674886,1.7454126 -6.6686758,1.7454126 L -5.0301827,1.7454126 z"
     id="path3407"
      />
  <g
     id="g2474"
     transform="matrix(1.1295799,0,0,1.1295799,-0.1004557,-0.1191474)">
    <path
       d="M -0.41517425,7.3363514 C -0.41517425,6.7897754 -0.41517425,6.4829273 -0.41517425,5.9363513"
       id="path2476" />
  </g>
  <g
     transform="matrix(1.2544921,0,0,1.3877766,1.7014339,-5.9810421)"
     id="g2487"
     style="fill:#000000">
    <path
       d="M -0.68759414,3.757172 C -0.68759414,3.7378348 -0.5150645,3.6983317 -0.5150645,3.6789944 C -0.5150645,3.6596572 -0.51836024,3.5912664 -0.51954579,3.4999878 C -0.57058325,3.4818562 -0.59038214,3.4722057 -0.63588321,3.4583147"
       id="path2489"
       style="fill:#000000;fill-opacity:1;stroke:#000000;stroke-width:0.0424385;stroke-miterlimit:4;stroke-dasharray:none;stroke-opacity:1"
       sodipodi:nodetypes="cscc" />
  </g>
  <g
     transform="matrix(1.2544921,0,0,1.3877766,1.7014339,-5.9810421)"
     id="g2491"
     style="fill:#000000">
    <path
       d="M 0.5961807,3.4583147 C 0.6596069,3.7222636 0.6523729,3.7720279 0.6165226,3.8019849 C 0.6210039,3.7042251 0.4671976,3.6736681 0.4663994,3.6543474 C 0.464815,3.6159976 0.466142,3.596404 0.4663994,3.4708594 C 0.5212152,3.4660591 0.5589859,3.4611151 0.5961807,3.4583147 z"
       id="path2493"
       style="fill:#000000;fill-opacity:1;stroke:#000000;stroke-width:0.0424385;stroke-miterlimit:4;stroke-dasharray:none;stroke-opacity:1"
       sodipodi:nodetypes="ccscc" />
  </g>
  <g
     transform="matrix(1.5138069,0,0,1.3875546,-5.1007177,-8.2285935)"
     id="g2495"
     style="fill:#000000;fill-opacity:1"
     >
    <path
       d="M 0.69133959,5.660225 C 0.69133959,5.560225 0.91757855,5.3970473 0.90567124,5.1786464 C 0.90476028,5.1619379 0.87140918,5.2117669 0.86205173,5.2014178 C 0.86205173,5.1197129 0.86205173,5.038008 0.86205173,4.956303 C 0.82899553,4.9269891 0.79593927,4.8976751 0.76288307,4.8683612 C 0.76288307,4.9482354 0.76288307,5.0281097 0.76288307,5.107984 C 0.69739437,5.0674434 0.63190568,5.0269028 0.56641698,4.9863622 C 0.56641698,4.9170214 0.56641698,4.8344731 0.56641698,4.7783398 C 0.53433785,4.7203495 0.3481005,4.689712 0.25394225,4.6903979 C 0.25394225,4.7618422 0.25394225,4.8332863 0.25394225,4.9047305 C 0.21824521,4.8955139 0.18517976,4.8935611 0.14685114,4.8935712 C 0.10852339,4.8935813 0.075457058,4.8955139 0.039760018,4.9047305 C 0.039760018,4.8332863 0.039760018,4.7618422 0.039760018,4.6903979 C -0.054398222,4.689712 -0.24063557,4.7203495 -0.2727147,4.7783398 C -0.2727147,4.8344731 -0.2727147,4.9170214 -0.2727147,4.9863622 C -0.33820343,5.0269028 -0.40369213,5.0674434 -0.46918082,5.107984 C -0.46918082,5.0281097 -0.46918082,4.9482354 -0.46918082,4.8683612 C -0.50223702,4.8976751 -0.53529328,4.9269891 -0.56834948,4.956303 C -0.56834948,5.038008 -0.56834948,5.1197129 -0.56834948,5.2014178 C -0.57770687,5.2117669 -0.61196899,5.2157362 -0.61196899,5.232465 C -0.61196899,5.407811 -0.49289585,5.568748 -0.49289585,5.668748"
       id="path2497"
       style="fill:#000000;fill-opacity:1;stroke:#000000;stroke-width:0.0424385;stroke-linejoin:miter;stroke-miterlimit:4;stroke-dasharray:none;stroke-opacity:1"
       sodipodi:nodetypes="csscccccccscccccccssc" />
  </g>
  <g
     transform="matrix(1.5138069,0,0,1.3875546,-4.8463694,-6.5477392)"
     id="g2499"
     style="fill:#000000;fill-opacity:1"
     >
    <path
       d="M 0.37744632,4.4513645 C 0.48530176,4.4353718 0.51547909,4.4152374 0.59064329,4.3826575 C 0.69068444,4.3392947 0.78196418,4.2079797 0.71406591,4.1224186 C 0.48813993,3.8377212 0.09199024,3.8550055 -0.037218213,3.8559866 C -0.16113359,3.8569275 -0.52784246,3.8377212 -0.75376844,4.1224186 C -0.82166672,4.2079797 -0.73038697,4.3392947 -0.63034576,4.3826575 C -0.55518162,4.4152374 -0.52500427,4.4353718 -0.41714883,4.4513645"
       id="path2501"
       style="fill:#000000;fill-opacity:1;stroke:#000000;stroke-width:0.0424385;stroke-miterlimit:4;stroke-dasharray:none;stroke-opacity:1" />
  </g>
  <g
     transform="matrix(1.7081831,0,0,1.3875546,-4.8515234,-6.6074801)"
     id="g2503"
     style="fill:#000000;fill-opacity:1"
     >
    <path
       d="M 0.37547174,5.6363513 C 0.37547174,5.0788882 0.37547177,4.6844273 0.37547177,4.2084653 C 0.34240529,4.0603693 0.14063244,4.0495579 -0.029115668,4.0492345 C -0.18822928,4.0489314 -0.37400526,4.0536171 -0.40707174,4.2017132 C -0.40977257,4.6799259 -0.41517425,5.0788882 -0.41517425,5.6363513"
       id="path2505"
       style="fill:#000000;fill-opacity:1;stroke:#000000;stroke-width:0.0424385;stroke-miterlimit:4;stroke-dasharray:none;stroke-opacity:1" />
  </g>
  <g
     transform="matrix(1.3630742,0,0,1.1293992,-4.8378818,-5.4381287)"
     id="g2486"
     >
    <path
       d="M -0.68759414,3.757172 C -0.68759414,3.7378348 -0.5150645,3.6983317 -0.5150645,3.6789944 C -0.5150645,3.6596572 -0.51836024,3.5912664 -0.51954579,3.4999878 C -0.57058325,3.4818562 -0.59038214,3.4722057 -0.63588321,3.4583147"
       id="path2488"
       style="fill:#eae8e3;fill-opacity:1;stroke:#000000;stroke-width:0.0424385;stroke-miterlimit:4;stroke-dasharray:none;stroke-opacity:1"
       sodipodi:nodetypes="cscc" />
  </g>
  <g
     id="g2490"
     transform="matrix(1.1295799,0,0,1.1295799,-0.1004557,-0.1191474)">
    <path
       d="M 0.37547174,7.3363514 C 0.37547174,6.7897754 0.37547174,6.4829273 0.37547174,5.9363513"
       id="path2492" />
  </g>
  <g
     transform="matrix(1.3630742,0,0,1.1293992,-4.8559071,-5.4082582)"
     id="g2494"
     >
    <path
       d="M 0.5961807,3.4583147 C 0.6596069,3.7222636 0.6523729,3.7720279 0.6165226,3.8019849 C 0.6210039,3.7042251 0.4671976,3.6736681 0.4663994,3.6543474 C 0.464815,3.6159976 0.466142,3.596404 0.4663994,3.4708594 C 0.5212152,3.4660591 0.5589859,3.4611151 0.5961807,3.4583147 z"
       id="path2496"
       style="fill:#eae8e3;fill-opacity:1;stroke:#000000;stroke-width:0.0424385;stroke-miterlimit:4;stroke-dasharray:none;stroke-opacity:1"
       sodipodi:nodetypes="ccscc" />
  </g>
  <g
     transform="matrix(1.3630742,0,0,1.1293992,-4.855907,-5.393323)"
     id="g2482"
     style="fill-opacity:1"
     >
    <path
       d="M 0.73896885,4.1963599 C 0.73896885,4.0963599 0.73896885,3.9224185 0.73896885,3.8224185 C 0.72442901,3.8120694 0.70470679,3.8017204 0.69534934,3.7913713 C 0.69534934,3.7096664 0.69534934,3.6279615 0.69534934,3.5462565 C 0.66229314,3.5169426 0.62923688,3.4876286 0.59618068,3.4583147 C 0.59618068,3.5381889 0.59618068,3.6180632 0.59618068,3.6979375 C 0.53069198,3.6573969 0.46520329,3.6168563 0.39971459,3.5763157 C 0.39971459,3.5069749 0.39971459,3.4244266 0.39971459,3.3682933 C 0.36763546,3.310303 0.18139811,3.2796655 0.087239861,3.2803514 C 0.087239861,3.3517957 0.087239861,3.4232398 0.087239861,3.494684 C 0.051542822,3.4854674 0.018477364,3.4835146 -0.019851252,3.4835247 C -0.058179002,3.4835348 -0.091245331,3.4854674 -0.12694237,3.494684 C -0.12694237,3.4232398 -0.12694237,3.3517957 -0.12694237,3.2803514 C -0.22110061,3.2796655 -0.40733796,3.310303 -0.43941709,3.3682933 C -0.43941709,3.4244266 -0.43941709,3.5069749 -0.43941709,3.5763157 C -0.50490582,3.6168563 -0.57039452,3.6573969 -0.63588321,3.6979375 C -0.63588321,3.6180632 -0.63588321,3.5381889 -0.63588321,3.4583147 C -0.66893941,3.4876286 -0.70199567,3.5169426 -0.73505187,3.5462565 C -0.73505187,3.6279615 -0.73505187,3.7096664 -0.73505187,3.7913713 C -0.74440926,3.8017204 -0.76413155,3.8120694 -0.77867138,3.8224185 C -0.77867138,3.9224185 -0.77867138,4.0941192 -0.77867138,4.1941192"
       id="path2484"
       style="fill:url(#linearGradient3211);fill-opacity:1;stroke:#000000;stroke-width:0.0424385;stroke-linejoin:miter;stroke-miterlimit:4;stroke-dasharray:none;stroke-opacity:1"
       sodipodi:nodetypes="csscccccccscccccccssc" />
  </g>
  <g
     transform="matrix(1.3630742,0,0,1.1293992,-4.8559071,-5.4082582)"
     id="g2478"
     style="fill-opacity:1"
     >
    <path
       d="M 0.37744632,4.4513645 C 0.48530176,4.4353718 0.51547909,4.4152374 0.59064329,4.3826575 C 0.69068444,4.3392947 0.78196418,4.2079797 0.71406591,4.1224186 C 0.48813993,3.8377212 0.09199024,3.8550055 -0.037218213,3.8559866 C -0.16113359,3.8569275 -0.52784246,3.8377212 -0.75376844,4.1224186 C -0.82166672,4.2079797 -0.73038697,4.3392947 -0.63034576,4.3826575 C -0.55518162,4.4152374 -0.52500427,4.4353718 -0.41714883,4.4513645"
       id="path2480"
       style="fill:url(#linearGradient3185);fill-opacity:1;stroke:#000000;stroke-width:0.0424385;stroke-miterlimit:4;stroke-dasharray:none;stroke-opacity:1" />
  </g>
  <g
     transform="matrix(1.3630742,0,0,1.1293992,-4.8559072,-5.333582)"
     id="g2470"
     style="fill-opacity:1"
     >
    <path
       d="M 0.37547174,5.6363513 C 0.37547174,5.0788882 0.37547177,4.6844273 0.37547177,4.2084653 C 0.34240529,4.0603693 0.14063244,4.0495579 -0.029115668,4.0492345 C -0.18822928,4.0489314 -0.37400526,4.0536171 -0.40707174,4.2017132 C -0.40977257,4.6799259 -0.41517425,5.0788882 -0.41517425,5.6363513"
       id="path2472"
       style="fill:url(#linearGradient3200);fill-opacity:1;stroke:#000000;stroke-width:0.0424385;stroke-miterlimit:4;stroke-dasharray:none;stroke-opacity:1" />
  </g>
  <path
     style="fill:#c83771;fill-opacity:1;fill-rule:evenodd;stroke:#060606;stroke-width:0.0552058;stroke-miterlimit:4;stroke-dasharray:none;stroke-opacity:1"
     d="M -4.9606975,1.7338126 L -3.2097885,1.7338126 C -3.2038304,1.7338126 -3.1970082,1.7297247 -3.1970082,1.7261548 L -3.1970082,1.259028 C -3.1970082,1.255458 -3.2038304,1.2513703 -3.2097885,1.2513703 L -4.9606975,0.99100457 L -4.9606975,1.7338126 z"
     id="path3563"
      />
  <path
     style="fill:#782144;fill-opacity:1;fill-rule:evenodd;stroke:#060606;stroke-width:0.06828308;stroke-miterlimit:4;stroke-dasharray:none;stroke-opacity:1"
     d="M -5.0472399,1.7192845 L -5.0472399,0.98955369 C -5.0565185,0.98955369 -7.5151848,1.2493514 -7.5151848,1.2528585 L -7.5151848,1.7117615 C -7.5151848,1.7152686 -7.5045605,1.7192845 -7.495282,1.7192845 L -5.0472399,1.7192845 z"
     id="rect3353"
      />
  <path
     style="fill:#000000;fill-rule:evenodd;stroke:#000000;stroke-width:0.00066639;stroke-linecap:butt;stroke-linejoin:miter;stroke-miterlimit:4;stroke-dasharray:none;stroke-opacity:1"
     d="M -3.1748986,0.24788402 C -2.97117,0.18971073 -2.6660014,0.10473363 -2.4982472,0.0042269114 C -2.4314243,0.25072277 -3.0774242,0.6955199 -3.1580857,0.29780843 L -3.1748984,0.24788392 L -3.1748986,0.24788402 z"
     id="path3300"
      />
  <path
     style="fill:#000000;fill-rule:evenodd;stroke:#000000;stroke-width:0.00092816;stroke-linecap:butt;stroke-linejoin:miter;stroke-miterlimit:4;stroke-dasharray:none;stroke-opacity:1"
     d="M -3.6435658,1.4714399 C -2.3158686,0.6443145 -2.7732667,-1.7477761 -3.5354137,-2.1428884 C -2.3292018,-0.90378882 -3.9735119,0.8124212 -4.5628599,1.4565047 C -4.2572138,1.4745248 -3.9479088,1.4317776 -3.6435658,1.4714399 z"
     id="path3302"
      />
  <path
     style="fill:#000000;fill-rule:evenodd;stroke:#000000;stroke-width:0.00055657;stroke-linecap:butt;stroke-linejoin:miter;stroke-miterlimit:4;stroke-dasharray:none;stroke-opacity:1"
     d="M -3.2056684,-0.12875102 C -3.1372812,-0.3670118 -3.5027197,-0.6583158 -3.6017698,-0.76035147 C -3.5783219,-0.52621693 -3.5927062,-0.10172325 -3.3710656,-0.0059928535 C -3.3206258,-0.052522314 -3.3109842,-0.13289596 -3.2056684,-0.12875102 z"
     id="path3304"
      />
  <path
     style="fill:#000000;fill-rule:evenodd;stroke:#000000;stroke-width:0.00092816;stroke-linecap:butt;stroke-linejoin:miter;stroke-miterlimit:4;stroke-dasharray:none;stroke-opacity:1"
     d="M -3.5714644,0.85909503 C -3.638325,0.8036966 -3.7725904,0.64528404 -3.8598704,0.50064928 C -3.9183045,0.40381607 -3.9680226,0.29272895 -3.9680226,0.18700916 C -3.9680226,0.04542452 -4.0109313,0.034086034 -4.0942002,0.17207396 C -4.1062172,0.19198766 -4.1182341,0.21190128 -4.130251,0.23181489 C -4.1907608,0.33208795 -4.1843271,0.449924 -4.1843271,0.56039022 C -4.1843271,0.68011207 -4.1943206,0.80275855 -4.1663018,0.91883607 C -4.132547,1.0586767 -4.005826,1.1303357 -3.8778958,1.1727352 C -3.7848029,1.2035887 -3.7004729,1.0886168 -3.643566,1.0532532 C -3.5781868,1.012625 -3.622517,0.91197057 -3.5714644,0.85909503 z"
     id="path3306"
      />
  <path
     style="fill:#000000;fill-rule:evenodd;stroke:#000000;stroke-width:0.00071848;stroke-linecap:butt;stroke-linejoin:miter;stroke-miterlimit:4;stroke-dasharray:none;stroke-opacity:1"
     d="M -3.0312396,-0.95937039 C -2.9717738,-0.99033534 -2.8601634,-1.1217091 -2.8330799,-1.2345319 C -2.8155937,-1.3073757 -2.8330799,-1.3929228 -2.8330799,-1.4673609 C -2.8330799,-1.569504 -2.735485,-1.3635914 -2.6958924,-1.3086139 C -2.60359,-1.180444 -2.6437013,-1.0241358 -2.6806494,-0.89587159 C -2.7053301,-0.8101939 -2.794613,-0.76887401 -2.9092953,-0.76887401 C -2.9654472,-0.76887401 -3.0213307,-0.8789362 -3.0312396,-0.9064548 C -3.0374012,-0.92356666 -3.0312396,-0.94173181 -3.0312396,-0.95937039 z"
     id="path3308"
      />
  <path
     style="fill:#37483e;fill-rule:evenodd;stroke:#000000;stroke-width:0.00045562;stroke-linecap:butt;stroke-linejoin:miter;stroke-miterlimit:4;stroke-dasharray:none;stroke-opacity:1"
     d="M -3.6055993,1.4307855 C -3.0317368,0.93395015 -2.7474824,-0.80465566 -2.9202883,-1.140039 C -2.757296,-0.17138441 -3.5925602,0.93748206 -3.8971473,1.3555817 C -3.8025639,1.3898982 -3.6958693,1.381121 -3.6055993,1.4307855 z"
     id="path2513"
      />
  <path
     style="fill:#b7c8b7;fill-rule:evenodd;stroke:#000000;stroke-width:0.00036689;stroke-linecap:butt;stroke-linejoin:miter;stroke-miterlimit:4;stroke-dasharray:none;stroke-opacity:1"
     d="M -3.2173719,-0.14168352 C -3.1700355,-0.29126089 -3.4229851,-0.47413833 -3.4915457,-0.53819508 C -3.4753155,-0.3912081 -3.4672467,-0.020169148 -3.3138313,0.039929338 C -3.1707656,0.010718711 -3.2902693,-0.14428561 -3.2173719,-0.14168352 z"
     id="path3290"
     sodipodi:nodetypes="cccc"
      />
  <path
     style="fill:#000000;fill-rule:evenodd;stroke:#000000;stroke-width:0.00041705;stroke-linecap:butt;stroke-linejoin:miter;stroke-miterlimit:4;stroke-dasharray:none;stroke-opacity:1"
     d="M -3.817767,1.6019085 C -3.0318071,1.8626657 -2.4256674,0.84490555 -2.5378611,0.77314399 C -2.5244205,1.4406888 -4.041312,1.1484208 -3.9729588,1.4570934 L -3.817767,1.6019085 L -3.817767,1.6019085 z"
     id="path3313"
      />
  <path
     style="fill:#536c53;fill-rule:evenodd;stroke:#000000;stroke-width:0.00033936;stroke-linecap:butt;stroke-linejoin:miter;stroke-miterlimit:4;stroke-dasharray:none;stroke-opacity:1"
     d="M -3.7494412,1.5143073 C -3.1102258,1.7534656 -2.5838267,0.95807357 -2.6741256,0.89616847 C -2.6813813,1.433309 -3.9208448,1.1413502 -3.8730977,1.3920591 L -3.7494412,1.5143073 L -3.7494412,1.5143073 z"
     id="path3310"
      />
  <path
     style="fill:#008000;fill-rule:evenodd;stroke:#000000;stroke-width:0.00049647;stroke-linecap:butt;stroke-linejoin:miter;stroke-miterlimit:4;stroke-dasharray:none;stroke-opacity:1"
     d="M -3.7909824,0.6571002 C -3.8246215,0.62559754 -3.8921742,0.53551465 -3.9360869,0.45326681 C -3.9654867,0.39820162 -3.9905013,0.33503093 -3.9905013,0.27491245 C -3.9905013,0.19439893 -4.0120898,0.18795126 -4.0539846,0.2664194 C -4.0600306,0.27774359 -4.0660766,0.28906748 -4.0721226,0.30039167 C -4.1025667,0.35741285 -4.0993298,0.42442143 -4.0993298,0.48723898 C -4.0993298,0.55531998 -4.1043577,0.62506403 -4.0902608,0.69107256 C -4.0732778,0.77059414 -4.0275466,1.0055019 -3.9631814,1.0296127 C -3.9163439,1.0471578 -3.8558899,0.78761982 -3.8272584,0.76751004 C -3.7943645,0.74440643 -3.8166681,0.68716839 -3.7909824,0.6571002 z"
     id="path3294"
     sodipodi:nodetypes="cssssssssc"
      />
  <path
     style="fill:#000000;fill-rule:evenodd;stroke:#000000;stroke-width:0.00091011;stroke-linecap:butt;stroke-linejoin:miter;stroke-miterlimit:4;stroke-dasharray:none;stroke-opacity:1"
     d="M -4.5195393,1.575993 C -5.3171129,1.1045691 -6.4094454,0.075819434 -6.2179686,-0.48508492 C -6.6556966,0.38801169 -5.5941561,1.8836054 -4.6061939,1.8298938 L -4.5498758,1.7106796 L -4.5195394,1.5759929 L -4.5195393,1.575993 z"
     id="path3371"
      />
  <path
     style="fill:#000000;fill-rule:evenodd;stroke:#000000;stroke-width:0.00063086;stroke-linecap:butt;stroke-linejoin:miter;stroke-miterlimit:4;stroke-dasharray:none;stroke-opacity:1"
     d="M -7.0085873,0.36556508 C -7.0870697,0.18339153 -6.9259676,-0.14721378 -6.9513799,-0.28811713 C -7.1162786,-0.1133408 -7.4068917,0.50214573 -7.0085873,0.36556508 L -7.0085873,0.36556508 z"
     id="path3373"
      />
  <path
     style="fill:#000000;fill-rule:evenodd;stroke:#000000;stroke-width:0.00092816;stroke-linecap:butt;stroke-linejoin:miter;stroke-miterlimit:4;stroke-dasharray:none;stroke-opacity:1"
     d="M -5.6993127,1.6811787 C -5.6720703,1.6134394 -5.9711206,2.010899 -6.4166963,2.1955403 C -6.6964287,2.3114582 -6.9116076,2.3260577 -6.5617702,2.4226467 C -6.3563223,2.4793701 -5.9122729,2.403987 -5.7153571,2.3223874 C -5.5390923,2.2493453 -5.4917696,2.1989611 -5.4090635,2.0618713 C -5.3956309,2.0396061 -5.3821983,2.0173408 -5.3687657,1.9950756 C -5.3099029,1.8975072 -5.2867938,1.8062054 -5.4252215,1.767986 C -5.5532607,1.7326349 -5.6563633,1.8116107 -5.6993127,1.6811787 z"
     id="path3375"
      />
  <path
     style="fill:#000000;fill-rule:evenodd;stroke:#000000;stroke-width:0.00092816;stroke-linecap:butt;stroke-linejoin:miter;stroke-miterlimit:4;stroke-dasharray:none;stroke-opacity:1"
     d="M -6.2865379,1.4564813 C -6.3849372,1.4973171 -6.5237878,1.5589275 -6.6968442,1.5795128 C -6.9597035,1.6107802 -7.2776041,1.4824405 -7.5234999,1.4146831 C -8.0090396,1.2808911 -7.5045941,1.371948 -7.3867442,1.3579296 C -7.1363782,1.3281483 -6.9656129,1.1863765 -6.7370957,1.1591942 C -6.5664389,1.1388944 -6.4110965,1.2889726 -6.3720988,1.3856863 C -6.3593266,1.4173614 -6.3150581,1.432883 -6.2865379,1.4564813 z"
     id="path3377"
      />
  <path
     style="fill:#000000;fill-rule:evenodd;stroke:#000000;stroke-width:0.00092816;stroke-linecap:butt;stroke-linejoin:miter;stroke-miterlimit:4;stroke-dasharray:none;stroke-opacity:1"
     d="M -5.7452551,0.5454549 C -5.9082919,0.64677009 -5.5942257,0.941747 -5.5109253,0.99351212 C -5.3323751,1.1044679 -5.2104699,0.93206675 -5.114367,0.79935398 C -4.9811874,0.61544001 -4.9405271,0.37255376 -4.8800372,0.17207384 C -4.8517126,0.078198153 -4.8480559,-0.15120594 -4.8980627,0.097397582 C -4.9321767,0.26699275 -5.0786255,0.38724371 -5.2405446,0.44090813 C -5.4114955,0.49756586 -5.5912408,0.44336574 -5.7452551,0.5454549 z"
     id="path3379"
      />
  <path
     style="fill:#000000;fill-rule:evenodd;stroke:#000000;stroke-width:0.00092816;stroke-linecap:butt;stroke-linejoin:miter;stroke-miterlimit:4;stroke-dasharray:none;stroke-opacity:1"
     d="M -6.898879,0.94870629 C -6.5004924,0.8029878 -6.2221161,0.46477301 -6.2880604,0.10754926 C -6.3768245,0.4679352 -7.3786982,0.39577295 -7.0791326,0.87403013 L -6.9944121,0.91010216 L -6.8988789,0.94870629 L -6.898879,0.94870629 z"
     id="path3381"
      />
  <path
     style="fill:#000000;fill-rule:evenodd;stroke:#000000;stroke-width:0.00928161;stroke-linecap:butt;stroke-linejoin:miter;stroke-miterlimit:4;stroke-dasharray:none;stroke-opacity:1"
     d="M -4.8980624,1.4714398 C -6.120321,1.323259 -7.882672,0.20743498 -6.9169044,-0.66429975 C -9.1144028,-0.054765474 -6.4697878,2.2942934 -4.9341133,1.919497 C -4.6848698,1.8286214 -4.5737053,1.5590179 -4.8980624,1.4714398 z"
     id="path3384"
      />
  <path
     style="fill:none;fill-rule:evenodd;stroke:#000000;stroke-width:1px;stroke-linecap:butt;stroke-linejoin:miter;stroke-opacity:1"
     d="M -3.8832653,4.0111871 C -3.8832653,4.0111871 -3.8832653,4.0111871 -3.8832653,4.0111871 z"
     id="path3386" />
  <path
     style="fill:none;fill-rule:evenodd;stroke:#000000;stroke-width:0.00082857;stroke-linecap:butt;stroke-linejoin:miter;stroke-miterlimit:4;stroke-dasharray:none;stroke-opacity:1"
     d="M 0.32805811,-0.81110634 C -0.33289129,-1.2826056 -1.2381075,-2.3115199 -1.0794307,-2.872514 C -1.442176,-1.9992777 -0.56247709,-0.50344474 0.25624741,-0.55716494 L 0.30291821,-0.67639824 L 0.32805801,-0.81110644 L 0.32805811,-0.81110634 z"
     id="path3391" />
  <path
     style="fill:none;fill-rule:evenodd;stroke:#000000;stroke-width:0.00057434;stroke-linecap:butt;stroke-linejoin:miter;stroke-miterlimit:4;stroke-dasharray:none;stroke-opacity:1"
     d="M 0.17740015,0.18904147 C 0.11236175,0.0068387707 0.24586715,-0.32381943 0.22480795,-0.46474533 C 0.088156353,-0.28994103 -0.15267475,0.32564397 0.17740015,0.18904147 L 0.17740015,0.18904147 z"
     id="path3393" />
  <path
     style="fill:#374845;fill-rule:evenodd;stroke:#000000;stroke-width:0.00067952;stroke-linecap:butt;stroke-linejoin:miter;stroke-miterlimit:4;stroke-dasharray:none;stroke-opacity:1"
     d="M -0.10121239,0.71153662 C -0.082645793,0.65826362 -0.28645859,0.97084262 -0.59013349,1.1160523 C -0.78078059,1.2072149 -0.92743219,1.2186966 -0.68900619,1.2946583 C -0.54898659,1.339268 -0.24635189,1.2799835 -0.11214719,1.2158102 C 0.0079831974,1.1583668 0.040235187,1.1187425 0.096602207,1.0109293 C 0.10575698,0.99341902 0.11491175,0.97590872 0.12406652,0.95839832 C 0.16418348,0.88166652 0.1799331,0.80986292 0.085589927,0.77980552 C -0.0016730826,0.75200392 -0.071940893,0.81411392 -0.10121239,0.71153662 z"
     id="path3395" />
  <path
     style="fill:#2ca089;fill-rule:evenodd;stroke:#000000;stroke-width:0.00062631;stroke-linecap:butt;stroke-linejoin:miter;stroke-miterlimit:4;stroke-dasharray:none;stroke-opacity:1"
     d="M -0.49392699,2.3764822 C -0.55613329,2.4058947 -0.64391233,2.4502703 -0.75331563,2.4650972 C -0.91949093,2.487618 -1.1204621,2.3951796 -1.2759132,2.3463765 C -1.5828631,2.250011 -1.2639613,2.3155959 -1.1894586,2.305499 C -1.0311815,2.2840486 -0.92322663,2.1819356 -0.77876203,2.1623572 C -0.67087563,2.147736 -0.57267079,2.2558319 -0.54801709,2.3254911 C -0.53994279,2.3483055 -0.51195699,2.3594852 -0.49392699,2.3764822 z"
     id="path3397" />
  <path
     style="fill:none;fill-rule:evenodd;stroke:#000000;stroke-width:0.000845;stroke-linecap:butt;stroke-linejoin:miter;stroke-miterlimit:4;stroke-dasharray:none;stroke-opacity:1"
     d="M -0.68769289,-1.8418093 C -0.82280149,-1.7404779 -0.56253479,-1.4454538 -0.49350369,-1.3936804 C -0.34553909,-1.2827069 -0.24451629,-1.4551356 -0.16487579,-1.5878696 C -0.05450979,-1.771813 -0.02081459,-2.0147381 0.02931341,-2.2152501 C 0.05278601,-2.3091408 0.05581631,-2.5385816 0.01437571,-2.2899383 C -0.01389459,-2.120316 -0.13525679,-2.0000458 -0.26943919,-1.9463728 C -0.41110619,-1.889706 -0.56006119,-1.9439148 -0.68769289,-1.8418093 z"
     id="path3399" />
  <path
     style="fill:none;fill-rule:evenodd;stroke:#000000;stroke-width:0.000845;stroke-linecap:butt;stroke-linejoin:miter;stroke-miterlimit:4;stroke-dasharray:none;stroke-opacity:1"
     d="M -0.26943926,0.44364809 C 0.060703841,0.29790629 0.29139434,-0.040362609 0.23674624,-0.39764351 C 0.16318744,-0.037199909 -0.66706556,-0.10937371 -0.41881546,0.36895999 L -0.34860756,0.40503779 L -0.26943916,0.44364809 L -0.26943926,0.44364809 z"
     id="path3401" />
  <path
     style="fill:none;fill-rule:evenodd;stroke:#000000;stroke-width:0.00845;stroke-linecap:butt;stroke-linejoin:miter;stroke-miterlimit:4;stroke-dasharray:none;stroke-opacity:1"
     d="M 3.0915279,0.98140278 C 2.0786419,0.83319832 0.61818116,-0.28280418 1.4185131,-1.1546784 C -0.40255444,-0.54504658 1.7890387,1.8043881 3.0616525,1.4295317 C 3.2682007,1.3386416 3.3603227,1.068995 3.0915279,0.98140278 z"
     id="path3403" />
</svg>
