{
	"asset":{
		"generator":"Khronos glTF Blender I/O v4.1.62",
		"version":"2.0"
	},
	"extensionsUsed":[
		"KHR_materials_unlit"
	],
	"scene":0,
	"scenes":[
		{
			"name":"Scene",
			"nodes":[
				0
			]
		}
	],
	"nodes":[
		{
			"mesh":0,
			"name":"rock_low.002_Group58368.002",
			"rotation":[
				0.7071068286895752,
				0,
				0,
				0.7071068286895752
			]
		}
	],
	"materials":[
		{
			"doubleSided":true,
			"extensions":{
				"KHR_materials_unlit":{}
			},
			"name":"Material.001",
			"pbrMetallicRoughness":{
				"baseColorTexture":{
					"index":0
				},
				"metallicFactor":0,
				"roughnessFactor":0.9
			}
		}
	],
	"meshes":[
		{
			"name":"rock_low.002_Group58368.002",
			"primitives":[
				{
					"attributes":{
						"POSITION":0,
						"NORMAL":1,
						"TEXCOORD_0":2
					},
					"indices":3,
					"material":0
				}
			]
		}
	],
	"textures":[
		{
			"sampler":0,
			"source":0
		}
	],
	"images":[
		{
			"mimeType":"image/png",
			"name":"rock_diffuse.png",
			"uri":"rock_diffuse.png"
		}
	],
	"accessors":[
		{
			"bufferView":0,
			"componentType":5126,
			"count":552,
			"max":[
				0.9330877065658569,
				0.9883971810340881,
				0.7076806426048279
			],
			"min":[
				-0.8476263284683228,
				-0.9686447381973267,
				-0.8072972893714905
			],
			"type":"VEC3"
		},
		{
			"bufferView":1,
			"componentType":5126,
			"count":552,
			"type":"VEC3"
		},
		{
			"bufferView":2,
			"componentType":5126,
			"count":552,
			"type":"VEC2"
		},
		{
			"bufferView":3,
			"componentType":5123,
			"count":2970,
			"type":"SCALAR"
		}
	],
	"bufferViews":[
		{
			"buffer":0,
			"byteLength":6624,
			"byteOffset":0,
			"target":34962
		},
		{
			"buffer":0,
			"byteLength":6624,
			"byteOffset":6624,
			"target":34962
		},
		{
			"buffer":0,
			"byteLength":4416,
			"byteOffset":13248,
			"target":34962
		},
		{
			"buffer":0,
			"byteLength":5940,
			"byteOffset":17664,
			"target":34963
		}
	],
	"samplers":[
		{
			"magFilter":9729,
			"minFilter":9987
		}
	],
	"buffers":[
		{
			"byteLength":23604,
			"uri":"rock.bin"
		}
	]
}
