{
	"asset":{
		"generator":"Khronos glTF Blender I/O v5.0.21",
		"version":"2.0"
	},
	"scene":0,
	"scenes":[
		{
			"name":"Scene",
			"nodes":[
				0,
				2,
				3,
				4,
				5,
				6,
				7
			]
		}
	],
	"nodes":[
		{
			"mesh":0,
			"name":"Grid"
		},
		{
			"name":"transform_blocks",
			"rotation":[
				0,
				-0.23617073893547058,
				0,
				0.9717115759849548
			],
			"translation":[
				7.544641017913818,
				0,
				1.360372543334961
			]
		},
		{
			"children":[
				1
			],
			"mesh":1,
			"name":"top_and_legs",
			"scale":[
				1.1261996030807495,
				1,
				1
			],
			"translation":[
				-0.9306960105895996,
				6.2061381340026855,
				-15.196149826049805
			]
		},
		{
			"mesh":2,
			"name":"top_and_legs.001",
			"rotation":[
				0,
				-0.1743442565202713,
				0,
				0.9846847653388977
			],
			"scale":[
				1.1261996030807495,
				1,
				1
			],
			"translation":[
				8.39008903503418,
				6.2061381340026855,
				-30.357959747314453
			]
		},
		{
			"mesh":3,
			"name":"top_and_legs.002",
			"rotation":[
				0,
				0.39664924144744873,
				0,
				0.9179702401161194
			],
			"scale":[
				1.1261996030807495,
				1,
				1
			],
			"translation":[
				-18.205215454101562,
				6.2061381340026855,
				-26.505369186401367
			]
		},
		{
			"mesh":4,
			"name":"top_and_legs.003",
			"rotation":[
				0,
				-0.3656030297279358,
				0,
				0.9307708740234375
			],
			"scale":[
				1.1261996030807495,
				1,
				1
			],
			"translation":[
				-29.01732635498047,
				6.2061381340026855,
				28.300844192504883
			]
		},
		{
			"mesh":5,
			"name":"top_and_legs.004",
			"rotation":[
				0,
				-0.14350412786006927,
				0,
				0.9896498322486877
			],
			"scale":[
				1.12619948387146,
				1,
				1
			],
			"translation":[
				-17.708106994628906,
				6.2061381340026855,
				34.63897705078125
			]
		},
		{
			"mesh":6,
			"name":"top_and_legs.005",
			"rotation":[
				0,
				-0.09503866732120514,
				0,
				0.9954735636711121
			],
			"scale":[
				1.126199722290039,
				1,
				1
			],
			"translation":[
				-7.393104553222656,
				6.2061381340026855,
				39.361507415771484
			]
		}
	],
	"materials":[
		{
			"doubleSided":true,
			"name":"Material.001",
			"normalTexture":{
				"index":0
			},
			"pbrMetallicRoughness":{
				"baseColorTexture":{
					"index":1
				},
				"metallicFactor":0,
				"roughnessFactor":0.5
			}
		},
		{
			"doubleSided":true,
			"name":"stone",
			"normalTexture":{
				"index":2
			},
			"pbrMetallicRoughness":{
				"baseColorTexture":{
					"index":3
				},
				"metallicFactor":0,
				"roughnessFactor":0.5
			}
		}
	],
	"meshes":[
		{
			"name":"Grid",
			"primitives":[
				{
					"attributes":{
						"POSITION":0,
						"NORMAL":1,
						"TEXCOORD_0":2
					},
					"indices":3,
					"material":0
				}
			]
		},
		{
			"name":"top_and_legs_mesh",
			"primitives":[
				{
					"attributes":{
						"POSITION":4,
						"NORMAL":5,
						"TEXCOORD_0":6
					},
					"indices":7,
					"material":1
				}
			]
		},
		{
			"name":"top_and_legs_mesh",
			"primitives":[
				{
					"attributes":{
						"POSITION":8,
						"NORMAL":9,
						"TEXCOORD_0":10
					},
					"indices":11,
					"material":1
				}
			]
		},
		{
			"name":"top_and_legs_mesh",
			"primitives":[
				{
					"attributes":{
						"POSITION":12,
						"NORMAL":13,
						"TEXCOORD_0":14
					},
					"indices":11,
					"material":1
				}
			]
		},
		{
			"name":"top_and_legs_mesh",
			"primitives":[
				{
					"attributes":{
						"POSITION":15,
						"NORMAL":16,
						"TEXCOORD_0":17
					},
					"indices":11,
					"material":1
				}
			]
		},
		{
			"name":"top_and_legs_mesh",
			"primitives":[
				{
					"attributes":{
						"POSITION":18,
						"NORMAL":19,
						"TEXCOORD_0":20
					},
					"indices":11,
					"material":1
				}
			]
		},
		{
			"name":"top_and_legs_mesh",
			"primitives":[
				{
					"attributes":{
						"POSITION":21,
						"NORMAL":22,
						"TEXCOORD_0":23
					},
					"indices":11,
					"material":1
				}
			]
		}
	],
	"textures":[
		{
			"sampler":0,
			"source":0
		},
		{
			"sampler":0,
			"source":1
		},
		{
			"sampler":0,
			"source":2
		},
		{
			"sampler":0,
			"source":3
		}
	],
	"images":[
		{
			"mimeType":"image/jpeg",
			"name":"desert_cracks_n.jpg",
			"uri":"textures/desert_cracks_n.jpg"
		},
		{
			"mimeType":"image/jpeg",
			"name":"adesert_cracks_d.jpg",
			"uri":"textures/adesert_cracks_d.jpg"
		},
		{
			"mimeType":"image/jpeg",
			"name":"desert_mntn_n.jpg",
			"uri":"textures/desert_mntn_n.jpg"
		},
		{
			"mimeType":"image/jpeg",
			"name":"desert_mntn_h.jpg",
			"uri":"textures/desert_mntn_h.jpg"
		}
	],
	"accessors":[
		{
			"bufferView":0,
			"componentType":5126,
			"count":121,
			"max":[
				50,
				0,
				50
			],
			"min":[
				-50,
				0,
				-50
			],
			"type":"VEC3"
		},
		{
			"bufferView":1,
			"componentType":5126,
			"count":121,
			"type":"VEC3"
		},
		{
			"bufferView":2,
			"componentType":5126,
			"count":121,
			"type":"VEC2"
		},
		{
			"bufferView":3,
			"componentType":5123,
			"count":600,
			"type":"SCALAR"
		},
		{
			"bufferView":4,
			"componentType":5126,
			"count":2613,
			"max":[
				18.444908142089844,
				1.0535094738006592,
				33.560546875
			],
			"min":[
				-16.49781036376953,
				-6.20613956451416,
				-1.2232404947280884
			],
			"type":"VEC3"
		},
		{
			"bufferView":5,
			"componentType":5126,
			"count":2613,
			"type":"VEC3"
		},
		{
			"bufferView":6,
			"componentType":5126,
			"count":2613,
			"type":"VEC2"
		},
		{
			"bufferView":7,
			"componentType":5123,
			"count":5616,
			"type":"SCALAR"
		},
		{
			"bufferView":8,
			"componentType":5126,
			"count":201,
			"max":[
				4.738133907318115,
				1.0535094738006592,
				1.2865594625473022
			],
			"min":[
				-1.4808075428009033,
				-6.20613956451416,
				-1.2232404947280884
			],
			"type":"VEC3"
		},
		{
			"bufferView":9,
			"componentType":5126,
			"count":201,
			"type":"VEC3"
		},
		{
			"bufferView":10,
			"componentType":5126,
			"count":201,
			"type":"VEC2"
		},
		{
			"bufferView":11,
			"componentType":5123,
			"count":432,
			"type":"SCALAR"
		},
		{
			"bufferView":12,
			"componentType":5126,
			"count":201,
			"max":[
				4.738133907318115,
				1.0535094738006592,
				1.2865594625473022
			],
			"min":[
				-1.4808075428009033,
				-6.20613956451416,
				-1.2232404947280884
			],
			"type":"VEC3"
		},
		{
			"bufferView":13,
			"componentType":5126,
			"count":201,
			"type":"VEC3"
		},
		{
			"bufferView":14,
			"componentType":5126,
			"count":201,
			"type":"VEC2"
		},
		{
			"bufferView":15,
			"componentType":5126,
			"count":201,
			"max":[
				4.738133907318115,
				1.0535094738006592,
				1.2865594625473022
			],
			"min":[
				-1.4808075428009033,
				-6.20613956451416,
				-1.2232404947280884
			],
			"type":"VEC3"
		},
		{
			"bufferView":16,
			"componentType":5126,
			"count":201,
			"type":"VEC3"
		},
		{
			"bufferView":17,
			"componentType":5126,
			"count":201,
			"type":"VEC2"
		},
		{
			"bufferView":18,
			"componentType":5126,
			"count":201,
			"max":[
				4.738133907318115,
				1.0535094738006592,
				1.2865594625473022
			],
			"min":[
				-1.4808075428009033,
				-6.20613956451416,
				-1.2232404947280884
			],
			"type":"VEC3"
		},
		{
			"bufferView":19,
			"componentType":5126,
			"count":201,
			"type":"VEC3"
		},
		{
			"bufferView":20,
			"componentType":5126,
			"count":201,
			"type":"VEC2"
		},
		{
			"bufferView":21,
			"componentType":5126,
			"count":201,
			"max":[
				4.738133907318115,
				1.0535094738006592,
				1.2865594625473022
			],
			"min":[
				-1.4808075428009033,
				-6.20613956451416,
				-1.2232404947280884
			],
			"type":"VEC3"
		},
		{
			"bufferView":22,
			"componentType":5126,
			"count":201,
			"type":"VEC3"
		},
		{
			"bufferView":23,
			"componentType":5126,
			"count":201,
			"type":"VEC2"
		}
	],
	"bufferViews":[
		{
			"buffer":0,
			"byteLength":1452,
			"byteOffset":0,
			"target":34962
		},
		{
			"buffer":0,
			"byteLength":1452,
			"byteOffset":1452,
			"target":34962
		},
		{
			"buffer":0,
			"byteLength":968,
			"byteOffset":2904,
			"target":34962
		},
		{
			"buffer":0,
			"byteLength":1200,
			"byteOffset":3872,
			"target":34963
		},
		{
			"buffer":0,
			"byteLength":31356,
			"byteOffset":5072,
			"target":34962
		},
		{
			"buffer":0,
			"byteLength":31356,
			"byteOffset":36428,
			"target":34962
		},
		{
			"buffer":0,
			"byteLength":20904,
			"byteOffset":67784,
			"target":34962
		},
		{
			"buffer":0,
			"byteLength":11232,
			"byteOffset":88688,
			"target":34963
		},
		{
			"buffer":0,
			"byteLength":2412,
			"byteOffset":99920,
			"target":34962
		},
		{
			"buffer":0,
			"byteLength":2412,
			"byteOffset":102332,
			"target":34962
		},
		{
			"buffer":0,
			"byteLength":1608,
			"byteOffset":104744,
			"target":34962
		},
		{
			"buffer":0,
			"byteLength":864,
			"byteOffset":106352,
			"target":34963
		},
		{
			"buffer":0,
			"byteLength":2412,
			"byteOffset":107216,
			"target":34962
		},
		{
			"buffer":0,
			"byteLength":2412,
			"byteOffset":109628,
			"target":34962
		},
		{
			"buffer":0,
			"byteLength":1608,
			"byteOffset":112040,
			"target":34962
		},
		{
			"buffer":0,
			"byteLength":2412,
			"byteOffset":113648,
			"target":34962
		},
		{
			"buffer":0,
			"byteLength":2412,
			"byteOffset":116060,
			"target":34962
		},
		{
			"buffer":0,
			"byteLength":1608,
			"byteOffset":118472,
			"target":34962
		},
		{
			"buffer":0,
			"byteLength":2412,
			"byteOffset":120080,
			"target":34962
		},
		{
			"buffer":0,
			"byteLength":2412,
			"byteOffset":122492,
			"target":34962
		},
		{
			"buffer":0,
			"byteLength":1608,
			"byteOffset":124904,
			"target":34962
		},
		{
			"buffer":0,
			"byteLength":2412,
			"byteOffset":126512,
			"target":34962
		},
		{
			"buffer":0,
			"byteLength":2412,
			"byteOffset":128924,
			"target":34962
		},
		{
			"buffer":0,
			"byteLength":1608,
			"byteOffset":131336,
			"target":34962
		}
	],
	"samplers":[
		{
			"magFilter":9729,
			"minFilter":9987
		}
	],
	"buffers":[
		{
			"byteLength":132944,
			"uri":"sample_scenery.bin"
		}
	]
}
