{
	"asset":{
		"generator":"Khronos glTF Blender I/O v4.2.69",
		"version":"2.0"
	},
	"scene":0,
	"scenes":[
		{
			"name":"Scene",
			"nodes":[
				0
			]
		}
	],
	"nodes":[
		{
			"mesh":0,
			"name":"trophy",
			"rotation":[
				0.7062723636627197,
				-0.034341614693403244,
				-0.03434162586927414,
				0.7062723636627197
			],
			"scale":[
				5.790696620941162,
				5.790694713592529,
				5.790696620941162
			]
		}
	],
	"materials":[
		{
			"doubleSided":true,
			"name":"gold",
			"pbrMetallicRoughness":{
				"baseColorFactor":[
					1,
					0.6795426607131958,
					0,
					1
				],
				"metallicFactor":0,
				"roughnessFactor":0.5
			}
		},
		{
			"doubleSided":true,
			"name":"grey",
			"pbrMetallicRoughness":{
				"baseColorFactor":[
					0.004391442518681288,
					0.004391442518681288,
					0.004391442518681288,
					1
				],
				"metallicFactor":0,
				"roughnessFactor":0.5
			}
		}
	],
	"meshes":[
		{
			"name":"trophy",
			"primitives":[
				{
					"attributes":{
						"POSITION":0,
						"NORMAL":1
					},
					"indices":2,
					"material":0
				},
				{
					"attributes":{
						"POSITION":3,
						"NORMAL":4
					},
					"indices":5,
					"material":1
				}
			]
		}
	],
	"accessors":[
		{
			"bufferView":0,
			"componentType":5126,
			"count":2122,
			"max":[
				3.457489490509033,
				2.5903751850128174,
				-1.7950778007507324
			],
			"min":[
				-5.012285232543945,
				-2.5903751850128174,
				-9.583394050598145
			],
			"type":"VEC3"
		},
		{
			"bufferView":1,
			"componentType":5126,
			"count":2122,
			"type":"VEC3"
		},
		{
			"bufferView":2,
			"componentType":5123,
			"count":8904,
			"type":"SCALAR"
		},
		{
			"bufferView":3,
			"componentType":5126,
			"count":96,
			"max":[
				2.0840351581573486,
				2.0939111709594727,
				0.20314566791057587
			],
			"min":[
				-2.1107382774353027,
				-2.0939111709594727,
				-2.1197760105133057
			],
			"type":"VEC3"
		},
		{
			"bufferView":4,
			"componentType":5126,
			"count":96,
			"type":"VEC3"
		},
		{
			"bufferView":5,
			"componentType":5123,
			"count":180,
			"type":"SCALAR"
		}
	],
	"bufferViews":[
		{
			"buffer":0,
			"byteLength":25464,
			"byteOffset":0,
			"target":34962
		},
		{
			"buffer":0,
			"byteLength":25464,
			"byteOffset":25464,
			"target":34962
		},
		{
			"buffer":0,
			"byteLength":17808,
			"byteOffset":50928,
			"target":34963
		},
		{
			"buffer":0,
			"byteLength":1152,
			"byteOffset":68736,
			"target":34962
		},
		{
			"buffer":0,
			"byteLength":1152,
			"byteOffset":69888,
			"target":34962
		},
		{
			"buffer":0,
			"byteLength":360,
			"byteOffset":71040,
			"target":34963
		}
	],
	"buffers":[
		{
			"byteLength":71400,
			"uri":"trophy.bin"
		}
	]
}
