{
    "asset" : {
        "generator" : "Khronos glTF Blender I/O v1.1.46",
        "version" : "2.0"
    },
    "scene" : 0,
    "scenes" : [
        {
            "name" : "Scene",
            "nodes" : [
                0,
                1,
                2,
                3
            ]
        }
    ],
    "nodes" : [
        {
            "mesh" : 0,
            "name" : "Sphere.001",
            "rotation" : [
                -0.3420201241970062,
                0,
                0,
                0.9396926164627075
            ],
            "scale" : [
                0.15392759442329407,
                0.15392759442329407,
                0.15392759442329407
            ],
            "translation" : [
                0,
                0.8413252234458923,
                0.24342460930347443
            ]
        },
        {
            "mesh" : 1,
            "name" : "Sphere",
            "rotation" : [
                -0.3420201241970062,
                0,
                0,
                0.9396926164627075
            ],
            "scale" : [
                0.19379526376724243,
                0.19379526376724243,
                0.19379526376724243
            ],
            "translation" : [
                0,
                0.8413252234458923,
                0.24342460930347443
            ]
        },
        {
            "mesh" : 2,
            "name" : "Torus",
            "rotation" : [
                0.42261824011802673,
                0,
                0,
                0.9063078165054321
            ],
            "scale" : [
                0.17672447860240936,
                0.17672450840473175,
                0.17672450840473175
            ],
            "translation" : [
                0,
                0.8413252234458923,
                0.24342460930347443
            ]
        },
        {
            "mesh" : 3,
            "name" : "Circle",
            "rotation" : [
                -0.3420201241970062,
                0,
                0,
                0.9396926164627075
            ],
            "scale" : [
                0.42000001668930054,
                0.42000001668930054,
                0.42000001668930054
            ],
            "translation" : [
                0,
                0.5,
                0
            ]
        }
    ],
    "materials" : [
        {
            "doubleSided" : true,
            "emissiveFactor" : [
                0,
                0,
                0
            ],
            "name" : "Material.004",
            "pbrMetallicRoughness" : {
                "baseColorFactor" : [
                    0.800000011920929,
                    0.800000011920929,
                    0,
                    1
                ],
                "metallicFactor" : 0,
                "roughnessFactor" : 0.5
            }
        },
        {
            "alphaMode" : "BLEND",
            "doubleSided" : true,
            "emissiveFactor" : [
                0,
                0,
                0
            ],
            "name" : "Material.002",
            "pbrMetallicRoughness" : {
                "baseColorFactor" : [
                    0.800000011920929,
                    0.800000011920929,
                    0.800000011920929,
                    0.5
                ],
                "metallicFactor" : 0,
                "roughnessFactor" : 0.5
            }
        },
        {
            "alphaMode" : "BLEND",
            "doubleSided" : true,
            "emissiveFactor" : [
                0,
                0,
                0
            ],
            "name" : "Material.003",
            "pbrMetallicRoughness" : {
                "baseColorFactor" : [
                    0,
                    0,
                    0,
                    0.5
                ],
                "metallicFactor" : 0,
                "roughnessFactor" : 0.5
            }
        },
        {
            "doubleSided" : true,
            "emissiveFactor" : [
                0,
                0,
                0
            ],
            "name" : "Material.001",
            "pbrMetallicRoughness" : {
                "baseColorFactor" : [
                    0.3792594373226166,
                    0.3792594373226166,
                    0.800000011920929,
                    1
                ],
                "metallicFactor" : 0,
                "roughnessFactor" : 0.5
            }
        }
    ],
    "meshes" : [
        {
            "name" : "Sphere.001",
            "primitives" : [
                {
                    "attributes" : {
                        "POSITION" : 0,
                        "NORMAL" : 1
                    },
                    "indices" : 2,
                    "material" : 0
                }
            ]
        },
        {
            "name" : "Sphere",
            "primitives" : [
                {
                    "attributes" : {
                        "POSITION" : 3,
                        "NORMAL" : 4
                    },
                    "indices" : 5,
                    "material" : 1
                },
                {
                    "attributes" : {
                        "POSITION" : 6,
                        "NORMAL" : 7
                    },
                    "indices" : 8,
                    "material" : 2
                }
            ]
        },
        {
            "name" : "Torus",
            "primitives" : [
                {
                    "attributes" : {
                        "POSITION" : 9,
                        "NORMAL" : 10
                    },
                    "indices" : 11,
                    "material" : 3
                }
            ]
        },
        {
            "name" : "Circle",
            "primitives" : [
                {
                    "attributes" : {
                        "POSITION" : 12,
                        "NORMAL" : 13
                    },
                    "indices" : 14,
                    "material" : 3
                }
            ]
        }
    ],
    "accessors" : [
        {
            "bufferView" : 0,
            "componentType" : 5126,
            "count" : 482,
            "max" : [
                1.000000238418579,
                1,
                0.9999997019767761
            ],
            "min" : [
                -1,
                -1,
                -1.0000001192092896
            ],
            "type" : "VEC3"
        },
        {
            "bufferView" : 1,
            "componentType" : 5126,
            "count" : 482,
            "type" : "VEC3"
        },
        {
            "bufferView" : 2,
            "componentType" : 5123,
            "count" : 2880,
            "type" : "SCALAR"
        },
        {
            "bufferView" : 3,
            "componentType" : 5126,
            "count" : 471,
            "max" : [
                0.8975754976272583,
                0.9572865962982178,
                0.8188676238059998
            ],
            "min" : [
                -0.8975750207901001,
                -0.9572866559028625,
                -0.8969309329986572
            ],
            "type" : "VEC3"
        },
        {
            "bufferView" : 4,
            "componentType" : 5126,
            "count" : 471,
            "type" : "VEC3"
        },
        {
            "bufferView" : 5,
            "componentType" : 5123,
            "count" : 2772,
            "type" : "SCALAR"
        },
        {
            "bufferView" : 6,
            "componentType" : 5126,
            "count" : 23,
            "max" : [
                0.16902846097946167,
                0.7097036838531494,
                0.8294187784194946
            ],
            "min" : [
                -0.16902808845043182,
                -0.709703803062439,
                0.580843448638916
            ],
            "type" : "VEC3"
        },
        {
            "bufferView" : 7,
            "componentType" : 5126,
            "count" : 23,
            "type" : "VEC3"
        },
        {
            "bufferView" : 8,
            "componentType" : 5123,
            "count" : 84,
            "type" : "SCALAR"
        },
        {
            "bufferView" : 9,
            "componentType" : 5126,
            "count" : 576,
            "max" : [
                1.25,
                0.25,
                1.2500001192092896
            ],
            "min" : [
                -1.25,
                -0.25,
                -1.2500001192092896
            ],
            "type" : "VEC3"
        },
        {
            "bufferView" : 10,
            "componentType" : 5126,
            "count" : 576,
            "type" : "VEC3"
        },
        {
            "bufferView" : 11,
            "componentType" : 5123,
            "count" : 3456,
            "type" : "SCALAR"
        },
        {
            "bufferView" : 12,
            "componentType" : 5126,
            "count" : 256,
            "max" : [
                1,
                0.5,
                1
            ],
            "min" : [
                -1,
                0,
                -1
            ],
            "type" : "VEC3"
        },
        {
            "bufferView" : 13,
            "componentType" : 5126,
            "count" : 256,
            "type" : "VEC3"
        },
        {
            "bufferView" : 14,
            "componentType" : 5123,
            "count" : 768,
            "type" : "SCALAR"
        }
    ],
    "bufferViews" : [
        {
            "buffer" : 0,
            "byteLength" : 5784,
            "byteOffset" : 0
        },
        {
            "buffer" : 0,
            "byteLength" : 5784,
            "byteOffset" : 5784
        },
        {
            "buffer" : 0,
            "byteLength" : 5760,
            "byteOffset" : 11568
        },
        {
            "buffer" : 0,
            "byteLength" : 5652,
            "byteOffset" : 17328
        },
        {
            "buffer" : 0,
            "byteLength" : 5652,
            "byteOffset" : 22980
        },
        {
            "buffer" : 0,
            "byteLength" : 5544,
            "byteOffset" : 28632
        },
        {
            "buffer" : 0,
            "byteLength" : 276,
            "byteOffset" : 34176
        },
        {
            "buffer" : 0,
            "byteLength" : 276,
            "byteOffset" : 34452
        },
        {
            "buffer" : 0,
            "byteLength" : 168,
            "byteOffset" : 34728
        },
        {
            "buffer" : 0,
            "byteLength" : 6912,
            "byteOffset" : 34896
        },
        {
            "buffer" : 0,
            "byteLength" : 6912,
            "byteOffset" : 41808
        },
        {
            "buffer" : 0,
            "byteLength" : 6912,
            "byteOffset" : 48720
        },
        {
            "buffer" : 0,
            "byteLength" : 3072,
            "byteOffset" : 55632
        },
        {
            "buffer" : 0,
            "byteLength" : 3072,
            "byteOffset" : 58704
        },
        {
            "buffer" : 0,
            "byteLength" : 1536,
            "byteOffset" : 61776
        }
    ],
    "buffers" : [
        {
            "byteLength" : 63312,
            "uri" : "base.bin"
        }
    ]
}
