/* XPM */
static char *Pixmap[] = {
"64 71 256 3",
"000 c #18180B",
"001 c #1C1E11",
"002 c #1C2313",
"003 c #262817",
"004 c #2B321C",
"005 c #32341D",
"006 c #2D3623",
"007 c #353A25",
"008 c #3B452C",
"009 c #3C4633",
"010 c #3F5036",
"011 c #444729",
"012 c #454D32",
"013 c #4A512B",
"014 c #495538",
"015 c #52522D",
"016 c #525434",
"017 c #55563A",
"018 c #545935",
"019 c #535C3B",
"020 c #585A32",
"021 c #595D3B",
"022 c #4E603C",
"023 c #5B623A",
"024 c #654B2B",
"025 c #605937",
"026 c #735E36",
"027 c #646639",
"028 c #746239",
"029 c #72733E",
"030 c #495842",
"031 c #545C42",
"032 c #4F6348",
"033 c #596548",
"034 c #5C6A52",
"035 c #636543",
"036 c #61664D",
"037 c #636B44",
"038 c #636B4C",
"039 c #6B6C44",
"040 c #6B6B4A",
"041 c #636C53",
"042 c #6B714A",
"043 c #697458",
"044 c #766E41",
"045 c #767749",
"046 c #727552",
"047 c #71765C",
"048 c #737954",
"049 c #747B5C",
"050 c #7B7C54",
"051 c #7B7E5B",
"052 c #6C7862",
"053 c #737D64",
"054 c #7C815A",
"055 c #7A8468",
"056 c #7D8873",
"057 c #886D3E",
"058 c #8A7F4A",
"059 c #817B52",
"060 c #957746",
"061 c #84804B",
"062 c #828253",
"063 c #83845B",
"064 c #868A5C",
"065 c #8A8551",
"066 c #888658",
"067 c #8B8C56",
"068 c #8B8A5B",
"069 c #928E5A",
"070 c #96925C",
"071 c #828563",
"072 c #80856B",
"073 c #858964",
"074 c #848A6B",
"075 c #888665",
"076 c #8A8C63",
"077 c #8A8D6B",
"078 c #858C74",
"079 c #8C9169",
"080 c #879071",
"081 c #85917A",
"082 c #8B9273",
"083 c #8C937B",
"084 c #8D987F",
"085 c #908E60",
"086 c #908F73",
"087 c #969569",
"088 c #939573",
"089 c #91957B",
"090 c #959973",
"091 c #959A7B",
"092 c #9C9773",
"093 c #9B9B73",
"094 c #9B9C7B",
"095 c #9EA16F",
"096 c #9DA17A",
"097 c #A29C65",
"098 c #A29D6B",
"099 c #A99B6F",
"100 c #A19C74",
"101 c #A19E7C",
"102 c #A99B73",
"103 c #A6A26C",
"104 c #A3A273",
"105 c #A3A37B",
"106 c #A4A87E",
"107 c #AAA572",
"108 c #A9A47A",
"109 c #AAA974",
"110 c #ABAA7B",
"111 c #B0A86E",
"112 c #B2AB76",
"113 c #B8B27A",
"114 c #C4BA7C",
"115 c #8C9682",
"116 c #959B83",
"117 c #95A085",
"118 c #96A08A",
"119 c #9CA183",
"120 c #9CA28A",
"121 c #9DA887",
"122 c #9EA88A",
"123 c #9CA592",
"124 c #A2A583",
"125 c #A2A58B",
"126 c #A5A983",
"127 c #A5A98A",
"128 c #A9A583",
"129 c #ABAB83",
"130 c #AAAC8B",
"131 c #A6AC94",
"132 c #AEB186",
"133 c #ADB18C",
"134 c #ACB197",
"135 c #B0A781",
"136 c #B1AD82",
"137 c #B1AE8A",
"138 c #B2AF90",
"139 c #B3B183",
"140 c #B3B38B",
"141 c #B6B88D",
"142 c #BAB582",
"143 c #B9B68B",
"144 c #BDBA85",
"145 c #BCBA8C",
"146 c #B3B493",
"147 c #B2B59A",
"148 c #B5B992",
"149 c #B5B99B",
"150 c #BAB592",
"151 c #B9B59B",
"152 c #BBBA93",
"153 c #BBBC9B",
"154 c #ADB4A0",
"155 c #B7BBA4",
"156 c #BDBFB2",
"157 c #BCC095",
"158 c #BEC19C",
"159 c #BDC1A7",
"160 c #BDC4B3",
"161 c #C4BD87",
"162 c #C2BE95",
"163 c #C1BEA3",
"164 c #CAC389",
"165 c #C6C498",
"166 c #D6C98A",
"167 c #D5CC96",
"168 c #DBD18C",
"169 c #DAD298",
"170 c #C3C4A3",
"171 c #C3C4AB",
"172 c #C6C9A2",
"173 c #C5C9AB",
"174 c #C9C5A3",
"175 c #C8C5AB",
"176 c #CCCAA4",
"177 c #CBCBAB",
"178 c #C2C5B1",
"179 c #C4C8B2",
"180 c #C2C9B8",
"181 c #C8C6B3",
"182 c #CACCB3",
"183 c #CACDBA",
"184 c #CDD0A9",
"185 c #CDD0B4",
"186 c #CDD1BA",
"187 c #D2CDA4",
"188 c #D0CDB3",
"189 c #D3D1A3",
"190 c #D4D1AC",
"191 c #DBD5A3",
"192 c #DAD5AB",
"193 c #DDD8A2",
"194 c #DCD9AC",
"195 c #D2D2B4",
"196 c #D2D4BB",
"197 c #D6D8B4",
"198 c #D5D8BC",
"199 c #DAD5B4",
"200 c #D9D5BB",
"201 c #DCDAB4",
"202 c #DCDABB",
"203 c #E0CE91",
"204 c #E4D58E",
"205 c #E3D699",
"206 c #E5DBA5",
"207 c #E2DDB4",
"208 c #EBE09F",
"209 c #EBE1AB",
"210 c #E9E4B6",
"211 c #F3E6AB",
"212 c #F5EBB7",
"213 c #F9F1BC",
"214 c #C9CFC1",
"215 c #CFD2C1",
"216 c #D2D5C1",
"217 c #D5D9C3",
"218 c #D7D8CC",
"219 c #D8D6C2",
"220 c #DBDCC4",
"221 c #DBDDCB",
"222 c #DDE0C8",
"223 c #DFE2D2",
"224 c #E4DCC3",
"225 c #E4E3C3",
"226 c #E4E3CC",
"227 c #E9E5C2",
"228 c #EBE5CA",
"229 c #EAE9C3",
"230 c #EDEBCB",
"231 c #E2E4D4",
"232 c #E5E8D9",
"233 c #E8E7D2",
"234 c #EDECD3",
"235 c #E9EBDC",
"236 c #EFF0CF",
"237 c #EDF1DD",
"238 c #F2EBC3",
"239 c #F0EED6",
"240 c #F8F2C5",
"241 c #F3F2D2",
"242 c #F5F4DA",
"243 c #F7F8D3",
"244 c #F8F6D5",
"245 c #F8F7D8",
"246 c #FBF9D3",
"247 c #FBFADC",
"248 c #ECEDE1",
"249 c #EEF0E2",
"250 c #F8F6E2",
"251 c #FDFDE3",
"252 c #FEFEE8",
"253 c none",
"254 c black",
"255 c black",
"253253253253253253253253253253253253253253253253253253253253253253253253253253253253253253253253253253253253253253253253253253253253253253253253253253253101253253253253253253253253253253253253",
"253253253253253253253253253253253253253253253253253253253253253253253253253253253253253253253253253253253253253253253253253253253253253253253253253035088152174091253253253253253253253253253253",
"253253253253253253253253253253253253253253253253253253253253253253253253253253253253253253253253253253253253253253253253253253253253253253253088071018126197234127040253253253253253253253253253",
"253253253253253253253253253253253253253253253253253253253253253253253253253253253253253253253253253253253253253253253253253253253253253253173153077050129202242182124253253253253253253253253253",
"253253253253253253253253253253253253253253253253253253253253253253253253253253253253253253253253253253253253253253253253253253253253147220220153076063137202250237149253253253253253253253253253",
"253253253253253253253253253253253253253253253253253253253253253253253253253253253253253253253253253253253253253253253253253253101124185196149082071073132227242182074253253253253253253253253253",
"253253253253253253253253253253253253253253253253253253253253253253253253253253253253253253253253253253253253253253253253253152177173170127082049076095190228241195122253253253253253253253253253",
"253253253253253253253253253253253253253253253253253253253253253253253253253099102102102101100092092094101174150137086086130182184158148094054040076103199229241229091253253253253253253253253253",
"253253253253022022073088253253253253253253253253253253253253253253253253093071101083078120115089078131134181131052034014030149177158157096043023097145207229244228129253253253253253253253253253",
"253253253253038033074147159149100069058253253253253253253253253253253081056034118043053131056052083154154159116055055122091170184145141093037090161187207229241230130253253253253253253253253253",
"253253253253049089155226237235215124076061045253253253253055081123154056052081154080123078030030032009034115049047119159170184174143136079043100189194210230241236158253253253253253253253253253",
"253253253055051121182222220222179179155131073042055074116032030115160160131123134083154154155155123030010056033003006048127132050106093079046157190201207230236242177253253253253253253253253253",
"253253253055048124153184173173159158159131041030052034055081154123081131123080043014115055052115155056052123056047072096133140087087076079136157158190201230234241195158148177253253253253253253",
"253253253073051071106158158157149149134055033081043052160134123032030052116078034041154081034032118154118159155074009037124093079064045104096105141190202225230241242242242182253253253253253253",
"253253253094054050073148140127133154056008008081043056034052034055115115047053030034118081081120154131031081147038082047088090095054062064076076132184197227230245247230170253253253253253253253",
"253253253163063073046079094091130121036030053055131056034053055041118154052056034056131154134154155134118082127036055130090054129110090093076090106165201229230241245165058253253253253253253253",
"253253165177130101071053088082133119080083081084120056118081034032115123055041056052030056081030030053131154149086031119133129133141132105090104143167194201210229236143065253253253253253253253",
"253253177188163125042022046073077071084119055053034030084053056120083083052043123155154180183118123154155091120134121077119126124132140096090105139142109145194229236172135253253253253253253253",
"253253174182173146088033037080046074043047043078043056154154154043034055053031041160183215155115116183155179131134147091086071077096126106141140095076110189207230236172128253253253253253253253",
"253253158196159127082042054091049055022033033032030115155154043055053041055056115154159156053009030033078186185196183146091148132126124090106157172145164189225227210176152253253253253253253253",
"253253182186171096055080091083043049053117131043052134155131154083041031034053123134083008056116131041008121220226196186170124133094106079096172176132165190197194210210230225253253253253253253",
"253231221216149116082091084049038081154084052032032034083134047034055081043043131155047043131171179185122051119198220198233184093146148096073129172172184202230229229229243241197253253253253253",
"253253196178134119083055049022049160056010043154081008056154134115072116118053155155030159173170190170226146048126196173155220185184174158093096157184185198229225194191229241225170253253253253",
"253253253253127120116056037043154118055159179159155134155159159155120116089134178091072186190190152055195185146124163163041120222198195170148096096157184185202197192194229240197162165253253253",
"253253253253077125134055033131118055183198155171179196043130178091047036047072125012131190202190086051124195185184177127038031131185202197158105079143189189176190189191207229201174162253253253",
"253253253253080131116041074180160155186124146177181170012121155043037038119033086011153195190194051040079202190187158043031074043134185190184132136110164191192189194207207227190148152253253253",
"253253253091131123072049084155178218127082133170158146011116047071082051055054041017170165165189046016086199187162087037124216133043131082172129105095164167193193194209206210210202162145253253",
"253253253083134123053056115131147186074048126145105140088133043073091048014094035041140165162165100015087176190152079105177226220090153082130157157162165169169193209209206209238243227145145253",
"253253253091155116081041056124147182073042088136136136050071091079105040033021046101141145145142098023063141165176150172174195202130124158163133148187165191191206209209209205211243246194135135",
"253253253120155083115052043082148134046023096139109096016043019047091048046051021104142113113113097027050105148158141132105152148133130153197148140157176189193193209211210206211240251242172100",
"253253253134155055081081032077127130049027073096087085087019051126094054051077076059097103103098097068063064093124106092079042071104016031173158148064076167193193193209209209193212246252230093",
"253253253131118047053118053082088091082035079085068062045011096124090054051054039050045069103110165063011004007053042013004051132174162157158172158121050161193169167169209209169193240251236095",
"253253253147120053043055078080119122082037011042029027029042064096088094079088068045044085143190174007042011012063067007009174076148153202049096157176189189167167168205206211209209238251251184",
"253253253147134055052041043071047048021004005013039020023027085079126094130126100066050070192227133002045050054085029003127132040073119177117033093165172141087114168168204209212213213247252241",
"253253090155155053049033041038001039011000006003071051062050062076119126130138129100085104207202077003003035042015004089090088085037054054147034036140157076045164167203205209212213212245251245",
"253253088153155115034078077149009015029018011005031091045059063088124086124133153165137135190207085016006010017047136105073108141090133091146091010071132031062161164166203209209209212238251247",
"253253100178156083043043014093122007011013011000005077042042094127127074091149163158174150165207106129125186200175141126140165165172192176158157049019132085054068061070164205209169193213247251",
"253253094181131041030038046054093125053030009007008050050055091146134094127163175157126146172192139200202182216155147137174192192187187152153158152145161167113045013070164167194167169212243247",
"253253094171125041032034074091130090091127154123072072074071083127155119127170174177151094157150096174197182186159163141143162162187162126130225172145189205167113070113205191191193209212246243",
"253253088147120049032052055090101116134147160155115071071072116120125088127147170175172137152140079040158153151163148158152143165162176201202190088162210212209206206206210209167161169206236240",
"253253050134125047030033131091125091124131154131056040074078083120120127134146147155163149158157105035140174129126105139143143145145187192153087085207213213209208208211213240210169166194240229",
"253253063128131047014034049088119088091124084071043031078074089120119147131155147119158153158158110071101190190150139139145162165174093162145194206212213213206168204211212213213212212212240210",
"253253059130147051038047041051073073074077049043043037055078116116125131134125134147126130141140132105105187201176143165187164152094090209212211203206212206107097166208213213213213213240238194",
"253253059146151033019078043047023046048054033089049043072089118120131138131127146147133096126140129105129152190176187176143098165143169169212211206211212166045044114208212213213213213213238165",
"253253045138155049040119082072046023042037072091053041051089123123147147134131130147146105104129152135141141176176176145162145192206209212212203113205208113103111169212213212213213213210194161",
"253253253138171124077094138124086042035019072083055040049089120134134149130127130147130088106140150143162093174187187190174207191212213213213209206208167166166205211212213213213213213194167164",
"253253253135175163124124151101092077046021053072043051071083089134127127130149138146130094137087035174162162162165187165104207241213213212212211193167114203211212212211211212211211209167164169",
"253253253150195175128076092087071063075043049055072041051116116127126126106129146147133130140092139176192187165165174187192240246240240212212191111062075111206212213212211211211208167114164206",
"253253253187224200138045029059045042077086043074083051072118119124105090096129132146150096087130143187199206191165210227206238246240238212203135075053076167211238240213212211208114103113168193",
"253253253253224228188101025020045061076088047071089074082120120096088080073090096121133086039048165187192227206113207227207209230238212206169187143144167211209209212238208205114069070111164205",
"253253253253210228224138086050050075085119089082120083051082055049073038049080055056082063018079145165191167165165187241238238241240210212211206208205209212210209169205203164103070097097113166",
"253253253253253227228188137130124077075079094147147049041043009014043043052033020025008002036162110104104048101172227242227227225207238210209211210212209207191161166168166113070069103111164169",
"253253253253253253224224171138063023014042084082049038082006005028028042027057057003000000089194099100176192227238210225200227212193166114114205206209191164109112114168114114113161161164169193",
"253253253253253253187224183163125080072055155056043030091055002003026060060060011001007053202210193192191207207189165207227238207167068045111203169167108067070114166166166166203169169167169206",
"253253253253253253165224196170146094076091131147118072091170091010004026028060008043178234241238167164145110048140207192207210193113097113167167167107067085142164114166168205168205205193209189",
"253253253253253253150195220188153130124130125116082077130173217183120012025025040219239242230165069085012077140187145187229209167069070112164169164161144110087069114166203204168206206193169169",
"253253253253253253163219233196153130127138094119053018063124183220200177127007116158174190093050049075071143133106077162191189107070136164164167176162104042015044114169205205208206208169161103",
"253253253253253253151196234219158146133146127088082042042033071130159153159074055096133150153172133157096152048011071145145112145189161162165108106087045027029107166191169205194169193164107045",
"253253253253253253183248237200158131147147134096075055072082127124159149096059024039073134149170101126046018004008100145107136167142162105093051050045027069097114167168167189167164164113085064",
"253253253253253253186248235186148124147149149096066042022037072133134096004000000001009012043117096079071013007021139109112165164158090016018007023027069161169169193167113095087097103103095064",
"253253253253253130182235231183146124146147133093063050042013048076054004002006004010034033014014012014014011006050129139144162164110016012011045067114161169169193164142104067067067070109103095",
"253253253253253151218235231216179149126130133126079064044037014019012031047078043033091127105124146133091071049106108112142161165097068085097142114164203206169164142098070069085062061087097142",
"253253253253151178221231231218182149133127126128105079076075083089131088082083083042134130079147146153177149148139110113144144142142103113114166169203168205169165098045065069085061085104103144",
"253253253253138217223223223217182152105095093090079088086091119120116131072072119082155127082159233226228225190143142161162142136107069113164205206209209205205139069065065070069087109109107112",
"253253054073147221232232223216172140104105108129126101088087088131154156091134131082134117155185239250241234202139162139113092066040027112166166204205205205205166113111097097107109104085085113",
"253253116155217235248232222195157110126149158151128100101092128159183183151163182170181220239234234242234224199174162162136066015015065114166203205205208203203168166161113113112113105054063142",
"253253156218235248235221196158109105134178163146129130128124130159181181163188190200199224228239242228224152162158143128063039011044111167203166203203205168203203166164161111112095063045068114",
"253253214248248232221196155146154179183178163149147138130130130147151151186188190174174201224228236202152136101105076045042017011112161191205203205205205203164166114161113142107087042068107164",
"253253179231235220183160156160214214178171163153155146138128128126108130171188188174176176199199202184145101079046039059062059087161166191205203206203167165113145112112107104103110104095109139",
"253253159220198173149155159160214178171159170171163149146137129129105128153151181170158170174174174165137063039021066135162161162113164166166203205164098087066085103112079066103113132104095105",
"253253134185158096091079084131149171179183182175171153146158150140135126137146159163170174165174165145068011016045108165162167167161164166166166164142066045039045108113087085104109104095079048"
};
