<?xml version="1.0" encoding="UTF-8" standalone="no"?>
<svg
   xmlns:dc="http://purl.org/dc/elements/1.1/"
   xmlns:cc="http://creativecommons.org/ns#"
   xmlns:rdf="http://www.w3.org/1999/02/22-rdf-syntax-ns#"
   xmlns:svg="http://www.w3.org/2000/svg"
   xmlns="http://www.w3.org/2000/svg"
   xmlns:sodipodi="http://sodipodi.sourceforge.net/DTD/sodipodi-0.dtd"
   xmlns:inkscape="http://www.inkscape.org/namespaces/inkscape"
   viewBox="0 0 512 512"
   version="1.1"
   id="svg4"
   sodipodi:docname="compress.svg"
   inkscape:version="0.92.4 (5da689c313, 2019-01-14)"
   width="512"
   height="512">
  <metadata
     id="metadata10">
    <rdf:RDF>
      <cc:Work
         rdf:about="">
        <dc:format>image/svg+xml</dc:format>
        <dc:type
           rdf:resource="http://purl.org/dc/dcmitype/StillImage" />
        <dc:title></dc:title>
      </cc:Work>
    </rdf:RDF>
  </metadata>
  <defs
     id="defs8" />
  <sodipodi:namedview
     pagecolor="#ffffff"
     bordercolor="#666666"
     borderopacity="1"
     objecttolerance="10"
     gridtolerance="10"
     guidetolerance="10"
     inkscape:pageopacity="0"
     inkscape:pageshadow="2"
     inkscape:window-width="1920"
     inkscape:window-height="971"
     id="namedview6"
     showgrid="false"
     inkscape:zoom="0.921875"
     inkscape:cx="190.18105"
     inkscape:cy="209.23822"
     inkscape:window-x="0"
     inkscape:window-y="36"
     inkscape:window-maximized="1"
     inkscape:current-layer="svg4" />
  <path
     d="M 468,192 H 344 c -13.3,0 -24,-10.7 -24,-24 V 44 c 0,-6.6 5.4,-12 12,-12 h 40 c 6.6,0 12,5.4 12,12 v 84 h 84 c 6.6,0 12,5.4 12,12 v 40 c 0,6.6 -5.4,12 -12,12 z M 192,168 V 44 c 0,-6.6 -5.4,-12 -12,-12 h -40 c -6.6,0 -12,5.4 -12,12 v 84 H 44 c -6.6,0 -12,5.4 -12,12 v 40 c 0,6.6 5.4,12 12,12 h 124 c 13.3,0 24,-10.7 24,-24 z m 0,300 V 344 c 0,-13.3 -10.7,-24 -24,-24 H 44 c -6.6,0 -12,5.4 -12,12 v 40 c 0,6.6 5.4,12 12,12 h 84 v 84 c 0,6.6 5.4,12 12,12 h 40 c 6.6,0 12,-5.4 12,-12 z m 192,0 v -84 h 84 c 6.6,0 12,-5.4 12,-12 v -40 c 0,-6.6 -5.4,-12 -12,-12 H 344 c -13.3,0 -24,10.7 -24,24 v 124 c 0,6.6 5.4,12 12,12 h 40 c 6.6,0 12,-5.4 12,-12 z"
     id="path2"
     inkscape:connector-curvature="0" />
</svg>
