{
	"asset":{
		"generator":"Khronos glTF Blender I/O v5.0.21",
		"version":"2.0"
	},
	"extensionsUsed":[
		"KHR_lights_punctual"
	],
	"extensionsRequired":[
		"KHR_lights_punctual"
	],
	"extensions":{
		"KHR_lights_punctual":{
			"lights":[
				{
					"color":[
						1,
						1,
						1
					],
					"intensity":271.7570653294113,
					"type":"point",
					"name":"shared_light"
				}
			]
		}
	},
	"scene":0,
	"scenes":[
		{
			"name":"Scene",
			"nodes":[
				0,
				1,
				2,
				3,
				4,
				5,
				6,
				7,
				8,
				9,
				10,
				11,
				12,
				13,
				14,
				15,
				16,
				17,
				18,
				19,
				20
			]
		}
	],
	"nodes":[
		{
			"mesh":0,
			"name":"female_zombie_object.008",
			"rotation":[
				0.5267394185066223,
				-0.47174736857414246,
				0.47174739837646484,
				0.5267394781112671
			],
			"scale":[
				1,
				1,
				1.9597291946411133
			],
			"translation":[
				12.858760833740234,
				1.9406237602233887,
				6.344098091125488
			]
		},
		{
			"mesh":1,
			"name":"female_zombie_object.007",
			"rotation":[
				0.7050475478172302,
				-0.05392652004957199,
				0.05392652004957199,
				0.7050474882125854
			],
			"scale":[
				1,
				1,
				1.9597291946411133
			],
			"translation":[
				30.7034912109375,
				1.9406237602233887,
				-13.24767017364502
			]
		},
		{
			"mesh":2,
			"name":"female_zombie_object.006",
			"rotation":[
				0.2340051233768463,
				-0.6672642230987549,
				0.6672642827033997,
				0.2340051233768463
			],
			"scale":[
				1,
				1,
				1.9597291946411133
			],
			"translation":[
				21.9733829498291,
				1.9406301975250244,
				23.619915008544922
			]
		},
		{
			"mesh":3,
			"name":"female_zombie_object.005",
			"rotation":[
				0.1939285546541214,
				0.6799938678741455,
				-0.6799939274787903,
				0.1939285546541214
			],
			"scale":[
				1,
				1,
				1.9597291946411133
			],
			"translation":[
				14.054393768310547,
				1.9406334161758423,
				23.535419464111328
			]
		},
		{
			"mesh":4,
			"name":"male_zombie_object.003",
			"rotation":[
				0.5063469409942627,
				0.493571400642395,
				-0.4935714304447174,
				0.5063469409942627
			],
			"scale":[
				1,
				1,
				1.9597291946411133
			],
			"translation":[
				-39.98666763305664,
				1.9406408071517944,
				7.2143144607543945
			]
		},
		{
			"mesh":5,
			"name":"female_zombie_object.004",
			"rotation":[
				0.11303438991308212,
				0.6980138421058655,
				-0.6980137825012207,
				0.11303438991308212
			],
			"scale":[
				1,
				1,
				1.9597291946411133
			],
			"translation":[
				18.07294464111328,
				1.9406440258026123,
				14.828882217407227
			]
		},
		{
			"mesh":6,
			"name":"female_zombie_object.003",
			"rotation":[
				0.30589911341667175,
				0.6375153064727783,
				-0.6375153064727783,
				0.30589908361434937
			],
			"scale":[
				1,
				1,
				1.9597291946411133
			],
			"translation":[
				-37.23127365112305,
				1.9406399726867676,
				12.533580780029297
			]
		},
		{
			"mesh":7,
			"name":"female_zombie_object.002",
			"rotation":[
				0.6012917160987854,
				0.37208640575408936,
				-0.37208643555641174,
				0.6012916564941406
			],
			"scale":[
				1,
				1,
				1.9597291946411133
			],
			"translation":[
				-37.08152770996094,
				1.9406399726867676,
				1.7518682479858398
			]
		},
		{
			"mesh":8,
			"name":"female_zombie_object.001",
			"rotation":[
				0.7070610523223877,
				0.008045537397265434,
				-0.008045538328588009,
				0.7070610523223877
			],
			"scale":[
				1,
				1,
				1.9597291946411133
			],
			"translation":[
				-20.16023063659668,
				1.940641164779663,
				1.9016084671020508
			]
		},
		{
			"mesh":9,
			"name":"male_zombie_object.002",
			"rotation":[
				0.6720888018608093,
				0.21976517140865326,
				-0.21976517140865326,
				0.6720888018608093
			],
			"scale":[
				1,
				1,
				1.9597291946411133
			],
			"translation":[
				-4.640947341918945,
				1.9406479597091675,
				-25.858318328857422
			]
		},
		{
			"mesh":10,
			"name":"male_zombie_object.001",
			"rotation":[
				0.6726667284965515,
				-0.21798951923847198,
				0.21798951923847198,
				0.6726667881011963
			],
			"scale":[
				1,
				1,
				1.9597291946411133
			],
			"translation":[
				3.5644619464874268,
				1.9406440258026123,
				-25.530162811279297
			]
		},
		{
			"mesh":11,
			"name":"male_zombie_object",
			"rotation":[
				0.5544089674949646,
				-0.43889713287353516,
				0.43889716267585754,
				0.5544089674949646
			],
			"scale":[
				1,
				1,
				1.9597291946411133
			],
			"translation":[
				6.769095420837402,
				1.9406428337097168,
				-6.052207946777344
			]
		},
		{
			"mesh":12,
			"name":"female_zombie_object",
			"rotation":[
				0.7071068286895752,
				0,
				0,
				0.7071068286895752
			],
			"scale":[
				1,
				1,
				1.9597291946411133
			],
			"translation":[
				-0.24401244521141052,
				1.9406425952911377,
				-13.372490882873535
			]
		},
		{
			"extensions":{
				"KHR_lights_punctual":{
					"light":0
				}
			},
			"name":"light6",
			"rotation":[
				-0.7071068286895752,
				0,
				0,
				0.7071068286895752
			],
			"translation":[
				-1.663839340209961,
				2.2175514698028564,
				8.007244110107422
			]
		},
		{
			"extensions":{
				"KHR_lights_punctual":{
					"light":0
				}
			},
			"name":"light5",
			"rotation":[
				-0.7071068286895752,
				0,
				0,
				0.7071068286895752
			],
			"translation":[
				17.678333282470703,
				2.2175514698028564,
				19.654144287109375
			]
		},
		{
			"extensions":{
				"KHR_lights_punctual":{
					"light":0
				}
			},
			"name":"light4",
			"rotation":[
				-0.7071068286895752,
				0,
				0,
				0.7071068286895752
			],
			"translation":[
				29.221240997314453,
				2.2175514698028564,
				-5.09552001953125
			]
		},
		{
			"extensions":{
				"KHR_lights_punctual":{
					"light":0
				}
			},
			"name":"light2",
			"rotation":[
				-0.7071068286895752,
				0,
				0,
				0.7071068286895752
			],
			"translation":[
				-1.2478790283203125,
				2.2175514698028564,
				-24.749664306640625
			]
		},
		{
			"extensions":{
				"KHR_lights_punctual":{
					"light":0
				}
			},
			"name":"light3",
			"rotation":[
				-0.7071068286895752,
				0,
				0,
				0.7071068286895752
			],
			"translation":[
				-34.69634246826172,
				2.2175514698028564,
				6.863351821899414
			]
		},
		{
			"extensions":{
				"KHR_lights_punctual":{
					"light":0
				}
			},
			"name":"light1",
			"rotation":[
				-0.7071068286895752,
				0,
				0,
				0.7071068286895752
			],
			"translation":[
				0,
				2.2175514698028564,
				0
			]
		},
		{
			"mesh":13,
			"name":"Grid"
		},
		{
			"mesh":14,
			"name":"Grid.001"
		}
	],
	"materials":[
		{
			"alphaMode":"BLEND",
			"doubleSided":true,
			"name":"female_zombie_material.001",
			"pbrMetallicRoughness":{
				"baseColorTexture":{
					"index":0
				},
				"metallicFactor":0,
				"roughnessFactor":0.5
			}
		},
		{
			"alphaMode":"BLEND",
			"doubleSided":true,
			"name":"female_zombie_material.002",
			"pbrMetallicRoughness":{
				"baseColorTexture":{
					"index":1
				},
				"metallicFactor":0,
				"roughnessFactor":0.5
			}
		},
		{
			"alphaMode":"BLEND",
			"doubleSided":true,
			"name":"female_zombie_material.003",
			"pbrMetallicRoughness":{
				"baseColorTexture":{
					"index":2
				},
				"metallicFactor":0,
				"roughnessFactor":0.5
			}
		},
		{
			"alphaMode":"BLEND",
			"doubleSided":true,
			"name":"female_zombie_material.004",
			"pbrMetallicRoughness":{
				"baseColorTexture":{
					"index":3
				},
				"metallicFactor":0,
				"roughnessFactor":0.5
			}
		},
		{
			"alphaMode":"BLEND",
			"doubleSided":true,
			"name":"male_zombie_material.001",
			"pbrMetallicRoughness":{
				"baseColorTexture":{
					"index":4
				},
				"metallicFactor":0,
				"roughnessFactor":0.5
			}
		},
		{
			"alphaMode":"BLEND",
			"doubleSided":true,
			"name":"female_zombie_material.005",
			"pbrMetallicRoughness":{
				"baseColorTexture":{
					"index":5
				},
				"metallicFactor":0,
				"roughnessFactor":0.5
			}
		},
		{
			"alphaMode":"BLEND",
			"doubleSided":true,
			"name":"female_zombie_material.006",
			"pbrMetallicRoughness":{
				"baseColorTexture":{
					"index":6
				},
				"metallicFactor":0,
				"roughnessFactor":0.5
			}
		},
		{
			"alphaMode":"BLEND",
			"doubleSided":true,
			"name":"female_zombie_material.007",
			"pbrMetallicRoughness":{
				"baseColorTexture":{
					"index":7
				},
				"metallicFactor":0,
				"roughnessFactor":0.5
			}
		},
		{
			"alphaMode":"BLEND",
			"doubleSided":true,
			"name":"female_zombie_material.008",
			"pbrMetallicRoughness":{
				"baseColorTexture":{
					"index":8
				},
				"metallicFactor":0,
				"roughnessFactor":0.5
			}
		},
		{
			"alphaMode":"BLEND",
			"doubleSided":true,
			"name":"male_zombie_material.002",
			"pbrMetallicRoughness":{
				"baseColorTexture":{
					"index":9
				},
				"metallicFactor":0,
				"roughnessFactor":0.5
			}
		},
		{
			"alphaMode":"BLEND",
			"doubleSided":true,
			"name":"male_zombie_material.003",
			"pbrMetallicRoughness":{
				"baseColorTexture":{
					"index":10
				},
				"metallicFactor":0,
				"roughnessFactor":0.5
			}
		},
		{
			"alphaMode":"BLEND",
			"doubleSided":true,
			"name":"male_zombie_material",
			"pbrMetallicRoughness":{
				"baseColorTexture":{
					"index":11
				},
				"metallicFactor":0,
				"roughnessFactor":0.5
			}
		},
		{
			"alphaMode":"BLEND",
			"doubleSided":true,
			"name":"female_zombie_material",
			"pbrMetallicRoughness":{
				"baseColorTexture":{
					"index":12
				},
				"metallicFactor":0,
				"roughnessFactor":0.5
			}
		},
		{
			"doubleSided":true,
			"name":"walls",
			"pbrMetallicRoughness":{
				"baseColorFactor":[
					0.04232588782906532,
					0.5599162578582764,
					0.8000000715255737,
					1
				],
				"metallicFactor":0,
				"roughnessFactor":0.5
			}
		},
		{
			"doubleSided":true,
			"name":"floor_inside",
			"pbrMetallicRoughness":{
				"baseColorFactor":[
					0.501987099647522,
					0.8000000715255737,
					0.2031240463256836,
					1
				],
				"metallicFactor":0,
				"roughnessFactor":0.5
			}
		},
		{
			"doubleSided":true,
			"name":"floor_outside",
			"pbrMetallicRoughness":{
				"baseColorFactor":[
					0.07323651015758514,
					0.07323651015758514,
					0.07323651015758514,
					1
				],
				"metallicFactor":0,
				"roughnessFactor":0.5
			}
		}
	],
	"meshes":[
		{
			"name":"female_zombie_mesh.003",
			"primitives":[
				{
					"attributes":{
						"POSITION":0,
						"NORMAL":1,
						"TEXCOORD_0":2
					},
					"indices":3,
					"material":0
				}
			]
		},
		{
			"name":"female_zombie_mesh.004",
			"primitives":[
				{
					"attributes":{
						"POSITION":4,
						"NORMAL":5,
						"TEXCOORD_0":6
					},
					"indices":3,
					"material":1
				}
			]
		},
		{
			"name":"female_zombie_mesh.005",
			"primitives":[
				{
					"attributes":{
						"POSITION":7,
						"NORMAL":8,
						"TEXCOORD_0":9
					},
					"indices":3,
					"material":2
				}
			]
		},
		{
			"name":"female_zombie_mesh.006",
			"primitives":[
				{
					"attributes":{
						"POSITION":10,
						"NORMAL":11,
						"TEXCOORD_0":12
					},
					"indices":3,
					"material":3
				}
			]
		},
		{
			"name":"male_zombie_mesh",
			"primitives":[
				{
					"attributes":{
						"POSITION":13,
						"NORMAL":14,
						"TEXCOORD_0":15
					},
					"indices":3,
					"material":4
				}
			]
		},
		{
			"name":"female_zombie_mesh.007",
			"primitives":[
				{
					"attributes":{
						"POSITION":16,
						"NORMAL":17,
						"TEXCOORD_0":18
					},
					"indices":3,
					"material":5
				}
			]
		},
		{
			"name":"female_zombie_mesh.001",
			"primitives":[
				{
					"attributes":{
						"POSITION":19,
						"NORMAL":20,
						"TEXCOORD_0":21
					},
					"indices":3,
					"material":6
				}
			]
		},
		{
			"name":"female_zombie_mesh.008",
			"primitives":[
				{
					"attributes":{
						"POSITION":22,
						"NORMAL":23,
						"TEXCOORD_0":24
					},
					"indices":3,
					"material":7
				}
			]
		},
		{
			"name":"female_zombie_mesh.002",
			"primitives":[
				{
					"attributes":{
						"POSITION":25,
						"NORMAL":26,
						"TEXCOORD_0":27
					},
					"indices":3,
					"material":8
				}
			]
		},
		{
			"name":"male_zombie_mesh.003",
			"primitives":[
				{
					"attributes":{
						"POSITION":28,
						"NORMAL":29,
						"TEXCOORD_0":30
					},
					"indices":3,
					"material":9
				}
			]
		},
		{
			"name":"male_zombie_mesh.002",
			"primitives":[
				{
					"attributes":{
						"POSITION":31,
						"NORMAL":32,
						"TEXCOORD_0":33
					},
					"indices":3,
					"material":10
				}
			]
		},
		{
			"name":"male_zombie_mesh.001",
			"primitives":[
				{
					"attributes":{
						"POSITION":34,
						"NORMAL":35,
						"TEXCOORD_0":36
					},
					"indices":3,
					"material":11
				}
			]
		},
		{
			"name":"female_zombie_mesh",
			"primitives":[
				{
					"attributes":{
						"POSITION":37,
						"NORMAL":38,
						"TEXCOORD_0":39
					},
					"indices":3,
					"material":12
				}
			]
		},
		{
			"name":"Grid.001",
			"primitives":[
				{
					"attributes":{
						"POSITION":40,
						"NORMAL":41
					},
					"indices":42,
					"material":13
				},
				{
					"attributes":{
						"POSITION":43,
						"NORMAL":44
					},
					"indices":45,
					"material":14
				}
			]
		},
		{
			"name":"Grid.002",
			"primitives":[
				{
					"attributes":{
						"POSITION":46,
						"NORMAL":47
					},
					"indices":48,
					"material":15
				}
			]
		}
	],
	"textures":[
		{
			"sampler":0,
			"source":0
		},
		{
			"sampler":0,
			"source":0
		},
		{
			"sampler":0,
			"source":0
		},
		{
			"sampler":0,
			"source":0
		},
		{
			"sampler":0,
			"source":1
		},
		{
			"sampler":0,
			"source":0
		},
		{
			"sampler":0,
			"source":0
		},
		{
			"sampler":0,
			"source":0
		},
		{
			"sampler":0,
			"source":0
		},
		{
			"sampler":0,
			"source":1
		},
		{
			"sampler":0,
			"source":1
		},
		{
			"sampler":0,
			"source":1
		},
		{
			"sampler":0,
			"source":0
		}
	],
	"images":[
		{
			"mimeType":"image/png",
			"name":"Female-Zombie-300px.png.001",
			"uri":"../enemy_images/Female-Zombie-300px.png"
		},
		{
			"mimeType":"image/png",
			"name":"Male-Zombie-300px.png.001",
			"uri":"../enemy_images/Male-Zombie-300px.png"
		}
	],
	"accessors":[
		{
			"bufferView":0,
			"componentType":5126,
			"count":4,
			"max":[
				1,
				4.409208997913083e-08,
				1
			],
			"min":[
				-1,
				0,
				-0.48528122901916504
			],
			"type":"VEC3"
		},
		{
			"bufferView":1,
			"componentType":5126,
			"count":4,
			"type":"VEC3"
		},
		{
			"bufferView":2,
			"componentType":5126,
			"count":4,
			"type":"VEC2"
		},
		{
			"bufferView":3,
			"componentType":5123,
			"count":6,
			"type":"SCALAR"
		},
		{
			"bufferView":4,
			"componentType":5126,
			"count":4,
			"max":[
				1,
				4.409208997913083e-08,
				1
			],
			"min":[
				-1,
				0,
				-0.48528122901916504
			],
			"type":"VEC3"
		},
		{
			"bufferView":5,
			"componentType":5126,
			"count":4,
			"type":"VEC3"
		},
		{
			"bufferView":6,
			"componentType":5126,
			"count":4,
			"type":"VEC2"
		},
		{
			"bufferView":7,
			"componentType":5126,
			"count":4,
			"max":[
				1,
				4.409208997913083e-08,
				1
			],
			"min":[
				-1,
				0,
				-0.48528122901916504
			],
			"type":"VEC3"
		},
		{
			"bufferView":8,
			"componentType":5126,
			"count":4,
			"type":"VEC3"
		},
		{
			"bufferView":9,
			"componentType":5126,
			"count":4,
			"type":"VEC2"
		},
		{
			"bufferView":10,
			"componentType":5126,
			"count":4,
			"max":[
				1,
				4.409208997913083e-08,
				1
			],
			"min":[
				-1,
				0,
				-0.48528122901916504
			],
			"type":"VEC3"
		},
		{
			"bufferView":11,
			"componentType":5126,
			"count":4,
			"type":"VEC3"
		},
		{
			"bufferView":12,
			"componentType":5126,
			"count":4,
			"type":"VEC2"
		},
		{
			"bufferView":13,
			"componentType":5126,
			"count":4,
			"max":[
				1,
				4.409208997913083e-08,
				1
			],
			"min":[
				-1,
				0,
				-0.48528122901916504
			],
			"type":"VEC3"
		},
		{
			"bufferView":14,
			"componentType":5126,
			"count":4,
			"type":"VEC3"
		},
		{
			"bufferView":15,
			"componentType":5126,
			"count":4,
			"type":"VEC2"
		},
		{
			"bufferView":16,
			"componentType":5126,
			"count":4,
			"max":[
				1,
				4.409208997913083e-08,
				1
			],
			"min":[
				-1,
				0,
				-0.48528122901916504
			],
			"type":"VEC3"
		},
		{
			"bufferView":17,
			"componentType":5126,
			"count":4,
			"type":"VEC3"
		},
		{
			"bufferView":18,
			"componentType":5126,
			"count":4,
			"type":"VEC2"
		},
		{
			"bufferView":19,
			"componentType":5126,
			"count":4,
			"max":[
				1,
				4.409208997913083e-08,
				1
			],
			"min":[
				-1,
				0,
				-0.48528122901916504
			],
			"type":"VEC3"
		},
		{
			"bufferView":20,
			"componentType":5126,
			"count":4,
			"type":"VEC3"
		},
		{
			"bufferView":21,
			"componentType":5126,
			"count":4,
			"type":"VEC2"
		},
		{
			"bufferView":22,
			"componentType":5126,
			"count":4,
			"max":[
				1,
				4.409208997913083e-08,
				1
			],
			"min":[
				-1,
				0,
				-0.48528122901916504
			],
			"type":"VEC3"
		},
		{
			"bufferView":23,
			"componentType":5126,
			"count":4,
			"type":"VEC3"
		},
		{
			"bufferView":24,
			"componentType":5126,
			"count":4,
			"type":"VEC2"
		},
		{
			"bufferView":25,
			"componentType":5126,
			"count":4,
			"max":[
				1,
				4.409208997913083e-08,
				1
			],
			"min":[
				-1,
				0,
				-0.48528122901916504
			],
			"type":"VEC3"
		},
		{
			"bufferView":26,
			"componentType":5126,
			"count":4,
			"type":"VEC3"
		},
		{
			"bufferView":27,
			"componentType":5126,
			"count":4,
			"type":"VEC2"
		},
		{
			"bufferView":28,
			"componentType":5126,
			"count":4,
			"max":[
				1,
				4.409208997913083e-08,
				1
			],
			"min":[
				-1,
				0,
				-0.48528122901916504
			],
			"type":"VEC3"
		},
		{
			"bufferView":29,
			"componentType":5126,
			"count":4,
			"type":"VEC3"
		},
		{
			"bufferView":30,
			"componentType":5126,
			"count":4,
			"type":"VEC2"
		},
		{
			"bufferView":31,
			"componentType":5126,
			"count":4,
			"max":[
				1,
				4.409208997913083e-08,
				1
			],
			"min":[
				-1,
				0,
				-0.48528122901916504
			],
			"type":"VEC3"
		},
		{
			"bufferView":32,
			"componentType":5126,
			"count":4,
			"type":"VEC3"
		},
		{
			"bufferView":33,
			"componentType":5126,
			"count":4,
			"type":"VEC2"
		},
		{
			"bufferView":34,
			"componentType":5126,
			"count":4,
			"max":[
				1,
				4.409208997913083e-08,
				1
			],
			"min":[
				-1,
				0,
				-0.48528122901916504
			],
			"type":"VEC3"
		},
		{
			"bufferView":35,
			"componentType":5126,
			"count":4,
			"type":"VEC3"
		},
		{
			"bufferView":36,
			"componentType":5126,
			"count":4,
			"type":"VEC2"
		},
		{
			"bufferView":37,
			"componentType":5126,
			"count":4,
			"max":[
				1,
				4.409208997913083e-08,
				1
			],
			"min":[
				-1,
				0,
				-0.48528122901916504
			],
			"type":"VEC3"
		},
		{
			"bufferView":38,
			"componentType":5126,
			"count":4,
			"type":"VEC3"
		},
		{
			"bufferView":39,
			"componentType":5126,
			"count":4,
			"type":"VEC2"
		},
		{
			"bufferView":40,
			"componentType":5126,
			"count":528,
			"max":[
				33.99999237060547,
				4,
				26
			],
			"min":[
				-42,
				0,
				-29.999996185302734
			],
			"type":"VEC3"
		},
		{
			"bufferView":41,
			"componentType":5126,
			"count":528,
			"type":"VEC3"
		},
		{
			"bufferView":42,
			"componentType":5123,
			"count":1296,
			"type":"SCALAR"
		},
		{
			"bufferView":43,
			"componentType":5126,
			"count":419,
			"max":[
				33.99999237060547,
				0,
				26
			],
			"min":[
				-42,
				0,
				-29.999996185302734
			],
			"type":"VEC3"
		},
		{
			"bufferView":44,
			"componentType":5126,
			"count":419,
			"type":"VEC3"
		},
		{
			"bufferView":45,
			"componentType":5123,
			"count":1866,
			"type":"SCALAR"
		},
		{
			"bufferView":46,
			"componentType":5126,
			"count":1205,
			"max":[
				38,
				0,
				30.000001907348633
			],
			"min":[
				-48,
				0,
				-31.99999237060547
			],
			"type":"VEC3"
		},
		{
			"bufferView":47,
			"componentType":5126,
			"count":1205,
			"type":"VEC3"
		},
		{
			"bufferView":48,
			"componentType":5123,
			"count":6132,
			"type":"SCALAR"
		}
	],
	"bufferViews":[
		{
			"buffer":0,
			"byteLength":48,
			"byteOffset":0,
			"target":34962
		},
		{
			"buffer":0,
			"byteLength":48,
			"byteOffset":48,
			"target":34962
		},
		{
			"buffer":0,
			"byteLength":32,
			"byteOffset":96,
			"target":34962
		},
		{
			"buffer":0,
			"byteLength":12,
			"byteOffset":128,
			"target":34963
		},
		{
			"buffer":0,
			"byteLength":48,
			"byteOffset":140,
			"target":34962
		},
		{
			"buffer":0,
			"byteLength":48,
			"byteOffset":188,
			"target":34962
		},
		{
			"buffer":0,
			"byteLength":32,
			"byteOffset":236,
			"target":34962
		},
		{
			"buffer":0,
			"byteLength":48,
			"byteOffset":268,
			"target":34962
		},
		{
			"buffer":0,
			"byteLength":48,
			"byteOffset":316,
			"target":34962
		},
		{
			"buffer":0,
			"byteLength":32,
			"byteOffset":364,
			"target":34962
		},
		{
			"buffer":0,
			"byteLength":48,
			"byteOffset":396,
			"target":34962
		},
		{
			"buffer":0,
			"byteLength":48,
			"byteOffset":444,
			"target":34962
		},
		{
			"buffer":0,
			"byteLength":32,
			"byteOffset":492,
			"target":34962
		},
		{
			"buffer":0,
			"byteLength":48,
			"byteOffset":524,
			"target":34962
		},
		{
			"buffer":0,
			"byteLength":48,
			"byteOffset":572,
			"target":34962
		},
		{
			"buffer":0,
			"byteLength":32,
			"byteOffset":620,
			"target":34962
		},
		{
			"buffer":0,
			"byteLength":48,
			"byteOffset":652,
			"target":34962
		},
		{
			"buffer":0,
			"byteLength":48,
			"byteOffset":700,
			"target":34962
		},
		{
			"buffer":0,
			"byteLength":32,
			"byteOffset":748,
			"target":34962
		},
		{
			"buffer":0,
			"byteLength":48,
			"byteOffset":780,
			"target":34962
		},
		{
			"buffer":0,
			"byteLength":48,
			"byteOffset":828,
			"target":34962
		},
		{
			"buffer":0,
			"byteLength":32,
			"byteOffset":876,
			"target":34962
		},
		{
			"buffer":0,
			"byteLength":48,
			"byteOffset":908,
			"target":34962
		},
		{
			"buffer":0,
			"byteLength":48,
			"byteOffset":956,
			"target":34962
		},
		{
			"buffer":0,
			"byteLength":32,
			"byteOffset":1004,
			"target":34962
		},
		{
			"buffer":0,
			"byteLength":48,
			"byteOffset":1036,
			"target":34962
		},
		{
			"buffer":0,
			"byteLength":48,
			"byteOffset":1084,
			"target":34962
		},
		{
			"buffer":0,
			"byteLength":32,
			"byteOffset":1132,
			"target":34962
		},
		{
			"buffer":0,
			"byteLength":48,
			"byteOffset":1164,
			"target":34962
		},
		{
			"buffer":0,
			"byteLength":48,
			"byteOffset":1212,
			"target":34962
		},
		{
			"buffer":0,
			"byteLength":32,
			"byteOffset":1260,
			"target":34962
		},
		{
			"buffer":0,
			"byteLength":48,
			"byteOffset":1292,
			"target":34962
		},
		{
			"buffer":0,
			"byteLength":48,
			"byteOffset":1340,
			"target":34962
		},
		{
			"buffer":0,
			"byteLength":32,
			"byteOffset":1388,
			"target":34962
		},
		{
			"buffer":0,
			"byteLength":48,
			"byteOffset":1420,
			"target":34962
		},
		{
			"buffer":0,
			"byteLength":48,
			"byteOffset":1468,
			"target":34962
		},
		{
			"buffer":0,
			"byteLength":32,
			"byteOffset":1516,
			"target":34962
		},
		{
			"buffer":0,
			"byteLength":48,
			"byteOffset":1548,
			"target":34962
		},
		{
			"buffer":0,
			"byteLength":48,
			"byteOffset":1596,
			"target":34962
		},
		{
			"buffer":0,
			"byteLength":32,
			"byteOffset":1644,
			"target":34962
		},
		{
			"buffer":0,
			"byteLength":6336,
			"byteOffset":1676,
			"target":34962
		},
		{
			"buffer":0,
			"byteLength":6336,
			"byteOffset":8012,
			"target":34962
		},
		{
			"buffer":0,
			"byteLength":2592,
			"byteOffset":14348,
			"target":34963
		},
		{
			"buffer":0,
			"byteLength":5028,
			"byteOffset":16940,
			"target":34962
		},
		{
			"buffer":0,
			"byteLength":5028,
			"byteOffset":21968,
			"target":34962
		},
		{
			"buffer":0,
			"byteLength":3732,
			"byteOffset":26996,
			"target":34963
		},
		{
			"buffer":0,
			"byteLength":14460,
			"byteOffset":30728,
			"target":34962
		},
		{
			"buffer":0,
			"byteLength":14460,
			"byteOffset":45188,
			"target":34962
		},
		{
			"buffer":0,
			"byteLength":12264,
			"byteOffset":59648,
			"target":34963
		}
	],
	"samplers":[
		{
			"magFilter":9729,
			"minFilter":9987
		}
	],
	"buffers":[
		{
			"byteLength":71912,
			"uri":"level1.bin"
		}
	]
}
