<?xml version="1.0" encoding="iso-8859-1"?>
<!-- Generator: Adobe Illustrator 16.0.0, SVG Export Plug-In . SVG Version: 6.00 Build 0)  -->
<!DOCTYPE svg PUBLIC "-//W3C//DTD SVG 1.1//EN" "http://www.w3.org/Graphics/SVG/1.1/DTD/svg11.dtd">
<svg version="1.1" xmlns="http://www.w3.org/2000/svg" xmlns:xlink="http://www.w3.org/1999/xlink" x="0px" y="0px" width="1728px"
	 height="2191.2px" viewBox="0 0 1728 2191.2" style="enable-background:new 0 0 1728 2191.2;" xml:space="preserve">
<g id="Background_xA0_Obraz_1_" style="display:none;">
	
		<image style="display:inline;overflow:visible;" width="7200" height="9130" id="Background_xA0_Obraz" xlink:href="F0BFC23F.jpg"  transform="matrix(0.24 0 0 0.24 0 0)">
	</image>
</g>
<g id="Group_1_1_">
	<defs>
		<circle id="SVGID_1_" cx="310.47" cy="240.07" r="220.97"/>
	</defs>
	<use xlink:href="#SVGID_1_"  style="overflow:visible;fill:#FFFFFF;"/>
	<clipPath id="SVGID_2_">
		<use xlink:href="#SVGID_1_"  style="overflow:visible;"/>
	</clipPath>
	<g id="Warstwa_7" style="clip-path:url(#SVGID_2_);">
	</g>
	<circle style="clip-path:url(#SVGID_2_);fill:#F2F2F2;" cx="309.97" cy="240.07" r="220.97"/>
	<circle style="clip-path:url(#SVGID_2_);fill:#FFFFFF;" cx="371.5" cy="196.6" r="106.587"/>
	<path style="clip-path:url(#SVGID_2_);fill:#C1C1C1;" d="M391.75,298.51l-141.5-46.5l-248,146l101,65c0,0,165,8.5,166.5,7.5
		S391.75,298.51,391.75,298.51z"/>
	<path style="clip-path:url(#SVGID_2_);fill:#A5A5A5;" d="M544.5,310.809l-141.5-46.5l-248,146l101,65c0,0,165,8.5,166.5,7.5
		S544.5,310.809,544.5,310.809z"/>
	<polyline style="clip-path:url(#SVGID_2_);fill:#969696;" points="402,492.1 103.5,414.1 34,324.1 162,255.1 425,369.6 	"/>
	<polyline style="clip-path:url(#SVGID_2_);fill:#767676;" points="558.5,384.1 424.5,332.6 172.5,442.6 338.5,483.6 	"/>
	<polyline style="clip-path:url(#SVGID_2_);fill:#4F4F4F;" points="150.333,201.6 235.667,151.6 366,188.267 262.667,229.599 	"/>
	<polyline style="clip-path:url(#SVGID_2_);fill:#5F5F5F;" points="325.25,117.85 324,136.1 344,141.266 343.333,108.6 	"/>
	<polyline style="clip-path:url(#SVGID_2_);fill:#5F5F5F;" points="164,122.934 164,146.6 180.2,136.1 180.2,127.35 	"/>
	<polyline style="clip-path:url(#SVGID_2_);fill:#5F5F5F;" points="197,106.267 197,123.6 213.219,119.961 213.5,110.975 	"/>
	<polyline style="clip-path:url(#SVGID_2_);fill:#5F5F5F;" points="292,98.6 292,117.267 274.08,111.357 275.125,107.934 	"/>
	<polyline style="clip-path:url(#SVGID_2_);fill:#6A6A6A;" points="235.667,70.6 218.333,83.267 218.333,110.6 197,123.6 
		197,106.267 182,116.934 182,134.934 164,146.6 164,122.934 151.631,131.682 150.333,201.6 235.667,151.6 235.667,70.6 	"/>
	<polygon style="clip-path:url(#SVGID_2_);fill:#B2B2B2;" points="235.667,151.6 366,188.267 363.333,116.934 343.333,108.6 
		343.333,134.267 314.333,124.6 314.333,106.267 292,98.6 292,117.267 260.667,106.934 259.443,79.16 235.667,70.6 	"/>
	<polyline style="clip-path:url(#SVGID_2_);fill:#6A6A6A;" points="240.333,169.263 182.212,201.548 175.5,448.264 240.333,465.262 
			"/>
	<polyline style="clip-path:url(#SVGID_2_);fill:#B2B2B2;" points="240.333,470.592 332,467.764 324,192.434 240.333,169.263 	"/>
</g>
</svg>
