<?xml version="1.0" encoding="UTF-8" standalone="no"?>
<!-- Generator: Adobe Illustrator 16.0.0, SVG Export Plug-In . SVG Version: 6.00 Build 0)  -->

<svg
   xmlns:dc="http://purl.org/dc/elements/1.1/"
   xmlns:cc="http://creativecommons.org/ns#"
   xmlns:rdf="http://www.w3.org/1999/02/22-rdf-syntax-ns#"
   xmlns:svg="http://www.w3.org/2000/svg"
   xmlns="http://www.w3.org/2000/svg"
   xmlns:xlink="http://www.w3.org/1999/xlink"
   xmlns:sodipodi="http://sodipodi.sourceforge.net/DTD/sodipodi-0.dtd"
   xmlns:inkscape="http://www.inkscape.org/namespaces/inkscape"
   version="1.1"
   x="0px"
   y="0px"
   width="256"
   height="256"
   viewBox="0 0 256 256"
   xml:space="preserve"
   id="svg2"
   inkscape:version="0.91 r13725"
   sodipodi:docname="castle_game_engine_icon_grayscale.svg"><metadata
     id="metadata50"><rdf:RDF><cc:Work
         rdf:about=""><dc:format>image/svg+xml</dc:format><dc:type
           rdf:resource="http://purl.org/dc/dcmitype/StillImage" /><dc:title></dc:title></cc:Work></rdf:RDF></metadata><defs
     id="defs48" /><sodipodi:namedview
     pagecolor="#ffffff"
     bordercolor="#666666"
     borderopacity="0.49019608"
     objecttolerance="10"
     gridtolerance="10"
     guidetolerance="10"
     inkscape:pageopacity="0"
     inkscape:pageshadow="2"
     inkscape:window-width="1920"
     inkscape:window-height="976"
     id="namedview46"
     showgrid="false"
     fit-margin-top="0"
     fit-margin-left="0"
     fit-margin-right="0"
     fit-margin-bottom="0"
     inkscape:snap-page="true"
     inkscape:snap-bbox="true"
     inkscape:bbox-paths="true"
     inkscape:bbox-nodes="true"
     inkscape:showpageshadow="false"
     inkscape:zoom="1.2185265"
     inkscape:cx="143.92379"
     inkscape:cy="72.767343"
     inkscape:window-x="0"
     inkscape:window-y="42"
     inkscape:window-maximized="1"
     inkscape:current-layer="svg2" /><g
     id="Background_xA0_Obraz_1_"
     style="display:none"
     transform="translate(-89.5,-205.04001)"><image
       sodipodi:absref="/home/michalis/sources/castle-engine/castle-engine/doc/logo/unused/F0BFC23F.jpg"
       xlink:href="F0BFC23F.jpg"
       transform="scale(0.24,0.24)"
       id="Background_xA0_Obraz"
       height="9130"
       width="7200"
       style="display:inline;overflow:visible" /></g><g
     id="Group_1_1_"
     transform="matrix(0.57926415,0,0,0.57926415,-51.844142,-11.063949)"><defs
       id="defs7"><circle
         id="SVGID_1_"
         cx="310.47"
         cy="240.07001"
         r="220.97" /></defs><use
       xlink:href="#SVGID_1_"
       style="overflow:visible;fill:#ffffff"
       id="use10"
       x="0"
       y="0"
       width="100%"
       height="100%" /><clipPath
       id="SVGID_2_"><use
         xlink:href="#SVGID_1_"
         style="overflow:visible"
         id="use13"
         x="0"
         y="0"
         width="100%"
         height="100%" /></clipPath><g
       id="Warstwa_7"
       clip-path="url(#SVGID_2_)" /><circle
       style="fill:#f2f2f2"
       cx="309.97"
       cy="240.07001"
       r="220.97"
       id="circle16"
       clip-path="url(#SVGID_2_)" /><circle
       style="fill:#ffffff"
       cx="371.5"
       cy="196.60001"
       r="106.587"
       id="circle18"
       clip-path="url(#SVGID_2_)" /><path
       style="fill:#c1c1c1"
       d="m 391.75,298.51 -141.5,-46.5 -248,146 101,65 c 0,0 165,8.5 166.5,7.5 1.5,-1 122,-172 122,-172 z"
       id="path20"
       clip-path="url(#SVGID_2_)"
       inkscape:connector-curvature="0" /><path
       style="fill:#a5a5a5"
       d="m 544.5,310.809 -141.5,-46.5 -248,146 101,65 c 0,0 165,8.5 166.5,7.5 1.5,-1 122,-172 122,-172 z"
       id="path22"
       clip-path="url(#SVGID_2_)"
       inkscape:connector-curvature="0" /><polyline
       style="fill:#969696"
       points="402,492.1 103.5,414.1 34,324.1 162,255.1 425,369.6  "
       id="polyline24"
       clip-path="url(#SVGID_2_)" /><polyline
       style="fill:#767676"
       points="558.5,384.1 424.5,332.6 172.5,442.6 338.5,483.6  "
       id="polyline26"
       clip-path="url(#SVGID_2_)" /><polyline
       style="fill:#4f4f4f"
       points="150.333,201.6 235.667,151.6 366,188.267 262.667,229.599  "
       id="polyline28"
       clip-path="url(#SVGID_2_)" /><polyline
       style="fill:#5f5f5f"
       points="325.25,117.85 324,136.1 344,141.266 343.333,108.6  "
       id="polyline30"
       clip-path="url(#SVGID_2_)" /><polyline
       style="fill:#5f5f5f"
       points="164,122.934 164,146.6 180.2,136.1 180.2,127.35  "
       id="polyline32"
       clip-path="url(#SVGID_2_)" /><polyline
       style="fill:#5f5f5f"
       points="197,106.267 197,123.6 213.219,119.961 213.5,110.975  "
       id="polyline34"
       clip-path="url(#SVGID_2_)" /><polyline
       style="fill:#5f5f5f"
       points="292,98.6 292,117.267 274.08,111.357 275.125,107.934  "
       id="polyline36"
       clip-path="url(#SVGID_2_)" /><polyline
       style="fill:#6a6a6a"
       points="235.667,70.6 218.333,83.267 218.333,110.6 197,123.6    197,106.267 182,116.934 182,134.934 164,146.6 164,122.934 151.631,131.682 150.333,201.6 235.667,151.6 235.667,70.6  "
       id="polyline38"
       clip-path="url(#SVGID_2_)" /><polygon
       style="fill:#b2b2b2"
       points="235.667,151.6 366,188.267 363.333,116.934 343.333,108.6 343.333,134.267 314.333,124.6 314.333,106.267 292,98.6 292,117.267 260.667,106.934 259.443,79.16 235.667,70.6 "
       id="polygon40"
       clip-path="url(#SVGID_2_)" /><polyline
       style="fill:#6a6a6a"
       points="240.333,169.263 182.212,201.548 175.5,448.264 240.333,465.262     "
       id="polyline42"
       clip-path="url(#SVGID_2_)" /><polyline
       style="fill:#b2b2b2"
       points="240.333,470.592 332,467.764 324,192.434 240.333,169.263  "
       id="polyline44"
       clip-path="url(#SVGID_2_)" /></g></svg>