<?xml version="1.0" encoding="iso-8859-1"?>
<!-- Generator: Adobe Illustrator 16.0.0, SVG Export Plug-In . SVG Version: 6.00 Build 0)  -->
<!DOCTYPE svg PUBLIC "-//W3C//DTD SVG 1.1//EN" "http://www.w3.org/Graphics/SVG/1.1/DTD/svg11.dtd">
<svg version="1.1" xmlns="http://www.w3.org/2000/svg" xmlns:xlink="http://www.w3.org/1999/xlink" x="0px" y="0px" width="1728px"
	 height="2191.2px" viewBox="0 0 1728 2191.2" style="enable-background:new 0 0 1728 2191.2;" xml:space="preserve">
<g id="Background_xA0_Obraz_1_" style="display:none;">
	
		<image style="display:inline;overflow:visible;" width="7200" height="9130" id="Background_xA0_Obraz" xlink:href="9909F56E.jpg"  transform="matrix(0.24 0 0 0.24 0 0)">
	</image>
</g>
<g id="Group_1_1_">
	<defs>
		<circle id="SVGID_1_" cx="310.47" cy="240.07" r="220.97"/>
	</defs>
	<use xlink:href="#SVGID_1_"  style="overflow:visible;fill:#FFFFFF;"/>
	<clipPath id="SVGID_2_">
		<use xlink:href="#SVGID_1_"  style="overflow:visible;"/>
	</clipPath>
	<g id="Warstwa_7" style="clip-path:url(#SVGID_2_);">
	</g>
	<circle style="clip-path:url(#SVGID_2_);fill:#C1C1C1;" cx="309.97" cy="240.07" r="220.97"/>
	<g style="clip-path:url(#SVGID_2_);">
		<polyline style="fill:#828282;" points="198.97,222.899 284.303,172.899 414.637,209.566 311.303,250.898 		"/>
		<g>
			<line style="fill:none;stroke:#000000;stroke-miterlimit:10;" x1="198.97" y1="222.899" x2="204.147" y2="219.866"/>
			
				<line style="fill:none;stroke:#000000;stroke-miterlimit:10;stroke-dasharray:12.4147,12.4147;" x1="214.858" y1="213.59" x2="273.771" y2="179.071"/>
			<polyline style="fill:none;stroke:#000000;stroke-miterlimit:10;" points="279.126,175.933 284.303,172.899 290.079,174.524 			
				"/>
			
				<line style="fill:none;stroke:#000000;stroke-miterlimit:10;stroke-dasharray:11.2176,11.2176;" x1="300.877" y1="177.562" x2="403.462" y2="206.422"/>
			<polyline style="fill:none;stroke:#000000;stroke-miterlimit:10;" points="408.861,207.941 414.637,209.566 409.066,211.794 			
				"/>
			
				<line style="fill:none;stroke:#000000;stroke-miterlimit:10;stroke-dasharray:11.0326,11.0326;" x1="398.822" y1="215.892" x2="321.996" y2="246.622"/>
			<line style="fill:none;stroke:#000000;stroke-miterlimit:10;" x1="316.874" y1="248.67" x2="311.303" y2="250.898"/>
		</g>
	</g>
	<g style="clip-path:url(#SVGID_2_);">
		<polyline style="fill:#828282;" points="373.887,139.149 372.637,157.399 392.637,162.565 391.97,129.899 		"/>
		<g>
			<line style="fill:none;stroke:#000000;stroke-miterlimit:10;" x1="373.887" y1="139.149" x2="373.477" y2="145.135"/>
			<polyline style="fill:none;stroke:#000000;stroke-miterlimit:10;" points="373.047,151.414 372.637,157.399 378.446,158.9 			"/>
			<polyline style="fill:none;stroke:#000000;stroke-miterlimit:10;" points="386.827,161.064 392.637,162.565 392.514,156.566 			
				"/>
			
				<line style="fill:none;stroke:#000000;stroke-miterlimit:10;stroke-dasharray:6.8908,6.8908;" x1="392.374" y1="149.677" x2="392.163" y2="139.343"/>
			<line style="fill:none;stroke:#000000;stroke-miterlimit:10;" x1="392.093" y1="135.898" x2="391.97" y2="129.899"/>
		</g>
	</g>
	<polyline style="clip-path:url(#SVGID_2_);fill:#828282;stroke:#000000;stroke-miterlimit:10;stroke-dasharray:12;" points="
		212.47,144.233 212.47,167.899 228.67,157.399 228.67,148.649 	"/>
	<polyline style="clip-path:url(#SVGID_2_);fill:#828282;stroke:#000000;stroke-miterlimit:10;" points="245.47,127.566 
		245.47,144.899 261.689,141.261 261.97,132.274 	"/>
	<g style="clip-path:url(#SVGID_2_);">
		<polyline style="fill:#828282;" points="340.625,119.899 340.625,138.566 322.705,132.656 323.75,129.233 		"/>
		<g>
			
				<line style="fill:none;stroke:#000000;stroke-width:0.75;stroke-miterlimit:10;" x1="340.625" y1="119.899" x2="340.625" y2="125.899"/>
			<polyline style="fill:none;stroke:#000000;stroke-width:0.75;stroke-miterlimit:10;" points="340.625,132.566 340.625,138.566 
				334.927,136.687 			"/>
			<polyline style="fill:none;stroke:#000000;stroke-width:0.75;stroke-miterlimit:10;" points="328.403,134.536 322.705,132.656 
				323.75,129.233 			"/>
		</g>
	</g>
	<g style="clip-path:url(#SVGID_2_);">
		<polyline style="fill:#CCCCCC;" points="284.137,91.899 266.804,104.566 266.804,131.899 245.47,144.899 245.47,127.566 
			230.47,138.233 230.47,156.233 212.47,167.899 212.47,144.233 200.102,152.981 198.804,222.899 284.137,172.899 284.137,91.899 		
			"/>
		<g>
			
				<line style="fill:none;stroke:#000000;stroke-width:0.75;stroke-miterlimit:10;" x1="284.137" y1="91.899" x2="279.292" y2="95.439"/>
			<polyline style="fill:none;stroke:#000000;stroke-width:0.75;stroke-miterlimit:10;" points="271.648,101.026 266.804,104.566 
				266.804,110.566 			"/>
			<polyline style="fill:none;stroke:#000000;stroke-width:0.75;stroke-miterlimit:10;" points="266.804,125.899 266.804,131.899 
				261.68,135.021 			"/>
			<polyline style="fill:none;stroke:#000000;stroke-width:0.75;stroke-miterlimit:10;" points="250.594,141.777 245.47,144.899 
				245.47,138.899 			"/>
			<polyline style="fill:none;stroke:#000000;stroke-width:0.75;stroke-miterlimit:10;" points="245.47,133.566 245.47,127.566 
				240.581,131.043 			"/>
			<polyline style="fill:none;stroke:#000000;stroke-width:0.75;stroke-miterlimit:10;" points="235.36,134.756 230.47,138.233 
				230.47,144.233 			"/>
			<polyline style="fill:none;stroke:#000000;stroke-width:0.75;stroke-miterlimit:10;" points="230.47,150.233 230.47,156.233 
				225.435,159.496 			"/>
			<polyline style="fill:none;stroke:#000000;stroke-width:0.75;stroke-miterlimit:10;" points="217.505,164.636 212.47,167.899 
				212.47,161.899 			"/>
			<polyline style="fill:none;stroke:#000000;stroke-width:0.75;stroke-miterlimit:10;" points="212.47,150.233 212.47,144.233 
				207.572,147.698 			"/>
			<polyline style="fill:none;stroke:#000000;stroke-width:0.75;stroke-miterlimit:10;" points="205,149.517 200.102,152.981 
				199.99,158.98 			"/>
			
				<line style="fill:none;stroke:#000000;stroke-width:0.75;stroke-miterlimit:10;stroke-dasharray:11.586,11.586;" x1="199.775" y1="170.564" x2="199.022" y2="211.108"/>
			<polyline style="fill:none;stroke:#000000;stroke-width:0.75;stroke-miterlimit:10;" points="198.915,216.9 198.804,222.899 
				203.98,219.866 			"/>
			
				<line style="fill:none;stroke:#000000;stroke-width:0.75;stroke-miterlimit:10;stroke-dasharray:12.4147,12.4147;" x1="214.692" y1="213.59" x2="273.604" y2="179.071"/>
			<polyline style="fill:none;stroke:#000000;stroke-width:0.75;stroke-miterlimit:10;" points="278.96,175.933 284.137,172.899 
				284.137,166.899 			"/>
			
				<line style="fill:none;stroke:#000000;stroke-width:0.75;stroke-miterlimit:10;stroke-dasharray:13.8,13.8;" x1="284.137" y1="153.099" x2="284.137" y2="104.799"/>
			
				<line style="fill:none;stroke:#000000;stroke-width:0.75;stroke-miterlimit:10;" x1="284.137" y1="97.899" x2="284.137" y2="91.899"/>
		</g>
	</g>
	<g style="clip-path:url(#SVGID_2_);">
		<polygon style="fill:#FFFFFF;" points="284.303,172.899 414.637,209.566 411.97,138.233 391.97,129.899 391.97,155.566 
			362.97,145.899 362.97,127.566 340.637,119.899 340.637,138.566 309.303,128.233 308.08,100.459 284.303,91.899 		"/>
		<g>
			<polygon points="284.32,166.899 284.303,172.899 284.303,172.899 290.083,174.508 290.074,174.541 284.303,172.899 
				284.303,172.899 284.286,166.899 			"/>
			<polygon points="300.891,177.515 311.698,180.522 311.654,180.678 300.864,177.609 			"/>
			<polygon points="322.505,183.529 333.312,186.537 333.233,186.815 322.443,183.747 			"/>
			<polygon points="344.119,189.544 354.922,192.564 354.816,192.939 344.023,189.884 			"/>
			<polygon points="365.723,195.592 376.524,198.619 376.407,199.037 365.612,195.988 			"/>
			<polygon points="387.326,201.646 398.127,204.674 397.998,205.133 387.203,202.085 			"/>
			<polygon points="408.929,207.701 414.706,209.32 414.381,209.576 414.151,203.581 414.674,203.561 414.892,209.557 
				414.905,209.908 414.567,209.813 408.793,208.182 			"/>
			<polygon points="413.696,191.712 413.241,179.844 413.81,179.823 414.242,191.692 			"/>
			<polygon points="412.785,167.977 412.33,156.109 412.946,156.085 413.378,167.955 			"/>
			<polygon points="411.875,144.241 411.645,138.245 411.845,138.534 406.304,136.231 406.559,135.619 412.095,137.932 
				412.288,138.013 412.296,138.221 412.514,144.217 			"/>
			<polygon points="397.377,132.522 391.837,130.22 392.317,129.899 392.323,135.899 391.617,135.899 391.623,129.899 
				391.624,129.378 392.104,129.579 397.64,131.892 			"/>
			<polygon points="392.336,149.566 392.342,155.566 392.343,156.083 391.853,155.919 386.161,154.022 386.396,153.316 
				392.088,155.213 391.598,155.566 391.604,149.566 			"/>
			<polygon points="380.291,152.059 374.42,150.095 374.648,149.413 380.522,151.365 			"/>
			<polygon points="368.55,148.132 362.86,146.229 362.622,146.15 362.623,145.899 362.628,139.899 363.312,139.899 
				363.318,145.899 363.08,145.57 368.774,147.461 			"/>
			<polygon points="362.635,133.566 362.641,127.566 362.863,127.878 357.19,125.924 357.4,125.312 363.077,127.254 363.3,127.331 
				363.3,127.566 363.306,133.566 			"/>
			<polygon points="346.21,122.143 340.538,120.189 340.943,119.899 340.937,125.899 340.336,125.899 340.331,119.899 
				340.33,119.471 340.736,119.61 346.413,121.552 			"/>
			<polygon points="340.931,132.566 340.924,138.566 340.924,138.965 340.546,138.84 334.85,136.955 335.027,136.419 
				340.727,138.293 340.349,138.566 340.343,132.566 			"/>
			<polygon points="328.207,134.757 321.563,132.558 321.731,132.049 328.379,134.234 			"/>
			<polygon points="314.919,130.36 309.223,128.475 309.056,128.42 309.048,128.244 308.79,122.25 309.289,122.228 309.558,128.222 
				309.383,127.991 315.083,129.864 			"/>
			<polygon points="308.11,106.463 307.853,100.469 308.003,100.673 302.359,98.635 302.51,98.218 308.157,100.245 308.301,100.296 
				308.308,100.449 308.578,106.443 			"/>
			<polygon points="289.878,94.128 284.234,92.09 284.506,91.899 284.5,97.899 284.106,97.899 284.101,91.899 284.1,91.611 
				284.372,91.708 290.02,93.735 			"/>
			<polygon points="284.479,111.7 284.439,125.5 284.167,125.5 284.128,111.7 			"/>
			<polygon points="284.399,139.299 284.36,153.099 284.247,153.099 284.207,139.299 			"/>
		</g>
	</g>
	<polyline style="clip-path:url(#SVGID_2_);fill:#CCCCCC;stroke:#000000;stroke-miterlimit:10;stroke-dasharray:12;" points="
		288.97,190.562 230.849,222.847 224.137,469.563 288.97,486.561 	"/>
	<polyline style="clip-path:url(#SVGID_2_);fill:#FFFFFF;stroke:#000000;stroke-miterlimit:10;stroke-dasharray:12;" points="
		288.97,491.891 380.637,489.063 372.637,213.733 288.97,190.562 	"/>
	
		<line style="clip-path:url(#SVGID_2_);fill:none;stroke:#000000;stroke-miterlimit:10;stroke-dasharray:12;" x1="288.97" y1="188.935" x2="288.97" y2="469.601"/>
	
		<line style="clip-path:url(#SVGID_2_);fill:none;stroke:#000000;stroke-miterlimit:10;stroke-dasharray:12;" x1="198.97" y1="222.899" x2="230.75" y2="231.648"/>
	<path style="clip-path:url(#SVGID_2_);fill:none;stroke:#000000;stroke-miterlimit:10;stroke-dasharray:12;" d="M578.333,241.601"
		/>
	<path style="clip-path:url(#SVGID_2_);fill:none;stroke:#000000;stroke-miterlimit:10;stroke-dasharray:12;" d="M212.637,144.233"
		/>
	<line style="clip-path:url(#SVGID_2_);fill:none;" x1="342.25" y1="119.899" x2="322.717" y2="129.899"/>
	
		<line style="clip-path:url(#SVGID_2_);fill:none;stroke:#000000;stroke-miterlimit:10;stroke-dasharray:12;" x1="212.637" y1="143.899" x2="228.67" y2="148.649"/>
	
		<line style="clip-path:url(#SVGID_2_);fill:none;stroke:#000000;stroke-miterlimit:10;stroke-dasharray:12;" x1="245.637" y1="127.566" x2="262.137" y2="132.274"/>
	
		<line style="clip-path:url(#SVGID_2_);fill:none;stroke:#000000;stroke-miterlimit:10;stroke-dasharray:12;" x1="327" y1="127.566" x2="339.625" y2="120.899"/>
	
		<line style="clip-path:url(#SVGID_2_);fill:none;stroke:#000000;stroke-miterlimit:10;stroke-dasharray:12;" x1="377.206" y1="137.257" x2="392.637" y2="129.899"/>
</g>
</svg>
