<?xml version="1.0" encoding="UTF-8"?>
<!DOCTYPE X3D PUBLIC "ISO//Web3D//DTD X3D 4.0//EN" "https://www.web3d.org/specifications/x3d-4.0.dtd">
<!--
  Simple dungeon (maze) for the window_gyroscope example.
  Generated by a script from an ASCII map (13 x 17 cells, each cell is 1 x 1 unit,
  walls are 1 unit high). The floor is at Y = 0, the maze is centered at the origin.
-->
<X3D profile="Interchange" version="4.0">
  <head>
    <meta name="generator" content="script, for Castle Game Engine examples/delphi/window_gyroscope"/>
  </head>
  <Scene>
    <Shape>
      <Appearance>
        <PhysicalMaterial baseColor="0.45 0.4 0.35" roughness="0.9" metallic="0"/>
      </Appearance>
      <IndexedFaceSet solid="true" coordIndex="0 1 2 3 -1">
        <Coordinate point="-6.5 0 8.5, 6.5 0 8.5, 6.5 0 -8.5, -6.5 0 -8.5"/>
      </IndexedFaceSet>
    </Shape>
    <Shape>
      <Appearance>
        <PhysicalMaterial baseColor="0.7 0.7 0.75" roughness="0.8" metallic="0"/>
      </Appearance>
      <IndexedFaceSet solid="true" creaseAngle="0" coordIndex="0 1 2 3 -1 4 5 6 7 -1 8 9 10 11 -1 12 13 14 15 -1 16 17 18 19 -1 20 21 22 23 -1 24 25 26 27 -1 28 29 30 31 -1 32 33 34 35 -1 36 37 38 39 -1 40 41 42 43 -1 44 45 46 47 -1 48 49 50 51 -1 52 53 54 55 -1 56 57 58 59 -1 60 61 62 63 -1 64 65 66 67 -1 68 69 70 71 -1 72 73 74 75 -1 76 77 78 79 -1 80 81 82 83 -1 84 85 86 87 -1 88 89 90 91 -1 92 93 94 95 -1 96 97 98 99 -1 100 101 102 103 -1 104 105 106 107 -1 108 109 110 111 -1 112 113 114 115 -1 116 117 118 119 -1 120 121 122 123 -1 124 125 126 127 -1 128 129 130 131 -1 132 133 134 135 -1 136 137 138 139 -1 140 141 142 143 -1 144 145 146 147 -1 148 149 150 151 -1 152 153 154 155 -1 156 157 158 159 -1 160 161 162 163 -1 164 165 166 167 -1 168 169 170 171 -1 172 173 174 175 -1 176 177 178 179 -1 180 181 182 183 -1 184 185 186 187 -1 188 189 190 191 -1 192 193 194 195 -1 196 197 198 199 -1 200 201 202 203 -1 204 205 206 207 -1 208 209 210 211 -1 212 213 214 215 -1 216 217 218 219 -1 220 221 222 223 -1 224 225 226 227 -1 228 229 230 231 -1 232 233 234 235 -1 236 237 238 239 -1 240 241 242 243 -1 244 245 246 247 -1 248 249 250 251 -1 252 253 254 255 -1 256 257 258 259 -1 260 261 262 263 -1 264 265 266 267 -1 268 269 270 271 -1 272 273 274 275 -1 276 277 278 279 -1 280 281 282 283 -1 284 285 286 287 -1 288 289 290 291 -1 292 293 294 295 -1 296 297 298 299 -1 300 301 302 303 -1 304 305 306 307 -1 308 309 310 311 -1 312 313 314 315 -1 316 317 318 319 -1 320 321 322 323 -1 324 325 326 327 -1 328 329 330 331 -1 332 333 334 335 -1 336 337 338 339 -1 340 341 342 343 -1 344 345 346 347 -1 348 349 350 351 -1 352 353 354 355 -1 356 357 358 359 -1 360 361 362 363 -1 364 365 366 367 -1 368 369 370 371 -1 372 373 374 375 -1 376 377 378 379 -1 380 381 382 383 -1 384 385 386 387 -1 388 389 390 391 -1 392 393 394 395 -1 396 397 398 399 -1 400 401 402 403 -1 404 405 406 407 -1 408 409 410 411 -1 412 413 414 415 -1 416 417 418 419 -1 420 421 422 423 -1 424 425 426 427 -1 428 429 430 431 -1 432 433 434 435 -1 436 437 438 439 -1 440 441 442 443 -1 444 445 446 447 -1 448 449 450 451 -1 452 453 454 455 -1 456 457 458 459 -1 460 461 462 463 -1 464 465 466 467 -1 468 469 470 471 -1 472 473 474 475 -1 476 477 478 479 -1 480 481 482 483 -1 484 485 486 487 -1 488 489 490 491 -1 492 493 494 495 -1 496 497 498 499 -1 500 501 502 503 -1 504 505 506 507 -1 508 509 510 511 -1 512 513 514 515 -1 516 517 518 519 -1 520 521 522 523 -1 524 525 526 527 -1 528 529 530 531 -1 532 533 534 535 -1 536 537 538 539 -1 540 541 542 543 -1 544 545 546 547 -1 548 549 550 551 -1 552 553 554 555 -1 556 557 558 559 -1 560 561 562 563 -1 564 565 566 567 -1 568 569 570 571 -1 572 573 574 575 -1 576 577 578 579 -1 580 581 582 583 -1 584 585 586 587 -1 588 589 590 591 -1 592 593 594 595 -1 596 597 598 599 -1 600 601 602 603 -1 604 605 606 607 -1 608 609 610 611 -1 612 613 614 615 -1 616 617 618 619 -1 620 621 622 623 -1 624 625 626 627 -1 628 629 630 631 -1 632 633 634 635 -1 636 637 638 639 -1 640 641 642 643 -1 644 645 646 647 -1 648 649 650 651 -1 652 653 654 655 -1 656 657 658 659 -1 660 661 662 663 -1 664 665 666 667 -1 668 669 670 671 -1 672 673 674 675 -1 676 677 678 679 -1 680 681 682 683 -1 684 685 686 687 -1 688 689 690 691 -1 692 693 694 695 -1 696 697 698 699 -1 700 701 702 703 -1 704 705 706 707 -1 708 709 710 711 -1 712 713 714 715 -1 716 717 718 719 -1 720 721 722 723 -1 724 725 726 727 -1 728 729 730 731 -1 732 733 734 735 -1 736 737 738 739 -1 740 741 742 743 -1 744 745 746 747 -1 748 749 750 751 -1 752 753 754 755 -1 756 757 758 759 -1 760 761 762 763 -1 764 765 766 767 -1 768 769 770 771 -1 772 773 774 775 -1 776 777 778 779 -1 780 781 782 783 -1 784 785 786 787 -1 788 789 790 791 -1 792 793 794 795 -1 796 797 798 799 -1 800 801 802 803 -1 804 805 806 807 -1 808 809 810 811 -1 812 813 814 815 -1 816 817 818 819 -1 820 821 822 823 -1 824 825 826 827 -1 828 829 830 831 -1 832 833 834 835 -1 836 837 838 839 -1 840 841 842 843 -1 844 845 846 847 -1 848 849 850 851 -1 852 853 854 855 -1 856 857 858 859 -1 860 861 862 863 -1 864 865 866 867 -1 868 869 870 871 -1 872 873 874 875 -1 876 877 878 879 -1 880 881 882 883 -1 884 885 886 887 -1 888 889 890 891 -1 892 893 894 895 -1 896 897 898 899 -1 900 901 902 903 -1 904 905 906 907 -1 908 909 910 911 -1 912 913 914 915 -1 916 917 918 919 -1 920 921 922 923 -1 924 925 926 927 -1 928 929 930 931 -1 932 933 934 935 -1 936 937 938 939 -1 940 941 942 943 -1 944 945 946 947 -1 948 949 950 951 -1 952 953 954 955 -1 956 957 958 959 -1 960 961 962 963 -1 964 965 966 967 -1 968 969 970 971 -1 972 973 974 975 -1 976 977 978 979 -1 980 981 982 983 -1 984 985 986 987 -1 988 989 990 991 -1 992 993 994 995 -1 996 997 998 999 -1 1000 1001 1002 1003 -1 1004 1005 1006 1007 -1 1008 1009 1010 1011 -1 1012 1013 1014 1015 -1 1016 1017 1018 1019 -1 1020 1021 1022 1023 -1 1024 1025 1026 1027 -1 1028 1029 1030 1031 -1 1032 1033 1034 1035 -1 1036 1037 1038 1039 -1 1040 1041 1042 1043 -1 1044 1045 1046 1047 -1 1048 1049 1050 1051 -1 1052 1053 1054 1055 -1 1056 1057 1058 1059 -1 1060 1061 1062 1063 -1 1064 1065 1066 1067 -1 1068 1069 1070 1071 -1 1072 1073 1074 1075 -1 1076 1077 1078 1079 -1 1080 1081 1082 1083 -1 1084 1085 1086 1087 -1 1088 1089 1090 1091 -1 1092 1093 1094 1095 -1 1096 1097 1098 1099 -1 1100 1101 1102 1103 -1 1104 1105 1106 1107 -1 1108 1109 1110 1111 -1 1112 1113 1114 1115 -1 1116 1117 1118 1119 -1 1120 1121 1122 1123 -1 1124 1125 1126 1127 -1 1128 1129 1130 1131 -1 1132 1133 1134 1135 -1 1136 1137 1138 1139 -1 1140 1141 1142 1143 -1 1144 1145 1146 1147 -1 1148 1149 1150 1151 -1 1152 1153 1154 1155 -1 1156 1157 1158 1159 -1 1160 1161 1162 1163 -1 1164 1165 1166 1167 -1 1168 1169 1170 1171 -1 1172 1173 1174 1175 -1 1176 1177 1178 1179 -1 1180 1181 1182 1183 -1 1184 1185 1186 1187 -1 1188 1189 1190 1191 -1 1192 1193 1194 1195 -1 1196 1197 1198 1199 -1 1200 1201 1202 1203 -1 1204 1205 1206 1207 -1 1208 1209 1210 1211 -1 1212 1213 1214 1215 -1 1216 1217 1218 1219 -1 1220 1221 1222 1223 -1 1224 1225 1226 1227 -1 1228 1229 1230 1231 -1 1232 1233 1234 1235 -1 1236 1237 1238 1239 -1 1240 1241 1242 1243 -1 1244 1245 1246 1247 -1 1248 1249 1250 1251 -1 1252 1253 1254 1255 -1 1256 1257 1258 1259 -1 1260 1261 1262 1263 -1 1264 1265 1266 1267 -1 1268 1269 1270 1271 -1 1272 1273 1274 1275 -1 1276 1277 1278 1279 -1 1280 1281 1282 1283 -1 1284 1285 1286 1287 -1 1288 1289 1290 1291 -1 1292 1293 1294 1295 -1 1296 1297 1298 1299 -1 1300 1301 1302 1303 -1 1304 1305 1306 1307 -1 1308 1309 1310 1311 -1 1312 1313 1314 1315 -1 1316 1317 1318 1319 -1 1320 1321 1322 1323 -1 1324 1325 1326 1327 -1 1328 1329 1330 1331 -1 1332 1333 1334 1335 -1 1336 1337 1338 1339 -1 1340 1341 1342 1343 -1 1344 1345 1346 1347 -1 1348 1349 1350 1351 -1 1352 1353 1354 1355 -1 1356 1357 1358 1359 -1 1360 1361 1362 1363 -1 1364 1365 1366 1367 -1 1368 1369 1370 1371 -1 1372 1373 1374 1375 -1 1376 1377 1378 1379 -1 1380 1381 1382 1383 -1 1384 1385 1386 1387 -1 1388 1389 1390 1391 -1 1392 1393 1394 1395 -1 1396 1397 1398 1399 -1 1400 1401 1402 1403 -1 1404 1405 1406 1407 -1 1408 1409 1410 1411 -1 1412 1413 1414 1415 -1 1416 1417 1418 1419 -1 1420 1421 1422 1423 -1 1424 1425 1426 1427 -1 1428 1429 1430 1431 -1 1432 1433 1434 1435 -1 1436 1437 1438 1439 -1 1440 1441 1442 1443 -1 1444 1445 1446 1447 -1 1448 1449 1450 1451 -1 1452 1453 1454 1455 -1 1456 1457 1458 1459 -1 1460 1461 1462 1463 -1 1464 1465 1466 1467 -1 1468 1469 1470 1471 -1">
        <Coordinate point="-6.5 1 -7.5, -5.5 1 -7.5, -5.5 1 -8.5, -6.5 1 -8.5, -5.5 0 -8.5, -6.5 0 -8.5, -6.5 1 -8.5, -5.5 1 -8.5, -6.5 0 -8.5, -6.5 0 -7.5, -6.5 1 -7.5, -6.5 1 -8.5, -5.5 1 -7.5, -4.5 1 -7.5, -4.5 1 -8.5, -5.5 1 -8.5, -5.5 0 -7.5, -4.5 0 -7.5, -4.5 1 -7.5, -5.5 1 -7.5, -4.5 0 -8.5, -5.5 0 -8.5, -5.5 1 -8.5, -4.5 1 -8.5, -4.5 1 -7.5, -3.5 1 -7.5, -3.5 1 -8.5, -4.5 1 -8.5, -4.5 0 -7.5, -3.5 0 -7.5, -3.5 1 -7.5, -4.5 1 -7.5, -3.5 0 -8.5, -4.5 0 -8.5, -4.5 1 -8.5, -3.5 1 -8.5, -3.5 1 -7.5, -2.5 1 -7.5, -2.5 1 -8.5, -3.5 1 -8.5, -3.5 0 -7.5, -2.5 0 -7.5, -2.5 1 -7.5, -3.5 1 -7.5, -2.5 0 -8.5, -3.5 0 -8.5, -3.5 1 -8.5, -2.5 1 -8.5, -2.5 1 -7.5, -1.5 1 -7.5, -1.5 1 -8.5, -2.5 1 -8.5, -2.5 0 -7.5, -1.5 0 -7.5, -1.5 1 -7.5, -2.5 1 -7.5, -1.5 0 -8.5, -2.5 0 -8.5, -2.5 1 -8.5, -1.5 1 -8.5, -1.5 1 -7.5, -0.5 1 -7.5, -0.5 1 -8.5, -1.5 1 -8.5, -1.5 0 -7.5, -0.5 0 -7.5, -0.5 1 -7.5, -1.5 1 -7.5, -0.5 0 -8.5, -1.5 0 -8.5, -1.5 1 -8.5, -0.5 1 -8.5, -0.5 1 -7.5, 0.5 1 -7.5, 0.5 1 -8.5, -0.5 1 -8.5, 0.5 0 -8.5, -0.5 0 -8.5, -0.5 1 -8.5, 0.5 1 -8.5, 0.5 1 -7.5, 1.5 1 -7.5, 1.5 1 -8.5, 0.5 1 -8.5, 0.5 0 -7.5, 1.5 0 -7.5, 1.5 1 -7.5, 0.5 1 -7.5, 1.5 0 -8.5, 0.5 0 -8.5, 0.5 1 -8.5, 1.5 1 -8.5, 1.5 1 -7.5, 2.5 1 -7.5, 2.5 1 -8.5, 1.5 1 -8.5, 1.5 0 -7.5, 2.5 0 -7.5, 2.5 1 -7.5, 1.5 1 -7.5, 2.5 0 -8.5, 1.5 0 -8.5, 1.5 1 -8.5, 2.5 1 -8.5, 2.5 1 -7.5, 3.5 1 -7.5, 3.5 1 -8.5, 2.5 1 -8.5, 2.5 0 -7.5, 3.5 0 -7.5, 3.5 1 -7.5, 2.5 1 -7.5, 3.5 0 -8.5, 2.5 0 -8.5, 2.5 1 -8.5, 3.5 1 -8.5, 3.5 1 -7.5, 4.5 1 -7.5, 4.5 1 -8.5, 3.5 1 -8.5, 3.5 0 -7.5, 4.5 0 -7.5, 4.5 1 -7.5, 3.5 1 -7.5, 4.5 0 -8.5, 3.5 0 -8.5, 3.5 1 -8.5, 4.5 1 -8.5, 4.5 1 -7.5, 5.5 1 -7.5, 5.5 1 -8.5, 4.5 1 -8.5, 4.5 0 -7.5, 5.5 0 -7.5, 5.5 1 -7.5, 4.5 1 -7.5, 5.5 0 -8.5, 4.5 0 -8.5, 4.5 1 -8.5, 5.5 1 -8.5, 5.5 1 -7.5, 6.5 1 -7.5, 6.5 1 -8.5, 5.5 1 -8.5, 6.5 0 -8.5, 5.5 0 -8.5, 5.5 1 -8.5, 6.5 1 -8.5, 6.5 0 -7.5, 6.5 0 -8.5, 6.5 1 -8.5, 6.5 1 -7.5, -6.5 1 -6.5, -5.5 1 -6.5, -5.5 1 -7.5, -6.5 1 -7.5, -5.5 0 -6.5, -5.5 0 -7.5, -5.5 1 -7.5, -5.5 1 -6.5, -6.5 0 -7.5, -6.5 0 -6.5, -6.5 1 -6.5, -6.5 1 -7.5, -0.5 1 -6.5, 0.5 1 -6.5, 0.5 1 -7.5, -0.5 1 -7.5, 0.5 0 -6.5, 0.5 0 -7.5, 0.5 1 -7.5, 0.5 1 -6.5, -0.5 0 -7.5, -0.5 0 -6.5, -0.5 1 -6.5, -0.5 1 -7.5, 5.5 1 -6.5, 6.5 1 -6.5, 6.5 1 -7.5, 5.5 1 -7.5, 6.5 0 -6.5, 6.5 0 -7.5, 6.5 1 -7.5, 6.5 1 -6.5, 5.5 0 -7.5, 5.5 0 -6.5, 5.5 1 -6.5, 5.5 1 -7.5, -6.5 1 -5.5, -5.5 1 -5.5, -5.5 1 -6.5, -6.5 1 -6.5, -5.5 0 -5.5, -5.5 0 -6.5, -5.5 1 -6.5, -5.5 1 -5.5, -6.5 0 -6.5, -6.5 0 -5.5, -6.5 1 -5.5, -6.5 1 -6.5, -4.5 1 -5.5, -3.5 1 -5.5, -3.5 1 -6.5, -4.5 1 -6.5, -3.5 0 -6.5, -4.5 0 -6.5, -4.5 1 -6.5, -3.5 1 -6.5, -4.5 0 -6.5, -4.5 0 -5.5, -4.5 1 -5.5, -4.5 1 -6.5, -3.5 1 -5.5, -2.5 1 -5.5, -2.5 1 -6.5, -3.5 1 -6.5, -3.5 0 -5.5, -2.5 0 -5.5, -2.5 1 -5.5, -3.5 1 -5.5, -2.5 0 -6.5, -3.5 0 -6.5, -3.5 1 -6.5, -2.5 1 -6.5, -2.5 1 -5.5, -1.5 1 -5.5, -1.5 1 -6.5, -2.5 1 -6.5, -2.5 0 -5.5, -1.5 0 -5.5, -1.5 1 -5.5, -2.5 1 -5.5, -1.5 0 -6.5, -2.5 0 -6.5, -2.5 1 -6.5, -1.5 1 -6.5, -1.5 0 -5.5, -1.5 0 -6.5, -1.5 1 -6.5, -1.5 1 -5.5, -0.5 1 -5.5, 0.5 1 -5.5, 0.5 1 -6.5, -0.5 1 -6.5, -0.5 0 -5.5, 0.5 0 -5.5, 0.5 1 -5.5, -0.5 1 -5.5, 0.5 0 -5.5, 0.5 0 -6.5, 0.5 1 -6.5, 0.5 1 -5.5, -0.5 0 -6.5, -0.5 0 -5.5, -0.5 1 -5.5, -0.5 1 -6.5, 1.5 1 -5.5, 2.5 1 -5.5, 2.5 1 -6.5, 1.5 1 -6.5, 1.5 0 -5.5, 2.5 0 -5.5, 2.5 1 -5.5, 1.5 1 -5.5, 2.5 0 -6.5, 1.5 0 -6.5, 1.5 1 -6.5, 2.5 1 -6.5, 1.5 0 -6.5, 1.5 0 -5.5, 1.5 1 -5.5, 1.5 1 -6.5, 2.5 1 -5.5, 3.5 1 -5.5, 3.5 1 -6.5, 2.5 1 -6.5, 2.5 0 -5.5, 3.5 0 -5.5, 3.5 1 -5.5, 2.5 1 -5.5, 3.5 0 -6.5, 2.5 0 -6.5, 2.5 1 -6.5, 3.5 1 -6.5, 3.5 1 -5.5, 4.5 1 -5.5, 4.5 1 -6.5, 3.5 1 -6.5, 4.5 0 -6.5, 3.5 0 -6.5, 3.5 1 -6.5, 4.5 1 -6.5, 4.5 0 -5.5, 4.5 0 -6.5, 4.5 1 -6.5, 4.5 1 -5.5, 5.5 1 -5.5, 6.5 1 -5.5, 6.5 1 -6.5, 5.5 1 -6.5, 6.5 0 -5.5, 6.5 0 -6.5, 6.5 1 -6.5, 6.5 1 -5.5, 5.5 0 -6.5, 5.5 0 -5.5, 5.5 1 -5.5, 5.5 1 -6.5, -6.5 1 -4.5, -5.5 1 -4.5, -5.5 1 -5.5, -6.5 1 -5.5, -5.5 0 -4.5, -5.5 0 -5.5, -5.5 1 -5.5, -5.5 1 -4.5, -6.5 0 -5.5, -6.5 0 -4.5, -6.5 1 -4.5, -6.5 1 -5.5, -4.5 1 -4.5, -3.5 1 -4.5, -3.5 1 -5.5, -4.5 1 -5.5, -3.5 0 -4.5, -3.5 0 -5.5, -3.5 1 -5.5, -3.5 1 -4.5, -4.5 0 -5.5, -4.5 0 -4.5, -4.5 1 -4.5, -4.5 1 -5.5, 3.5 1 -4.5, 4.5 1 -4.5, 4.5 1 -5.5, 3.5 1 -5.5, 4.5 0 -4.5, 4.5 0 -5.5, 4.5 1 -5.5, 4.5 1 -4.5, 3.5 0 -5.5, 3.5 0 -4.5, 3.5 1 -4.5, 3.5 1 -5.5, 5.5 1 -4.5, 6.5 1 -4.5, 6.5 1 -5.5, 5.5 1 -5.5, 6.5 0 -4.5, 6.5 0 -5.5, 6.5 1 -5.5, 6.5 1 -4.5, 5.5 0 -5.5, 5.5 0 -4.5, 5.5 1 -4.5, 5.5 1 -5.5, -6.5 1 -3.5, -5.5 1 -3.5, -5.5 1 -4.5, -6.5 1 -4.5, -5.5 0 -3.5, -5.5 0 -4.5, -5.5 1 -4.5, -5.5 1 -3.5, -6.5 0 -4.5, -6.5 0 -3.5, -6.5 1 -3.5, -6.5 1 -4.5, -4.5 1 -3.5, -3.5 1 -3.5, -3.5 1 -4.5, -4.5 1 -4.5, -4.5 0 -3.5, -3.5 0 -3.5, -3.5 1 -3.5, -4.5 1 -3.5, -3.5 0 -3.5, -3.5 0 -4.5, -3.5 1 -4.5, -3.5 1 -3.5, -4.5 0 -4.5, -4.5 0 -3.5, -4.5 1 -3.5, -4.5 1 -4.5, -2.5 1 -3.5, -1.5 1 -3.5, -1.5 1 -4.5, -2.5 1 -4.5, -1.5 0 -4.5, -2.5 0 -4.5, -2.5 1 -4.5, -1.5 1 -4.5, -2.5 0 -4.5, -2.5 0 -3.5, -2.5 1 -3.5, -2.5 1 -4.5, -1.5 1 -3.5, -0.5 1 -3.5, -0.5 1 -4.5, -1.5 1 -4.5, -1.5 0 -3.5, -0.5 0 -3.5, -0.5 1 -3.5, -1.5 1 -3.5, -0.5 0 -4.5, -1.5 0 -4.5, -1.5 1 -4.5, -0.5 1 -4.5, -0.5 0 -3.5, -0.5 0 -4.5, -0.5 1 -4.5, -0.5 1 -3.5, 0.5 1 -3.5, 1.5 1 -3.5, 1.5 1 -4.5, 0.5 1 -4.5, 0.5 0 -3.5, 1.5 0 -3.5, 1.5 1 -3.5, 0.5 1 -3.5, 1.5 0 -4.5, 0.5 0 -4.5, 0.5 1 -4.5, 1.5 1 -4.5, 0.5 0 -4.5, 0.5 0 -3.5, 0.5 1 -3.5, 0.5 1 -4.5, 1.5 1 -3.5, 2.5 1 -3.5, 2.5 1 -4.5, 1.5 1 -4.5, 2.5 0 -4.5, 1.5 0 -4.5, 1.5 1 -4.5, 2.5 1 -4.5, 2.5 0 -3.5, 2.5 0 -4.5, 2.5 1 -4.5, 2.5 1 -3.5, 3.5 1 -3.5, 4.5 1 -3.5, 4.5 1 -4.5, 3.5 1 -4.5, 3.5 0 -3.5, 4.5 0 -3.5, 4.5 1 -3.5, 3.5 1 -3.5, 4.5 0 -3.5, 4.5 0 -4.5, 4.5 1 -4.5, 4.5 1 -3.5, 3.5 0 -4.5, 3.5 0 -3.5, 3.5 1 -3.5, 3.5 1 -4.5, 5.5 1 -3.5, 6.5 1 -3.5, 6.5 1 -4.5, 5.5 1 -4.5, 6.5 0 -3.5, 6.5 0 -4.5, 6.5 1 -4.5, 6.5 1 -3.5, 5.5 0 -4.5, 5.5 0 -3.5, 5.5 1 -3.5, 5.5 1 -4.5, -6.5 1 -2.5, -5.5 1 -2.5, -5.5 1 -3.5, -6.5 1 -3.5, -5.5 0 -2.5, -5.5 0 -3.5, -5.5 1 -3.5, -5.5 1 -2.5, -6.5 0 -3.5, -6.5 0 -2.5, -6.5 1 -2.5, -6.5 1 -3.5, -2.5 1 -2.5, -1.5 1 -2.5, -1.5 1 -3.5, -2.5 1 -3.5, -1.5 0 -2.5, -1.5 0 -3.5, -1.5 1 -3.5, -1.5 1 -2.5, -2.5 0 -3.5, -2.5 0 -2.5, -2.5 1 -2.5, -2.5 1 -3.5, 1.5 1 -2.5, 2.5 1 -2.5, 2.5 1 -3.5, 1.5 1 -3.5, 2.5 0 -2.5, 2.5 0 -3.5, 2.5 1 -3.5, 2.5 1 -2.5, 1.5 0 -3.5, 1.5 0 -2.5, 1.5 1 -2.5, 1.5 1 -3.5, 5.5 1 -2.5, 6.5 1 -2.5, 6.5 1 -3.5, 5.5 1 -3.5, 6.5 0 -2.5, 6.5 0 -3.5, 6.5 1 -3.5, 6.5 1 -2.5, 5.5 0 -3.5, 5.5 0 -2.5, 5.5 1 -2.5, 5.5 1 -3.5, -6.5 1 -1.5, -5.5 1 -1.5, -5.5 1 -2.5, -6.5 1 -2.5, -6.5 0 -2.5, -6.5 0 -1.5, -6.5 1 -1.5, -6.5 1 -2.5, -5.5 1 -1.5, -4.5 1 -1.5, -4.5 1 -2.5, -5.5 1 -2.5, -5.5 0 -1.5, -4.5 0 -1.5, -4.5 1 -1.5, -5.5 1 -1.5, -4.5 0 -2.5, -5.5 0 -2.5, -5.5 1 -2.5, -4.5 1 -2.5, -4.5 1 -1.5, -3.5 1 -1.5, -3.5 1 -2.5, -4.5 1 -2.5, -4.5 0 -1.5, -3.5 0 -1.5, -3.5 1 -1.5, -4.5 1 -1.5, -3.5 0 -2.5, -4.5 0 -2.5, -4.5 1 -2.5, -3.5 1 -2.5, -3.5 0 -1.5, -3.5 0 -2.5, -3.5 1 -2.5, -3.5 1 -1.5, -2.5 1 -1.5, -1.5 1 -1.5, -1.5 1 -2.5, -2.5 1 -2.5, -2.5 0 -1.5, -1.5 0 -1.5, -1.5 1 -1.5, -2.5 1 -1.5, -1.5 0 -1.5, -1.5 0 -2.5, -1.5 1 -2.5, -1.5 1 -1.5, -2.5 0 -2.5, -2.5 0 -1.5, -2.5 1 -1.5, -2.5 1 -2.5, -0.5 1 -1.5, 0.5 1 -1.5, 0.5 1 -2.5, -0.5 1 -2.5, 0.5 0 -2.5, -0.5 0 -2.5, -0.5 1 -2.5, 0.5 1 -2.5, 0.5 0 -1.5, 0.5 0 -2.5, 0.5 1 -2.5, 0.5 1 -1.5, -0.5 0 -2.5, -0.5 0 -1.5, -0.5 1 -1.5, -0.5 1 -2.5, 1.5 1 -1.5, 2.5 1 -1.5, 2.5 1 -2.5, 1.5 1 -2.5, 1.5 0 -1.5, 2.5 0 -1.5, 2.5 1 -1.5, 1.5 1 -1.5, 2.5 0 -1.5, 2.5 0 -2.5, 2.5 1 -2.5, 2.5 1 -1.5, 1.5 0 -2.5, 1.5 0 -1.5, 1.5 1 -1.5, 1.5 1 -2.5, 3.5 1 -1.5, 4.5 1 -1.5, 4.5 1 -2.5, 3.5 1 -2.5, 3.5 0 -1.5, 4.5 0 -1.5, 4.5 1 -1.5, 3.5 1 -1.5, 4.5 0 -2.5, 3.5 0 -2.5, 3.5 1 -2.5, 4.5 1 -2.5, 3.5 0 -2.5, 3.5 0 -1.5, 3.5 1 -1.5, 3.5 1 -2.5, 4.5 1 -1.5, 5.5 1 -1.5, 5.5 1 -2.5, 4.5 1 -2.5, 4.5 0 -1.5, 5.5 0 -1.5, 5.5 1 -1.5, 4.5 1 -1.5, 5.5 0 -2.5, 4.5 0 -2.5, 4.5 1 -2.5, 5.5 1 -2.5, 5.5 1 -1.5, 6.5 1 -1.5, 6.5 1 -2.5, 5.5 1 -2.5, 6.5 0 -1.5, 6.5 0 -2.5, 6.5 1 -2.5, 6.5 1 -1.5, -6.5 1 -0.5, -5.5 1 -0.5, -5.5 1 -1.5, -6.5 1 -1.5, -5.5 0 -0.5, -5.5 0 -1.5, -5.5 1 -1.5, -5.5 1 -0.5, -6.5 0 -1.5, -6.5 0 -0.5, -6.5 1 -0.5, -6.5 1 -1.5, -0.5 1 -0.5, 0.5 1 -0.5, 0.5 1 -1.5, -0.5 1 -1.5, 0.5 0 -0.5, 0.5 0 -1.5, 0.5 1 -1.5, 0.5 1 -0.5, -0.5 0 -1.5, -0.5 0 -0.5, -0.5 1 -0.5, -0.5 1 -1.5, 5.5 1 -0.5, 6.5 1 -0.5, 6.5 1 -1.5, 5.5 1 -1.5, 6.5 0 -0.5, 6.5 0 -1.5, 6.5 1 -1.5, 6.5 1 -0.5, 5.5 0 -1.5, 5.5 0 -0.5, 5.5 1 -0.5, 5.5 1 -1.5, -6.5 1 0.5, -5.5 1 0.5, -5.5 1 -0.5, -6.5 1 -0.5, -5.5 0 0.5, -5.5 0 -0.5, -5.5 1 -0.5, -5.5 1 0.5, -6.5 0 -0.5, -6.5 0 0.5, -6.5 1 0.5, -6.5 1 -0.5, -4.5 1 0.5, -3.5 1 0.5, -3.5 1 -0.5, -4.5 1 -0.5, -4.5 0 0.5, -3.5 0 0.5, -3.5 1 0.5, -4.5 1 0.5, -3.5 0 -0.5, -4.5 0 -0.5, -4.5 1 -0.5, -3.5 1 -0.5, -4.5 0 -0.5, -4.5 0 0.5, -4.5 1 0.5, -4.5 1 -0.5, -3.5 1 0.5, -2.5 1 0.5, -2.5 1 -0.5, -3.5 1 -0.5, -3.5 0 0.5, -2.5 0 0.5, -2.5 1 0.5, -3.5 1 0.5, -2.5 0 -0.5, -3.5 0 -0.5, -3.5 1 -0.5, -2.5 1 -0.5, -2.5 1 0.5, -1.5 1 0.5, -1.5 1 -0.5, -2.5 1 -0.5, -2.5 0 0.5, -1.5 0 0.5, -1.5 1 0.5, -2.5 1 0.5, -1.5 0 -0.5, -2.5 0 -0.5, -2.5 1 -0.5, -1.5 1 -0.5, -1.5 1 0.5, -0.5 1 0.5, -0.5 1 -0.5, -1.5 1 -0.5, -1.5 0 0.5, -0.5 0 0.5, -0.5 1 0.5, -1.5 1 0.5, -0.5 0 -0.5, -1.5 0 -0.5, -1.5 1 -0.5, -0.5 1 -0.5, -0.5 1 0.5, 0.5 1 0.5, 0.5 1 -0.5, -0.5 1 -0.5, -0.5 0 0.5, 0.5 0 0.5, 0.5 1 0.5, -0.5 1 0.5, 0.5 1 0.5, 1.5 1 0.5, 1.5 1 -0.5, 0.5 1 -0.5, 0.5 0 0.5, 1.5 0 0.5, 1.5 1 0.5, 0.5 1 0.5, 1.5 0 -0.5, 0.5 0 -0.5, 0.5 1 -0.5, 1.5 1 -0.5, 1.5 1 0.5, 2.5 1 0.5, 2.5 1 -0.5, 1.5 1 -0.5, 1.5 0 0.5, 2.5 0 0.5, 2.5 1 0.5, 1.5 1 0.5, 2.5 0 -0.5, 1.5 0 -0.5, 1.5 1 -0.5, 2.5 1 -0.5, 2.5 0 0.5, 2.5 0 -0.5, 2.5 1 -0.5, 2.5 1 0.5, 3.5 1 0.5, 4.5 1 0.5, 4.5 1 -0.5, 3.5 1 -0.5, 4.5 0 -0.5, 3.5 0 -0.5, 3.5 1 -0.5, 4.5 1 -0.5, 4.5 0 0.5, 4.5 0 -0.5, 4.5 1 -0.5, 4.5 1 0.5, 3.5 0 -0.5, 3.5 0 0.5, 3.5 1 0.5, 3.5 1 -0.5, 5.5 1 0.5, 6.5 1 0.5, 6.5 1 -0.5, 5.5 1 -0.5, 6.5 0 0.5, 6.5 0 -0.5, 6.5 1 -0.5, 6.5 1 0.5, 5.5 0 -0.5, 5.5 0 0.5, 5.5 1 0.5, 5.5 1 -0.5, -6.5 1 1.5, -5.5 1 1.5, -5.5 1 0.5, -6.5 1 0.5, -5.5 0 1.5, -5.5 0 0.5, -5.5 1 0.5, -5.5 1 1.5, -6.5 0 0.5, -6.5 0 1.5, -6.5 1 1.5, -6.5 1 0.5, 3.5 1 1.5, 4.5 1 1.5, 4.5 1 0.5, 3.5 1 0.5, 4.5 0 1.5, 4.5 0 0.5, 4.5 1 0.5, 4.5 1 1.5, 3.5 0 0.5, 3.5 0 1.5, 3.5 1 1.5, 3.5 1 0.5, 5.5 1 1.5, 6.5 1 1.5, 6.5 1 0.5, 5.5 1 0.5, 6.5 0 1.5, 6.5 0 0.5, 6.5 1 0.5, 6.5 1 1.5, 5.5 0 0.5, 5.5 0 1.5, 5.5 1 1.5, 5.5 1 0.5, -6.5 1 2.5, -5.5 1 2.5, -5.5 1 1.5, -6.5 1 1.5, -5.5 0 2.5, -5.5 0 1.5, -5.5 1 1.5, -5.5 1 2.5, -6.5 0 1.5, -6.5 0 2.5, -6.5 1 2.5, -6.5 1 1.5, -4.5 1 2.5, -3.5 1 2.5, -3.5 1 1.5, -4.5 1 1.5, -4.5 0 2.5, -3.5 0 2.5, -3.5 1 2.5, -4.5 1 2.5, -3.5 0 1.5, -4.5 0 1.5, -4.5 1 1.5, -3.5 1 1.5, -4.5 0 1.5, -4.5 0 2.5, -4.5 1 2.5, -4.5 1 1.5, -3.5 1 2.5, -2.5 1 2.5, -2.5 1 1.5, -3.5 1 1.5, -2.5 0 1.5, -3.5 0 1.5, -3.5 1 1.5, -2.5 1 1.5, -2.5 0 2.5, -2.5 0 1.5, -2.5 1 1.5, -2.5 1 2.5, -1.5 1 2.5, -0.5 1 2.5, -0.5 1 1.5, -1.5 1 1.5, -1.5 0 2.5, -0.5 0 2.5, -0.5 1 2.5, -1.5 1 2.5, -0.5 0 1.5, -1.5 0 1.5, -1.5 1 1.5, -0.5 1 1.5, -1.5 0 1.5, -1.5 0 2.5, -1.5 1 2.5, -1.5 1 1.5, -0.5 1 2.5, 0.5 1 2.5, 0.5 1 1.5, -0.5 1 1.5, -0.5 0 2.5, 0.5 0 2.5, 0.5 1 2.5, -0.5 1 2.5, 0.5 0 1.5, -0.5 0 1.5, -0.5 1 1.5, 0.5 1 1.5, 0.5 1 2.5, 1.5 1 2.5, 1.5 1 1.5, 0.5 1 1.5, 0.5 0 2.5, 1.5 0 2.5, 1.5 1 2.5, 0.5 1 2.5, 1.5 0 1.5, 0.5 0 1.5, 0.5 1 1.5, 1.5 1 1.5, 1.5 1 2.5, 2.5 1 2.5, 2.5 1 1.5, 1.5 1 1.5, 2.5 0 1.5, 1.5 0 1.5, 1.5 1 1.5, 2.5 1 1.5, 2.5 0 2.5, 2.5 0 1.5, 2.5 1 1.5, 2.5 1 2.5, 3.5 1 2.5, 4.5 1 2.5, 4.5 1 1.5, 3.5 1 1.5, 3.5 0 2.5, 4.5 0 2.5, 4.5 1 2.5, 3.5 1 2.5, 4.5 0 2.5, 4.5 0 1.5, 4.5 1 1.5, 4.5 1 2.5, 3.5 0 1.5, 3.5 0 2.5, 3.5 1 2.5, 3.5 1 1.5, 5.5 1 2.5, 6.5 1 2.5, 6.5 1 1.5, 5.5 1 1.5, 6.5 0 2.5, 6.5 0 1.5, 6.5 1 1.5, 6.5 1 2.5, 5.5 0 1.5, 5.5 0 2.5, 5.5 1 2.5, 5.5 1 1.5, -6.5 1 3.5, -5.5 1 3.5, -5.5 1 2.5, -6.5 1 2.5, -5.5 0 3.5, -5.5 0 2.5, -5.5 1 2.5, -5.5 1 3.5, -6.5 0 2.5, -6.5 0 3.5, -6.5 1 3.5, -6.5 1 2.5, -3.5 1 3.5, -2.5 1 3.5, -2.5 1 2.5, -3.5 1 2.5, -2.5 0 3.5, -2.5 0 2.5, -2.5 1 2.5, -2.5 1 3.5, -3.5 0 2.5, -3.5 0 3.5, -3.5 1 3.5, -3.5 1 2.5, 1.5 1 3.5, 2.5 1 3.5, 2.5 1 2.5, 1.5 1 2.5, 2.5 0 3.5, 2.5 0 2.5, 2.5 1 2.5, 2.5 1 3.5, 1.5 0 2.5, 1.5 0 3.5, 1.5 1 3.5, 1.5 1 2.5, 5.5 1 3.5, 6.5 1 3.5, 6.5 1 2.5, 5.5 1 2.5, 6.5 0 3.5, 6.5 0 2.5, 6.5 1 2.5, 6.5 1 3.5, 5.5 0 2.5, 5.5 0 3.5, 5.5 1 3.5, 5.5 1 2.5, -6.5 1 4.5, -5.5 1 4.5, -5.5 1 3.5, -6.5 1 3.5, -6.5 0 3.5, -6.5 0 4.5, -6.5 1 4.5, -6.5 1 3.5, -5.5 1 4.5, -4.5 1 4.5, -4.5 1 3.5, -5.5 1 3.5, -5.5 0 4.5, -4.5 0 4.5, -4.5 1 4.5, -5.5 1 4.5, -4.5 0 3.5, -5.5 0 3.5, -5.5 1 3.5, -4.5 1 3.5, -4.5 0 4.5, -4.5 0 3.5, -4.5 1 3.5, -4.5 1 4.5, -3.5 1 4.5, -2.5 1 4.5, -2.5 1 3.5, -3.5 1 3.5, -3.5 0 4.5, -2.5 0 4.5, -2.5 1 4.5, -3.5 1 4.5, -2.5 0 4.5, -2.5 0 3.5, -2.5 1 3.5, -2.5 1 4.5, -3.5 0 3.5, -3.5 0 4.5, -3.5 1 4.5, -3.5 1 3.5, -1.5 1 4.5, -0.5 1 4.5, -0.5 1 3.5, -1.5 1 3.5, -0.5 0 3.5, -1.5 0 3.5, -1.5 1 3.5, -0.5 1 3.5, -1.5 0 3.5, -1.5 0 4.5, -1.5 1 4.5, -1.5 1 3.5, -0.5 1 4.5, 0.5 1 4.5, 0.5 1 3.5, -0.5 1 3.5, -0.5 0 4.5, 0.5 0 4.5, 0.5 1 4.5, -0.5 1 4.5, 0.5 0 3.5, -0.5 0 3.5, -0.5 1 3.5, 0.5 1 3.5, 0.5 0 4.5, 0.5 0 3.5, 0.5 1 3.5, 0.5 1 4.5, 1.5 1 4.5, 2.5 1 4.5, 2.5 1 3.5, 1.5 1 3.5, 1.5 0 4.5, 2.5 0 4.5, 2.5 1 4.5, 1.5 1 4.5, 2.5 0 4.5, 2.5 0 3.5, 2.5 1 3.5, 2.5 1 4.5, 1.5 0 3.5, 1.5 0 4.5, 1.5 1 4.5, 1.5 1 3.5, 3.5 1 4.5, 4.5 1 4.5, 4.5 1 3.5, 3.5 1 3.5, 3.5 0 4.5, 4.5 0 4.5, 4.5 1 4.5, 3.5 1 4.5, 4.5 0 3.5, 3.5 0 3.5, 3.5 1 3.5, 4.5 1 3.5, 3.5 0 3.5, 3.5 0 4.5, 3.5 1 4.5, 3.5 1 3.5, 4.5 1 4.5, 5.5 1 4.5, 5.5 1 3.5, 4.5 1 3.5, 4.5 0 4.5, 5.5 0 4.5, 5.5 1 4.5, 4.5 1 4.5, 5.5 0 3.5, 4.5 0 3.5, 4.5 1 3.5, 5.5 1 3.5, 5.5 1 4.5, 6.5 1 4.5, 6.5 1 3.5, 5.5 1 3.5, 6.5 0 4.5, 6.5 0 3.5, 6.5 1 3.5, 6.5 1 4.5, -6.5 1 5.5, -5.5 1 5.5, -5.5 1 4.5, -6.5 1 4.5, -5.5 0 5.5, -5.5 0 4.5, -5.5 1 4.5, -5.5 1 5.5, -6.5 0 4.5, -6.5 0 5.5, -6.5 1 5.5, -6.5 1 4.5, -1.5 1 5.5, -0.5 1 5.5, -0.5 1 4.5, -1.5 1 4.5, -0.5 0 5.5, -0.5 0 4.5, -0.5 1 4.5, -0.5 1 5.5, -1.5 0 4.5, -1.5 0 5.5, -1.5 1 5.5, -1.5 1 4.5, 5.5 1 5.5, 6.5 1 5.5, 6.5 1 4.5, 5.5 1 4.5, 6.5 0 5.5, 6.5 0 4.5, 6.5 1 4.5, 6.5 1 5.5, 5.5 0 4.5, 5.5 0 5.5, 5.5 1 5.5, 5.5 1 4.5, -6.5 1 6.5, -5.5 1 6.5, -5.5 1 5.5, -6.5 1 5.5, -5.5 0 6.5, -5.5 0 5.5, -5.5 1 5.5, -5.5 1 6.5, -6.5 0 5.5, -6.5 0 6.5, -6.5 1 6.5, -6.5 1 5.5, -4.5 1 6.5, -3.5 1 6.5, -3.5 1 5.5, -4.5 1 5.5, -4.5 0 6.5, -3.5 0 6.5, -3.5 1 6.5, -4.5 1 6.5, -3.5 0 5.5, -4.5 0 5.5, -4.5 1 5.5, -3.5 1 5.5, -4.5 0 5.5, -4.5 0 6.5, -4.5 1 6.5, -4.5 1 5.5, -3.5 1 6.5, -2.5 1 6.5, -2.5 1 5.5, -3.5 1 5.5, -3.5 0 6.5, -2.5 0 6.5, -2.5 1 6.5, -3.5 1 6.5, -2.5 0 5.5, -3.5 0 5.5, -3.5 1 5.5, -2.5 1 5.5, -2.5 1 6.5, -1.5 1 6.5, -1.5 1 5.5, -2.5 1 5.5, -2.5 0 6.5, -1.5 0 6.5, -1.5 1 6.5, -2.5 1 6.5, -1.5 0 5.5, -2.5 0 5.5, -2.5 1 5.5, -1.5 1 5.5, -1.5 1 6.5, -0.5 1 6.5, -0.5 1 5.5, -1.5 1 5.5, -1.5 0 6.5, -0.5 0 6.5, -0.5 1 6.5, -1.5 1 6.5, -0.5 0 6.5, -0.5 0 5.5, -0.5 1 5.5, -0.5 1 6.5, 0.5 1 6.5, 1.5 1 6.5, 1.5 1 5.5, 0.5 1 5.5, 0.5 0 6.5, 1.5 0 6.5, 1.5 1 6.5, 0.5 1 6.5, 1.5 0 5.5, 0.5 0 5.5, 0.5 1 5.5, 1.5 1 5.5, 0.5 0 5.5, 0.5 0 6.5, 0.5 1 6.5, 0.5 1 5.5, 1.5 1 6.5, 2.5 1 6.5, 2.5 1 5.5, 1.5 1 5.5, 1.5 0 6.5, 2.5 0 6.5, 2.5 1 6.5, 1.5 1 6.5, 2.5 0 5.5, 1.5 0 5.5, 1.5 1 5.5, 2.5 1 5.5, 2.5 0 6.5, 2.5 0 5.5, 2.5 1 5.5, 2.5 1 6.5, 3.5 1 6.5, 4.5 1 6.5, 4.5 1 5.5, 3.5 1 5.5, 4.5 0 5.5, 3.5 0 5.5, 3.5 1 5.5, 4.5 1 5.5, 4.5 0 6.5, 4.5 0 5.5, 4.5 1 5.5, 4.5 1 6.5, 3.5 0 5.5, 3.5 0 6.5, 3.5 1 6.5, 3.5 1 5.5, 5.5 1 6.5, 6.5 1 6.5, 6.5 1 5.5, 5.5 1 5.5, 6.5 0 6.5, 6.5 0 5.5, 6.5 1 5.5, 6.5 1 6.5, 5.5 0 5.5, 5.5 0 6.5, 5.5 1 6.5, 5.5 1 5.5, -6.5 1 7.5, -5.5 1 7.5, -5.5 1 6.5, -6.5 1 6.5, -5.5 0 7.5, -5.5 0 6.5, -5.5 1 6.5, -5.5 1 7.5, -6.5 0 6.5, -6.5 0 7.5, -6.5 1 7.5, -6.5 1 6.5, 3.5 1 7.5, 4.5 1 7.5, 4.5 1 6.5, 3.5 1 6.5, 4.5 0 7.5, 4.5 0 6.5, 4.5 1 6.5, 4.5 1 7.5, 3.5 0 6.5, 3.5 0 7.5, 3.5 1 7.5, 3.5 1 6.5, 5.5 1 7.5, 6.5 1 7.5, 6.5 1 6.5, 5.5 1 6.5, 6.5 0 7.5, 6.5 0 6.5, 6.5 1 6.5, 6.5 1 7.5, 5.5 0 6.5, 5.5 0 7.5, 5.5 1 7.5, 5.5 1 6.5, -6.5 1 8.5, -5.5 1 8.5, -5.5 1 7.5, -6.5 1 7.5, -6.5 0 8.5, -5.5 0 8.5, -5.5 1 8.5, -6.5 1 8.5, -6.5 0 7.5, -6.5 0 8.5, -6.5 1 8.5, -6.5 1 7.5, -5.5 1 8.5, -4.5 1 8.5, -4.5 1 7.5, -5.5 1 7.5, -5.5 0 8.5, -4.5 0 8.5, -4.5 1 8.5, -5.5 1 8.5, -4.5 0 7.5, -5.5 0 7.5, -5.5 1 7.5, -4.5 1 7.5, -4.5 1 8.5, -3.5 1 8.5, -3.5 1 7.5, -4.5 1 7.5, -4.5 0 8.5, -3.5 0 8.5, -3.5 1 8.5, -4.5 1 8.5, -3.5 0 7.5, -4.5 0 7.5, -4.5 1 7.5, -3.5 1 7.5, -3.5 1 8.5, -2.5 1 8.5, -2.5 1 7.5, -3.5 1 7.5, -3.5 0 8.5, -2.5 0 8.5, -2.5 1 8.5, -3.5 1 8.5, -2.5 0 7.5, -3.5 0 7.5, -3.5 1 7.5, -2.5 1 7.5, -2.5 1 8.5, -1.5 1 8.5, -1.5 1 7.5, -2.5 1 7.5, -2.5 0 8.5, -1.5 0 8.5, -1.5 1 8.5, -2.5 1 8.5, -1.5 0 7.5, -2.5 0 7.5, -2.5 1 7.5, -1.5 1 7.5, -1.5 1 8.5, -0.5 1 8.5, -0.5 1 7.5, -1.5 1 7.5, -1.5 0 8.5, -0.5 0 8.5, -0.5 1 8.5, -1.5 1 8.5, -0.5 0 7.5, -1.5 0 7.5, -1.5 1 7.5, -0.5 1 7.5, -0.5 1 8.5, 0.5 1 8.5, 0.5 1 7.5, -0.5 1 7.5, -0.5 0 8.5, 0.5 0 8.5, 0.5 1 8.5, -0.5 1 8.5, 0.5 0 7.5, -0.5 0 7.5, -0.5 1 7.5, 0.5 1 7.5, 0.5 1 8.5, 1.5 1 8.5, 1.5 1 7.5, 0.5 1 7.5, 0.5 0 8.5, 1.5 0 8.5, 1.5 1 8.5, 0.5 1 8.5, 1.5 0 7.5, 0.5 0 7.5, 0.5 1 7.5, 1.5 1 7.5, 1.5 1 8.5, 2.5 1 8.5, 2.5 1 7.5, 1.5 1 7.5, 1.5 0 8.5, 2.5 0 8.5, 2.5 1 8.5, 1.5 1 8.5, 2.5 0 7.5, 1.5 0 7.5, 1.5 1 7.5, 2.5 1 7.5, 2.5 1 8.5, 3.5 1 8.5, 3.5 1 7.5, 2.5 1 7.5, 2.5 0 8.5, 3.5 0 8.5, 3.5 1 8.5, 2.5 1 8.5, 3.5 0 7.5, 2.5 0 7.5, 2.5 1 7.5, 3.5 1 7.5, 3.5 1 8.5, 4.5 1 8.5, 4.5 1 7.5, 3.5 1 7.5, 3.5 0 8.5, 4.5 0 8.5, 4.5 1 8.5, 3.5 1 8.5, 4.5 1 8.5, 5.5 1 8.5, 5.5 1 7.5, 4.5 1 7.5, 4.5 0 8.5, 5.5 0 8.5, 5.5 1 8.5, 4.5 1 8.5, 5.5 0 7.5, 4.5 0 7.5, 4.5 1 7.5, 5.5 1 7.5, 5.5 1 8.5, 6.5 1 8.5, 6.5 1 7.5, 5.5 1 7.5, 5.5 0 8.5, 6.5 0 8.5, 6.5 1 8.5, 5.5 1 8.5, 6.5 0 8.5, 6.5 0 7.5, 6.5 1 7.5, 6.5 1 8.5"/>
      </IndexedFaceSet>
    </Shape>
  </Scene>
</X3D>
