{
	"asset":{
		"generator":"Khronos glTF Blender I/O v4.0.44",
		"version":"2.0"
	},
	"scene":0,
	"scenes":[
		{
			"name":"Scene",
			"nodes":[
				9
			]
		}
	],
	"nodes":[
		{
			"name":"Spine_6",
			"rotation":[
				-0.0971628725528717,
				1.1864521098914338e-07,
				-3.474815102322282e-08,
				0.9952685236930847
			],
			"scale":[
				1,
				1,
				0.9999999403953552
			],
			"translation":[
				1.0516202031364205e-15,
				0.2223144918680191,
				0
			]
		},
		{
			"children":[
				0
			],
			"name":"Spine_5",
			"rotation":[
				-0.014618808403611183,
				-4.285919289284158e-14,
				-3.485396637969984e-09,
				0.9998931288719177
			],
			"translation":[
				-9.221914512135953e-16,
				0.3248017430305481,
				7.450580596923828e-09
			]
		},
		{
			"children":[
				1
			],
			"name":"Spine_4",
			"rotation":[
				-0.14393925666809082,
				5.2953962151628883e-14,
				-3.4317800157168676e-08,
				0.9895865321159363
			],
			"scale":[
				1,
				0.9999999403953552,
				1
			],
			"translation":[
				3.9627898571370935e-15,
				0.29695096611976624,
				-2.0489096641540527e-08
			]
		},
		{
			"children":[
				2
			],
			"name":"Spine_3",
			"rotation":[
				-0.14891618490219116,
				1.1788008436042219e-07,
				-1.7752190828446146e-08,
				0.9888498187065125
			],
			"scale":[
				1,
				1,
				0.9999999403953552
			],
			"translation":[
				-3.4245277359695346e-22,
				0.2595879137516022,
				-7.450580596923828e-09
			]
		},
		{
			"children":[
				3
			],
			"name":"Spine_2",
			"rotation":[
				-0.11296246945858002,
				-1.3398137613739817e-14,
				-8.505026483161381e-15,
				0.9935992360115051
			],
			"scale":[
				1,
				1,
				0.9999999403953552
			],
			"translation":[
				-1.1117307432712692e-21,
				0.30463072657585144,
				7.450580596923828e-09
			]
		},
		{
			"name":"Eye",
			"rotation":[
				0.9499084949493408,
				-3.725625674633193e-08,
				-1.1323790261030808e-07,
				0.31252825260162354
			],
			"scale":[
				1,
				1,
				0.9999998807907104
			],
			"translation":[
				-0.0011001825332641602,
				-0.0781700611114502,
				-0.3436669707298279
			]
		},
		{
			"children":[
				4,
				5
			],
			"name":"Spine_1",
			"rotation":[
				-0.9527902603149414,
				-3.6195427099983135e-08,
				-1.1358145002304809e-07,
				0.3036292791366577
			],
			"scale":[
				1,
				1,
				0.9999998807907104
			],
			"translation":[
				-2.9700260029130732e-08,
				0.6202995181083679,
				0.12457191944122314
			]
		},
		{
			"children":[
				6
			],
			"name":"Root",
			"rotation":[
				0.009353854693472385,
				1.1920407416710077e-07,
				1.1150648182578493e-09,
				0.9999562501907349
			]
		},
		{
			"mesh":0,
			"name":"Alien_Cyclops",
			"skin":0
		},
		{
			"children":[
				8,
				7
			],
			"name":"Alien_Armature"
		}
	],
	"animations":[
		{
			"channels":[
				{
					"sampler":0,
					"target":{
						"node":7,
						"path":"translation"
					}
				},
				{
					"sampler":1,
					"target":{
						"node":7,
						"path":"rotation"
					}
				},
				{
					"sampler":2,
					"target":{
						"node":7,
						"path":"scale"
					}
				},
				{
					"sampler":3,
					"target":{
						"node":6,
						"path":"translation"
					}
				},
				{
					"sampler":4,
					"target":{
						"node":6,
						"path":"rotation"
					}
				},
				{
					"sampler":5,
					"target":{
						"node":6,
						"path":"scale"
					}
				},
				{
					"sampler":6,
					"target":{
						"node":4,
						"path":"translation"
					}
				},
				{
					"sampler":7,
					"target":{
						"node":4,
						"path":"rotation"
					}
				},
				{
					"sampler":8,
					"target":{
						"node":4,
						"path":"scale"
					}
				},
				{
					"sampler":9,
					"target":{
						"node":3,
						"path":"translation"
					}
				},
				{
					"sampler":10,
					"target":{
						"node":3,
						"path":"rotation"
					}
				},
				{
					"sampler":11,
					"target":{
						"node":3,
						"path":"scale"
					}
				},
				{
					"sampler":12,
					"target":{
						"node":2,
						"path":"translation"
					}
				},
				{
					"sampler":13,
					"target":{
						"node":2,
						"path":"rotation"
					}
				},
				{
					"sampler":14,
					"target":{
						"node":2,
						"path":"scale"
					}
				},
				{
					"sampler":15,
					"target":{
						"node":1,
						"path":"translation"
					}
				},
				{
					"sampler":16,
					"target":{
						"node":1,
						"path":"rotation"
					}
				},
				{
					"sampler":17,
					"target":{
						"node":1,
						"path":"scale"
					}
				},
				{
					"sampler":18,
					"target":{
						"node":0,
						"path":"translation"
					}
				},
				{
					"sampler":19,
					"target":{
						"node":0,
						"path":"rotation"
					}
				},
				{
					"sampler":20,
					"target":{
						"node":0,
						"path":"scale"
					}
				},
				{
					"sampler":21,
					"target":{
						"node":5,
						"path":"translation"
					}
				},
				{
					"sampler":22,
					"target":{
						"node":5,
						"path":"rotation"
					}
				},
				{
					"sampler":23,
					"target":{
						"node":5,
						"path":"scale"
					}
				}
			],
			"name":"Alien_Idle",
			"samplers":[
				{
					"input":15,
					"interpolation":"STEP",
					"output":16
				},
				{
					"input":15,
					"interpolation":"STEP",
					"output":17
				},
				{
					"input":15,
					"interpolation":"STEP",
					"output":18
				},
				{
					"input":19,
					"interpolation":"LINEAR",
					"output":20
				},
				{
					"input":19,
					"interpolation":"LINEAR",
					"output":21
				},
				{
					"input":15,
					"interpolation":"STEP",
					"output":22
				},
				{
					"input":15,
					"interpolation":"LINEAR",
					"output":23
				},
				{
					"input":19,
					"interpolation":"LINEAR",
					"output":24
				},
				{
					"input":15,
					"interpolation":"STEP",
					"output":25
				},
				{
					"input":15,
					"interpolation":"LINEAR",
					"output":26
				},
				{
					"input":19,
					"interpolation":"LINEAR",
					"output":27
				},
				{
					"input":15,
					"interpolation":"STEP",
					"output":28
				},
				{
					"input":15,
					"interpolation":"LINEAR",
					"output":29
				},
				{
					"input":19,
					"interpolation":"LINEAR",
					"output":30
				},
				{
					"input":15,
					"interpolation":"STEP",
					"output":31
				},
				{
					"input":15,
					"interpolation":"LINEAR",
					"output":32
				},
				{
					"input":19,
					"interpolation":"LINEAR",
					"output":33
				},
				{
					"input":15,
					"interpolation":"STEP",
					"output":34
				},
				{
					"input":15,
					"interpolation":"LINEAR",
					"output":35
				},
				{
					"input":19,
					"interpolation":"LINEAR",
					"output":36
				},
				{
					"input":15,
					"interpolation":"STEP",
					"output":37
				},
				{
					"input":15,
					"interpolation":"STEP",
					"output":38
				},
				{
					"input":15,
					"interpolation":"STEP",
					"output":39
				},
				{
					"input":15,
					"interpolation":"STEP",
					"output":40
				}
			]
		}
	],
	"materials":[
		{
			"doubleSided":true,
			"name":"M_Alien_Eyes",
			"pbrMetallicRoughness":{
				"baseColorFactor":[
					0.0010511603904888034,
					0.00290103442966938,
					0.004038436338305473,
					1
				],
				"metallicFactor":0,
				"roughnessFactor":0.5
			}
		},
		{
			"doubleSided":true,
			"name":"M_Alien_Body_Blue",
			"pbrMetallicRoughness":{
				"baseColorFactor":[
					0.07393164187669754,
					0.17926785349845886,
					0.33469557762145996,
					1
				],
				"metallicFactor":0,
				"roughnessFactor":0.437007874250412
			}
		}
	],
	"meshes":[
		{
			"name":"Sphere.001_Retopology.001",
			"primitives":[
				{
					"attributes":{
						"COLOR_0":0,
						"POSITION":1,
						"NORMAL":2,
						"TEXCOORD_0":3,
						"JOINTS_0":4,
						"WEIGHTS_0":5
					},
					"indices":6,
					"material":0
				},
				{
					"attributes":{
						"COLOR_0":7,
						"POSITION":8,
						"NORMAL":9,
						"TEXCOORD_0":10,
						"JOINTS_0":11,
						"WEIGHTS_0":12
					},
					"indices":13,
					"material":1
				}
			]
		}
	],
	"skins":[
		{
			"inverseBindMatrices":14,
			"joints":[
				7,
				6,
				4,
				3,
				2,
				1,
				0,
				5
			],
			"name":"Alien_Armature"
		}
	],
	"accessors":[
		{
			"bufferView":0,
			"componentType":5123,
			"count":146,
			"normalized":true,
			"type":"VEC4"
		},
		{
			"bufferView":1,
			"componentType":5126,
			"count":146,
			"max":[
				0.18969088792800903,
				0.729622483253479,
				0.6434736251831055
			],
			"min":[
				-0.18963009119033813,
				0.3505568504333496,
				0.26360103487968445
			],
			"type":"VEC3"
		},
		{
			"bufferView":2,
			"componentType":5126,
			"count":146,
			"type":"VEC3"
		},
		{
			"bufferView":3,
			"componentType":5126,
			"count":146,
			"type":"VEC2"
		},
		{
			"bufferView":4,
			"componentType":5121,
			"count":146,
			"type":"VEC4"
		},
		{
			"bufferView":5,
			"componentType":5126,
			"count":146,
			"type":"VEC4"
		},
		{
			"bufferView":6,
			"componentType":5123,
			"count":864,
			"type":"SCALAR"
		},
		{
			"bufferView":7,
			"componentType":5123,
			"count":900,
			"normalized":true,
			"type":"VEC4"
		},
		{
			"bufferView":8,
			"componentType":5126,
			"count":900,
			"max":[
				0.535746157169342,
				0.9152674674987793,
				0.6297538876533508
			],
			"min":[
				-0.535746157169342,
				-1.0906437635421753,
				-0.5781888365745544
			],
			"type":"VEC3"
		},
		{
			"bufferView":9,
			"componentType":5126,
			"count":900,
			"type":"VEC3"
		},
		{
			"bufferView":10,
			"componentType":5126,
			"count":900,
			"type":"VEC2"
		},
		{
			"bufferView":11,
			"componentType":5121,
			"count":900,
			"type":"VEC4"
		},
		{
			"bufferView":12,
			"componentType":5126,
			"count":900,
			"type":"VEC4"
		},
		{
			"bufferView":13,
			"componentType":5123,
			"count":5388,
			"type":"SCALAR"
		},
		{
			"bufferView":14,
			"componentType":5126,
			"count":8,
			"type":"MAT4"
		},
		{
			"bufferView":15,
			"componentType":5126,
			"count":2,
			"max":[
				3.3666666666666667
			],
			"min":[
				0
			],
			"type":"SCALAR"
		},
		{
			"bufferView":16,
			"componentType":5126,
			"count":2,
			"type":"VEC3"
		},
		{
			"bufferView":17,
			"componentType":5126,
			"count":2,
			"type":"VEC4"
		},
		{
			"bufferView":18,
			"componentType":5126,
			"count":2,
			"type":"VEC3"
		},
		{
			"bufferView":19,
			"componentType":5126,
			"count":102,
			"max":[
				3.3666666666666667
			],
			"min":[
				0
			],
			"type":"SCALAR"
		},
		{
			"bufferView":20,
			"componentType":5126,
			"count":102,
			"type":"VEC3"
		},
		{
			"bufferView":21,
			"componentType":5126,
			"count":102,
			"type":"VEC4"
		},
		{
			"bufferView":22,
			"componentType":5126,
			"count":2,
			"type":"VEC3"
		},
		{
			"bufferView":23,
			"componentType":5126,
			"count":2,
			"type":"VEC3"
		},
		{
			"bufferView":24,
			"componentType":5126,
			"count":102,
			"type":"VEC4"
		},
		{
			"bufferView":25,
			"componentType":5126,
			"count":2,
			"type":"VEC3"
		},
		{
			"bufferView":26,
			"componentType":5126,
			"count":2,
			"type":"VEC3"
		},
		{
			"bufferView":27,
			"componentType":5126,
			"count":102,
			"type":"VEC4"
		},
		{
			"bufferView":28,
			"componentType":5126,
			"count":2,
			"type":"VEC3"
		},
		{
			"bufferView":29,
			"componentType":5126,
			"count":2,
			"type":"VEC3"
		},
		{
			"bufferView":30,
			"componentType":5126,
			"count":102,
			"type":"VEC4"
		},
		{
			"bufferView":31,
			"componentType":5126,
			"count":2,
			"type":"VEC3"
		},
		{
			"bufferView":32,
			"componentType":5126,
			"count":2,
			"type":"VEC3"
		},
		{
			"bufferView":33,
			"componentType":5126,
			"count":102,
			"type":"VEC4"
		},
		{
			"bufferView":34,
			"componentType":5126,
			"count":2,
			"type":"VEC3"
		},
		{
			"bufferView":35,
			"componentType":5126,
			"count":2,
			"type":"VEC3"
		},
		{
			"bufferView":36,
			"componentType":5126,
			"count":102,
			"type":"VEC4"
		},
		{
			"bufferView":37,
			"componentType":5126,
			"count":2,
			"type":"VEC3"
		},
		{
			"bufferView":38,
			"componentType":5126,
			"count":2,
			"type":"VEC3"
		},
		{
			"bufferView":39,
			"componentType":5126,
			"count":2,
			"type":"VEC4"
		},
		{
			"bufferView":40,
			"componentType":5126,
			"count":2,
			"type":"VEC3"
		}
	],
	"bufferViews":[
		{
			"buffer":0,
			"byteLength":1168,
			"byteOffset":0,
			"target":34962
		},
		{
			"buffer":0,
			"byteLength":1752,
			"byteOffset":1168,
			"target":34962
		},
		{
			"buffer":0,
			"byteLength":1752,
			"byteOffset":2920,
			"target":34962
		},
		{
			"buffer":0,
			"byteLength":1168,
			"byteOffset":4672,
			"target":34962
		},
		{
			"buffer":0,
			"byteLength":584,
			"byteOffset":5840,
			"target":34962
		},
		{
			"buffer":0,
			"byteLength":2336,
			"byteOffset":6424,
			"target":34962
		},
		{
			"buffer":0,
			"byteLength":1728,
			"byteOffset":8760,
			"target":34963
		},
		{
			"buffer":0,
			"byteLength":7200,
			"byteOffset":10488,
			"target":34962
		},
		{
			"buffer":0,
			"byteLength":10800,
			"byteOffset":17688,
			"target":34962
		},
		{
			"buffer":0,
			"byteLength":10800,
			"byteOffset":28488,
			"target":34962
		},
		{
			"buffer":0,
			"byteLength":7200,
			"byteOffset":39288,
			"target":34962
		},
		{
			"buffer":0,
			"byteLength":3600,
			"byteOffset":46488,
			"target":34962
		},
		{
			"buffer":0,
			"byteLength":14400,
			"byteOffset":50088,
			"target":34962
		},
		{
			"buffer":0,
			"byteLength":10776,
			"byteOffset":64488,
			"target":34963
		},
		{
			"buffer":0,
			"byteLength":512,
			"byteOffset":75264
		},
		{
			"buffer":0,
			"byteLength":8,
			"byteOffset":75776
		},
		{
			"buffer":0,
			"byteLength":24,
			"byteOffset":75784
		},
		{
			"buffer":0,
			"byteLength":32,
			"byteOffset":75808
		},
		{
			"buffer":0,
			"byteLength":24,
			"byteOffset":75840
		},
		{
			"buffer":0,
			"byteLength":408,
			"byteOffset":75864
		},
		{
			"buffer":0,
			"byteLength":1224,
			"byteOffset":76272
		},
		{
			"buffer":0,
			"byteLength":1632,
			"byteOffset":77496
		},
		{
			"buffer":0,
			"byteLength":24,
			"byteOffset":79128
		},
		{
			"buffer":0,
			"byteLength":24,
			"byteOffset":79152
		},
		{
			"buffer":0,
			"byteLength":1632,
			"byteOffset":79176
		},
		{
			"buffer":0,
			"byteLength":24,
			"byteOffset":80808
		},
		{
			"buffer":0,
			"byteLength":24,
			"byteOffset":80832
		},
		{
			"buffer":0,
			"byteLength":1632,
			"byteOffset":80856
		},
		{
			"buffer":0,
			"byteLength":24,
			"byteOffset":82488
		},
		{
			"buffer":0,
			"byteLength":24,
			"byteOffset":82512
		},
		{
			"buffer":0,
			"byteLength":1632,
			"byteOffset":82536
		},
		{
			"buffer":0,
			"byteLength":24,
			"byteOffset":84168
		},
		{
			"buffer":0,
			"byteLength":24,
			"byteOffset":84192
		},
		{
			"buffer":0,
			"byteLength":1632,
			"byteOffset":84216
		},
		{
			"buffer":0,
			"byteLength":24,
			"byteOffset":85848
		},
		{
			"buffer":0,
			"byteLength":24,
			"byteOffset":85872
		},
		{
			"buffer":0,
			"byteLength":1632,
			"byteOffset":85896
		},
		{
			"buffer":0,
			"byteLength":24,
			"byteOffset":87528
		},
		{
			"buffer":0,
			"byteLength":24,
			"byteOffset":87552
		},
		{
			"buffer":0,
			"byteLength":32,
			"byteOffset":87576
		},
		{
			"buffer":0,
			"byteLength":24,
			"byteOffset":87608
		}
	],
	"buffers":[
		{
			"byteLength":87632,
			"uri":"Alien_Cyclop.bin"
		}
	]
}
