{
	"asset":{
		"generator":"Khronos glTF Blender I/O v4.0.44",
		"version":"2.0"
	},
	"extensionsUsed":[
		"KHR_materials_specular",
		"KHR_materials_ior"
	],
	"scene":0,
	"scenes":[
		{
			"name":"Scene",
			"nodes":[
				0
			]
		}
	],
	"nodes":[
		{
			"mesh":0,
			"name":"Platform_Padded"
		}
	],
	"materials":[
		{
			"doubleSided":true,
			"extensions":{
				"KHR_materials_specular":{
					"specularFactor":0
				},
				"KHR_materials_ior":{
					"ior":1.4500000476837158
				}
			},
			"name":"MI_PaddedWall",
			"normalTexture":{
				"index":0
			},
			"pbrMetallicRoughness":{
				"baseColorTexture":{
					"index":1
				},
				"metallicRoughnessTexture":{
					"index":2
				}
			}
		},
		{
			"doubleSided":true,
			"name":"MI_Trim_02",
			"normalTexture":{
				"index":3
			},
			"pbrMetallicRoughness":{
				"baseColorTexture":{
					"index":4
				},
				"metallicRoughnessTexture":{
					"index":5
				}
			}
		}
	],
	"meshes":[
		{
			"name":"Plane.046",
			"primitives":[
				{
					"attributes":{
						"POSITION":0,
						"NORMAL":1,
						"TEXCOORD_0":2
					},
					"indices":3,
					"material":0
				},
				{
					"attributes":{
						"POSITION":4,
						"NORMAL":5,
						"TEXCOORD_0":6
					},
					"indices":7,
					"material":1
				}
			]
		}
	],
	"textures":[
		{
			"sampler":0,
			"source":0
		},
		{
			"sampler":0,
			"source":1
		},
		{
			"sampler":0,
			"source":2
		},
		{
			"sampler":0,
			"source":3
		},
		{
			"sampler":0,
			"source":4
		},
		{
			"sampler":0,
			"source":5
		}
	],
	"images":[
		{
			"mimeType":"image/png",
			"name":"T_PaddedWall_Normal",
			"uri":"T_PaddedWall_Normal.png"
		},
		{
			"mimeType":"image/png",
			"name":"T_PaddedWall_BaseColor",
			"uri":"T_PaddedWall_BaseColor.png"
		},
		{
			"mimeType":"image/png",
			"name":"T_PaddedWall_ORM",
			"uri":"T_PaddedWall_ORM.png"
		},
		{
			"mimeType":"image/png",
			"name":"T_Trim_02_Normal",
			"uri":"T_Trim_02_Normal.png"
		},
		{
			"mimeType":"image/png",
			"name":"T_Trim_02_BaseColor_Red",
			"uri":"T_Trim_02_BaseColor_Red.png"
		},
		{
			"mimeType":"image/png",
			"name":"T_Trim_02_ORM",
			"uri":"T_Trim_02_ORM.png"
		}
	],
	"accessors":[
		{
			"bufferView":0,
			"componentType":5126,
			"count":879,
			"max":[
				2.00000262260437,
				0.06696831434965134,
				2.000000238418579
			],
			"min":[
				-2.0000030994415283,
				-0.0444498285651207,
				-2.000000476837158
			],
			"type":"VEC3"
		},
		{
			"bufferView":1,
			"componentType":5126,
			"count":879,
			"type":"VEC3"
		},
		{
			"bufferView":2,
			"componentType":5126,
			"count":879,
			"type":"VEC2"
		},
		{
			"bufferView":3,
			"componentType":5123,
			"count":3216,
			"type":"SCALAR"
		},
		{
			"bufferView":4,
			"componentType":5126,
			"count":1448,
			"max":[
				2.00000262260437,
				0.01967623271048069,
				2.000000238418579
			],
			"min":[
				-2.0000030994415283,
				-0.0444498285651207,
				-2.000000476837158
			],
			"type":"VEC3"
		},
		{
			"bufferView":5,
			"componentType":5126,
			"count":1448,
			"type":"VEC3"
		},
		{
			"bufferView":6,
			"componentType":5126,
			"count":1448,
			"type":"VEC2"
		},
		{
			"bufferView":7,
			"componentType":5123,
			"count":4128,
			"type":"SCALAR"
		}
	],
	"bufferViews":[
		{
			"buffer":0,
			"byteLength":10548,
			"byteOffset":0,
			"target":34962
		},
		{
			"buffer":0,
			"byteLength":10548,
			"byteOffset":10548,
			"target":34962
		},
		{
			"buffer":0,
			"byteLength":7032,
			"byteOffset":21096,
			"target":34962
		},
		{
			"buffer":0,
			"byteLength":6432,
			"byteOffset":28128,
			"target":34963
		},
		{
			"buffer":0,
			"byteLength":17376,
			"byteOffset":34560,
			"target":34962
		},
		{
			"buffer":0,
			"byteLength":17376,
			"byteOffset":51936,
			"target":34962
		},
		{
			"buffer":0,
			"byteLength":11584,
			"byteOffset":69312,
			"target":34962
		},
		{
			"buffer":0,
			"byteLength":8256,
			"byteOffset":80896,
			"target":34963
		}
	],
	"samplers":[
		{
			"magFilter":9729,
			"minFilter":9987
		}
	],
	"buffers":[
		{
			"byteLength":89152,
			"uri":"Platform_Padded.bin"
		}
	]
}
