{
	"asset":{
		"generator":"Khronos glTF Blender I/O v4.0.44",
		"version":"2.0"
	},
	"extensionsUsed":[
		"KHR_materials_specular",
		"KHR_materials_ior"
	],
	"scene":0,
	"scenes":[
		{
			"name":"Scene",
			"nodes":[
				0
			]
		}
	],
	"nodes":[
		{
			"mesh":0,
			"name":"Prop_Computer"
		}
	],
	"materials":[
		{
			"doubleSided":true,
			"name":"M_Decal_Screen",
			"pbrMetallicRoughness":{
				"baseColorTexture":{
					"index":0
				},
				"metallicFactor":0,
				"roughnessFactor":0.5
			}
		},
		{
			"doubleSided":true,
			"extensions":{
				"KHR_materials_specular":{
					"specularFactor":0
				},
				"KHR_materials_ior":{
					"ior":1.4500000476837158
				}
			},
			"name":"MI_Trim_01",
			"normalTexture":{
				"index":1
			},
			"pbrMetallicRoughness":{
				"baseColorTexture":{
					"index":2
				},
				"metallicRoughnessTexture":{
					"index":3
				}
			}
		},
		{
			"doubleSided":true,
			"name":"M_Black",
			"pbrMetallicRoughness":{
				"baseColorFactor":[
					0.0057737254537642,
					0.0057737254537642,
					0.0057737254537642,
					1
				],
				"metallicFactor":0,
				"roughnessFactor":0.5
			}
		}
	],
	"meshes":[
		{
			"name":"Plane.097",
			"primitives":[
				{
					"attributes":{
						"COLOR_0":0,
						"POSITION":1,
						"NORMAL":2,
						"TEXCOORD_0":3
					},
					"indices":4,
					"material":0
				},
				{
					"attributes":{
						"COLOR_0":5,
						"POSITION":6,
						"NORMAL":7,
						"TEXCOORD_0":8
					},
					"indices":9,
					"material":1
				},
				{
					"attributes":{
						"COLOR_0":10,
						"POSITION":11,
						"NORMAL":12,
						"TEXCOORD_0":13
					},
					"indices":14,
					"material":2
				}
			]
		}
	],
	"textures":[
		{
			"sampler":0,
			"source":0
		},
		{
			"sampler":0,
			"source":1
		},
		{
			"sampler":0,
			"source":2
		},
		{
			"sampler":0,
			"source":3
		}
	],
	"images":[
		{
			"mimeType":"image/png",
			"name":"T_Decals",
			"uri":"T_Decals.png"
		},
		{
			"mimeType":"image/png",
			"name":"T_Trim_01_Normal",
			"uri":"T_Trim_01_Normal.png"
		},
		{
			"mimeType":"image/png",
			"name":"T_Trim_01_BaseColor_Red",
			"uri":"T_Trim_01_BaseColor_Red.png"
		},
		{
			"mimeType":"image/png",
			"name":"T_Trim_01_ORM",
			"uri":"T_Trim_01_ORM.png"
		}
	],
	"accessors":[
		{
			"bufferView":0,
			"componentType":5123,
			"count":83,
			"normalized":true,
			"type":"VEC4"
		},
		{
			"bufferView":1,
			"componentType":5126,
			"count":83,
			"max":[
				0.33694082498550415,
				1.5908066034317017,
				0.22568681836128235
			],
			"min":[
				-0.3369406759738922,
				1.2768127918243408,
				-0.0807439386844635
			],
			"type":"VEC3"
		},
		{
			"bufferView":2,
			"componentType":5126,
			"count":83,
			"type":"VEC3"
		},
		{
			"bufferView":3,
			"componentType":5126,
			"count":83,
			"type":"VEC2"
		},
		{
			"bufferView":4,
			"componentType":5123,
			"count":225,
			"type":"SCALAR"
		},
		{
			"bufferView":5,
			"componentType":5123,
			"count":367,
			"normalized":true,
			"type":"VEC4"
		},
		{
			"bufferView":6,
			"componentType":5126,
			"count":367,
			"max":[
				0.37167635560035706,
				1.5915641784667969,
				0.3462287187576294
			],
			"min":[
				-0.3716762363910675,
				-0.0011917203664779663,
				-0.21623048186302185
			],
			"type":"VEC3"
		},
		{
			"bufferView":7,
			"componentType":5126,
			"count":367,
			"type":"VEC3"
		},
		{
			"bufferView":8,
			"componentType":5126,
			"count":367,
			"type":"VEC2"
		},
		{
			"bufferView":9,
			"componentType":5123,
			"count":1050,
			"type":"SCALAR"
		},
		{
			"bufferView":10,
			"componentType":5123,
			"count":96,
			"normalized":true,
			"type":"VEC4"
		},
		{
			"bufferView":11,
			"componentType":5126,
			"count":96,
			"max":[
				0.3487084209918976,
				1.5915641784667969,
				0.23400777578353882
			],
			"min":[
				-0.34870827198028564,
				1.2684918642044067,
				-0.08906489610671997
			],
			"type":"VEC3"
		},
		{
			"bufferView":12,
			"componentType":5126,
			"count":96,
			"type":"VEC3"
		},
		{
			"bufferView":13,
			"componentType":5126,
			"count":96,
			"type":"VEC2"
		},
		{
			"bufferView":14,
			"componentType":5123,
			"count":282,
			"type":"SCALAR"
		}
	],
	"bufferViews":[
		{
			"buffer":0,
			"byteLength":664,
			"byteOffset":0,
			"target":34962
		},
		{
			"buffer":0,
			"byteLength":996,
			"byteOffset":664,
			"target":34962
		},
		{
			"buffer":0,
			"byteLength":996,
			"byteOffset":1660,
			"target":34962
		},
		{
			"buffer":0,
			"byteLength":664,
			"byteOffset":2656,
			"target":34962
		},
		{
			"buffer":0,
			"byteLength":450,
			"byteOffset":3320,
			"target":34963
		},
		{
			"buffer":0,
			"byteLength":2936,
			"byteOffset":3772,
			"target":34962
		},
		{
			"buffer":0,
			"byteLength":4404,
			"byteOffset":6708,
			"target":34962
		},
		{
			"buffer":0,
			"byteLength":4404,
			"byteOffset":11112,
			"target":34962
		},
		{
			"buffer":0,
			"byteLength":2936,
			"byteOffset":15516,
			"target":34962
		},
		{
			"buffer":0,
			"byteLength":2100,
			"byteOffset":18452,
			"target":34963
		},
		{
			"buffer":0,
			"byteLength":768,
			"byteOffset":20552,
			"target":34962
		},
		{
			"buffer":0,
			"byteLength":1152,
			"byteOffset":21320,
			"target":34962
		},
		{
			"buffer":0,
			"byteLength":1152,
			"byteOffset":22472,
			"target":34962
		},
		{
			"buffer":0,
			"byteLength":768,
			"byteOffset":23624,
			"target":34962
		},
		{
			"buffer":0,
			"byteLength":564,
			"byteOffset":24392,
			"target":34963
		}
	],
	"samplers":[
		{
			"magFilter":9729,
			"minFilter":9987
		}
	],
	"buffers":[
		{
			"byteLength":24956,
			"uri":"Prop_Computer.bin"
		}
	]
}
