{
	"asset":{
		"copyright":"Quaternius and Castle Game Engine devs",
		"generator":"Khronos glTF Blender I/O v4.4.56",
		"version":"2.0"
	},
	"scene":0,
	"scenes":[
		{
			"name":"Scene",
			"nodes":[
				0
			]
		}
	],
	"nodes":[
		{
			"mesh":0,
			"name":"Floor_Brick",
			"translation":[
				-90,
				0,
				100
			]
		}
	],
	"materials":[
		{
			"doubleSided":true,
			"name":"MI_Brick",
			"normalTexture":{
				"index":0
			},
			"pbrMetallicRoughness":{
				"baseColorTexture":{
					"index":1
				},
				"metallicFactor":0,
				"metallicRoughnessTexture":{
					"index":2
				}
			}
		}
	],
	"meshes":[
		{
			"name":"Plane.004",
			"primitives":[
				{
					"attributes":{
						"POSITION":0,
						"NORMAL":1,
						"TEXCOORD_0":2,
						"TANGENT":3
					},
					"indices":4,
					"material":0
				}
			]
		}
	],
	"textures":[
		{
			"sampler":0,
			"source":0
		},
		{
			"sampler":0,
			"source":1
		},
		{
			"sampler":0,
			"source":2
		}
	],
	"images":[
		{
			"mimeType":"image/png",
			"name":"T_Brick_Normal",
			"uri":"quaternius_medieval_village/glTF/T_Brick_Normal.png"
		},
		{
			"mimeType":"image/png",
			"name":"T_Brick_BaseColor",
			"uri":"quaternius_medieval_village/glTF/T_Brick_BaseColor.png"
		},
		{
			"mimeType":"image/png",
			"name":"T_Brick_Roughness",
			"uri":"quaternius_medieval_village/glTF/T_Brick_Roughness.png"
		}
	],
	"accessors":[
		{
			"bufferView":0,
			"componentType":5126,
			"count":80000,
			"max":[
				199,
				0.009999990463256836,
				1
			],
			"min":[
				-1,
				-0.010000384412705898,
				-199
			],
			"type":"VEC3"
		},
		{
			"bufferView":1,
			"componentType":5126,
			"count":80000,
			"type":"VEC3"
		},
		{
			"bufferView":2,
			"componentType":5126,
			"count":80000,
			"type":"VEC2"
		},
		{
			"bufferView":3,
			"componentType":5126,
			"count":80000,
			"type":"VEC4"
		},
		{
			"bufferView":4,
			"componentType":5125,
			"count":120000,
			"type":"SCALAR"
		}
	],
	"bufferViews":[
		{
			"buffer":0,
			"byteLength":960000,
			"byteOffset":0,
			"target":34962
		},
		{
			"buffer":0,
			"byteLength":960000,
			"byteOffset":960000,
			"target":34962
		},
		{
			"buffer":0,
			"byteLength":640000,
			"byteOffset":1920000,
			"target":34962
		},
		{
			"buffer":0,
			"byteLength":1280000,
			"byteOffset":2560000,
			"target":34962
		},
		{
			"buffer":0,
			"byteLength":480000,
			"byteOffset":3840000,
			"target":34963
		}
	],
	"samplers":[
		{
			"magFilter":9729,
			"minFilter":9987
		}
	],
	"buffers":[
		{
			"byteLength":4320000,
			"uri":"village_level_ground.bin"
		}
	]
}
