{
	"asset":{
		"generator":"Khronos glTF Blender I/O v4.1.62",
		"version":"2.0"
	},
	"scene":0,
	"scenes":[
		{
			"name":"Scene",
			"nodes":[
				0
			]
		}
	],
	"nodes":[
		{
			"mesh":0,
			"name":"Grid"
		}
	],
	"materials":[
		{
			"doubleSided":true,
			"name":"Material.001",
			"pbrMetallicRoughness":{
				"baseColorFactor":[
					0.800000011920929,
					0.800000011920929,
					0.800000011920929,
					1
				],
				"metallicFactor":0,
				"roughnessFactor":0.5
			}
		}
	],
	"meshes":[
		{
			"name":"Grid",
			"primitives":[
				{
					"attributes":{
						"POSITION":0,
						"NORMAL":1,
						"TEXCOORD_0":2
					},
					"indices":3,
					"material":0
				}
			]
		}
	],
	"accessors":[
		{
			"bufferView":0,
			"componentType":5126,
			"count":1014,
			"max":[
				1.000041127204895,
				0.40866556763648987,
				1.0000115633010864
			],
			"min":[
				-1,
				3.435675535001792e-05,
				-1.0000603199005127
			],
			"type":"VEC3"
		},
		{
			"bufferView":1,
			"componentType":5126,
			"count":1014,
			"type":"VEC3"
		},
		{
			"bufferView":2,
			"componentType":5126,
			"count":1014,
			"type":"VEC2"
		},
		{
			"bufferView":3,
			"componentType":5123,
			"count":5997,
			"type":"SCALAR"
		}
	],
	"bufferViews":[
		{
			"buffer":0,
			"byteLength":12168,
			"byteOffset":0,
			"target":34962
		},
		{
			"buffer":0,
			"byteLength":12168,
			"byteOffset":12168,
			"target":34962
		},
		{
			"buffer":0,
			"byteLength":8112,
			"byteOffset":24336,
			"target":34962
		},
		{
			"buffer":0,
			"byteLength":11994,
			"byteOffset":32448,
			"target":34963
		}
	],
	"buffers":[
		{
			"byteLength":44444,
			"uri":"level.bin"
		}
	]
}
