{
    "asset" : {
        "generator" : "Khronos glTF Blender I/O v1.7.33",
        "version" : "2.0"
    },
    "scene" : 0,
    "scenes" : [
        {
            "name" : "Scene",
            "nodes" : [
                0,
                1,
                2,
                3
            ]
        }
    ],
    "nodes" : [
        {
            "mesh" : 0,
            "name" : "Grid.001"
        },
        {
            "mesh" : 1,
            "name" : "Cube",
            "scale" : [
                20.708505630493164,
                1.3000000715255737,
                1.3000000715255737
            ],
            "translation" : [
                0.06177401542663574,
                0.12787699699401855,
                -67.47038269042969
            ]
        },
        {
            "mesh" : 2,
            "name" : "Grid"
        },
        {
            "mesh" : 3,
            "name" : "Plane",
            "scale" : [
                15.157414436340332,
                15.157414436340332,
                15.157414436340332
            ],
            "translation" : [
                -0.03880500793457031,
                -3.0397329330444336,
                -37.47038269042969
            ]
        }
    ],
    "materials" : [
        {
            "doubleSided" : true,
            "name" : "MatRock",
            "normalTexture" : {
                "index" : 0
            },
            "pbrMetallicRoughness" : {
                "baseColorTexture" : {
                    "index" : 1
                },
                "metallicFactor" : 0.11612903326749802
            }
        },
        {
            "doubleSided" : true,
            "name" : "MatWalls",
            "pbrMetallicRoughness" : {
                "baseColorTexture" : {
                    "index" : 2
                },
                "metallicFactor" : 0
            }
        },
        {
            "doubleSided" : true,
            "name" : "MatWalls.001",
            "pbrMetallicRoughness" : {
                "baseColorTexture" : {
                    "index" : 3
                },
                "metallicFactor" : 0
            }
        },
        {
            "doubleSided" : true,
            "name" : "MatGround",
            "pbrMetallicRoughness" : {
                "baseColorTexture" : {
                    "index" : 4
                },
                "metallicFactor" : 0
            }
        },
        {
            "alphaMode" : "BLEND",
            "doubleSided" : true,
            "name" : "MatWater",
            "pbrMetallicRoughness" : {
                "baseColorFactor" : [
                    1,
                    1,
                    1,
                    0.47096776962280273
                ],
                "baseColorTexture" : {
                    "index" : 5
                },
                "metallicFactor" : 0.3612903356552124,
                "roughnessFactor" : 0.1387096643447876
            }
        }
    ],
    "meshes" : [
        {
            "name" : "Grid.002",
            "primitives" : [
                {
                    "attributes" : {
                        "POSITION" : 0,
                        "NORMAL" : 1,
                        "TANGENT" : 2,
                        "TEXCOORD_0" : 3
                    },
                    "indices" : 4,
                    "material" : 0
                }
            ]
        },
        {
            "name" : "Cube.014",
            "primitives" : [
                {
                    "attributes" : {
                        "POSITION" : 5,
                        "NORMAL" : 6,
                        "TANGENT" : 7,
                        "TEXCOORD_0" : 8
                    },
                    "indices" : 9,
                    "material" : 1
                },
                {
                    "attributes" : {
                        "POSITION" : 10,
                        "NORMAL" : 11,
                        "TANGENT" : 12,
                        "TEXCOORD_0" : 13
                    },
                    "indices" : 14,
                    "material" : 2
                }
            ]
        },
        {
            "name" : "Grid.003",
            "primitives" : [
                {
                    "attributes" : {
                        "POSITION" : 15,
                        "NORMAL" : 16,
                        "TANGENT" : 17,
                        "TEXCOORD_0" : 18
                    },
                    "indices" : 19,
                    "material" : 3
                }
            ]
        },
        {
            "extras" : {
                "CastleCollision" : "none"
            },
            "name" : "Plane",
            "primitives" : [
                {
                    "attributes" : {
                        "POSITION" : 20,
                        "NORMAL" : 21,
                        "TANGENT" : 22,
                        "TEXCOORD_0" : 23
                    },
                    "indices" : 24,
                    "material" : 4
                }
            ]
        }
    ],
    "textures" : [
        {
            "sampler" : 0,
            "source" : 0
        },
        {
            "sampler" : 0,
            "source" : 1
        },
        {
            "sampler" : 0,
            "source" : 2
        },
        {
            "sampler" : 0,
            "source" : 3
        },
        {
            "sampler" : 0,
            "source" : 4
        },
        {
            "sampler" : 0,
            "source" : 5
        }
    ],
    "images" : [
        {
            "mimeType" : "image/png",
            "name" : "concrete-normalmap",
            "uri" : "textures/concrete-normalmap.png"
        },
        {
            "mimeType" : "image/png",
            "name" : "concrete",
            "uri" : "textures/concrete.png"
        },
        {
            "mimeType" : "image/png",
            "name" : "large-stone-wall",
            "uri" : "textures/large-stone-wall.png"
        },
        {
            "mimeType" : "image/png",
            "name" : "stone_wall_4",
            "uri" : "textures/stone_wall_4.png"
        },
        {
            "mimeType" : "image/png",
            "name" : "tilable-img_0044",
            "uri" : "textures/tilable-img_0044.png"
        },
        {
            "mimeType" : "image/png",
            "name" : "brushwalker437",
            "uri" : "textures/brushwalker437.png"
        }
    ],
    "accessors" : [
        {
            "bufferView" : 0,
            "componentType" : 5126,
            "count" : 328,
            "max" : [
                22.531688690185547,
                13.715109825134277,
                25.46816062927246
            ],
            "min" : [
                -22.342710494995117,
                -19.715087890625,
                -74.73426055908203
            ],
            "type" : "VEC3"
        },
        {
            "bufferView" : 1,
            "componentType" : 5126,
            "count" : 328,
            "type" : "VEC3"
        },
        {
            "bufferView" : 2,
            "componentType" : 5126,
            "count" : 328,
            "type" : "VEC4"
        },
        {
            "bufferView" : 3,
            "componentType" : 5126,
            "count" : 328,
            "type" : "VEC2"
        },
        {
            "bufferView" : 4,
            "componentType" : 5123,
            "count" : 1458,
            "type" : "SCALAR"
        },
        {
            "bufferView" : 5,
            "componentType" : 5126,
            "count" : 220,
            "max" : [
                0.9289233088493347,
                7.627874374389648,
                0.9135210514068604
            ],
            "min" : [
                -0.9347249865531921,
                -0.6868619918823242,
                -30.6373348236084
            ],
            "type" : "VEC3"
        },
        {
            "bufferView" : 6,
            "componentType" : 5126,
            "count" : 220,
            "type" : "VEC3"
        },
        {
            "bufferView" : 7,
            "componentType" : 5126,
            "count" : 220,
            "type" : "VEC4"
        },
        {
            "bufferView" : 8,
            "componentType" : 5126,
            "count" : 220,
            "type" : "VEC2"
        },
        {
            "bufferView" : 9,
            "componentType" : 5123,
            "count" : 372,
            "type" : "SCALAR"
        },
        {
            "bufferView" : 10,
            "componentType" : 5126,
            "count" : 140,
            "max" : [
                0.16184130311012268,
                6.543243408203125,
                0.9135210514068604
            ],
            "min" : [
                -0.16764351725578308,
                -0.6868619918823242,
                -0.9501310586929321
            ],
            "type" : "VEC3"
        },
        {
            "bufferView" : 11,
            "componentType" : 5126,
            "count" : 140,
            "type" : "VEC3"
        },
        {
            "bufferView" : 12,
            "componentType" : 5126,
            "count" : 140,
            "type" : "VEC4"
        },
        {
            "bufferView" : 13,
            "componentType" : 5126,
            "count" : 140,
            "type" : "VEC2"
        },
        {
            "bufferView" : 14,
            "componentType" : 5123,
            "count" : 210,
            "type" : "SCALAR"
        },
        {
            "bufferView" : 15,
            "componentType" : 5126,
            "count" : 800,
            "max" : [
                19.999998092651367,
                10.41539478302002,
                19.999998092651367
            ],
            "min" : [
                -20,
                -18.973388671875,
                -108
            ],
            "type" : "VEC3"
        },
        {
            "bufferView" : 16,
            "componentType" : 5126,
            "count" : 800,
            "type" : "VEC3"
        },
        {
            "bufferView" : 17,
            "componentType" : 5126,
            "count" : 800,
            "type" : "VEC4"
        },
        {
            "bufferView" : 18,
            "componentType" : 5126,
            "count" : 800,
            "type" : "VEC2"
        },
        {
            "bufferView" : 19,
            "componentType" : 5123,
            "count" : 4320,
            "type" : "SCALAR"
        },
        {
            "bufferView" : 20,
            "componentType" : 5126,
            "count" : 289,
            "max" : [
                1.4804186820983887,
                0.03824496269226074,
                0.9999999403953552
            ],
            "min" : [
                -1.4804186820983887,
                -0.02534853294491768,
                -0.9999999403953552
            ],
            "type" : "VEC3"
        },
        {
            "bufferView" : 21,
            "componentType" : 5126,
            "count" : 289,
            "type" : "VEC3"
        },
        {
            "bufferView" : 22,
            "componentType" : 5126,
            "count" : 289,
            "type" : "VEC4"
        },
        {
            "bufferView" : 23,
            "componentType" : 5126,
            "count" : 289,
            "type" : "VEC2"
        },
        {
            "bufferView" : 24,
            "componentType" : 5123,
            "count" : 1536,
            "type" : "SCALAR"
        }
    ],
    "bufferViews" : [
        {
            "buffer" : 0,
            "byteLength" : 3936,
            "byteOffset" : 0
        },
        {
            "buffer" : 0,
            "byteLength" : 3936,
            "byteOffset" : 3936
        },
        {
            "buffer" : 0,
            "byteLength" : 5248,
            "byteOffset" : 7872
        },
        {
            "buffer" : 0,
            "byteLength" : 2624,
            "byteOffset" : 13120
        },
        {
            "buffer" : 0,
            "byteLength" : 2916,
            "byteOffset" : 15744
        },
        {
            "buffer" : 0,
            "byteLength" : 2640,
            "byteOffset" : 18660
        },
        {
            "buffer" : 0,
            "byteLength" : 2640,
            "byteOffset" : 21300
        },
        {
            "buffer" : 0,
            "byteLength" : 3520,
            "byteOffset" : 23940
        },
        {
            "buffer" : 0,
            "byteLength" : 1760,
            "byteOffset" : 27460
        },
        {
            "buffer" : 0,
            "byteLength" : 744,
            "byteOffset" : 29220
        },
        {
            "buffer" : 0,
            "byteLength" : 1680,
            "byteOffset" : 29964
        },
        {
            "buffer" : 0,
            "byteLength" : 1680,
            "byteOffset" : 31644
        },
        {
            "buffer" : 0,
            "byteLength" : 2240,
            "byteOffset" : 33324
        },
        {
            "buffer" : 0,
            "byteLength" : 1120,
            "byteOffset" : 35564
        },
        {
            "buffer" : 0,
            "byteLength" : 420,
            "byteOffset" : 36684
        },
        {
            "buffer" : 0,
            "byteLength" : 9600,
            "byteOffset" : 37104
        },
        {
            "buffer" : 0,
            "byteLength" : 9600,
            "byteOffset" : 46704
        },
        {
            "buffer" : 0,
            "byteLength" : 12800,
            "byteOffset" : 56304
        },
        {
            "buffer" : 0,
            "byteLength" : 6400,
            "byteOffset" : 69104
        },
        {
            "buffer" : 0,
            "byteLength" : 8640,
            "byteOffset" : 75504
        },
        {
            "buffer" : 0,
            "byteLength" : 3468,
            "byteOffset" : 84144
        },
        {
            "buffer" : 0,
            "byteLength" : 3468,
            "byteOffset" : 87612
        },
        {
            "buffer" : 0,
            "byteLength" : 4624,
            "byteOffset" : 91080
        },
        {
            "buffer" : 0,
            "byteLength" : 2312,
            "byteOffset" : 95704
        },
        {
            "buffer" : 0,
            "byteLength" : 3072,
            "byteOffset" : 98016
        }
    ],
    "samplers" : [
        {
            "magFilter" : 9729,
            "minFilter" : 9987
        }
    ],
    "buffers" : [
        {
            "byteLength" : 101088,
            "uri" : "example_level_upcoming.bin"
        }
    ]
}
