{
	"asset":{
		"generator":"Khronos glTF Blender I/O v4.1.62",
		"version":"2.0"
	},
	"scene":0,
	"scenes":[
		{
			"name":"Scene",
			"nodes":[
				0,
				1,
				2,
				3,
				4,
				5,
				6,
				7,
				8,
				9,
				10,
				11,
				12,
				13,
				14,
				15,
				16,
				17,
				18,
				19,
				20,
				21,
				22,
				23,
				24,
				25,
				26,
				27
			]
		}
	],
	"nodes":[
		{
			"mesh":0,
			"name":"Cube.001",
			"scale":[
				15.600000381469727,
				15.600000381469727,
				15.600000381469727
			],
			"translation":[
				0.21954353153705597,
				1.5782034397125244,
				4.464597225189209
			]
		},
		{
			"mesh":1,
			"name":"Circle.019",
			"scale":[
				15.600000381469727,
				15.600000381469727,
				15.600000381469727
			],
			"translation":[
				-21.466777801513672,
				-1.8922886848449707,
				7.410339832305908
			]
		},
		{
			"mesh":1,
			"name":"Circle.018",
			"scale":[
				15.600000381469727,
				15.600000381469727,
				15.600000381469727
			],
			"translation":[
				-21.466777801513672,
				-1.8922886848449707,
				-7.444723606109619
			]
		},
		{
			"mesh":1,
			"name":"Circle.017",
			"scale":[
				15.600000381469727,
				15.600000381469727,
				15.600000381469727
			],
			"translation":[
				-17.096529006958008,
				-0.9925316572189331,
				-7.444723606109619
			]
		},
		{
			"mesh":1,
			"name":"Circle.016",
			"scale":[
				15.600000381469727,
				15.600000381469727,
				15.600000381469727
			],
			"translation":[
				-17.096529006958008,
				-0.9925316572189331,
				7.410339832305908
			]
		},
		{
			"mesh":1,
			"name":"Circle.015",
			"scale":[
				15.600000381469727,
				15.600000381469727,
				15.600000381469727
			],
			"translation":[
				-12.340667724609375,
				0.4213727116584778,
				7.410339832305908
			]
		},
		{
			"mesh":1,
			"name":"Circle.014",
			"scale":[
				15.600000381469727,
				15.600000381469727,
				15.600000381469727
			],
			"translation":[
				-12.340667724609375,
				0.4213727116584778,
				-7.444723606109619
			]
		},
		{
			"mesh":1,
			"name":"Circle.013",
			"scale":[
				15.600000381469727,
				15.600000381469727,
				15.600000381469727
			],
			"translation":[
				17.99400520324707,
				-1.2496050596237183,
				-7.444723606109619
			]
		},
		{
			"mesh":1,
			"name":"Circle.012",
			"scale":[
				15.600000381469727,
				15.600000381469727,
				15.600000381469727
			],
			"translation":[
				17.99400520324707,
				-1.2496050596237183,
				7.410339832305908
			]
		},
		{
			"mesh":1,
			"name":"Circle.011",
			"scale":[
				15.600000381469727,
				15.600000381469727,
				15.600000381469727
			],
			"translation":[
				13.109609603881836,
				0.16429907083511353,
				7.410339832305908
			]
		},
		{
			"mesh":1,
			"name":"Circle.010",
			"scale":[
				15.600000381469727,
				15.600000381469727,
				15.600000381469727
			],
			"translation":[
				13.109609603881836,
				0.16429907083511353,
				-7.444723606109619
			]
		},
		{
			"mesh":1,
			"name":"Circle.009",
			"scale":[
				15.600000381469727,
				15.600000381469727,
				15.600000381469727
			],
			"translation":[
				4.754720687866211,
				1.5782034397125244,
				-7.444723606109619
			]
		},
		{
			"mesh":1,
			"name":"Circle.008",
			"scale":[
				15.600000381469727,
				15.600000381469727,
				15.600000381469727
			],
			"translation":[
				4.754720687866211,
				1.5782034397125244,
				7.410339832305908
			]
		},
		{
			"mesh":1,
			"name":"Circle.007",
			"scale":[
				15.600000381469727,
				15.600000381469727,
				15.600000381469727
			],
			"translation":[
				-3.7208423614501953,
				1.5782034397125244,
				7.410339832305908
			]
		},
		{
			"mesh":1,
			"name":"Circle.006",
			"scale":[
				15.600000381469727,
				15.600000381469727,
				15.600000381469727
			],
			"translation":[
				-3.7208423614501953,
				1.5782034397125244,
				-7.444723606109619
			]
		},
		{
			"mesh":1,
			"name":"Circle.005",
			"scale":[
				15.600000381469727,
				15.600000381469727,
				15.600000381469727
			],
			"translation":[
				0.9591584801673889,
				1.5782034397125244,
				-7.444723606109619
			]
		},
		{
			"mesh":1,
			"name":"Circle.004",
			"scale":[
				15.600000381469727,
				15.600000381469727,
				15.600000381469727
			],
			"translation":[
				0.9591584801673889,
				1.5782034397125244,
				7.410339832305908
			]
		},
		{
			"mesh":1,
			"name":"Circle.003",
			"scale":[
				15.600000381469727,
				15.600000381469727,
				15.600000381469727
			],
			"translation":[
				8.759160995483398,
				1.5782034397125244,
				-7.444723606109619
			]
		},
		{
			"mesh":1,
			"name":"Circle.002",
			"scale":[
				15.600000381469727,
				15.600000381469727,
				15.600000381469727
			],
			"translation":[
				8.759160995483398,
				1.5782034397125244,
				7.410339832305908
			]
		},
		{
			"mesh":1,
			"name":"Circle.001",
			"scale":[
				15.600000381469727,
				15.600000381469727,
				15.600000381469727
			],
			"translation":[
				-8.40084171295166,
				1.5782034397125244,
				7.410339832305908
			]
		},
		{
			"mesh":1,
			"name":"Circle",
			"scale":[
				15.600000381469727,
				15.600000381469727,
				15.600000381469727
			],
			"translation":[
				-8.40084171295166,
				1.5782034397125244,
				-7.444723606109619
			]
		},
		{
			"mesh":2,
			"name":"Cube",
			"scale":[
				15.600000381469727,
				15.600000381469727,
				15.600000381469727
			],
			"translation":[
				0.21954353153705597,
				1.5782034397125244,
				-10.3554048538208
			]
		},
		{
			"mesh":3,
			"name":"Cube.004",
			"scale":[
				15.600000381469727,
				15.600000381469727,
				15.600000381469727
			],
			"translation":[
				0.21954353153705597,
				1.5782034397125244,
				4.464597225189209
			]
		},
		{
			"mesh":4,
			"name":"Plane.001",
			"scale":[
				15.600000381469727,
				15.600000381469727,
				15.600000381469727
			],
			"translation":[
				0.2195454090833664,
				-6.845796585083008,
				0.019843120127916336
			]
		},
		{
			"mesh":5,
			"name":"Plane",
			"scale":[
				15.600000381469727,
				15.600000381469727,
				15.600000381469727
			],
			"translation":[
				0.2195454090833664,
				-6.221796989440918,
				0.019843120127916336
			]
		},
		{
			"mesh":6,
			"name":"Grid.002",
			"rotation":[
				0,
				-1,
				0,
				7.549790126404332e-08
			],
			"scale":[
				15.600000381469727,
				15.600000381469727,
				15.600000381469727
			],
			"translation":[
				40.238704681396484,
				-7.813056945800781,
				0.019843067973852158
			]
		},
		{
			"mesh":7,
			"name":"Grid.001",
			"scale":[
				15.600000381469727,
				15.600000381469727,
				15.600000381469727
			],
			"translation":[
				-40.88130187988281,
				-7.813056945800781,
				0.019843067973852158
			]
		},
		{
			"mesh":8,
			"name":"Grid",
			"scale":[
				15.600000381469727,
				15.600000381469727,
				15.600000381469727
			],
			"translation":[
				0.2195454090833664,
				-12.461799621582031,
				0.019843120127916336
			]
		}
	],
	"materials":[
		{
			"doubleSided":true,
			"name":"concrete",
			"pbrMetallicRoughness":{
				"baseColorTexture":{
					"index":0
				},
				"metallicFactor":0,
				"roughnessFactor":0.7156862616539001
			}
		},
		{
			"doubleSided":true,
			"name":"road",
			"pbrMetallicRoughness":{
				"baseColorTexture":{
					"index":1
				},
				"metallicFactor":0,
				"roughnessFactor":0.7254902124404907
			}
		},
		{
			"doubleSided":true,
			"name":"Material.004",
			"pbrMetallicRoughness":{
				"baseColorTexture":{
					"index":2
				},
				"metallicFactor":0,
				"roughnessFactor":0.5
			}
		},
		{
			"doubleSided":true,
			"name":"grass",
			"pbrMetallicRoughness":{
				"baseColorTexture":{
					"index":3
				},
				"metallicFactor":0,
				"roughnessFactor":0.9313725233078003
			}
		},
		{
			"alphaMode":"BLEND",
			"doubleSided":true,
			"name":"water",
			"pbrMetallicRoughness":{
				"baseColorFactor":[
					1,
					1,
					1,
					0.8039215803146362
				],
				"baseColorTexture":{
					"index":4
				},
				"metallicFactor":0,
				"roughnessFactor":0.9509804248809814
			}
		}
	],
	"meshes":[
		{
			"name":"Cube.001",
			"primitives":[
				{
					"attributes":{
						"POSITION":0,
						"NORMAL":1,
						"TEXCOORD_0":2
					},
					"indices":3,
					"material":0
				}
			]
		},
		{
			"name":"Circle",
			"primitives":[
				{
					"attributes":{
						"POSITION":4,
						"NORMAL":5,
						"TEXCOORD_0":6
					},
					"indices":7,
					"material":0
				}
			]
		},
		{
			"name":"Cube.002",
			"primitives":[
				{
					"attributes":{
						"POSITION":8,
						"NORMAL":9,
						"TEXCOORD_0":10
					},
					"indices":3,
					"material":0
				}
			]
		},
		{
			"name":"Cube.002",
			"primitives":[
				{
					"attributes":{
						"POSITION":11,
						"NORMAL":12,
						"TEXCOORD_0":13
					},
					"indices":3,
					"material":0
				}
			]
		},
		{
			"name":"Plane.001",
			"primitives":[
				{
					"attributes":{
						"POSITION":14,
						"NORMAL":15,
						"TEXCOORD_0":16
					},
					"indices":17,
					"material":1
				}
			]
		},
		{
			"name":"Plane",
			"primitives":[
				{
					"attributes":{
						"POSITION":18,
						"NORMAL":19,
						"TEXCOORD_0":20
					},
					"indices":21,
					"material":2
				}
			]
		},
		{
			"name":"Grid.001",
			"primitives":[
				{
					"attributes":{
						"POSITION":22,
						"NORMAL":23,
						"TEXCOORD_0":24
					},
					"indices":25,
					"material":3
				}
			]
		},
		{
			"name":"Grid.001",
			"primitives":[
				{
					"attributes":{
						"POSITION":26,
						"NORMAL":27,
						"TEXCOORD_0":28
					},
					"indices":25,
					"material":3
				}
			]
		},
		{
			"name":"Grid.002",
			"primitives":[
				{
					"attributes":{
						"POSITION":29,
						"NORMAL":30,
						"TEXCOORD_0":31
					},
					"indices":32,
					"material":4
				}
			]
		}
	],
	"textures":[
		{
			"sampler":0,
			"source":0
		},
		{
			"sampler":0,
			"source":1
		},
		{
			"sampler":0,
			"source":0
		},
		{
			"sampler":0,
			"source":2
		},
		{
			"sampler":0,
			"source":3
		}
	],
	"images":[
		{
			"mimeType":"image/jpeg",
			"name":"059_plombieresgbr.jpg",
			"uri":"textures/059_plombieresgbr.jpg"
		},
		{
			"mimeType":"image/jpeg",
			"name":"023bois.jpg",
			"uri":"textures/023bois.jpg"
		},
		{
			"mimeType":"image/jpeg",
			"name":"dirtfrancecornergrass",
			"uri":"textures/dirtfrancecornergrass.jpg"
		},
		{
			"mimeType":"image/jpeg",
			"name":"water2.jpg",
			"uri":"textures/water2.jpg"
		}
	],
	"accessors":[
		{
			"bufferView":0,
			"componentType":5126,
			"count":1246,
			"max":[
				2.288691520690918,
				0.11186745762825012,
				0.21000012755393982
			],
			"min":[
				-2.288691520690918,
				-0.5518589019775391,
				0.16999991238117218
			],
			"type":"VEC3"
		},
		{
			"bufferView":1,
			"componentType":5126,
			"count":1246,
			"type":"VEC3"
		},
		{
			"bufferView":2,
			"componentType":5126,
			"count":1246,
			"type":"VEC2"
		},
		{
			"bufferView":3,
			"componentType":5123,
			"count":3648,
			"type":"SCALAR"
		},
		{
			"bufferView":4,
			"componentType":5126,
			"count":440,
			"max":[
				0.01400014478713274,
				0,
				0.014000022783875465
			],
			"min":[
				-0.013999859802424908,
				-1,
				-0.013999979943037033
			],
			"type":"VEC3"
		},
		{
			"bufferView":5,
			"componentType":5126,
			"count":440,
			"type":"VEC3"
		},
		{
			"bufferView":6,
			"componentType":5126,
			"count":440,
			"type":"VEC2"
		},
		{
			"bufferView":7,
			"componentType":5123,
			"count":1620,
			"type":"SCALAR"
		},
		{
			"bufferView":8,
			"componentType":5126,
			"count":1246,
			"max":[
				2.288691520690918,
				0.11186745762825012,
				0.21000012755393982
			],
			"min":[
				-2.288691520690918,
				-0.5518589019775391,
				0.16999991238117218
			],
			"type":"VEC3"
		},
		{
			"bufferView":9,
			"componentType":5126,
			"count":1246,
			"type":"VEC3"
		},
		{
			"bufferView":10,
			"componentType":5126,
			"count":1246,
			"type":"VEC2"
		},
		{
			"bufferView":11,
			"componentType":5126,
			"count":1246,
			"max":[
				2.288691520690918,
				0.11186745762825012,
				0.21000012755393982
			],
			"min":[
				-2.288691520690918,
				-0.5518589019775391,
				0.16999991238117218
			],
			"type":"VEC3"
		},
		{
			"bufferView":12,
			"componentType":5126,
			"count":1246,
			"type":"VEC3"
		},
		{
			"bufferView":13,
			"componentType":5126,
			"count":1246,
			"type":"VEC2"
		},
		{
			"bufferView":14,
			"componentType":5126,
			"count":108,
			"max":[
				4.950000286102295,
				0.04999999701976776,
				0.44999995827674866
			],
			"min":[
				-4.950001239776611,
				0,
				-0.45000025629997253
			],
			"type":"VEC3"
		},
		{
			"bufferView":15,
			"componentType":5126,
			"count":108,
			"type":"VEC3"
		},
		{
			"bufferView":16,
			"componentType":5126,
			"count":108,
			"type":"VEC2"
		},
		{
			"bufferView":17,
			"componentType":5123,
			"count":204,
			"type":"SCALAR"
		},
		{
			"bufferView":18,
			"componentType":5126,
			"count":108,
			"max":[
				4.950000286102295,
				0,
				0.4999999403953552
			],
			"min":[
				-4.950001239776611,
				-0.10000000149011612,
				-0.5000002384185791
			],
			"type":"VEC3"
		},
		{
			"bufferView":19,
			"componentType":5126,
			"count":108,
			"type":"VEC3"
		},
		{
			"bufferView":20,
			"componentType":5126,
			"count":108,
			"type":"VEC2"
		},
		{
			"bufferView":21,
			"componentType":5123,
			"count":204,
			"type":"SCALAR"
		},
		{
			"bufferView":22,
			"componentType":5126,
			"count":493,
			"max":[
				1.1567035913467407,
				0.09465456008911133,
				2.4010324478149414
			],
			"min":[
				-1.4123719930648804,
				-0.4080539643764496,
				-2.4010324478149414
			],
			"type":"VEC3"
		},
		{
			"bufferView":23,
			"componentType":5126,
			"count":493,
			"type":"VEC3"
		},
		{
			"bufferView":24,
			"componentType":5126,
			"count":493,
			"type":"VEC2"
		},
		{
			"bufferView":25,
			"componentType":5123,
			"count":2688,
			"type":"SCALAR"
		},
		{
			"bufferView":26,
			"componentType":5126,
			"count":493,
			"max":[
				1.1567035913467407,
				0.09465456008911133,
				2.4010324478149414
			],
			"min":[
				-1.4123719930648804,
				-0.4080539643764496,
				-2.4010324478149414
			],
			"type":"VEC3"
		},
		{
			"bufferView":27,
			"componentType":5126,
			"count":493,
			"type":"VEC3"
		},
		{
			"bufferView":28,
			"componentType":5126,
			"count":493,
			"type":"VEC2"
		},
		{
			"bufferView":29,
			"componentType":5126,
			"count":64,
			"max":[
				2.200000047683716,
				0,
				2.200000047683716
			],
			"min":[
				-2.200000047683716,
				0,
				-2.200000047683716
			],
			"type":"VEC3"
		},
		{
			"bufferView":30,
			"componentType":5126,
			"count":64,
			"type":"VEC3"
		},
		{
			"bufferView":31,
			"componentType":5126,
			"count":64,
			"type":"VEC2"
		},
		{
			"bufferView":32,
			"componentType":5123,
			"count":294,
			"type":"SCALAR"
		}
	],
	"bufferViews":[
		{
			"buffer":0,
			"byteLength":14952,
			"byteOffset":0,
			"target":34962
		},
		{
			"buffer":0,
			"byteLength":14952,
			"byteOffset":14952,
			"target":34962
		},
		{
			"buffer":0,
			"byteLength":9968,
			"byteOffset":29904,
			"target":34962
		},
		{
			"buffer":0,
			"byteLength":7296,
			"byteOffset":39872,
			"target":34963
		},
		{
			"buffer":0,
			"byteLength":5280,
			"byteOffset":47168,
			"target":34962
		},
		{
			"buffer":0,
			"byteLength":5280,
			"byteOffset":52448,
			"target":34962
		},
		{
			"buffer":0,
			"byteLength":3520,
			"byteOffset":57728,
			"target":34962
		},
		{
			"buffer":0,
			"byteLength":3240,
			"byteOffset":61248,
			"target":34963
		},
		{
			"buffer":0,
			"byteLength":14952,
			"byteOffset":64488,
			"target":34962
		},
		{
			"buffer":0,
			"byteLength":14952,
			"byteOffset":79440,
			"target":34962
		},
		{
			"buffer":0,
			"byteLength":9968,
			"byteOffset":94392,
			"target":34962
		},
		{
			"buffer":0,
			"byteLength":14952,
			"byteOffset":104360,
			"target":34962
		},
		{
			"buffer":0,
			"byteLength":14952,
			"byteOffset":119312,
			"target":34962
		},
		{
			"buffer":0,
			"byteLength":9968,
			"byteOffset":134264,
			"target":34962
		},
		{
			"buffer":0,
			"byteLength":1296,
			"byteOffset":144232,
			"target":34962
		},
		{
			"buffer":0,
			"byteLength":1296,
			"byteOffset":145528,
			"target":34962
		},
		{
			"buffer":0,
			"byteLength":864,
			"byteOffset":146824,
			"target":34962
		},
		{
			"buffer":0,
			"byteLength":408,
			"byteOffset":147688,
			"target":34963
		},
		{
			"buffer":0,
			"byteLength":1296,
			"byteOffset":148096,
			"target":34962
		},
		{
			"buffer":0,
			"byteLength":1296,
			"byteOffset":149392,
			"target":34962
		},
		{
			"buffer":0,
			"byteLength":864,
			"byteOffset":150688,
			"target":34962
		},
		{
			"buffer":0,
			"byteLength":408,
			"byteOffset":151552,
			"target":34963
		},
		{
			"buffer":0,
			"byteLength":5916,
			"byteOffset":151960,
			"target":34962
		},
		{
			"buffer":0,
			"byteLength":5916,
			"byteOffset":157876,
			"target":34962
		},
		{
			"buffer":0,
			"byteLength":3944,
			"byteOffset":163792,
			"target":34962
		},
		{
			"buffer":0,
			"byteLength":5376,
			"byteOffset":167736,
			"target":34963
		},
		{
			"buffer":0,
			"byteLength":5916,
			"byteOffset":173112,
			"target":34962
		},
		{
			"buffer":0,
			"byteLength":5916,
			"byteOffset":179028,
			"target":34962
		},
		{
			"buffer":0,
			"byteLength":3944,
			"byteOffset":184944,
			"target":34962
		},
		{
			"buffer":0,
			"byteLength":768,
			"byteOffset":188888,
			"target":34962
		},
		{
			"buffer":0,
			"byteLength":768,
			"byteOffset":189656,
			"target":34962
		},
		{
			"buffer":0,
			"byteLength":512,
			"byteOffset":190424,
			"target":34962
		},
		{
			"buffer":0,
			"byteLength":588,
			"byteOffset":190936,
			"target":34963
		}
	],
	"samplers":[
		{
			"magFilter":9729,
			"minFilter":9987
		}
	],
	"buffers":[
		{
			"byteLength":191524,
			"uri":"bridge.bin"
		}
	]
}
