<?xml version="1.0" encoding="UTF-8" standalone="no"?>
<!-- Created with Inkscape (http://www.inkscape.org/) -->

<svg
   width="32"
   height="32"
   viewBox="0 0 32 32"
   version="1.1"
   id="svg5"
   inkscape:version="1.1.2 (b8e25be833, 2022-02-05)"
   sodipodi:docname="icons.svg"
   inkscape:export-filename="E:\~~praca\CGE\new icons\move.png"
   inkscape:export-xdpi="96"
   inkscape:export-ydpi="96"
   xmlns:inkscape="http://www.inkscape.org/namespaces/inkscape"
   xmlns:sodipodi="http://sodipodi.sourceforge.net/DTD/sodipodi-0.dtd"
   xmlns="http://www.w3.org/2000/svg"
   xmlns:svg="http://www.w3.org/2000/svg">
  <sodipodi:namedview
     id="namedview7"
     pagecolor="#505050"
     bordercolor="#eeeeee"
     borderopacity="1"
     inkscape:pageshadow="0"
     inkscape:pageopacity="0"
     inkscape:pagecheckerboard="0"
     inkscape:document-units="px"
     showgrid="true"
     inkscape:snap-bbox="false"
     inkscape:bbox-paths="false"
     inkscape:bbox-nodes="false"
     inkscape:snap-bbox-edge-midpoints="false"
     inkscape:snap-bbox-midpoints="false"
     inkscape:snap-global="false"
     inkscape:zoom="10.171875"
     inkscape:cx="17.843318"
     inkscape:cy="11.797235"
     inkscape:window-width="1600"
     inkscape:window-height="837"
     inkscape:window-x="-8"
     inkscape:window-y="-8"
     inkscape:window-maximized="1"
     inkscape:current-layer="layer5">
    <inkscape:grid
       type="xygrid"
       id="grid850" />
  </sodipodi:namedview>
  <defs
     id="defs2" />
  <g
     inkscape:label="move"
     inkscape:groupmode="layer"
     id="layer1"
     style="display:inline">
    <g
       style="fill:none;stroke:#ffffff;stroke-width:1;stroke-linecap:round;stroke-linejoin:round"
       id="g848"
       transform="matrix(1.3333333,0,0,1.3333333,4e-7,0.3333334)">
      <polyline
         points="5 9 2 12 5 15"
         id="polyline824" />
      <polyline
         points="9 5 12 2 15 5"
         id="polyline826" />
      <polyline
         points="15 19 12 22 9 19"
         id="polyline828" />
      <polyline
         points="19 9 22 12 19 15"
         id="polyline830" />
      <line
         x1="2"
         y1="12"
         x2="22"
         y2="12"
         id="line832" />
      <line
         x1="12"
         y1="2"
         x2="12"
         y2="22"
         id="line834" />
    </g>
  </g>
  <g
     inkscape:groupmode="layer"
     id="layer2"
     inkscape:label="rotate"
     style="display:none">
    <g
       style="fill:none;stroke:#ffffff;stroke-width:1;stroke-linecap:round;stroke-linejoin:round"
       id="g1324"
       transform="matrix(1.3031091,0,0,1.3582791,0.38419684,-0.32699984)">
      <polyline
         points="1 4 1 10 7 10"
         id="polyline1309" />
      <polyline
         points="23 20 23 14 17 14"
         id="polyline1311" />
      <path
         d="M 20.49,9 A 9,9 0 0 0 5.64,5.64 L 1,10 m 22,4 -4.64,4.36 A 9,9 0 0 1 3.51,15"
         id="path1313" />
    </g>
  </g>
  <g
     inkscape:groupmode="layer"
     id="layer3"
     inkscape:label="scale"
     style="display:none">
    <g
       style="fill:none;stroke:#ffffff;stroke-width:1;stroke-linecap:round;stroke-linejoin:round"
       id="g1336"
       transform="matrix(1.4678632,0,0,1.4678632,-1.4914702,-1.5897805)">
      <path
         d="M 8,3 V 6 A 2,2 0 0 1 6,8 H 3 M 21,8 H 18 A 2,2 0 0 1 16,6 V 3 m 0,18 v -3 a 2,2 0 0 1 2,-2 h 3 M 3,16 h 3 a 2,2 0 0 1 2,2 v 3"
         id="path1327" />
    </g>
  </g>
  <g
     inkscape:groupmode="layer"
     id="layer4"
     inkscape:label="select"
     style="display:none">
    <g
       style="fill:none;stroke:#ffffff;stroke-width:1;stroke-linecap:round;stroke-linejoin:round"
       id="g1351"
       transform="matrix(1.552167,0,0,1.552167,-1.8020222,-1.9003326)">
      <path
         d="m 3,3 7.07,16.97 2.51,-7.39 7.39,-2.51 z"
         id="path1339" />
      <path
         d="m 13,13 6,6"
         id="path1341" />
    </g>
  </g>
  <g
     inkscape:groupmode="layer"
     id="layer5"
     inkscape:label="use"
     style="display:none">
    <g
       style="fill:none;stroke:#ffffff;stroke-width:1;stroke-linecap:round;stroke-linejoin:round"
       id="g1366"
       transform="matrix(1.3001126,0,0,1.3209216,0.43961146,0.17351774)">
      <rect
         x="1"
         y="5"
         width="22"
         height="14"
         rx="7"
         ry="7"
         id="rect1354" />
      <circle
         cx="8"
         cy="12"
         r="3"
         id="circle1356" />
    </g>
  </g>
</svg>
