{
	"asset":{
		"generator":"Khronos glTF Blender I/O v3.5.30",
		"version":"2.0"
	},
	"scene":0,
	"scenes":[
		{
			"name":"Scene",
			"nodes":[
				0
			]
		}
	],
	"nodes":[
		{
			"mesh":0,
			"name":"object_receiving_projection",
			"scale":[
				4.825145244598389,
				1,
				4.825145244598389
			],
			"translation":[
				0,
				1,
				0
			]
		}
	],
	"materials":[
		{
			"doubleSided":true,
			"name":"material_receiving_projection",
			"pbrMetallicRoughness":{
				"baseColorFactor":[
					0.800000011920929,
					0.800000011920929,
					0.800000011920929,
					1
				],
				"metallicFactor":0,
				"roughnessFactor":0.5
			}
		}
	],
	"meshes":[
		{
			"name":"mesh_receiving_projection",
			"primitives":[
				{
					"attributes":{
						"POSITION":0,
						"TEXCOORD_0":1,
						"NORMAL":2
					},
					"indices":3,
					"material":0
				}
			]
		}
	],
	"accessors":[
		{
			"bufferView":0,
			"componentType":5126,
			"count":717,
			"max":[
				1,
				1,
				1
			],
			"min":[
				-1,
				-1,
				-1
			],
			"type":"VEC3"
		},
		{
			"bufferView":1,
			"componentType":5126,
			"count":717,
			"type":"VEC2"
		},
		{
			"bufferView":2,
			"componentType":5126,
			"count":717,
			"type":"VEC3"
		},
		{
			"bufferView":3,
			"componentType":5123,
			"count":3018,
			"type":"SCALAR"
		}
	],
	"bufferViews":[
		{
			"buffer":0,
			"byteLength":8604,
			"byteOffset":0,
			"target":34962
		},
		{
			"buffer":0,
			"byteLength":5736,
			"byteOffset":8604,
			"target":34962
		},
		{
			"buffer":0,
			"byteLength":8604,
			"byteOffset":14340,
			"target":34962
		},
		{
			"buffer":0,
			"byteLength":6036,
			"byteOffset":22944,
			"target":34963
		}
	],
	"buffers":[
		{
			"byteLength":28980,
			"uri":"level.bin"
		}
	]
}
