{
  "asset": {
    "version": "2.0",
    "generator": "CGE test generator (duplicate identical skins)"
  },
  "scene": 0,
  "scenes": [
    {
      "name": "Scene",
      "nodes": [
        0
      ]
    }
  ],
  "nodes": [
    {
      "name": "scene-root",
      "children": [
        1,
        3,
        4
      ]
    },
    {
      "name": "joint-root",
      "children": [
        2
      ]
    },
    {
      "name": "joint-tip"
    },
    {
      "name": "body-node",
      "mesh": 0,
      "skin": 0
    },
    {
      "name": "head-node",
      "mesh": 1,
      "skin": 1
    }
  ],
  "meshes": [
    {
      "name": "body-mesh",
      "primitives": [
        {
          "attributes": {
            "POSITION": 0,
            "JOINTS_0": 2,
            "WEIGHTS_0": 3
          },
          "indices": 1
        }
      ]
    },
    {
      "name": "head-mesh",
      "primitives": [
        {
          "attributes": {
            "POSITION": 0,
            "JOINTS_0": 2,
            "WEIGHTS_0": 3
          },
          "indices": 1
        }
      ]
    }
  ],
  "skins": [
    {
      "name": "skin-body",
      "inverseBindMatrices": 4,
      "joints": [
        1,
        2
      ]
    },
    {
      "name": "skin-head",
      "inverseBindMatrices": 5,
      "joints": [
        1,
        2
      ]
    }
  ],
  "accessors": [
    {
      "bufferView": 0,
      "componentType": 5126,
      "count": 3,
      "type": "VEC3",
      "min": [
        0,
        0,
        0
      ],
      "max": [
        1,
        1,
        0
      ]
    },
    {
      "bufferView": 1,
      "componentType": 5123,
      "count": 3,
      "type": "SCALAR"
    },
    {
      "bufferView": 2,
      "componentType": 5123,
      "count": 3,
      "type": "VEC4"
    },
    {
      "bufferView": 3,
      "componentType": 5126,
      "count": 3,
      "type": "VEC4"
    },
    {
      "bufferView": 4,
      "componentType": 5126,
      "count": 2,
      "type": "MAT4"
    },
    {
      "bufferView": 4,
      "componentType": 5126,
      "count": 2,
      "type": "MAT4"
    }
  ],
  "bufferViews": [
    {
      "buffer": 0,
      "byteOffset": 0,
      "byteLength": 36
    },
    {
      "buffer": 0,
      "byteOffset": 36,
      "byteLength": 8
    },
    {
      "buffer": 0,
      "byteOffset": 44,
      "byteLength": 24
    },
    {
      "buffer": 0,
      "byteOffset": 68,
      "byteLength": 48
    },
    {
      "buffer": 0,
      "byteOffset": 116,
      "byteLength": 128
    }
  ],
  "buffers": [
    {
      "uri": "duplicate_identical_skins.bin",
      "byteLength": 244
    }
  ]
}