{
    "asset" : {
        "generator" : "Khronos glTF Blender I/O v1.3.48",
        "version" : "2.0"
    },
    "extensionsUsed" : [
        "KHR_lights_punctual"
    ],
    "extensionsRequired" : [
        "KHR_lights_punctual"
    ],
    "extensions" : {
        "KHR_lights_punctual" : {
            "lights" : [
                {
                    "color" : [
                        1,
                        1,
                        1
                    ],
                    "intensity" : 20,
                    "type" : "point",
                    "name" : "Light"
                }
            ]
        }
    },
    "scene" : 0,
    "scenes" : [
        {
            "name" : "Scene",
            "nodes" : [
                1,
                3,
                4,
                5,
                6,
                7,
                8
            ]
        }
    ],
    "nodes" : [
        {
            "extensions" : {
                "KHR_lights_punctual" : {
                    "light" : 0
                }
            },
            "name" : "Light_Orientation",
            "rotation" : [
                -0.7071067690849304,
                0,
                0,
                0.7071067690849304
            ]
        },
        {
            "children" : [
                0
            ],
            "name" : "Light",
            "rotation" : [
                0.16907575726509094,
                0.7558803558349609,
                -0.27217137813568115,
                0.570947527885437
            ],
            "translation" : [
                -0.15332794189453125,
                3.8437914848327637,
                -0.3005250096321106
            ]
        },
        {
            "camera" : 0,
            "name" : "Camera_Orientation",
            "rotation" : [
                -0.7071067690849304,
                0,
                0,
                0.7071067690849304
            ]
        },
        {
            "children" : [
                2
            ],
            "name" : "Camera",
            "rotation" : [
                0.26166072487831116,
                -0.000826584524475038,
                0.00023067445727065206,
                0.96515953540802
            ],
            "translation" : [
                -0.743057370185852,
                58.62987518310547,
                33.156105041503906
            ]
        },
        {
            "mesh" : 0,
            "name" : "Plane",
            "scale" : [
                5,
                5,
                5
            ]
        },
        {
            "mesh" : 1,
            "name" : "Cylinder.003",
            "scale" : [
                0.7000002861022949,
                2,
                0.699999988079071
            ],
            "translation" : [
                -1.2644689083099365,
                0.8875751495361328,
                1.2938753366470337
            ]
        },
        {
            "mesh" : 2,
            "name" : "Cylinder.001",
            "scale" : [
                0.7000002861022949,
                2,
                0.699999988079071
            ],
            "translation" : [
                2.6252176761627197,
                0.8875751495361328,
                0.48446083068847656
            ]
        },
        {
            "mesh" : 3,
            "name" : "Cylinder.002",
            "scale" : [
                0.7000002861022949,
                2,
                0.699999988079071
            ],
            "translation" : [
                2.5690083503723145,
                0.8875751495361328,
                -3.3602583408355713
            ]
        },
        {
            "mesh" : 4,
            "name" : "Cylinder.004",
            "scale" : [
                0.7000002861022949,
                2,
                0.699999988079071
            ],
            "translation" : [
                -2.5235581398010254,
                0.8875751495361328,
                -3.146662712097168
            ]
        }
    ],
    "cameras" : [
        {
            "name" : "Camera",
            "perspective" : {
                "aspectRatio" : 1.7777777777777777,
                "yfov" : 0.39959652046304894,
                "zfar" : 100,
                "znear" : 0.10000000149011612
            },
            "type" : "perspective"
        }
    ],
    "materials" : [
        {
            "doubleSided" : true,
            "emissiveFactor" : [
                0,
                0,
                0
            ],
            "name" : "Material.001",
            "pbrMetallicRoughness" : {
                "baseColorFactor" : [
                    0.800000011920929,
                    0.800000011920929,
                    0.800000011920929,
                    1
                ],
                "metallicFactor" : 0,
                "roughnessFactor" : 0.5
            }
        }
    ],
    "meshes" : [
        {
            "name" : "Plane",
            "primitives" : [
                {
                    "attributes" : {
                        "POSITION" : 0,
                        "NORMAL" : 1,
                        "TEXCOORD_0" : 2
                    },
                    "indices" : 3,
                    "material" : 0
                }
            ]
        },
        {
            "name" : "Cylinder.003",
            "primitives" : [
                {
                    "attributes" : {
                        "POSITION" : 4,
                        "NORMAL" : 5,
                        "TEXCOORD_0" : 6
                    },
                    "indices" : 7,
                    "material" : 0
                }
            ]
        },
        {
            "name" : "Cylinder.004",
            "primitives" : [
                {
                    "attributes" : {
                        "POSITION" : 8,
                        "NORMAL" : 9,
                        "TEXCOORD_0" : 10
                    },
                    "indices" : 7,
                    "material" : 0
                }
            ]
        },
        {
            "name" : "Cylinder.005",
            "primitives" : [
                {
                    "attributes" : {
                        "POSITION" : 11,
                        "NORMAL" : 12,
                        "TEXCOORD_0" : 13
                    },
                    "indices" : 7,
                    "material" : 0
                }
            ]
        },
        {
            "name" : "Cylinder.006",
            "primitives" : [
                {
                    "attributes" : {
                        "POSITION" : 14,
                        "NORMAL" : 15,
                        "TEXCOORD_0" : 16
                    },
                    "indices" : 7,
                    "material" : 0
                }
            ]
        }
    ],
    "accessors" : [
        {
            "bufferView" : 0,
            "componentType" : 5126,
            "count" : 120,
            "max" : [
                1.8000000715255737,
                0.800000011920929,
                1.8000000715255737
            ],
            "min" : [
                -1.8000000715255737,
                0,
                -1.8000000715255737
            ],
            "type" : "VEC3"
        },
        {
            "bufferView" : 1,
            "componentType" : 5126,
            "count" : 120,
            "type" : "VEC3"
        },
        {
            "bufferView" : 2,
            "componentType" : 5126,
            "count" : 120,
            "type" : "VEC2"
        },
        {
            "bufferView" : 3,
            "componentType" : 5123,
            "count" : 186,
            "type" : "SCALAR"
        },
        {
            "bufferView" : 4,
            "componentType" : 5126,
            "count" : 130,
            "max" : [
                0.5276044607162476,
                0.5806773900985718,
                0.5276045799255371
            ],
            "min" : [
                -0.5276046395301819,
                -0.5806777477264404,
                -0.5276044607162476
            ],
            "type" : "VEC3"
        },
        {
            "bufferView" : 5,
            "componentType" : 5126,
            "count" : 130,
            "type" : "VEC3"
        },
        {
            "bufferView" : 6,
            "componentType" : 5126,
            "count" : 130,
            "type" : "VEC2"
        },
        {
            "bufferView" : 7,
            "componentType" : 5123,
            "count" : 372,
            "type" : "SCALAR"
        },
        {
            "bufferView" : 8,
            "componentType" : 5126,
            "count" : 130,
            "max" : [
                0.5276044607162476,
                0.5806773900985718,
                0.5276045799255371
            ],
            "min" : [
                -0.5276046395301819,
                -0.5806777477264404,
                -0.5276044607162476
            ],
            "type" : "VEC3"
        },
        {
            "bufferView" : 9,
            "componentType" : 5126,
            "count" : 130,
            "type" : "VEC3"
        },
        {
            "bufferView" : 10,
            "componentType" : 5126,
            "count" : 130,
            "type" : "VEC2"
        },
        {
            "bufferView" : 11,
            "componentType" : 5126,
            "count" : 130,
            "max" : [
                0.5276044607162476,
                0.5806773900985718,
                0.5276045799255371
            ],
            "min" : [
                -0.5276046395301819,
                -0.5806777477264404,
                -0.5276044607162476
            ],
            "type" : "VEC3"
        },
        {
            "bufferView" : 12,
            "componentType" : 5126,
            "count" : 130,
            "type" : "VEC3"
        },
        {
            "bufferView" : 13,
            "componentType" : 5126,
            "count" : 130,
            "type" : "VEC2"
        },
        {
            "bufferView" : 14,
            "componentType" : 5126,
            "count" : 130,
            "max" : [
                0.5276044607162476,
                0.5806773900985718,
                0.5276045799255371
            ],
            "min" : [
                -0.5276046395301819,
                -0.5806777477264404,
                -0.5276044607162476
            ],
            "type" : "VEC3"
        },
        {
            "bufferView" : 15,
            "componentType" : 5126,
            "count" : 130,
            "type" : "VEC3"
        },
        {
            "bufferView" : 16,
            "componentType" : 5126,
            "count" : 130,
            "type" : "VEC2"
        }
    ],
    "bufferViews" : [
        {
            "buffer" : 0,
            "byteLength" : 1440,
            "byteOffset" : 0
        },
        {
            "buffer" : 0,
            "byteLength" : 1440,
            "byteOffset" : 1440
        },
        {
            "buffer" : 0,
            "byteLength" : 960,
            "byteOffset" : 2880
        },
        {
            "buffer" : 0,
            "byteLength" : 372,
            "byteOffset" : 3840
        },
        {
            "buffer" : 0,
            "byteLength" : 1560,
            "byteOffset" : 4212
        },
        {
            "buffer" : 0,
            "byteLength" : 1560,
            "byteOffset" : 5772
        },
        {
            "buffer" : 0,
            "byteLength" : 1040,
            "byteOffset" : 7332
        },
        {
            "buffer" : 0,
            "byteLength" : 744,
            "byteOffset" : 8372
        },
        {
            "buffer" : 0,
            "byteLength" : 1560,
            "byteOffset" : 9116
        },
        {
            "buffer" : 0,
            "byteLength" : 1560,
            "byteOffset" : 10676
        },
        {
            "buffer" : 0,
            "byteLength" : 1040,
            "byteOffset" : 12236
        },
        {
            "buffer" : 0,
            "byteLength" : 1560,
            "byteOffset" : 13276
        },
        {
            "buffer" : 0,
            "byteLength" : 1560,
            "byteOffset" : 14836
        },
        {
            "buffer" : 0,
            "byteLength" : 1040,
            "byteOffset" : 16396
        },
        {
            "buffer" : 0,
            "byteLength" : 1560,
            "byteOffset" : 17436
        },
        {
            "buffer" : 0,
            "byteLength" : 1560,
            "byteOffset" : 18996
        },
        {
            "buffer" : 0,
            "byteLength" : 1040,
            "byteOffset" : 20556
        }
    ],
    "buffers" : [
        {
            "byteLength" : 21596,
            "uri" : "level_non_uniform_scale_test.bin"
        }
    ]
}
