{
    "asset" : {
        "generator" : "Khronos glTF Blender I/O v1.2.75",
        "version" : "2.0"
    },
    "scene" : 0,
    "scenes" : [
        {
            "name" : "Scene",
            "nodes" : [
                5
            ]
        }
    ],
    "nodes" : [
        {
            "name" : "Bone",
            "rotation" : [
                -2.2285034501610696e-16,
                1.1414907241658057e-08,
                -0.08495829254388809,
                0.9963846206665039
            ]
        },
        {
            "name" : "Bone.001",
            "rotation" : [
                -2.2285034501610696e-16,
                1.1414907241658057e-08,
                -0.08495829254388809,
                0.9963846206665039
            ],
            "translation" : [
                2.6454989910125732,
                -2.701179027557373,
                -3.629272953276086e-07
            ]
        },
        {
            "name" : "Bone.002",
            "rotation" : [
                -2.2285034501610696e-16,
                1.1414907241658057e-08,
                -0.08495829254388809,
                0.9963846206665039
            ],
            "translation" : [
                2.0627646446228027,
                -0.4825242757797241,
                -6.483138292878721e-08
            ]
        },
        {
            "name" : "Bone.003",
            "rotation" : [
                0,
                9.53042658125014e-08,
                -0.01309032179415226,
                0.9999144077301025
            ],
            "translation" : [
                0.606673538684845,
                -2.0965311527252197,
                -2.8168750532131526e-07
            ]
        },
        {
            "mesh" : 0,
            "name" : "Circle.001",
            "skin" : 0
        },
        {
            "children" : [
                4,
                0,
                1,
                2,
                3
            ],
            "name" : "Armature"
        }
    ],
    "animations" : [
        {
            "channels" : [
                {
                    "sampler" : 0,
                    "target" : {
                        "node" : 0,
                        "path" : "translation"
                    }
                },
                {
                    "sampler" : 1,
                    "target" : {
                        "node" : 0,
                        "path" : "rotation"
                    }
                },
                {
                    "sampler" : 2,
                    "target" : {
                        "node" : 0,
                        "path" : "scale"
                    }
                },
                {
                    "sampler" : 3,
                    "target" : {
                        "node" : 1,
                        "path" : "translation"
                    }
                },
                {
                    "sampler" : 4,
                    "target" : {
                        "node" : 1,
                        "path" : "rotation"
                    }
                },
                {
                    "sampler" : 5,
                    "target" : {
                        "node" : 1,
                        "path" : "scale"
                    }
                },
                {
                    "sampler" : 6,
                    "target" : {
                        "node" : 2,
                        "path" : "translation"
                    }
                },
                {
                    "sampler" : 7,
                    "target" : {
                        "node" : 2,
                        "path" : "rotation"
                    }
                },
                {
                    "sampler" : 8,
                    "target" : {
                        "node" : 2,
                        "path" : "scale"
                    }
                },
                {
                    "sampler" : 9,
                    "target" : {
                        "node" : 3,
                        "path" : "translation"
                    }
                },
                {
                    "sampler" : 10,
                    "target" : {
                        "node" : 3,
                        "path" : "rotation"
                    }
                },
                {
                    "sampler" : 11,
                    "target" : {
                        "node" : 3,
                        "path" : "scale"
                    }
                }
            ],
            "name" : "rotate",
            "samplers" : [
                {
                    "input" : 7,
                    "interpolation" : "LINEAR",
                    "output" : 8
                },
                {
                    "input" : 7,
                    "interpolation" : "LINEAR",
                    "output" : 9
                },
                {
                    "input" : 7,
                    "interpolation" : "LINEAR",
                    "output" : 10
                },
                {
                    "input" : 7,
                    "interpolation" : "LINEAR",
                    "output" : 11
                },
                {
                    "input" : 7,
                    "interpolation" : "LINEAR",
                    "output" : 12
                },
                {
                    "input" : 7,
                    "interpolation" : "LINEAR",
                    "output" : 13
                },
                {
                    "input" : 7,
                    "interpolation" : "LINEAR",
                    "output" : 14
                },
                {
                    "input" : 7,
                    "interpolation" : "LINEAR",
                    "output" : 15
                },
                {
                    "input" : 7,
                    "interpolation" : "LINEAR",
                    "output" : 16
                },
                {
                    "input" : 7,
                    "interpolation" : "LINEAR",
                    "output" : 17
                },
                {
                    "input" : 7,
                    "interpolation" : "LINEAR",
                    "output" : 18
                },
                {
                    "input" : 7,
                    "interpolation" : "LINEAR",
                    "output" : 19
                }
            ]
        }
    ],
    "meshes" : [
        {
            "name" : "Circle.001",
            "primitives" : [
                {
                    "attributes" : {
                        "POSITION" : 0,
                        "NORMAL" : 1,
                        "TEXCOORD_0" : 2,
                        "JOINTS_0" : 3,
                        "WEIGHTS_0" : 4
                    },
                    "indices" : 5
                }
            ]
        }
    ],
    "skins" : [
        {
            "inverseBindMatrices" : 6,
            "joints" : [
                0,
                1,
                2,
                3
            ],
            "name" : "Armature"
        }
    ],
    "accessors" : [
        {
            "bufferView" : 0,
            "componentType" : 5126,
            "count" : 2112,
            "max" : [
                4.274609088897705,
                1.4455251693725586,
                0.27224278450012207
            ],
            "min" : [
                -1.0000001192092896,
                -2.507359504699707,
                -0.12775756418704987
            ],
            "type" : "VEC3"
        },
        {
            "bufferView" : 1,
            "componentType" : 5126,
            "count" : 2112,
            "type" : "VEC3"
        },
        {
            "bufferView" : 2,
            "componentType" : 5126,
            "count" : 2112,
            "type" : "VEC2"
        },
        {
            "bufferView" : 3,
            "componentType" : 5123,
            "count" : 2112,
            "type" : "VEC4"
        },
        {
            "bufferView" : 4,
            "componentType" : 5126,
            "count" : 2112,
            "type" : "VEC4"
        },
        {
            "bufferView" : 5,
            "componentType" : 5123,
            "count" : 6912,
            "type" : "SCALAR"
        },
        {
            "bufferView" : 6,
            "componentType" : 5126,
            "count" : 4,
            "type" : "MAT4"
        },
        {
            "bufferView" : 7,
            "componentType" : 5126,
            "count" : 81,
            "max" : [
                3.3333333333333335
            ],
            "min" : [
                0
            ],
            "type" : "SCALAR"
        },
        {
            "bufferView" : 8,
            "componentType" : 5126,
            "count" : 81,
            "type" : "VEC3"
        },
        {
            "bufferView" : 9,
            "componentType" : 5126,
            "count" : 81,
            "type" : "VEC4"
        },
        {
            "bufferView" : 10,
            "componentType" : 5126,
            "count" : 81,
            "type" : "VEC3"
        },
        {
            "bufferView" : 11,
            "componentType" : 5126,
            "count" : 81,
            "type" : "VEC3"
        },
        {
            "bufferView" : 12,
            "componentType" : 5126,
            "count" : 81,
            "type" : "VEC4"
        },
        {
            "bufferView" : 13,
            "componentType" : 5126,
            "count" : 81,
            "type" : "VEC3"
        },
        {
            "bufferView" : 14,
            "componentType" : 5126,
            "count" : 81,
            "type" : "VEC3"
        },
        {
            "bufferView" : 15,
            "componentType" : 5126,
            "count" : 81,
            "type" : "VEC4"
        },
        {
            "bufferView" : 16,
            "componentType" : 5126,
            "count" : 81,
            "type" : "VEC3"
        },
        {
            "bufferView" : 17,
            "componentType" : 5126,
            "count" : 81,
            "type" : "VEC3"
        },
        {
            "bufferView" : 18,
            "componentType" : 5126,
            "count" : 81,
            "type" : "VEC4"
        },
        {
            "bufferView" : 19,
            "componentType" : 5126,
            "count" : 81,
            "type" : "VEC3"
        }
    ],
    "bufferViews" : [
        {
            "buffer" : 0,
            "byteLength" : 25344,
            "byteOffset" : 0
        },
        {
            "buffer" : 0,
            "byteLength" : 25344,
            "byteOffset" : 25344
        },
        {
            "buffer" : 0,
            "byteLength" : 16896,
            "byteOffset" : 50688
        },
        {
            "buffer" : 0,
            "byteLength" : 16896,
            "byteOffset" : 67584
        },
        {
            "buffer" : 0,
            "byteLength" : 33792,
            "byteOffset" : 84480
        },
        {
            "buffer" : 0,
            "byteLength" : 13824,
            "byteOffset" : 118272
        },
        {
            "buffer" : 0,
            "byteLength" : 256,
            "byteOffset" : 132096
        },
        {
            "buffer" : 0,
            "byteLength" : 324,
            "byteOffset" : 132352
        },
        {
            "buffer" : 0,
            "byteLength" : 972,
            "byteOffset" : 132676
        },
        {
            "buffer" : 0,
            "byteLength" : 1296,
            "byteOffset" : 133648
        },
        {
            "buffer" : 0,
            "byteLength" : 972,
            "byteOffset" : 134944
        },
        {
            "buffer" : 0,
            "byteLength" : 972,
            "byteOffset" : 135916
        },
        {
            "buffer" : 0,
            "byteLength" : 1296,
            "byteOffset" : 136888
        },
        {
            "buffer" : 0,
            "byteLength" : 972,
            "byteOffset" : 138184
        },
        {
            "buffer" : 0,
            "byteLength" : 972,
            "byteOffset" : 139156
        },
        {
            "buffer" : 0,
            "byteLength" : 1296,
            "byteOffset" : 140128
        },
        {
            "buffer" : 0,
            "byteLength" : 972,
            "byteOffset" : 141424
        },
        {
            "buffer" : 0,
            "byteLength" : 972,
            "byteOffset" : 142396
        },
        {
            "buffer" : 0,
            "byteLength" : 1296,
            "byteOffset" : 143368
        },
        {
            "buffer" : 0,
            "byteLength" : 972,
            "byteOffset" : 144664
        }
    ],
    "buffers" : [
        {
            "byteLength" : 145636,
            "uri" : "gears.bin"
        }
    ]
}
