<?xml version="1.0" encoding="UTF-8" standalone="no"?>
<svg
   viewBox="0 0 512 512"
   version="1.1"
   id="svg4"
   sodipodi:docname="info-solid.svg"
   width="512"
   height="512"
   inkscape:version="1.1.2 (0a00cf5339, 2022-02-04)"
   xmlns:inkscape="http://www.inkscape.org/namespaces/inkscape"
   xmlns:sodipodi="http://sodipodi.sourceforge.net/DTD/sodipodi-0.dtd"
   xmlns="http://www.w3.org/2000/svg"
   xmlns:svg="http://www.w3.org/2000/svg">
  <defs
     id="defs8" />
  <sodipodi:namedview
     id="namedview6"
     pagecolor="#ffffff"
     bordercolor="#666666"
     borderopacity="1.0"
     inkscape:pageshadow="2"
     inkscape:pageopacity="0.0"
     inkscape:pagecheckerboard="0"
     showgrid="false"
     inkscape:zoom="0.70214844"
     inkscape:cx="243.53825"
     inkscape:cy="301.93046"
     inkscape:window-width="1850"
     inkscape:window-height="1010"
     inkscape:window-x="70"
     inkscape:window-y="33"
     inkscape:window-maximized="1"
     inkscape:current-layer="svg4" />
  <!--! Font Awesome Pro 6.2.1 by @fontawesome - https://fontawesome.com License - https://fontawesome.com/license (Commercial License) Copyright 2022 Fonticons, Inc. -->
  <path
     d="m 295.01303,99.947879 c 0,21.538441 -17.47459,39.013031 -39.01303,39.013031 -21.53844,0 -39.01303,-17.47459 -39.01303,-39.013031 0,-21.538444 17.47459,-39.01303 39.01303,-39.01303 21.53844,0 39.01303,17.474586 39.01303,39.01303 z M 177.97394,216.98697 c 0,-14.38606 11.62263,-26.00869 26.00869,-26.00869 H 256 c 14.38605,0 26.00869,11.62263 26.00869,26.00869 v 182.06081 h 26.00868 c 14.38606,0 26.00869,11.62263 26.00869,26.00868 0,14.38606 -11.62263,26.00869 -26.00869,26.00869 H 203.98263 c -14.38606,0 -26.00869,-11.62263 -26.00869,-26.00869 0,-14.38605 11.62263,-26.00868 26.00869,-26.00868 h 26.00868 V 242.99566 h -26.00868 c -14.38606,0 -26.00869,-11.62264 -26.00869,-26.00869 z"
     id="path2"
     style="stroke-width:0.812771" />
</svg>
