<?xml version="1.0" encoding="UTF-8" standalone="no"?>
<svg
   viewBox="0 0 512 512"
   version="1.1"
   id="svg4"
   sodipodi:docname="pause-solid-physics.svg"
   width="512"
   height="512"
   inkscape:version="1.1.2 (0a00cf5339, 2022-02-04)"
   inkscape:export-filename="/home/and3md/fpc/castle-engine/tools/castle-editor/gfx/fontawesome/pause-solid_48x48_black.png"
   inkscape:export-xdpi="9"
   inkscape:export-ydpi="9"
   xmlns:inkscape="http://www.inkscape.org/namespaces/inkscape"
   xmlns:sodipodi="http://sodipodi.sourceforge.net/DTD/sodipodi-0.dtd"
   xmlns="http://www.w3.org/2000/svg"
   xmlns:svg="http://www.w3.org/2000/svg">
  <defs
     id="defs8" />
  <sodipodi:namedview
     id="namedview6"
     pagecolor="#505050"
     bordercolor="#ffffff"
     borderopacity="1"
     inkscape:pageshadow="0"
     inkscape:pageopacity="0"
     inkscape:pagecheckerboard="1"
     showgrid="false"
     width="512px"
     inkscape:zoom="1.4042969"
     inkscape:cx="259.5605"
     inkscape:cy="256.35605"
     inkscape:window-width="1850"
     inkscape:window-height="1010"
     inkscape:window-x="70"
     inkscape:window-y="33"
     inkscape:window-maximized="1"
     inkscape:current-layer="svg4" />
  <!--! Font Awesome Pro 6.1.1 by @fontawesome - https://fontawesome.com License - https://fontawesome.com/license (Commercial License) Copyright 2022 Fonticons, Inc. -->
  <path
     d="m 368,63.55 h -32 c -26.51,0 -48,21.49 -48,47.1 v 288 c 0,26.51 21.49,48 48,48 l 32,1.8 c 26.51,0 48,-21.49 48,-48 v -288 c 0,-26.51 -21.5,-48.9 -48,-48.9 z m -192,0 h -32 c -26.51,0 -48,21.49 -48,48 v 288 c 0,27.4 21.49,48.9 48,48.9 h 32 c 26.51,0 48,-21.49 48,-48 v -288 c 0,-26.51 -21.5,-48.9 -48,-48.9 z"
     id="path2"
     style="fill:#008000;fill-opacity:1" />
</svg>
