{
    "asset" : {
        "generator" : "Khronos glTF Blender I/O v1.2.75",
        "version" : "2.0"
    },
    "scene" : 0,
    "scenes" : [
        {
            "name" : "Scene",
            "nodes" : [
                0
            ]
        }
    ],
    "nodes" : [
        {
            "mesh" : 0,
            "name" : "Cube"
        }
    ],
    "materials" : [
        {
            "doubleSided" : true,
            "emissiveFactor" : [
                0,
                0,
                0
            ],
            "name" : "MatBoardLight",
            "pbrMetallicRoughness" : {
                "baseColorFactor" : [
                    0.800000011920929,
                    0.800000011920929,
                    0.800000011920929,
                    1
                ],
                "metallicFactor" : 0,
                "roughnessFactor" : 0.4000000059604645
            }
        },
        {
            "doubleSided" : true,
            "emissiveFactor" : [
                0,
                0,
                0
            ],
            "name" : "MatBoardDark",
            "pbrMetallicRoughness" : {
                "baseColorFactor" : [
                    0.045184195041656494,
                    0.045184195041656494,
                    0.045184195041656494,
                    1
                ],
                "metallicFactor" : 0,
                "roughnessFactor" : 0.5
            }
        }
    ],
    "meshes" : [
        {
            "name" : "Cube",
            "primitives" : [
                {
                    "attributes" : {
                        "POSITION" : 0,
                        "NORMAL" : 1,
                        "TEXCOORD_0" : 2
                    },
                    "indices" : 3,
                    "material" : 0
                },
                {
                    "attributes" : {
                        "POSITION" : 4,
                        "NORMAL" : 5,
                        "TEXCOORD_0" : 6
                    },
                    "indices" : 7,
                    "material" : 1
                }
            ]
        }
    ],
    "accessors" : [
        {
            "bufferView" : 0,
            "componentType" : 5126,
            "count" : 163,
            "max" : [
                4.6633710861206055,
                0.25818538665771484,
                4.6633710861206055
            ],
            "min" : [
                -4.6633710861206055,
                -0.14181461930274963,
                -4.6633710861206055
            ],
            "type" : "VEC3"
        },
        {
            "bufferView" : 1,
            "componentType" : 5126,
            "count" : 163,
            "type" : "VEC3"
        },
        {
            "bufferView" : 2,
            "componentType" : 5126,
            "count" : 163,
            "type" : "VEC2"
        },
        {
            "bufferView" : 3,
            "componentType" : 5123,
            "count" : 474,
            "type" : "SCALAR"
        },
        {
            "bufferView" : 4,
            "componentType" : 5126,
            "count" : 79,
            "max" : [
                4,
                0.25818538665771484,
                4
            ],
            "min" : [
                -4,
                0.25818538665771484,
                -4
            ],
            "type" : "VEC3"
        },
        {
            "bufferView" : 5,
            "componentType" : 5126,
            "count" : 79,
            "type" : "VEC3"
        },
        {
            "bufferView" : 6,
            "componentType" : 5126,
            "count" : 79,
            "type" : "VEC2"
        },
        {
            "bufferView" : 7,
            "componentType" : 5123,
            "count" : 192,
            "type" : "SCALAR"
        }
    ],
    "bufferViews" : [
        {
            "buffer" : 0,
            "byteLength" : 1956,
            "byteOffset" : 0
        },
        {
            "buffer" : 0,
            "byteLength" : 1956,
            "byteOffset" : 1956
        },
        {
            "buffer" : 0,
            "byteLength" : 1304,
            "byteOffset" : 3912
        },
        {
            "buffer" : 0,
            "byteLength" : 948,
            "byteOffset" : 5216
        },
        {
            "buffer" : 0,
            "byteLength" : 948,
            "byteOffset" : 6164
        },
        {
            "buffer" : 0,
            "byteLength" : 948,
            "byteOffset" : 7112
        },
        {
            "buffer" : 0,
            "byteLength" : 632,
            "byteOffset" : 8060
        },
        {
            "buffer" : 0,
            "byteLength" : 384,
            "byteOffset" : 8692
        }
    ],
    "buffers" : [
        {
            "byteLength" : 9076,
            "uri" : "board.bin"
        }
    ]
}
