{
    "asset" : {
        "generator" : "Khronos glTF Blender I/O v1.2.75",
        "version" : "2.0"
    },
    "scene" : 0,
    "scenes" : [
        {
            "name" : "Scene",
            "nodes" : [
                0
            ]
        }
    ],
    "nodes" : [
        {
            "mesh" : 0,
            "name" : "Cylinder.003",
            "scale" : [
                0.4000000059604645,
                0.6480000615119934,
                0.4000000059604645
            ],
            "translation" : [
                2.5,
                0.8639105558395386,
                3.5
            ]
        }
    ],
    "materials" : [
        {
            "doubleSided" : true,
            "emissiveFactor" : [
                0,
                0,
                0
            ],
            "name" : "MatPiece",
            "pbrMetallicRoughness" : {
                "baseColorFactor" : [
                    0.6171401143074036,
                    0.8000000715255737,
                    0,
                    1
                ],
                "metallicFactor" : 0,
                "roughnessFactor" : 0.5
            }
        }
    ],
    "meshes" : [
        {
            "name" : "Cylinder.003",
            "primitives" : [
                {
                    "attributes" : {
                        "POSITION" : 0,
                        "NORMAL" : 1,
                        "TEXCOORD_0" : 2
                    },
                    "indices" : 3,
                    "material" : 0
                }
            ]
        }
    ],
    "accessors" : [
        {
            "bufferView" : 0,
            "componentType" : 5126,
            "count" : 394,
            "max" : [
                1.037940502166748,
                1.0299123525619507,
                1.0379399061203003
            ],
            "min" : [
                -1.0379396677017212,
                -0.9521316289901733,
                -1.0379400253295898
            ],
            "type" : "VEC3"
        },
        {
            "bufferView" : 1,
            "componentType" : 5126,
            "count" : 394,
            "type" : "VEC3"
        },
        {
            "bufferView" : 2,
            "componentType" : 5126,
            "count" : 394,
            "type" : "VEC2"
        },
        {
            "bufferView" : 3,
            "componentType" : 5123,
            "count" : 1140,
            "type" : "SCALAR"
        }
    ],
    "bufferViews" : [
        {
            "buffer" : 0,
            "byteLength" : 4728,
            "byteOffset" : 0
        },
        {
            "buffer" : 0,
            "byteLength" : 4728,
            "byteOffset" : 4728
        },
        {
            "buffer" : 0,
            "byteLength" : 3152,
            "byteOffset" : 9456
        },
        {
            "buffer" : 0,
            "byteLength" : 2280,
            "byteOffset" : 12608
        }
    ],
    "buffers" : [
        {
            "byteLength" : 14888,
            "uri" : "piece4.bin"
        }
    ]
}
