{
    "asset" : {
        "generator" : "Khronos glTF Blender I/O v1.5.17",
        "version" : "2.0"
    },
    "scene" : 0,
    "scenes" : [
        {
            "name" : "Scene",
            "nodes" : [
                0,
                4,
                5
            ]
        }
    ],
    "nodes" : [
        {
            "mesh" : 0,
            "name" : "car_shell",
            "rotation" : [
                0.7071068286895752,
                0,
                0,
                0.7071067094802856
            ],
            "translation" : [
                0,
                1.7564955949783325,
                0.2598366439342499
            ]
        },
        {
            "name" : "Bone",
            "rotation" : [
                3.576279254957626e-07,
                0,
                -7.940935142686514e-23,
                1
            ],
            "translation" : [
                -1.575025200843811,
                -0.800000011920929,
                0.3264978528022766
            ]
        },
        {
            "name" : "Bone.001",
            "rotation" : [
                3.576279254957626e-07,
                0,
                -7.940935142686514e-23,
                1
            ],
            "translation" : [
                -1.575025200843811,
                -0.800000011920929,
                7.381298542022705
            ]
        },
        {
            "mesh" : 1,
            "name" : "wheel_back",
            "skin" : 0
        },
        {
            "children" : [
                3,
                1,
                2
            ],
            "name" : "Armature",
            "translation" : [
                1.5033448934555054,
                1.7578909397125244,
                -10.302002906799316
            ]
        },
        {
            "name" : "Camera",
            "rotation" : [
                0.48170700669288635,
                0.3342514932155609,
                -0.21292176842689514,
                0.7816000580787659
            ],
            "translation" : [
                9.186530113220215,
                7.717306137084961,
                4.4886393547058105
            ]
        }
    ],
    "animations" : [
        {
            "channels" : [
                {
                    "sampler" : 0,
                    "target" : {
                        "node" : 1,
                        "path" : "translation"
                    }
                },
                {
                    "sampler" : 1,
                    "target" : {
                        "node" : 1,
                        "path" : "rotation"
                    }
                },
                {
                    "sampler" : 2,
                    "target" : {
                        "node" : 1,
                        "path" : "scale"
                    }
                },
                {
                    "sampler" : 3,
                    "target" : {
                        "node" : 2,
                        "path" : "translation"
                    }
                },
                {
                    "sampler" : 4,
                    "target" : {
                        "node" : 2,
                        "path" : "rotation"
                    }
                },
                {
                    "sampler" : 5,
                    "target" : {
                        "node" : 2,
                        "path" : "scale"
                    }
                }
            ],
            "name" : "wheels_turning",
            "samplers" : [
                {
                    "input" : 11,
                    "interpolation" : "LINEAR",
                    "output" : 12
                },
                {
                    "input" : 11,
                    "interpolation" : "LINEAR",
                    "output" : 13
                },
                {
                    "input" : 11,
                    "interpolation" : "LINEAR",
                    "output" : 14
                },
                {
                    "input" : 11,
                    "interpolation" : "LINEAR",
                    "output" : 15
                },
                {
                    "input" : 11,
                    "interpolation" : "LINEAR",
                    "output" : 16
                },
                {
                    "input" : 11,
                    "interpolation" : "LINEAR",
                    "output" : 17
                }
            ]
        }
    ],
    "materials" : [
        {
            "doubleSided" : true,
            "name" : "Material",
            "pbrMetallicRoughness" : {
                "baseColorTexture" : {
                    "index" : 0
                },
                "metallicFactor" : 0.8864468932151794
            }
        },
        {
            "doubleSided" : true,
            "name" : "Material.001",
            "pbrMetallicRoughness" : {
                "baseColorTexture" : {
                    "index" : 1
                },
                "metallicFactor" : 0
            }
        }
    ],
    "meshes" : [
        {
            "name" : "Plane",
            "primitives" : [
                {
                    "attributes" : {
                        "POSITION" : 0,
                        "NORMAL" : 1,
                        "TEXCOORD_0" : 2
                    },
                    "indices" : 3,
                    "material" : 0
                }
            ]
        },
        {
            "name" : "wheel",
            "primitives" : [
                {
                    "attributes" : {
                        "POSITION" : 4,
                        "NORMAL" : 5,
                        "TEXCOORD_0" : 6,
                        "JOINTS_0" : 7,
                        "WEIGHTS_0" : 8
                    },
                    "indices" : 9,
                    "material" : 1
                }
            ]
        }
    ],
    "textures" : [
        {
            "sampler" : 0,
            "source" : 0
        },
        {
            "sampler" : 0,
            "source" : 1
        }
    ],
    "images" : [
        {
            "mimeType" : "image/png",
            "name" : "car_shell",
            "uri" : "textures/car_shell.png"
        },
        {
            "mimeType" : "image/png",
            "name" : "car_wheel",
            "uri" : "textures/car_wheel.png"
        }
    ],
    "skins" : [
        {
            "inverseBindMatrices" : 10,
            "joints" : [
                1,
                2
            ],
            "name" : "Armature"
        }
    ],
    "accessors" : [
        {
            "bufferView" : 0,
            "componentType" : 5126,
            "count" : 413,
            "max" : [
                2.0420219898223877,
                -0.42848920822143555,
                0.8787320256233215
            ],
            "min" : [
                -2.0420219898223877,
                -12.285699844360352,
                -1.8199565410614014
            ],
            "type" : "VEC3"
        },
        {
            "bufferView" : 1,
            "componentType" : 5126,
            "count" : 413,
            "type" : "VEC3"
        },
        {
            "bufferView" : 2,
            "componentType" : 5126,
            "count" : 413,
            "type" : "VEC2"
        },
        {
            "bufferView" : 3,
            "componentType" : 5123,
            "count" : 666,
            "type" : "SCALAR"
        },
        {
            "bufferView" : 4,
            "componentType" : 5126,
            "count" : 192,
            "max" : [
                1.9372564554214478,
                1.8937342166900635,
                -1.9858225584030151
            ],
            "min" : [
                -1.9372563362121582,
                0.03854420781135559,
                -10.901643753051758
            ],
            "type" : "VEC3"
        },
        {
            "bufferView" : 5,
            "componentType" : 5126,
            "count" : 192,
            "type" : "VEC3"
        },
        {
            "bufferView" : 6,
            "componentType" : 5126,
            "count" : 192,
            "type" : "VEC2"
        },
        {
            "bufferView" : 7,
            "componentType" : 5121,
            "count" : 192,
            "type" : "VEC4"
        },
        {
            "bufferView" : 8,
            "componentType" : 5126,
            "count" : 192,
            "type" : "VEC4"
        },
        {
            "bufferView" : 9,
            "componentType" : 5123,
            "count" : 336,
            "type" : "SCALAR"
        },
        {
            "bufferView" : 10,
            "componentType" : 5126,
            "count" : 2,
            "type" : "MAT4"
        },
        {
            "bufferView" : 11,
            "componentType" : 5126,
            "count" : 21,
            "max" : [
                0.8333333333333334
            ],
            "min" : [
                0
            ],
            "type" : "SCALAR"
        },
        {
            "bufferView" : 12,
            "componentType" : 5126,
            "count" : 21,
            "type" : "VEC3"
        },
        {
            "bufferView" : 13,
            "componentType" : 5126,
            "count" : 21,
            "type" : "VEC4"
        },
        {
            "bufferView" : 14,
            "componentType" : 5126,
            "count" : 21,
            "type" : "VEC3"
        },
        {
            "bufferView" : 15,
            "componentType" : 5126,
            "count" : 21,
            "type" : "VEC3"
        },
        {
            "bufferView" : 16,
            "componentType" : 5126,
            "count" : 21,
            "type" : "VEC4"
        },
        {
            "bufferView" : 17,
            "componentType" : 5126,
            "count" : 21,
            "type" : "VEC3"
        }
    ],
    "bufferViews" : [
        {
            "buffer" : 0,
            "byteLength" : 4956,
            "byteOffset" : 0
        },
        {
            "buffer" : 0,
            "byteLength" : 4956,
            "byteOffset" : 4956
        },
        {
            "buffer" : 0,
            "byteLength" : 3304,
            "byteOffset" : 9912
        },
        {
            "buffer" : 0,
            "byteLength" : 1332,
            "byteOffset" : 13216
        },
        {
            "buffer" : 0,
            "byteLength" : 2304,
            "byteOffset" : 14548
        },
        {
            "buffer" : 0,
            "byteLength" : 2304,
            "byteOffset" : 16852
        },
        {
            "buffer" : 0,
            "byteLength" : 1536,
            "byteOffset" : 19156
        },
        {
            "buffer" : 0,
            "byteLength" : 768,
            "byteOffset" : 20692
        },
        {
            "buffer" : 0,
            "byteLength" : 3072,
            "byteOffset" : 21460
        },
        {
            "buffer" : 0,
            "byteLength" : 672,
            "byteOffset" : 24532
        },
        {
            "buffer" : 0,
            "byteLength" : 128,
            "byteOffset" : 25204
        },
        {
            "buffer" : 0,
            "byteLength" : 84,
            "byteOffset" : 25332
        },
        {
            "buffer" : 0,
            "byteLength" : 252,
            "byteOffset" : 25416
        },
        {
            "buffer" : 0,
            "byteLength" : 336,
            "byteOffset" : 25668
        },
        {
            "buffer" : 0,
            "byteLength" : 252,
            "byteOffset" : 26004
        },
        {
            "buffer" : 0,
            "byteLength" : 252,
            "byteOffset" : 26256
        },
        {
            "buffer" : 0,
            "byteLength" : 336,
            "byteOffset" : 26508
        },
        {
            "buffer" : 0,
            "byteLength" : 252,
            "byteOffset" : 26844
        }
    ],
    "samplers" : [
        {
            "magFilter" : 9729,
            "minFilter" : 9987
        }
    ],
    "buffers" : [
        {
            "byteLength" : 27096,
            "uri" : "car.bin"
        }
    ]
}
