{
    "asset" : {
        "generator" : "Khronos glTF Blender I/O v1.5.17",
        "version" : "2.0"
    },
    "scene" : 0,
    "scenes" : [
        {
            "name" : "1",
            "nodes" : [
                0
            ]
        }
    ],
    "nodes" : [
        {
            "mesh" : 0,
            "name" : "Mesh",
            "scale" : [
                0.09000000357627869,
                0.09000000357627869,
                0.09000000357627869
            ],
            "translation" : [
                0,
                0.34670522809028625,
                -0.019999999552965164
            ]
        }
    ],
    "materials" : [
        {
            "doubleSided" : true,
            "name" : "Black",
            "pbrMetallicRoughness" : {
                "baseColorFactor" : [
                    0.1599999964237213,
                    0.1599999964237213,
                    0.1599999964237213,
                    1
                ],
                "metallicFactor" : 0,
                "roughnessFactor" : 0.5
            }
        },
        {
            "doubleSided" : true,
            "name" : "DarkOlive",
            "pbrMetallicRoughness" : {
                "baseColorFactor" : [
                    0.5,
                    0.5,
                    0.25,
                    1
                ],
                "metallicFactor" : 0,
                "roughnessFactor" : 0.5
            }
        },
        {
            "doubleSided" : true,
            "name" : "LightBlue",
            "pbrMetallicRoughness" : {
                "baseColorFactor" : [
                    0,
                    0.20999999344348907,
                    0.8399999737739563,
                    1
                ],
                "metallicFactor" : 0,
                "roughnessFactor" : 0.5
            }
        },
        {
            "doubleSided" : true,
            "name" : "Red",
            "pbrMetallicRoughness" : {
                "baseColorFactor" : [
                    0.8518666625022888,
                    0,
                    0,
                    1
                ],
                "metallicFactor" : 0,
                "roughnessFactor" : 0.5
            }
        },
        {
            "doubleSided" : true,
            "name" : "DarkGrey",
            "pbrMetallicRoughness" : {
                "baseColorFactor" : [
                    0.33000001311302185,
                    0.33000001311302185,
                    0.33000001311302185,
                    1
                ],
                "metallicFactor" : 0,
                "roughnessFactor" : 0.5
            }
        },
        {
            "doubleSided" : true,
            "name" : "DarkGrey.001",
            "pbrMetallicRoughness" : {
                "baseColorFactor" : [
                    0.5,
                    0.49994999170303345,
                    0.49994999170303345,
                    1
                ],
                "metallicFactor" : 0,
                "roughnessFactor" : 0.5
            }
        },
        {
            "doubleSided" : true,
            "name" : "Grey",
            "pbrMetallicRoughness" : {
                "baseColorFactor" : [
                    1,
                    1,
                    1,
                    1
                ],
                "metallicFactor" : 0,
                "roughnessFactor" : 0.5
            }
        }
    ],
    "meshes" : [
        {
            "name" : "Mesh.001",
            "primitives" : [
                {
                    "attributes" : {
                        "POSITION" : 0,
                        "NORMAL" : 1
                    },
                    "indices" : 2,
                    "material" : 0
                },
                {
                    "attributes" : {
                        "POSITION" : 3,
                        "NORMAL" : 4
                    },
                    "indices" : 5,
                    "material" : 1
                },
                {
                    "attributes" : {
                        "POSITION" : 6,
                        "NORMAL" : 7
                    },
                    "indices" : 8,
                    "material" : 2
                },
                {
                    "attributes" : {
                        "POSITION" : 9,
                        "NORMAL" : 10
                    },
                    "indices" : 11,
                    "material" : 3
                },
                {
                    "attributes" : {
                        "POSITION" : 12,
                        "NORMAL" : 13
                    },
                    "indices" : 14,
                    "material" : 4
                },
                {
                    "attributes" : {
                        "POSITION" : 15,
                        "NORMAL" : 16
                    },
                    "indices" : 17,
                    "material" : 5
                },
                {
                    "attributes" : {
                        "POSITION" : 18,
                        "NORMAL" : 19
                    },
                    "indices" : 20,
                    "material" : 6
                }
            ]
        }
    ],
    "accessors" : [
        {
            "bufferView" : 0,
            "componentType" : 5126,
            "count" : 306,
            "max" : [
                2.279226779937744,
                1.341322660446167,
                1.4778332710266113
            ],
            "min" : [
                -5.349769592285156,
                -3.845266103744507,
                -1.4778332710266113
            ],
            "type" : "VEC3"
        },
        {
            "bufferView" : 1,
            "componentType" : 5126,
            "count" : 306,
            "type" : "VEC3"
        },
        {
            "bufferView" : 2,
            "componentType" : 5123,
            "count" : 1578,
            "type" : "SCALAR"
        },
        {
            "bufferView" : 3,
            "componentType" : 5126,
            "count" : 66,
            "max" : [
                0.9951742887496948,
                2.175936460494995,
                0.9749681949615479
            ],
            "min" : [
                -0.19242286682128906,
                -3.3545758724212646,
                -0.9749681949615479
            ],
            "type" : "VEC3"
        },
        {
            "bufferView" : 4,
            "componentType" : 5126,
            "count" : 66,
            "type" : "VEC3"
        },
        {
            "bufferView" : 5,
            "componentType" : 5123,
            "count" : 246,
            "type" : "SCALAR"
        },
        {
            "bufferView" : 6,
            "componentType" : 5126,
            "count" : 112,
            "max" : [
                0.9951742887496948,
                2.1921582221984863,
                1.459829330444336
            ],
            "min" : [
                -1.622607707977295,
                -3.878358840942383,
                -1.459829330444336
            ],
            "type" : "VEC3"
        },
        {
            "bufferView" : 7,
            "componentType" : 5126,
            "count" : 112,
            "type" : "VEC3"
        },
        {
            "bufferView" : 8,
            "componentType" : 5123,
            "count" : 504,
            "type" : "SCALAR"
        },
        {
            "bufferView" : 9,
            "componentType" : 5126,
            "count" : 136,
            "max" : [
                1.2581138610839844,
                0.8596351146697998,
                0.43330317735671997
            ],
            "min" : [
                1.1606606245040894,
                0.7472852468490601,
                -0.43330317735671997
            ],
            "type" : "VEC3"
        },
        {
            "bufferView" : 10,
            "componentType" : 5126,
            "count" : 136,
            "type" : "VEC3"
        },
        {
            "bufferView" : 11,
            "componentType" : 5123,
            "count" : 792,
            "type" : "SCALAR"
        },
        {
            "bufferView" : 12,
            "componentType" : 5126,
            "count" : 43,
            "max" : [
                2.2853400707244873,
                -0.1121361255645752,
                1.1299265623092651
            ],
            "min" : [
                2.252385139465332,
                -0.7167152166366577,
                -1.1299265623092651
            ],
            "type" : "VEC3"
        },
        {
            "bufferView" : 13,
            "componentType" : 5126,
            "count" : 43,
            "type" : "VEC3"
        },
        {
            "bufferView" : 14,
            "componentType" : 5123,
            "count" : 180,
            "type" : "SCALAR"
        },
        {
            "bufferView" : 15,
            "componentType" : 5126,
            "count" : 72,
            "max" : [
                2.3259685039520264,
                -0.37320026755332947,
                0.04706977680325508
            ],
            "min" : [
                2.2136168479919434,
                -0.48555952310562134,
                -0.04706977680325508
            ],
            "type" : "VEC3"
        },
        {
            "bufferView" : 16,
            "componentType" : 5126,
            "count" : 72,
            "type" : "VEC3"
        },
        {
            "bufferView" : 17,
            "componentType" : 5123,
            "count" : 417,
            "type" : "SCALAR"
        },
        {
            "bufferView" : 18,
            "componentType" : 5126,
            "count" : 7,
            "max" : [
                1.6520075798034668,
                -0.254849374294281,
                0.15008270740509033
            ],
            "min" : [
                1.6382780075073242,
                -0.5577496886253357,
                -0.15008270740509033
            ],
            "type" : "VEC3"
        },
        {
            "bufferView" : 19,
            "componentType" : 5126,
            "count" : 7,
            "type" : "VEC3"
        },
        {
            "bufferView" : 20,
            "componentType" : 5123,
            "count" : 18,
            "type" : "SCALAR"
        }
    ],
    "bufferViews" : [
        {
            "buffer" : 0,
            "byteLength" : 3672,
            "byteOffset" : 0
        },
        {
            "buffer" : 0,
            "byteLength" : 3672,
            "byteOffset" : 3672
        },
        {
            "buffer" : 0,
            "byteLength" : 3156,
            "byteOffset" : 7344
        },
        {
            "buffer" : 0,
            "byteLength" : 792,
            "byteOffset" : 10500
        },
        {
            "buffer" : 0,
            "byteLength" : 792,
            "byteOffset" : 11292
        },
        {
            "buffer" : 0,
            "byteLength" : 492,
            "byteOffset" : 12084
        },
        {
            "buffer" : 0,
            "byteLength" : 1344,
            "byteOffset" : 12576
        },
        {
            "buffer" : 0,
            "byteLength" : 1344,
            "byteOffset" : 13920
        },
        {
            "buffer" : 0,
            "byteLength" : 1008,
            "byteOffset" : 15264
        },
        {
            "buffer" : 0,
            "byteLength" : 1632,
            "byteOffset" : 16272
        },
        {
            "buffer" : 0,
            "byteLength" : 1632,
            "byteOffset" : 17904
        },
        {
            "buffer" : 0,
            "byteLength" : 1584,
            "byteOffset" : 19536
        },
        {
            "buffer" : 0,
            "byteLength" : 516,
            "byteOffset" : 21120
        },
        {
            "buffer" : 0,
            "byteLength" : 516,
            "byteOffset" : 21636
        },
        {
            "buffer" : 0,
            "byteLength" : 360,
            "byteOffset" : 22152
        },
        {
            "buffer" : 0,
            "byteLength" : 864,
            "byteOffset" : 22512
        },
        {
            "buffer" : 0,
            "byteLength" : 864,
            "byteOffset" : 23376
        },
        {
            "buffer" : 0,
            "byteLength" : 834,
            "byteOffset" : 24240
        },
        {
            "buffer" : 0,
            "byteLength" : 84,
            "byteOffset" : 25076
        },
        {
            "buffer" : 0,
            "byteLength" : 84,
            "byteOffset" : 25160
        },
        {
            "buffer" : 0,
            "byteLength" : 36,
            "byteOffset" : 25244
        }
    ],
    "buffers" : [
        {
            "byteLength" : 25280,
            "uri" : "rat.bin"
        }
    ]
}
