<?xml version="1.0" encoding="UTF-8" standalone="no"?>
<svg
   xmlns:dc="http://purl.org/dc/elements/1.1/"
   xmlns:cc="http://creativecommons.org/ns#"
   xmlns:rdf="http://www.w3.org/1999/02/22-rdf-syntax-ns#"
   xmlns:svg="http://www.w3.org/2000/svg"
   xmlns="http://www.w3.org/2000/svg"
   xmlns:xlink="http://www.w3.org/1999/xlink"
   xmlns:sodipodi="http://sodipodi.sourceforge.net/DTD/sodipodi-0.dtd"
   xmlns:inkscape="http://www.inkscape.org/namespaces/inkscape"
   width="48"
   height="48"
   viewBox="0 0 1.5176403 4.056"
   id="svg2464"
   sodipodi:version="0.32"
   inkscape:version="0.46"
   sodipodi:docname="8_tentacles_moon_polish.svg"
   inkscape:output_extension="org.inkscape.output.svg.inkscape"
   version="1.0">
  <metadata
     id="metadata2501">
    <rdf:RDF>
      <cc:Work
         rdf:about="">
        <dc:format>image/svg+xml</dc:format>
        <dc:type
           rdf:resource="http://purl.org/dc/dcmitype/StillImage" />
      </cc:Work>
    </rdf:RDF>
  </metadata>
  <defs
     id="defs2499">
    <linearGradient
       id="linearGradient3216">
      <stop
         style="stop-color:#37483e;stop-opacity:1;"
         offset="0"
         id="stop3218" />
      <stop
         style="stop-color:#1a231e;stop-opacity:1;"
         offset="1"
         id="stop3220" />
    </linearGradient>
    <linearGradient
       id="linearGradient4771">
      <stop
         style="stop-color:#555753;stop-opacity:1;"
         offset="0"
         id="stop4773" />
      <stop
         style="stop-color:#000000;stop-opacity:1;"
         offset="1"
         id="stop4775" />
    </linearGradient>
    <linearGradient
       id="linearGradient3167">
      <stop
         style="stop-color:#2e3436;stop-opacity:1;"
         offset="0"
         id="stop3169" />
      <stop
         id="stop3175"
         offset="0.06061278"
         style="stop-color:#2e3436;stop-opacity:1;" />
      <stop
         style="stop-color:#7d8074;stop-opacity:1;"
         offset="0.40697148"
         id="stop3177" />
      <stop
         style="stop-color:#807d74;stop-opacity:1;"
         offset="1"
         id="stop3171" />
    </linearGradient>
    <inkscape:perspective
       sodipodi:type="inkscape:persp3d"
       inkscape:vp_x="0 : 2.0280001 : 1"
       inkscape:vp_y="0 : 1000 : 0"
       inkscape:vp_z="1.5176402 : 2.0280001 : 1"
       inkscape:persp3d-origin="0.75882012 : 1.3520001 : 1"
       id="perspective2503" />
    <inkscape:perspective
       id="perspective3404"
       inkscape:persp3d-origin="1.4805682 : 0.38136911 : 1"
       inkscape:vp_z="2.9611363 : 0.57205367 : 1"
       inkscape:vp_y="0 : 1000 : 0"
       inkscape:vp_x="0 : 0.57205367 : 1"
       sodipodi:type="inkscape:persp3d" />
    <linearGradient
       inkscape:collect="always"
       xlink:href="#linearGradient3167"
       id="linearGradient3185"
       x1="-0.63802892"
       y1="4.0923672"
       x2="0.077149987"
       y2="3.4864626"
       gradientUnits="userSpaceOnUse" />
    <linearGradient
       inkscape:collect="always"
       xlink:href="#linearGradient3167"
       id="linearGradient3211"
       x1="-0.77867138"
       y1="3.7383499"
       x2="0.36128464"
       y2="3.7383499"
       gradientUnits="userSpaceOnUse" />
    <linearGradient
       inkscape:collect="always"
       xlink:href="#linearGradient3167"
       id="linearGradient3200"
       x1="-0.47767425"
       y1="4.8427873"
       x2="0.43797177"
       y2="4.8427873"
       gradientUnits="userSpaceOnUse" />
    <radialGradient
       inkscape:collect="always"
       xlink:href="#linearGradient3216"
       id="radialGradient4815"
       gradientUnits="userSpaceOnUse"
       gradientTransform="matrix(-1.0661238,-0.1271125,4.318003e-2,-0.3621611,0.7417425,4.8127456)"
       cx="0.11591901"
       cy="3.8664722"
       fx="0.11591901"
       fy="3.8664722"
       r="0.98066193" />
    <radialGradient
       inkscape:collect="always"
       xlink:href="#linearGradient3216"
       id="radialGradient4836"
       gradientUnits="userSpaceOnUse"
       gradientTransform="matrix(0.1927463,-0.2233755,1.3136637,1.1335348,-3.7428411,-0.1779454)"
       cx="0.8252458"
       cy="3.3172085"
       fx="0.8252458"
       fy="3.3172085"
       r="0.57726377" />
    <radialGradient
       inkscape:collect="always"
       xlink:href="#linearGradient3216"
       id="radialGradient3222"
       cx="1.659088"
       cy="3.1787071"
       fx="1.659088"
       fy="3.1787071"
       r="0.50024329"
       gradientTransform="matrix(0.3692717,0.2732122,-1.1681055,1.5788038,4.6624585,-1.9212414)"
       gradientUnits="userSpaceOnUse" />
    <radialGradient
       inkscape:collect="always"
       xlink:href="#linearGradient3216"
       id="radialGradient3279"
       gradientUnits="userSpaceOnUse"
       gradientTransform="matrix(-1.5094931,-0.7048435,0.1377533,-0.2950123,0.3034133,4.5863476)"
       cx="0.45732221"
       cy="3.5139356"
       fx="0.45732221"
       fy="3.5139356"
       r="0.98066193" />
  </defs>
  <sodipodi:namedview
     inkscape:window-height="709"
     inkscape:window-width="1020"
     inkscape:pageshadow="2"
     inkscape:pageopacity="0.0"
     guidetolerance="10.0"
     gridtolerance="10.0"
     objecttolerance="10.0"
     borderopacity="0.77254902"
     bordercolor="#d8d8d8"
     pagecolor="#ffffff"
     id="base"
     showgrid="false"
     inkscape:zoom="11.313709"
     inkscape:cx="35.612862"
     inkscape:cy="14.280139"
     inkscape:window-x="4"
     inkscape:window-y="63"
     inkscape:current-layer="svg2464"
     inkscape:showpageshadow="false"
     showborder="true"
     borderlayer="false" />
  <title
     id="title2466">coubre de bezier : Curve</title>
  <desc
     id="desc2468">Un trace dessinant une courbe de type bezie issue de blender</desc>
  <path
     sodipodi:type="arc"
     style="opacity:0.78620688999999999;fill:#ade9dd;fill-opacity:1;stroke:none;stroke-width:0.01000000000000000;stroke-miterlimit:4;stroke-dasharray:none;stroke-opacity:1"
     id="path3426"
     sodipodi:cx="-6.5869765"
     sodipodi:cy="-2.4866824"
     sodipodi:rx="2.1211436"
     sodipodi:ry="1.9269544"
     d="M -4.4658329,-2.4866824 A 2.1211436,1.9269544 0 1 1 -8.7081201,-2.4866824 A 2.1211436,1.9269544 0 1 1 -4.4658329,-2.4866824 z"
     transform="matrix(0.9239629,0,0,0.8253146,6.8582426,3.6459816)" />
  <path
     style="fill:#d7f4ee;fill-rule:evenodd;stroke:#000000;stroke-width:0.00091682;stroke-linecap:butt;stroke-linejoin:miter;stroke-miterlimit:4;stroke-dasharray:none;stroke-opacity:1"
     d="M 1.1966846,0.27645913 C -1.1607959,-0.35036956 -1.910631,2.304934 0.42927814,2.2772756 C -1.135866,1.318151 0.18470723,-0.28635558 1.5578679,0.51195784 C 1.5578679,0.51195784 1.3600099,0.31988556 1.1966846,0.27645913 z"
     id="path3409"
     sodipodi:nodetypes="cccs" />
  <path
     style="fill:#000000;fill-opacity:1;fill-rule:evenodd;stroke:#060606;stroke-width:0.03705655;stroke-miterlimit:4;stroke-dasharray:none;stroke-opacity:1"
     d="M 0.97065429,3.6088629 L 0.97065429,3.1082871 C 0.96667069,3.1082871 -0.088920955,3.2865013 -0.088920955,3.2889072 L -0.088920955,3.6037024 C -0.088920955,3.6061082 -0.084359585,3.6088629 -0.080375985,3.6088629 L 0.97065429,3.6088629 z"
     id="path3407" />
  <g
     id="g2474"
     transform="matrix(1.1295799,0,0,1.1295799,7.0253496,3.7562295)">
    <path
       d="M -0.41517425,7.3363514 C -0.41517425,6.7897754 -0.41517425,6.4829273 -0.41517425,5.9363513"
       id="path2476" />
  </g>
  <g
     transform="matrix(1.7081831,0,0,1.3875546,2.2742819,-2.7321032)"
     id="g2503"
     style="fill:#000000;fill-opacity:1" />
  <g
     transform="matrix(0.8743597,0,0,0.7244661,1.094008,-0.9991025)"
     id="g2486">
    <path
       d="M -0.68759414,3.757172 C -0.68759414,3.7378348 -0.5150645,3.6983317 -0.5150645,3.6789944 C -0.5150645,3.6596572 -0.51836024,3.5912664 -0.51954579,3.4999878 C -0.57058325,3.4818562 -0.59038214,3.4722057 -0.63588321,3.4583147"
       id="path2488"
       style="fill:#eae8e3;fill-opacity:1;stroke:#000000;stroke-width:0.0424385;stroke-miterlimit:4;stroke-dasharray:none;stroke-opacity:1"
       sodipodi:nodetypes="cscc" />
  </g>
  <g
     id="g2490"
     transform="matrix(1.1295799,0,0,1.1295799,7.0253496,3.7562295)">
    <path
       d="M 0.37547174,7.3363514 C 0.37547174,6.7897754 0.37547174,6.4829273 0.37547174,5.9363513"
       id="path2492" />
  </g>
  <g
     transform="matrix(0.8743597,0,0,0.7244661,1.0824454,-0.9799417)"
     id="g2494">
    <path
       d="M 0.5961807,3.4583147 C 0.6596069,3.7222636 0.6523729,3.7720279 0.6165226,3.8019849 C 0.6210039,3.7042251 0.4671976,3.6736681 0.4663994,3.6543474 C 0.464815,3.6159976 0.466142,3.596404 0.4663994,3.4708594 C 0.5212152,3.4660591 0.5589859,3.4611151 0.5961807,3.4583147 z"
       id="path2496"
       style="fill:#eae8e3;fill-opacity:1;stroke:#000000;stroke-width:0.0424385;stroke-miterlimit:4;stroke-dasharray:none;stroke-opacity:1"
       sodipodi:nodetypes="ccscc" />
  </g>
  <g
     transform="matrix(0.8743597,0,0,0.7244661,1.0824455,-0.9703614)"
     id="g2482"
     style="fill-opacity:1">
    <path
       d="M 0.73896885,4.1963599 C 0.73896885,4.0963599 0.73896885,3.9224185 0.73896885,3.8224185 C 0.72442901,3.8120694 0.70470679,3.8017204 0.69534934,3.7913713 C 0.69534934,3.7096664 0.69534934,3.6279615 0.69534934,3.5462565 C 0.66229314,3.5169426 0.62923688,3.4876286 0.59618068,3.4583147 C 0.59618068,3.5381889 0.59618068,3.6180632 0.59618068,3.6979375 C 0.53069198,3.6573969 0.46520329,3.6168563 0.39971459,3.5763157 C 0.39971459,3.5069749 0.39971459,3.4244266 0.39971459,3.3682933 C 0.36763546,3.310303 0.18139811,3.2796655 0.087239861,3.2803514 C 0.087239861,3.3517957 0.087239861,3.4232398 0.087239861,3.494684 C 0.051542822,3.4854674 0.018477364,3.4835146 -0.019851252,3.4835247 C -0.058179002,3.4835348 -0.091245331,3.4854674 -0.12694237,3.494684 C -0.12694237,3.4232398 -0.12694237,3.3517957 -0.12694237,3.2803514 C -0.22110061,3.2796655 -0.40733796,3.310303 -0.43941709,3.3682933 C -0.43941709,3.4244266 -0.43941709,3.5069749 -0.43941709,3.5763157 C -0.50490582,3.6168563 -0.57039452,3.6573969 -0.63588321,3.6979375 C -0.63588321,3.6180632 -0.63588321,3.5381889 -0.63588321,3.4583147 C -0.66893941,3.4876286 -0.70199567,3.5169426 -0.73505187,3.5462565 C -0.73505187,3.6279615 -0.73505187,3.7096664 -0.73505187,3.7913713 C -0.74440926,3.8017204 -0.76413155,3.8120694 -0.77867138,3.8224185 C -0.77867138,3.9224185 -0.77867138,4.0941192 -0.77867138,4.1941192"
       id="path2484"
       style="fill:url(#linearGradient3211);fill-opacity:1;stroke:#000000;stroke-width:0.0424385;stroke-linejoin:miter;stroke-miterlimit:4;stroke-dasharray:none;stroke-opacity:1"
       sodipodi:nodetypes="csscccccccscccccccssc" />
  </g>
  <g
     transform="matrix(0.8743597,0,0,0.7244661,1.0824454,-0.9799417)"
     id="g2478"
     style="fill-opacity:1">
    <path
       d="M 0.37744632,4.4513645 C 0.48530176,4.4353718 0.51547909,4.4152374 0.59064329,4.3826575 C 0.69068444,4.3392947 0.78196418,4.2079797 0.71406591,4.1224186 C 0.48813993,3.8377212 0.09199024,3.8550055 -0.037218213,3.8559866 C -0.16113359,3.8569275 -0.52784246,3.8377212 -0.75376844,4.1224186 C -0.82166672,4.2079797 -0.73038697,4.3392947 -0.63034576,4.3826575 C -0.55518162,4.4152374 -0.52500427,4.4353718 -0.41714883,4.4513645"
       id="path2480"
       style="fill:url(#linearGradient3185);fill-opacity:1;stroke:#000000;stroke-width:0.0424385;stroke-miterlimit:4;stroke-dasharray:none;stroke-opacity:1" />
  </g>
  <g
     transform="matrix(0.8743597,0,0,0.7244661,1.0824454,-0.9320398)"
     id="g2470"
     style="fill-opacity:1">
    <path
       d="M 0.37547174,5.8696265 C 0.37547174,5.3121634 0.37547177,4.6844273 0.37547177,4.2084653 C 0.34240529,4.0603693 0.14063244,4.0495579 -0.029115668,4.0492345 C -0.18822928,4.0489314 -0.37400526,4.0536171 -0.40707174,4.2017132 C -0.40977257,4.6799259 -0.41517425,5.3121634 -0.41517425,5.8696265"
       id="path2472"
       style="fill:url(#linearGradient3200);fill-opacity:1;stroke:#000000;stroke-width:0.0424385;stroke-miterlimit:4;stroke-dasharray:none;stroke-opacity:1"
       sodipodi:nodetypes="ccscc" />
  </g>
  <path
     style="fill:#c83771;fill-opacity:1;fill-rule:evenodd;stroke:#060606;stroke-width:0.03582454;stroke-miterlimit:4;stroke-dasharray:none;stroke-opacity:1"
     d="M 1.0182817,3.6116561 L 2.1410133,3.6116561 C 2.1448339,3.6116561 2.1492084,3.6089716 2.1492084,3.6066271 L 2.1492084,3.2998562 C 2.1492084,3.2975118 2.1448339,3.2948273 2.1410133,3.2948273 L 1.0182817,3.1238403 L 1.0182817,3.6116561 z"
     id="path3563" />
  <path
     style="fill:#782144;fill-opacity:1;fill-rule:evenodd;stroke:#060606;stroke-width:0.04425912;stroke-miterlimit:4;stroke-dasharray:none;stroke-opacity:1"
     d="M 1.0223693,3.607534 L 1.0223693,3.1294577 C 1.0164192,3.1294577 -0.56026408,3.2996618 -0.56026408,3.3019593 L -0.56026408,3.6026054 C -0.56026408,3.604903 -0.55345097,3.607534 -0.5475009,3.607534 L 1.0223693,3.607534 z"
     id="rect3353" />
  <path
     style="fill:#000000;fill-rule:evenodd;stroke:#000000;stroke-width:0.00042746;stroke-linecap:butt;stroke-linejoin:miter;stroke-miterlimit:4;stroke-dasharray:none;stroke-opacity:1"
     d="M 2.0563457,2.8361795 C 2.1870298,2.7988636 2.3827837,2.7443541 2.4903916,2.6798829 C 2.5332559,2.8380005 2.1188718,3.1233208 2.0671306,2.8682041 L 2.0563459,2.8361795 L 2.0563457,2.8361795 z"
     id="path3300" />
  <path
     style="fill:#000000;fill-rule:evenodd;stroke:#000000;stroke-width:0.00059538;stroke-linecap:butt;stroke-linejoin:miter;stroke-miterlimit:4;stroke-dasharray:none;stroke-opacity:1"
     d="M 1.7557137,3.6210436 C 2.6073804,3.0904745 2.3139771,1.5560403 1.8250892,1.302591 C 2.5988277,2.0974257 1.544066,3.1983084 1.1660219,3.6114632 C 1.3620821,3.6230224 1.5604894,3.5956018 1.7557137,3.6210436 z"
     id="path3302" />
  <path
     style="fill:#000000;fill-rule:evenodd;stroke:#000000;stroke-width:0.00046088;stroke-linecap:butt;stroke-linejoin:miter;stroke-miterlimit:4;stroke-dasharray:none;stroke-opacity:1"
     d="M 2.1484974,2.0617723 C 2.1866425,2.0419094 2.2582362,1.9576382 2.2756093,1.8852668 C 2.286826,1.8385403 2.2756093,1.7836651 2.2756093,1.7359159 C 2.2756093,1.670395 2.3382126,1.8024801 2.3636098,1.837746 C 2.4228182,1.9199621 2.3970884,2.0202278 2.3733876,2.1025043 C 2.3575559,2.1574633 2.3002843,2.1839684 2.22672,2.1839684 C 2.1907007,2.1839684 2.1548536,2.1133677 2.1484974,2.0957156 C 2.144545,2.084739 2.1484974,2.0730868 2.1484974,2.0617723 z"
     id="path3308" />
  <path
     style="fill:#b7c8b7;fill-rule:evenodd;stroke:#000000;stroke-width:0.0356754;stroke-linecap:butt;stroke-linejoin:miter;stroke-miterlimit:4;stroke-dasharray:none;stroke-opacity:1"
     d="M 2.0677815,2.5960091 C 2.101781,2.5005461 1.8616495,2.3111187 1.8124057,2.2702365 C 1.824063,2.3640462 1.8298585,2.6008498 1.9400493,2.6392057 C 2.0428066,2.620563 2.0154229,2.5943483 2.0677815,2.5960091 z"
     id="path3290"
     sodipodi:nodetypes="cccc" />
  <path
     style="fill:#000000;fill-rule:evenodd;stroke:#000000;stroke-width:0.00026752;stroke-linecap:butt;stroke-linejoin:miter;stroke-miterlimit:4;stroke-dasharray:none;stroke-opacity:1"
     d="M 1.6439704,3.7047342 C 2.1481334,3.8719999 2.5369487,3.2191459 2.4649808,3.1731136 C 2.4736024,3.6013179 1.5005748,3.4138393 1.5444208,3.6118409 L 1.6439704,3.7047342 L 1.6439704,3.7047342 z"
     id="path3313" />
  <path
     style="fill:#008000;fill-rule:evenodd;stroke:#000000;stroke-width:0.03459945;stroke-linecap:butt;stroke-linejoin:miter;stroke-miterlimit:4;stroke-dasharray:none;stroke-opacity:1"
     d="M 1.7404415,3.1458541 C 1.696969,3.1381706 1.6297931,3.0979671 1.6009585,3.0439605 C 1.5816537,3.0078028 1.5152469,2.9399847 1.5152469,2.7722633 C 1.5152469,2.7193954 1.5110621,2.749163 1.4682918,2.8426424 C 1.4035337,2.9841784 1.4219185,3.0741732 1.4356,3.1520751 C 1.4542887,3.2584875 1.4724091,3.3333317 1.5146734,3.3491636 C 1.5454286,3.3606843 1.7611377,3.3059385 1.7404415,3.1458541 z"
     id="path3294"
     sodipodi:nodetypes="csssssc" />
  <g
     id="g4832"
     transform="translate(-1.0440197e-2,-1.0440197e-2)">
    <path
       id="path3371"
       d="M 1.0058869,3.3227034 C 0.49427409,3.0203031 -0.2064151,2.3603997 -0.08359011,2.0006012 C -0.36437583,2.5606591 0.31656159,3.5200249 0.9503013,3.485571 L 0.9864272,3.4090997 L 1.0058869,3.3227033 L 1.0058869,3.3227034 z"
       style="fill:url(#radialGradient4836);fill-opacity:1;fill-rule:evenodd;stroke:#000000;stroke-width:0.03380000000000000;stroke-linecap:butt;stroke-linejoin:miter;stroke-miterlimit:4;stroke-dasharray:none;stroke-opacity:1" />
    <path
       id="path3379"
       d="M 0.21963739,2.6616528 C 0.11505559,2.7266426 0.31651689,2.915859 0.36995089,2.9490643 C 0.48448399,3.0202382 0.56268149,2.9096494 0.62432779,2.8245193 C 0.7097574,2.7065456 0.7358394,2.5507434 0.7746414,2.4221432 C 0.7928105,2.3619256 0.7951562,2.2147717 0.7630787,2.3742413 C 0.7411959,2.48303 0.64725459,2.5601664 0.54338979,2.5945901 C 0.43373129,2.6309338 0.31843159,2.5961665 0.21963739,2.6616528 z"
       style="fill:#000000;fill-rule:evenodd;stroke:#000000;stroke-width:0.00059538;stroke-linecap:butt;stroke-linejoin:miter;stroke-miterlimit:4;stroke-dasharray:none;stroke-opacity:1" />
  </g>
  <g
     id="g4825"
     transform="translate(0.1148422,0)">
    <path
       id="path3373"
       d="M -0.59074164,2.5462604 C -0.64108508,2.4294031 -0.53774428,2.2173325 -0.5540453,2.1269485 C -0.65982147,2.2390607 -0.8462386,2.6338716 -0.59074164,2.5462604 L -0.59074164,2.5462604 z"
       style="fill:#000000;fill-rule:evenodd;stroke:#000000;stroke-width:0.00040467;stroke-linecap:butt;stroke-linejoin:miter;stroke-miterlimit:4;stroke-dasharray:none;stroke-opacity:1" />
    <path
       id="path3375"
       d="M 0.24910769,3.390176 C 0.26658259,3.3467238 0.07475339,3.6016789 -0.21106631,3.7201191 C -0.39050391,3.794476 -0.5285329,3.803841 -0.30412561,3.8657992 C -0.17233871,3.902185 0.11250189,3.8538297 0.23881579,3.8014867 C 0.35188289,3.754633 0.38223859,3.7223135 0.43529139,3.6343756 C 0.44390789,3.6200934 0.45252439,3.605811 0.46114089,3.5915288 C 0.49889909,3.5289424 0.51372269,3.4703758 0.42492659,3.4458595 C 0.34279439,3.4231831 0.27665809,3.4738431 0.24910769,3.390176 z"
       style="fill:#000000;fill-rule:evenodd;stroke:#000000;stroke-width:0.00059538;stroke-linecap:butt;stroke-linejoin:miter;stroke-miterlimit:4;stroke-dasharray:none;stroke-opacity:1" />
    <path
       id="path3377"
       d="M -0.12757471,3.2460412 C -0.19069411,3.2722358 -0.27976141,3.3117565 -0.39077043,3.3249612 C -0.55938457,3.345018 -0.76330557,3.2626931 -0.92103827,3.2192293 C -1.2324933,3.1334069 -0.90891093,3.1918164 -0.83331475,3.1828241 C -0.67271459,3.1637205 -0.56317522,3.0727794 -0.41659022,3.055343 C -0.30712045,3.0423214 -0.2074743,3.1385908 -0.18245871,3.200629 C -0.17426591,3.2209473 -0.14586931,3.2309038 -0.12757471,3.2460412 z"
       style="fill:#000000;fill-rule:evenodd;stroke:#000000;stroke-width:0.00059538;stroke-linecap:butt;stroke-linejoin:miter;stroke-miterlimit:4;stroke-dasharray:none;stroke-opacity:1" />
    <path
       id="path3381"
       d="M -0.52036799,2.9203231 C -0.26481831,2.8268503 -0.08625061,2.6098985 -0.12855131,2.3807532 C -0.18549011,2.6119269 -0.82815355,2.5656376 -0.63599374,2.8724212 L -0.5816488,2.89556 L -0.52036792,2.9203231 L -0.52036799,2.9203231 z"
       style="fill:#000000;fill-rule:evenodd;stroke:#000000;stroke-width:0.00059538;stroke-linecap:butt;stroke-linejoin:miter;stroke-miterlimit:4;stroke-dasharray:none;stroke-opacity:1" />
    <path
       id="path3384"
       d="M 0.7630789,3.2556365 C -0.02095301,3.1605842 -1.1514334,2.4448261 -0.53193059,1.8856417 C -1.9415413,2.2766345 -0.2451225,3.7834655 0.7399537,3.543048 C 0.8998338,3.4847548 0.9711415,3.3118145 0.7630789,3.2556365 z"
       style="fill:url(#radialGradient4815);fill-opacity:1;fill-rule:evenodd;stroke:#000000;stroke-width:0.03380000000000000;stroke-linecap:butt;stroke-linejoin:miter;stroke-miterlimit:4;stroke-dasharray:none;stroke-opacity:1"
       sodipodi:nodetypes="cccc" />
  </g>
  <path
     style="fill:none;fill-rule:evenodd;stroke:#000000;stroke-width:1px;stroke-linecap:butt;stroke-linejoin:miter;stroke-opacity:1"
     d="M 3.24254,7.886564 C 3.24254,7.886564 3.24254,7.886564 3.24254,7.886564 z"
     id="path3386" />
  <path
     sodipodi:nodetypes="ccscc"
     style="fill:url(#radialGradient3222);fill-rule:evenodd;stroke:#000000;stroke-width:0.00029226000000000;stroke-linecap:butt;stroke-linejoin:miter;stroke-miterlimit:4;stroke-dasharray:none;stroke-opacity:1;fill-opacity:1"
     d="M 1.790508,3.5845252 C 2.3987432,3.1823028 2.2991962,1.9522119 2.1048262,1.7579568 C 2.1571029,2.0686341 2.1536957,2.3861363 1.803506,2.8865677 C 1.581237,3.2041967 1.3775355,3.4596084 1.2537446,3.5884858 C 1.3144162,3.6104985 1.7326033,3.5526673 1.790508,3.5845252 z"
     id="path2513" />
  <path
     style="fill:#536c53;fill-rule:evenodd;stroke:#000000;stroke-width:0.00021769;stroke-linecap:butt;stroke-linejoin:miter;stroke-miterlimit:4;stroke-dasharray:none;stroke-opacity:1"
     d="M 1.6643851,3.6654683 C 1.8686613,3.7843011 2.2026377,3.5728859 2.2797195,3.4462214 C 2.0415254,3.5138295 1.4452038,3.5379648 1.6372653,3.649692 L 1.6643851,3.6654683 z"
     id="path3310"
     sodipodi:nodetypes="ccss" />
</svg>
