{
    "asset" : {
        "generator" : "Khronos glTF Blender I/O v3.4.50",
        "version" : "2.0"
    },
    "scene" : 0,
    "scenes" : [
        {
            "extras" : {
                "uuid" : "a9ba836b-f6c4-4ddf-90cc-8b173957b73a",
                "assets reported" : {}
            },
            "name" : "Scene",
            "nodes" : [
                2
            ]
        }
    ],
    "nodes" : [
        {
            "mesh" : 0,
            "name" : "Cube.055",
            "rotation" : [
                2.980232594040899e-08,
                -1.1920928244535389e-07,
                -7.105427357601002e-15,
                1
            ],
            "scale" : [
                0.9981120824813843,
                0.998112142086029,
                0.18449948728084564
            ],
            "translation" : [
                1.1920838005607948e-07,
                -1.4901161193847656e-08,
                3.814697720372351e-06
            ]
        },
        {
            "children" : [
                0
            ],
            "name" : "Bone",
            "rotation" : [
                -2.980232594040899e-08,
                1.1920927533992653e-07,
                0,
                1
            ],
            "scale" : [
                1,
                0.9999999403953552,
                0.9999999403953552
            ]
        },
        {
            "children" : [
                1
            ],
            "name" : "Armature",
            "translation" : [
                0,
                -0.1911478042602539,
                -3.814697265625e-06
            ]
        }
    ],
    "animations" : [
        {
            "channels" : [
                {
                    "sampler" : 0,
                    "target" : {
                        "node" : 1,
                        "path" : "translation"
                    }
                },
                {
                    "sampler" : 1,
                    "target" : {
                        "node" : 1,
                        "path" : "rotation"
                    }
                },
                {
                    "sampler" : 2,
                    "target" : {
                        "node" : 1,
                        "path" : "scale"
                    }
                }
            ],
            "name" : "ArmatureAction",
            "samplers" : [
                {
                    "input" : 8,
                    "interpolation" : "LINEAR",
                    "output" : 9
                },
                {
                    "input" : 8,
                    "interpolation" : "LINEAR",
                    "output" : 10
                },
                {
                    "input" : 8,
                    "interpolation" : "LINEAR",
                    "output" : 11
                }
            ]
        },
        {
            "channels" : [
                {
                    "sampler" : 0,
                    "target" : {
                        "node" : 0,
                        "path" : "translation"
                    }
                },
                {
                    "sampler" : 1,
                    "target" : {
                        "node" : 0,
                        "path" : "rotation"
                    }
                },
                {
                    "sampler" : 2,
                    "target" : {
                        "node" : 0,
                        "path" : "scale"
                    }
                }
            ],
            "name" : "Cube.055",
            "samplers" : [
                {
                    "input" : 8,
                    "interpolation" : "LINEAR",
                    "output" : 12
                },
                {
                    "input" : 8,
                    "interpolation" : "LINEAR",
                    "output" : 13
                },
                {
                    "input" : 8,
                    "interpolation" : "LINEAR",
                    "output" : 14
                }
            ]
        }
    ],
    "materials" : [
        {
            "doubleSided" : true,
            "name" : "Gold_01.",
            "pbrMetallicRoughness" : {
                "baseColorFactor" : [
                    0.591528594493866,
                    0.34905168414115906,
                    0.07259123027324677,
                    1
                ],
                "roughnessFactor" : 0.38181817531585693
            }
        },
        {
            "doubleSided" : true,
            "name" : "Gold_Darker",
            "pbrMetallicRoughness" : {
                "baseColorFactor" : [
                    0.13566799461841583,
                    0.08993373811244965,
                    0.06757534295320511,
                    1
                ],
                "roughnessFactor" : 0.38181817531585693
            }
        }
    ],
    "meshes" : [
        {
            "name" : "Cube.072",
            "primitives" : [
                {
                    "attributes" : {
                        "POSITION" : 0,
                        "TEXCOORD_0" : 1,
                        "NORMAL" : 2
                    },
                    "indices" : 3,
                    "material" : 0
                },
                {
                    "attributes" : {
                        "POSITION" : 4,
                        "TEXCOORD_0" : 5,
                        "NORMAL" : 6
                    },
                    "indices" : 7,
                    "material" : 1
                }
            ]
        }
    ],
    "skins" : [
        {
            "inverseBindMatrices" : 15,
            "joints" : [
                1
            ],
            "name" : "Armature"
        }
    ],
    "accessors" : [
        {
            "bufferView" : 0,
            "componentType" : 5126,
            "count" : 14864,
            "max" : [
                1.863092064857483,
                6.879755020141602,
                0.9109174609184265
            ],
            "min" : [
                -1.863092064857483,
                0.10045671463012695,
                0.3479919731616974
            ],
            "type" : "VEC3"
        },
        {
            "bufferView" : 1,
            "componentType" : 5126,
            "count" : 14864,
            "type" : "VEC2"
        },
        {
            "bufferView" : 2,
            "componentType" : 5126,
            "count" : 14864,
            "type" : "VEC3"
        },
        {
            "bufferView" : 3,
            "componentType" : 5123,
            "count" : 23124,
            "type" : "SCALAR"
        },
        {
            "bufferView" : 4,
            "componentType" : 5126,
            "count" : 44,
            "max" : [
                1.790945291519165,
                6.7935004234313965,
                0.3692857623100281
            ],
            "min" : [
                -1.790945291519165,
                0.23451533913612366,
                0.3692857325077057
            ],
            "type" : "VEC3"
        },
        {
            "bufferView" : 5,
            "componentType" : 5126,
            "count" : 44,
            "type" : "VEC2"
        },
        {
            "bufferView" : 6,
            "componentType" : 5126,
            "count" : 44,
            "type" : "VEC3"
        },
        {
            "bufferView" : 7,
            "componentType" : 5123,
            "count" : 96,
            "type" : "SCALAR"
        },
        {
            "bufferView" : 8,
            "componentType" : 5126,
            "count" : 240,
            "max" : [
                4
            ],
            "min" : [
                0.016666666666666666
            ],
            "type" : "SCALAR"
        },
        {
            "bufferView" : 9,
            "componentType" : 5126,
            "count" : 240,
            "type" : "VEC3"
        },
        {
            "bufferView" : 10,
            "componentType" : 5126,
            "count" : 240,
            "type" : "VEC4"
        },
        {
            "bufferView" : 11,
            "componentType" : 5126,
            "count" : 240,
            "type" : "VEC3"
        },
        {
            "bufferView" : 12,
            "componentType" : 5126,
            "count" : 240,
            "type" : "VEC3"
        },
        {
            "bufferView" : 13,
            "componentType" : 5126,
            "count" : 240,
            "type" : "VEC4"
        },
        {
            "bufferView" : 14,
            "componentType" : 5126,
            "count" : 240,
            "type" : "VEC3"
        },
        {
            "bufferView" : 15,
            "componentType" : 5126,
            "count" : 1,
            "type" : "MAT4"
        }
    ],
    "bufferViews" : [
        {
            "buffer" : 0,
            "byteLength" : 178368,
            "byteOffset" : 0,
            "target" : 34962
        },
        {
            "buffer" : 0,
            "byteLength" : 118912,
            "byteOffset" : 178368,
            "target" : 34962
        },
        {
            "buffer" : 0,
            "byteLength" : 178368,
            "byteOffset" : 297280,
            "target" : 34962
        },
        {
            "buffer" : 0,
            "byteLength" : 46248,
            "byteOffset" : 475648,
            "target" : 34963
        },
        {
            "buffer" : 0,
            "byteLength" : 528,
            "byteOffset" : 521896,
            "target" : 34962
        },
        {
            "buffer" : 0,
            "byteLength" : 352,
            "byteOffset" : 522424,
            "target" : 34962
        },
        {
            "buffer" : 0,
            "byteLength" : 528,
            "byteOffset" : 522776,
            "target" : 34962
        },
        {
            "buffer" : 0,
            "byteLength" : 192,
            "byteOffset" : 523304,
            "target" : 34963
        },
        {
            "buffer" : 0,
            "byteLength" : 960,
            "byteOffset" : 523496
        },
        {
            "buffer" : 0,
            "byteLength" : 2880,
            "byteOffset" : 524456
        },
        {
            "buffer" : 0,
            "byteLength" : 3840,
            "byteOffset" : 527336
        },
        {
            "buffer" : 0,
            "byteLength" : 2880,
            "byteOffset" : 531176
        },
        {
            "buffer" : 0,
            "byteLength" : 2880,
            "byteOffset" : 534056
        },
        {
            "buffer" : 0,
            "byteLength" : 3840,
            "byteOffset" : 536936
        },
        {
            "buffer" : 0,
            "byteLength" : 2880,
            "byteOffset" : 540776
        },
        {
            "buffer" : 0,
            "byteLength" : 64,
            "byteOffset" : 543656
        }
    ],
    "buffers" : [
        {
            "byteLength" : 543720,
            "uri" : "Door.bin"
        }
    ]
}
