{
    "asset" : {
        "generator" : "Khronos glTF Blender I/O v3.4.49",
        "version" : "2.0"
    },
    "extensionsUsed" : [
        "KHR_texture_transform"
    ],
    "extensionsRequired" : [
        "KHR_texture_transform"
    ],
    "scene" : 0,
    "scenes" : [
        {
            "extras" : {
                "texToolsSettings" : {}
            },
            "name" : "Scene",
            "nodes" : [
                0,
                1
            ]
        }
    ],
    "nodes" : [
        {
            "mesh" : 0,
            "name" : "Cube.001",
            "scale" : [
                44.05978012084961,
                18.358360290527344,
                44.05978012084961
            ],
            "translation" : [
                1.6308135986328125,
                -5.746477127075195,
                -3.180652618408203
            ]
        },
        {
            "mesh" : 1,
            "name" : "Cube.003",
            "scale" : [
                44.05978012084961,
                18.358360290527344,
                44.05978012084961
            ],
            "translation" : [
                1.6308135986328125,
                -5.746477127075195,
                -80.53094482421875
            ]
        }
    ],
    "materials" : [
        {
            "doubleSided" : true,
            "name" : "Material.002",
            "normalTexture" : {
                "extensions" : {
                    "KHR_texture_transform" : {
                        "offset" : [
                            0,
                            -199
                        ],
                        "scale" : [
                            200,
                            200
                        ]
                    }
                },
                "index" : 0
            },
            "pbrMetallicRoughness" : {
                "baseColorTexture" : {
                    "extensions" : {
                        "KHR_texture_transform" : {
                            "offset" : [
                                0,
                                -199
                            ],
                            "scale" : [
                                200,
                                200
                            ]
                        }
                    },
                    "index" : 1
                },
                "metallicFactor" : 0,
                "roughnessFactor" : 0.5
            }
        }
    ],
    "meshes" : [
        {
            "name" : "Cube.005",
            "primitives" : [
                {
                    "attributes" : {
                        "POSITION" : 0,
                        "TEXCOORD_0" : 1,
                        "NORMAL" : 2,
                        "TANGENT" : 3
                    },
                    "indices" : 4,
                    "material" : 0
                }
            ]
        },
        {
            "name" : "Cube.007",
            "primitives" : [
                {
                    "attributes" : {
                        "POSITION" : 5,
                        "TEXCOORD_0" : 6,
                        "NORMAL" : 7,
                        "TANGENT" : 8
                    },
                    "indices" : 9,
                    "material" : 0
                }
            ]
        }
    ],
    "textures" : [
        {
            "sampler" : 0,
            "source" : 0
        },
        {
            "sampler" : 0,
            "source" : 1
        }
    ],
    "images" : [
        {
            "mimeType" : "image/png",
            "name" : "Soil01_normal",
            "uri" : "textures/Soil01_normal.png"
        },
        {
            "mimeType" : "image/png",
            "name" : "Soil01.png",
            "uri" : "textures/Soil01_png.png"
        }
    ],
    "accessors" : [
        {
            "bufferView" : 0,
            "componentType" : 5126,
            "count" : 1431,
            "max" : [
                0.8157832026481628,
                0.3238917589187622,
                0.8004612922668457
            ],
            "min" : [
                -0.8004961013793945,
                -1.7275683879852295,
                -0.7943263649940491
            ],
            "type" : "VEC3"
        },
        {
            "bufferView" : 1,
            "componentType" : 5126,
            "count" : 1431,
            "type" : "VEC2"
        },
        {
            "bufferView" : 2,
            "componentType" : 5126,
            "count" : 1431,
            "type" : "VEC3"
        },
        {
            "bufferView" : 3,
            "componentType" : 5126,
            "count" : 1431,
            "type" : "VEC4"
        },
        {
            "bufferView" : 4,
            "componentType" : 5123,
            "count" : 7776,
            "type" : "SCALAR"
        },
        {
            "bufferView" : 5,
            "componentType" : 5126,
            "count" : 1431,
            "max" : [
                0.8406075239181519,
                0.3224121034145355,
                0.8654263019561768
            ],
            "min" : [
                -0.8631676435470581,
                -1.7275683879852295,
                -0.7943263649940491
            ],
            "type" : "VEC3"
        },
        {
            "bufferView" : 6,
            "componentType" : 5126,
            "count" : 1431,
            "type" : "VEC2"
        },
        {
            "bufferView" : 7,
            "componentType" : 5126,
            "count" : 1431,
            "type" : "VEC3"
        },
        {
            "bufferView" : 8,
            "componentType" : 5126,
            "count" : 1431,
            "type" : "VEC4"
        },
        {
            "bufferView" : 9,
            "componentType" : 5123,
            "count" : 7776,
            "type" : "SCALAR"
        }
    ],
    "bufferViews" : [
        {
            "buffer" : 0,
            "byteLength" : 17172,
            "byteOffset" : 0,
            "target" : 34962
        },
        {
            "buffer" : 0,
            "byteLength" : 11448,
            "byteOffset" : 17172,
            "target" : 34962
        },
        {
            "buffer" : 0,
            "byteLength" : 17172,
            "byteOffset" : 28620,
            "target" : 34962
        },
        {
            "buffer" : 0,
            "byteLength" : 22896,
            "byteOffset" : 45792,
            "target" : 34962
        },
        {
            "buffer" : 0,
            "byteLength" : 15552,
            "byteOffset" : 68688,
            "target" : 34963
        },
        {
            "buffer" : 0,
            "byteLength" : 17172,
            "byteOffset" : 84240,
            "target" : 34962
        },
        {
            "buffer" : 0,
            "byteLength" : 11448,
            "byteOffset" : 101412,
            "target" : 34962
        },
        {
            "buffer" : 0,
            "byteLength" : 17172,
            "byteOffset" : 112860,
            "target" : 34962
        },
        {
            "buffer" : 0,
            "byteLength" : 22896,
            "byteOffset" : 130032,
            "target" : 34962
        },
        {
            "buffer" : 0,
            "byteLength" : 15552,
            "byteOffset" : 152928,
            "target" : 34963
        }
    ],
    "samplers" : [
        {
            "magFilter" : 9729,
            "minFilter" : 9987
        }
    ],
    "buffers" : [
        {
            "byteLength" : 168480,
            "uri" : "level2.bin"
        }
    ]
}
