{
    "asset" : {
        "generator" : "Khronos glTF Blender I/O v1.2.75",
        "version" : "2.0"
    },
    "extensionsUsed" : [
        "KHR_materials_unlit"
    ],
    "scene" : 0,
    "scenes" : [
        {
            "name" : "Scene",
            "nodes" : [
                1,
                2,
                3,
                4,
                5,
                6,
                7,
                8,
                9,
                10,
                11,
                12,
                13,
                14,
                15,
                16,
                17,
                18,
                19,
                20,
                21,
                22,
                23,
                24,
                25,
                26,
                27,
                28,
                29,
                30,
                31,
                32,
                33,
                34,
                35,
                36,
                37,
                38,
                39,
                40,
                41,
                42,
                43
            ]
        }
    ],
    "nodes" : [
        {
            "camera" : 0,
            "name" : "Camera_Orientation",
            "rotation" : [
                -0.7071067690849304,
                0,
                0,
                0.7071067690849304
            ]
        },
        {
            "children" : [
                0
            ],
            "name" : "Camera",
            "rotation" : [
                0.4240189492702484,
                0.4858627915382385,
                -0.2916128933429718,
                0.7064751982688904
            ],
            "translation" : [
                4.36703634262085,
                2.995313882827759,
                1.4391134977340698
            ]
        },
        {
            "mesh" : 0,
            "name" : "Cylinder.041",
            "rotation" : [
                -0.5,
                0.4999999701976776,
                -0.5,
                0.5000000596046448
            ]
        },
        {
            "mesh" : 1,
            "name" : "Cylinder.040",
            "rotation" : [
                -0.5,
                0.4999999701976776,
                -0.5,
                0.5000000596046448
            ],
            "translation" : [
                0.10000000149011612,
                0,
                0
            ]
        },
        {
            "mesh" : 1,
            "name" : "Cylinder.039",
            "rotation" : [
                -0.5,
                0.4999999701976776,
                -0.5,
                0.5000000596046448
            ],
            "translation" : [
                0.30000001192092896,
                0,
                0
            ]
        },
        {
            "mesh" : 1,
            "name" : "Cylinder.038",
            "rotation" : [
                -0.5,
                0.4999999701976776,
                -0.5,
                0.5000000596046448
            ],
            "translation" : [
                0.20000000298023224,
                0,
                0
            ]
        },
        {
            "mesh" : 1,
            "name" : "Cylinder.037",
            "rotation" : [
                -0.5,
                0.4999999701976776,
                -0.5,
                0.5000000596046448
            ],
            "translation" : [
                0.6000000238418579,
                0,
                0
            ]
        },
        {
            "mesh" : 1,
            "name" : "Cylinder.036",
            "rotation" : [
                -0.5,
                0.4999999701976776,
                -0.5,
                0.5000000596046448
            ],
            "translation" : [
                0.7000000476837158,
                0,
                0
            ]
        },
        {
            "mesh" : 1,
            "name" : "Cylinder.035",
            "rotation" : [
                -0.5,
                0.4999999701976776,
                -0.5,
                0.5000000596046448
            ],
            "translation" : [
                0.5,
                0,
                0
            ]
        },
        {
            "mesh" : 1,
            "name" : "Cylinder.034",
            "rotation" : [
                -0.5,
                0.4999999701976776,
                -0.5,
                0.5000000596046448
            ],
            "translation" : [
                0.4000000059604645,
                0,
                0
            ]
        },
        {
            "mesh" : 1,
            "name" : "Cylinder.033",
            "rotation" : [
                -0.5,
                0.4999999701976776,
                -0.5,
                0.5000000596046448
            ],
            "translation" : [
                0.9000000357627869,
                0,
                0
            ]
        },
        {
            "mesh" : 1,
            "name" : "Cylinder.032",
            "rotation" : [
                -0.5,
                0.4999999701976776,
                -0.5,
                0.5000000596046448
            ],
            "translation" : [
                0.800000011920929,
                0,
                0
            ]
        },
        {
            "mesh" : 1,
            "name" : "Cylinder.031",
            "rotation" : [
                -0.5,
                0.4999999701976776,
                -0.5,
                0.5000000596046448
            ],
            "translation" : [
                1,
                0,
                0
            ]
        },
        {
            "mesh" : 1,
            "name" : "Cylinder.030",
            "rotation" : [
                -0.5,
                0.4999999701976776,
                -0.5,
                0.5000000596046448
            ],
            "translation" : [
                -0.10000002384185791,
                0,
                0
            ]
        },
        {
            "mesh" : 1,
            "name" : "Cylinder.029",
            "rotation" : [
                -0.5,
                0.4999999701976776,
                -0.5,
                0.5000000596046448
            ],
            "translation" : [
                -0.30000001192092896,
                0,
                0
            ]
        },
        {
            "mesh" : 1,
            "name" : "Cylinder.028",
            "rotation" : [
                -0.5,
                0.4999999701976776,
                -0.5,
                0.5000000596046448
            ],
            "translation" : [
                -0.19999998807907104,
                0,
                0
            ]
        },
        {
            "mesh" : 1,
            "name" : "Cylinder.027",
            "rotation" : [
                -0.5,
                0.4999999701976776,
                -0.5,
                0.5000000596046448
            ],
            "translation" : [
                -0.7000000476837158,
                0,
                0
            ]
        },
        {
            "mesh" : 1,
            "name" : "Cylinder.026",
            "rotation" : [
                -0.5,
                0.4999999701976776,
                -0.5,
                0.5000000596046448
            ],
            "translation" : [
                -0.6000000238418579,
                0,
                0
            ]
        },
        {
            "mesh" : 1,
            "name" : "Cylinder.025",
            "rotation" : [
                -0.5,
                0.4999999701976776,
                -0.5,
                0.5000000596046448
            ],
            "translation" : [
                -0.3999999761581421,
                0,
                0
            ]
        },
        {
            "mesh" : 1,
            "name" : "Cylinder.024",
            "rotation" : [
                -0.5,
                0.4999999701976776,
                -0.5,
                0.5000000596046448
            ],
            "translation" : [
                -0.5,
                0,
                0
            ]
        },
        {
            "mesh" : 1,
            "name" : "Cylinder.023",
            "rotation" : [
                -0.5,
                0.4999999701976776,
                -0.5,
                0.5000000596046448
            ],
            "translation" : [
                -0.9000000357627869,
                0,
                0
            ]
        },
        {
            "mesh" : 1,
            "name" : "Cylinder.022",
            "rotation" : [
                -0.5,
                0.4999999701976776,
                -0.5,
                0.5000000596046448
            ],
            "translation" : [
                -0.800000011920929,
                0,
                0
            ]
        },
        {
            "mesh" : 1,
            "name" : "Cylinder.021",
            "rotation" : [
                -0.5,
                0.4999999701976776,
                -0.5,
                0.5000000596046448
            ],
            "translation" : [
                -1,
                0,
                0
            ]
        },
        {
            "mesh" : 1,
            "name" : "Cylinder.020",
            "rotation" : [
                0,
                0,
                -0.7071067690849304,
                0.7071068286895752
            ],
            "translation" : [
                0,
                0,
                -1
            ]
        },
        {
            "mesh" : 1,
            "name" : "Cylinder.019",
            "rotation" : [
                0,
                0,
                -0.7071067690849304,
                0.7071068286895752
            ],
            "translation" : [
                0,
                0,
                -0.800000011920929
            ]
        },
        {
            "mesh" : 1,
            "name" : "Cylinder.018",
            "rotation" : [
                0,
                0,
                -0.7071067690849304,
                0.7071068286895752
            ],
            "translation" : [
                0,
                0,
                -0.9000000357627869
            ]
        },
        {
            "mesh" : 1,
            "name" : "Cylinder.017",
            "rotation" : [
                0,
                0,
                -0.7071067690849304,
                0.7071068286895752
            ],
            "translation" : [
                0,
                0,
                -0.5
            ]
        },
        {
            "mesh" : 1,
            "name" : "Cylinder.016",
            "rotation" : [
                0,
                0,
                -0.7071067690849304,
                0.7071068286895752
            ],
            "translation" : [
                0,
                0,
                -0.3999999761581421
            ]
        },
        {
            "mesh" : 1,
            "name" : "Cylinder.015",
            "rotation" : [
                0,
                0,
                -0.7071067690849304,
                0.7071068286895752
            ],
            "translation" : [
                0,
                0,
                -0.6000000238418579
            ]
        },
        {
            "mesh" : 1,
            "name" : "Cylinder.014",
            "rotation" : [
                0,
                0,
                -0.7071067690849304,
                0.7071068286895752
            ],
            "translation" : [
                0,
                0,
                -0.7000000476837158
            ]
        },
        {
            "mesh" : 1,
            "name" : "Cylinder.013",
            "rotation" : [
                0,
                0,
                -0.7071067690849304,
                0.7071068286895752
            ],
            "translation" : [
                0,
                0,
                -0.19999998807907104
            ]
        },
        {
            "mesh" : 1,
            "name" : "Cylinder.012",
            "rotation" : [
                0,
                0,
                -0.7071067690849304,
                0.7071068286895752
            ],
            "translation" : [
                0,
                0,
                -0.30000001192092896
            ]
        },
        {
            "mesh" : 1,
            "name" : "Cylinder.011",
            "rotation" : [
                0,
                0,
                -0.7071067690849304,
                0.7071068286895752
            ],
            "translation" : [
                0,
                0,
                -0.10000002384185791
            ]
        },
        {
            "mesh" : 1,
            "name" : "Cylinder.010",
            "rotation" : [
                0,
                0,
                -0.7071067690849304,
                0.7071068286895752
            ],
            "translation" : [
                0,
                0,
                1
            ]
        },
        {
            "mesh" : 1,
            "name" : "Cylinder.009",
            "rotation" : [
                0,
                0,
                -0.7071067690849304,
                0.7071068286895752
            ],
            "translation" : [
                0,
                0,
                0.800000011920929
            ]
        },
        {
            "mesh" : 1,
            "name" : "Cylinder.008",
            "rotation" : [
                0,
                0,
                -0.7071067690849304,
                0.7071068286895752
            ],
            "translation" : [
                0,
                0,
                0.9000000357627869
            ]
        },
        {
            "mesh" : 1,
            "name" : "Cylinder.007",
            "rotation" : [
                0,
                0,
                -0.7071067690849304,
                0.7071068286895752
            ],
            "translation" : [
                0,
                0,
                0.4000000059604645
            ]
        },
        {
            "mesh" : 1,
            "name" : "Cylinder.006",
            "rotation" : [
                0,
                0,
                -0.7071067690849304,
                0.7071068286895752
            ],
            "translation" : [
                0,
                0,
                0.5
            ]
        },
        {
            "mesh" : 1,
            "name" : "Cylinder.005",
            "rotation" : [
                0,
                0,
                -0.7071067690849304,
                0.7071068286895752
            ],
            "translation" : [
                0,
                0,
                0.7000000476837158
            ]
        },
        {
            "mesh" : 1,
            "name" : "Cylinder.004",
            "rotation" : [
                0,
                0,
                -0.7071067690849304,
                0.7071068286895752
            ],
            "translation" : [
                0,
                0,
                0.6000000238418579
            ]
        },
        {
            "mesh" : 1,
            "name" : "Cylinder.003",
            "rotation" : [
                0,
                0,
                -0.7071067690849304,
                0.7071068286895752
            ],
            "translation" : [
                0,
                0,
                0.20000000298023224
            ]
        },
        {
            "mesh" : 1,
            "name" : "Cylinder.002",
            "rotation" : [
                0,
                0,
                -0.7071067690849304,
                0.7071068286895752
            ],
            "translation" : [
                0,
                0,
                0.30000001192092896
            ]
        },
        {
            "mesh" : 1,
            "name" : "Cylinder.001",
            "rotation" : [
                0,
                0,
                -0.7071067690849304,
                0.7071068286895752
            ],
            "translation" : [
                0,
                0,
                0.10000000149011612
            ]
        },
        {
            "mesh" : 2,
            "name" : "Cylinder",
            "rotation" : [
                0,
                0,
                -0.7071067690849304,
                0.7071068286895752
            ]
        }
    ],
    "cameras" : [
        {
            "name" : "Camera.001",
            "perspective" : {
                "yfov" : 0.5033799372418416,
                "zfar" : 100,
                "znear" : 0.10000000149011612
            },
            "type" : "perspective"
        }
    ],
    "materials" : [
        {
            "alphaMode" : "BLEND",
            "extensions" : {
                "KHR_materials_unlit" : {}
            },
            "name" : "Material.004",
            "pbrMetallicRoughness" : {
                "baseColorFactor" : [
                    0,
                    1,
                    0,
                    0.4505494236946106
                ]
            }
        },
        {
            "alphaMode" : "BLEND",
            "extensions" : {
                "KHR_materials_unlit" : {}
            },
            "name" : "Material.001",
            "pbrMetallicRoughness" : {
                "baseColorFactor" : [
                    0.800000011920929,
                    0.800000011920929,
                    0.800000011920929,
                    0.3901098966598511
                ]
            }
        },
        {
            "alphaMode" : "BLEND",
            "extensions" : {
                "KHR_materials_unlit" : {}
            },
            "name" : "Material.003",
            "pbrMetallicRoughness" : {
                "baseColorFactor" : [
                    1,
                    0,
                    0,
                    0.4395604133605957
                ]
            }
        }
    ],
    "meshes" : [
        {
            "name" : "Cylinder.004",
            "primitives" : [
                {
                    "attributes" : {
                        "POSITION" : 0,
                        "NORMAL" : 1
                    },
                    "indices" : 2,
                    "material" : 0
                }
            ]
        },
        {
            "name" : "Cylinder.001",
            "primitives" : [
                {
                    "attributes" : {
                        "POSITION" : 3,
                        "NORMAL" : 4
                    },
                    "indices" : 2,
                    "material" : 1
                }
            ]
        },
        {
            "name" : "Cylinder.003",
            "primitives" : [
                {
                    "attributes" : {
                        "POSITION" : 5,
                        "NORMAL" : 6
                    },
                    "indices" : 2,
                    "material" : 2
                }
            ]
        }
    ],
    "accessors" : [
        {
            "bufferView" : 0,
            "componentType" : 5126,
            "count" : 16,
            "max" : [
                0.009999999776482582,
                1,
                0.009999999776482582
            ],
            "min" : [
                -0.009999999776482582,
                -1,
                -0.009999999776482582
            ],
            "type" : "VEC3"
        },
        {
            "bufferView" : 1,
            "componentType" : 5126,
            "count" : 16,
            "type" : "VEC3"
        },
        {
            "bufferView" : 2,
            "componentType" : 5123,
            "count" : 24,
            "type" : "SCALAR"
        },
        {
            "bufferView" : 3,
            "componentType" : 5126,
            "count" : 16,
            "max" : [
                0.004999999888241291,
                1,
                0.005000037606805563
            ],
            "min" : [
                -0.004999999888241291,
                -1,
                -0.005000037606805563
            ],
            "type" : "VEC3"
        },
        {
            "bufferView" : 4,
            "componentType" : 5126,
            "count" : 16,
            "type" : "VEC3"
        },
        {
            "bufferView" : 5,
            "componentType" : 5126,
            "count" : 16,
            "max" : [
                0.009999999776482582,
                1,
                0.009999999776482582
            ],
            "min" : [
                -0.009999999776482582,
                -1,
                -0.009999999776482582
            ],
            "type" : "VEC3"
        },
        {
            "bufferView" : 6,
            "componentType" : 5126,
            "count" : 16,
            "type" : "VEC3"
        }
    ],
    "bufferViews" : [
        {
            "buffer" : 0,
            "byteLength" : 192,
            "byteOffset" : 0
        },
        {
            "buffer" : 0,
            "byteLength" : 192,
            "byteOffset" : 192
        },
        {
            "buffer" : 0,
            "byteLength" : 48,
            "byteOffset" : 384
        },
        {
            "buffer" : 0,
            "byteLength" : 192,
            "byteOffset" : 432
        },
        {
            "buffer" : 0,
            "byteLength" : 192,
            "byteOffset" : 624
        },
        {
            "buffer" : 0,
            "byteLength" : 192,
            "byteOffset" : 816
        },
        {
            "buffer" : 0,
            "byteLength" : 192,
            "byteOffset" : 1008
        }
    ],
    "buffers" : [
        {
            "byteLength" : 1200,
            "uri" : "base.bin"
        }
    ]
}
