{
  "accessors": [
    {
      "bufferView": 2,
      "componentType": 5126,
      "count": 4769,
      "max": [
        0.6392213702201843,
        1.9710991382598877,
        0.9372560381889343
      ],
      "min": [
        -0.6401339769363403,
        0.00021086788910906762,
        -0.09963568300008774
      ],
      "type": "VEC3"
    },
    {
      "bufferView": 2,
      "byteOffset": 57228,
      "componentType": 5126,
      "count": 4769,
      "max": [
        0.9999992251396179,
        0.9999964833259583,
        0.9999991059303284
      ],
      "min": [
        -0.9999997019767761,
        -0.9999986290931702,
        -0.9999991059303284
      ],
      "type": "VEC3"
    },
    {
      "bufferView": 3,
      "componentType": 5126,
      "count": 4769,
      "max": [
        0.9999991655349731,
        0.9999980926513672,
        0.9999980330467224,
        1.0
      ],
      "min": [
        -0.9999979138374329,
        -0.9999562501907349,
        -0.9999973177909851,
        1.0
      ],
      "type": "VEC4"
    },
    {
      "bufferView": 1,
      "componentType": 5126,
      "count": 4769,
      "max": [
        0.9610164165496826,
        0.998520016670227
      ],
      "min": [
        0.00037572934525087476,
        0.00037572934525087476
      ],
      "type": "VEC2"
    },
    {
      "bufferView": 1,
      "byteOffset": 38152,
      "componentType": 5126,
      "count": 4769,
      "max": [
        0.9610164165496826,
        0.998520016670227
      ],
      "min": [
        0.00037572934525087476,
        0.00037572934525087476
      ],
      "type": "VEC2"
    },
    {
      "bufferView": 1,
      "byteOffset": 76304,
      "componentType": 5126,
      "count": 4769,
      "max": [
        0.9610164165496826,
        0.998520016670227
      ],
      "min": [
        0.00037572934525087476,
        0.00037572934525087476
      ],
      "type": "VEC2"
    },
    {
      "bufferView": 0,
      "componentType": 5125,
      "count": 24294,
      "type": "SCALAR"
    }
  ],
  "asset": {
    "extras": {
      "author": "MarcoConfente (https://sketchfab.com/MarcoConfente)",
      "license": "CC-BY-NC-4.0 (http://creativecommons.org/licenses/by-nc/4.0/)",
      "source": "https://sketchfab.com/3d-models/throne-of-rock-8de6fa4b9d7e488080828d155891c8f8",
      "title": "throne of rock"
    },
    "generator": "Sketchfab-12.68.0",
    "version": "2.0"
  },
  "bufferViews": [
    {
      "buffer": 0,
      "byteLength": 97176,
      "name": "floatBufferViews",
      "target": 34963
    },
    {
      "buffer": 0,
      "byteLength": 114456,
      "byteOffset": 97176,
      "byteStride": 8,
      "name": "floatBufferViews",
      "target": 34962
    },
    {
      "buffer": 0,
      "byteLength": 114456,
      "byteOffset": 211632,
      "byteStride": 12,
      "name": "floatBufferViews",
      "target": 34962
    },
    {
      "buffer": 0,
      "byteLength": 76304,
      "byteOffset": 326088,
      "byteStride": 16,
      "name": "floatBufferViews",
      "target": 34962
    }
  ],
  "buffers": [
    {
      "byteLength": 402392,
      "uri": "scene.bin"
    }
  ],
  "images": [
    {
      "uri": "textures/Material_baseColor.png"
    },
    {
      "uri": "textures/Material_metallicRoughness.png"
    },
    {
      "uri": "textures/Material_normal.png"
    }
  ],
  "materials": [
    {
      "doubleSided": true,
      "name": "Material",
      "normalTexture": {
        "index": 2
      },
      "pbrMetallicRoughness": {
        "baseColorTexture": {
          "index": 0
        },
        "metallicFactor": 0.0,
        "metallicRoughnessTexture": {
          "index": 1
        }
      }
    }
  ],
  "meshes": [
    {
      "name": "Trono_RT_Material_0",
      "primitives": [
        {
          "attributes": {
            "NORMAL": 1,
            "POSITION": 0,
            "TANGENT": 2,
            "TEXCOORD_0": 3,
            "TEXCOORD_1": 4,
            "TEXCOORD_2": 5
          },
          "indices": 6,
          "material": 0,
          "mode": 4
        }
      ]
    }
  ],
  "nodes": [
    {
      "children": [
        1
      ],
      "matrix": [
        1.0,
        0.0,
        0.0,
        0.0,
        0.0,
        2.220446049250313e-16,
        -1.0,
        0.0,
        0.0,
        1.0,
        2.220446049250313e-16,
        0.0,
        0.0,
        0.0,
        0.0,
        1.0
      ],
      "name": "Sketchfab_model"
    },
    {
      "children": [
        2
      ],
      "matrix": [
        1.0,
        0.0,
        0.0,
        0.0,
        0.0,
        0.0,
        1.0,
        0.0,
        0.0,
        -1.0,
        0.0,
        0.0,
        0.0,
        0.0,
        0.0,
        1.0
      ],
      "name": "61cac5c5b1c145d6888c888722a1a3fb.fbx"
    },
    {
      "children": [
        3
      ],
      "name": "RootNode"
    },
    {
      "children": [
        4
      ],
      "matrix": [
        100.0,
        0.0,
        0.0,
        0.0,
        0.0,
        99.99999999999866,
        1.6292067073209114e-05,
        0.0,
        0.0,
        -1.6292067073209114e-05,
        99.99999999999866,
        0.0,
        0.0,
        0.0,
        0.0,
        1.0
      ],
      "name": "Trono_RT"
    },
    {
      "mesh": 0,
      "name": "Trono_RT_Material_0"
    }
  ],
  "samplers": [
    {
      "magFilter": 9729,
      "minFilter": 9987,
      "wrapS": 10497,
      "wrapT": 10497
    }
  ],
  "scene": 0,
  "scenes": [
    {
      "name": "Sketchfab_Scene",
      "nodes": [
        0
      ]
    }
  ],
  "textures": [
    {
      "sampler": 0,
      "source": 0
    },
    {
      "sampler": 0,
      "source": 1
    },
    {
      "sampler": 0,
      "source": 2
    }
  ]
}
