<?xml version="1.0" encoding="UTF-8" standalone="no"?>
<!-- Generator: Adobe Illustrator 16.0.0, SVG Export Plug-In . SVG Version: 6.00 Build 0)  -->

<svg
   xmlns:dc="http://purl.org/dc/elements/1.1/"
   xmlns:cc="http://creativecommons.org/ns#"
   xmlns:rdf="http://www.w3.org/1999/02/22-rdf-syntax-ns#"
   xmlns:svg="http://www.w3.org/2000/svg"
   xmlns="http://www.w3.org/2000/svg"
   xmlns:xlink="http://www.w3.org/1999/xlink"
   xmlns:sodipodi="http://sodipodi.sourceforge.net/DTD/sodipodi-0.dtd"
   xmlns:inkscape="http://www.inkscape.org/namespaces/inkscape"
   version="1.1"
   x="0px"
   y="0px"
   width="273.06668"
   height="273.06668"
   viewBox="0 0 256 256"
   xml:space="preserve"
   id="svg2"
   inkscape:version="0.92.0 r15299"
   sodipodi:docname="castle_game_engine_icon_grayscale.svg"><metadata
     id="metadata50"><rdf:RDF><cc:Work
         rdf:about=""><dc:format>image/svg+xml</dc:format><dc:type
           rdf:resource="http://purl.org/dc/dcmitype/StillImage" /><dc:title></dc:title></cc:Work></rdf:RDF></metadata><defs
     id="defs48"><defs
       id="defs7"><circle
         r="220.97"
         cy="240.07001"
         cx="310.47"
         id="SVGID_1_" /></defs><clipPath
       id="SVGID_2_"><use
         height="100%"
         width="100%"
         y="0"
         x="0"
         id="use13"
         style="overflow:visible"
         xlink:href="#SVGID_1_" /></clipPath></defs><sodipodi:namedview
     pagecolor="#ffffff"
     bordercolor="#666666"
     borderopacity="0.49019608"
     objecttolerance="10"
     gridtolerance="10"
     guidetolerance="10"
     inkscape:pageopacity="0"
     inkscape:pageshadow="2"
     inkscape:window-width="1920"
     inkscape:window-height="976"
     id="namedview46"
     showgrid="false"
     fit-margin-top="0"
     fit-margin-left="0"
     fit-margin-right="0"
     fit-margin-bottom="0"
     inkscape:snap-page="true"
     inkscape:snap-bbox="true"
     inkscape:bbox-paths="true"
     inkscape:bbox-nodes="true"
     inkscape:showpageshadow="false"
     inkscape:zoom="1.7232567"
     inkscape:cx="36.610177"
     inkscape:cy="215.78396"
     inkscape:window-x="0"
     inkscape:window-y="42"
     inkscape:window-maximized="1"
     inkscape:current-layer="svg2" /><circle
     clip-path="url(#SVGID_2_)"
     id="circle16"
     r="220.97"
     cy="240.07001"
     cx="309.97"
     style="fill:#f2f2f2"
     transform="matrix(0.57926415,0,0,0.57926415,-51.844142,-11.063949)" /><g
     clip-path="url(#SVGID_2_)"
     id="Warstwa_7"
     transform="matrix(0.57926415,0,0,0.57926415,-51.844142,-11.063949)" /><circle
     clip-path="url(#SVGID_2_)"
     id="circle18"
     r="106.587"
     cy="196.60001"
     cx="371.5"
     style="fill:#ffffff"
     transform="matrix(0.57926415,0,0,0.57926415,-51.844142,-11.063949)" /><path
     inkscape:connector-curvature="0"
     clip-path="url(#SVGID_2_)"
     id="path20"
     d="m 391.75,298.51 -141.5,-46.5 -248,146 101,65 c 0,0 165,8.5 166.5,7.5 1.5,-1 122,-172 122,-172 z"
     style="fill:#c1c1c1"
     transform="matrix(0.57926415,0,0,0.57926415,-51.844142,-11.063949)" /><path
     inkscape:connector-curvature="0"
     clip-path="url(#SVGID_2_)"
     id="path22"
     d="m 544.5,310.809 -141.5,-46.5 -248,146 101,65 c 0,0 165,8.5 166.5,7.5 1.5,-1 122,-172 122,-172 z"
     style="fill:#a5a5a5"
     transform="matrix(0.57926415,0,0,0.57926415,-51.844142,-11.063949)" /><polyline
     clip-path="url(#SVGID_2_)"
     id="polyline24"
     points="402,492.1 103.5,414.1 34,324.1 162,255.1 425,369.6  "
     style="fill:#969696"
     transform="matrix(0.57926415,0,0,0.57926415,-51.844142,-11.063949)" /><polyline
     clip-path="url(#SVGID_2_)"
     id="polyline26"
     points="558.5,384.1 424.5,332.6 172.5,442.6 338.5,483.6  "
     style="fill:#767676"
     transform="matrix(0.57926415,0,0,0.57926415,-51.844142,-11.063949)" /><path
     transform="matrix(0.57926415,0,0,0.57926415,-51.844142,-11.063949)"
     style="fill:#5f5f5f"
     clip-path="url(#SVGID_2_)"
     d="m 325.25,117.85 -0.17085,17.91795 26.66901,7.61118 L 343.333,108.6"
     id="polyline30"
     inkscape:connector-curvature="0"
     sodipodi:nodetypes="cccc" /><path
     transform="matrix(0.57926415,0,0,0.57926415,-51.844142,-11.063949)"
     style="fill:#5f5f5f"
     clip-path="url(#SVGID_2_)"
     d="m 164,122.934 -5.14673,25.65828 18.85638,5.60428 L 180.2,127.35"
     id="polyline32"
     inkscape:connector-curvature="0"
     sodipodi:nodetypes="cccc" /><path
     transform="matrix(0.57926415,0,0,0.57926415,-51.844142,-11.063949)"
     style="fill:#5f5f5f"
     clip-path="url(#SVGID_2_)"
     d="m 197,106.267 -8.30118,23.30985 25.01825,1.17568 L 213.5,110.975"
     id="polyline34"
     inkscape:connector-curvature="0"
     sodipodi:nodetypes="cccc" /><path
     transform="matrix(0.57926415,0,0,0.57926415,-51.844142,-11.063949)"
     style="fill:#5f5f5f"
     clip-path="url(#SVGID_2_)"
     d="m 292,98.6 4.44113,22.73458 -21.30456,-1.40764 -0.0116,-11.99294"
     id="polyline36"
     inkscape:connector-curvature="0"
     sodipodi:nodetypes="cccc" /><path
     transform="matrix(0.57926415,0,0,0.57926415,-51.844142,-11.063949)"
     style="fill:#6a6a6a"
     clip-path="url(#SVGID_2_)"
     d="M 235.667,70.6 218.333,83.267 V 110.6 L 197,123.6 v -17.333 l -15,10.667 v 18 L 164,146.6 V 122.934 L 151.631,131.682 150.333,201.6 264.54651,158.40899 235.667,70.6"
     id="polyline38"
     inkscape:connector-curvature="0"
     sodipodi:nodetypes="ccccccccccccc" /><path
     transform="matrix(0.57926415,0,0,0.57926415,-51.844142,-11.063949)"
     style="fill:#b2b2b2"
     clip-path="url(#SVGID_2_)"
     d="m 343.333,108.6 v 25.667 l -29,-9.667 V 106.267 L 292,98.6 v 18.667 l -31.333,-10.333 -1.224,-27.774 -23.776,-8.56 0,91.33088 L 366,188.267 363.333,116.934 Z"
     id="polygon40"
     inkscape:connector-curvature="0"
     sodipodi:nodetypes="ccccccccccccc" /><polyline
     clip-path="url(#SVGID_2_)"
     id="polyline28"
     points="150.333,201.6 235.667,151.6 366,188.267 262.667,229.599  "
     style="fill:#4f4f4f"
     transform="matrix(0.57926415,0,0,0.57926415,-51.844142,-11.063949)" /><path
     transform="matrix(0.57926415,0,0,0.57926415,-51.844142,-11.063949)"
     style="fill:#6a6a6a"
     clip-path="url(#SVGID_2_)"
     d="m 240.333,169.263 -58.121,32.285 -6.712,246.716 101.46067,45.64271"
     id="polyline42"
     inkscape:connector-curvature="0"
     sodipodi:nodetypes="cccc" /><polyline
     clip-path="url(#SVGID_2_)"
     id="polyline44"
     points="240.333,470.592 332,467.764 324,192.434 240.333,169.263  "
     style="fill:#b2b2b2"
     transform="matrix(0.57926415,0,0,0.57926415,-51.844142,-11.063949)" /><g
     id="Background_xA0_Obraz_1_"
     style="display:none"
     transform="translate(-89.5,-205.04001)"><image
       sodipodi:absref="/home/michalis/sources/castle-engine/castle-engine/doc/pasdoc/logo/unused/F0BFC23F.jpg"
       xlink:href="F0BFC23F.jpg"
       style="display:inline;overflow:visible"
       width="7200"
       height="9130"
       id="Background_xA0_Obraz"
       transform="scale(0.24)" /></g></svg>