<?xml version="1.0" encoding="UTF-8" standalone="no"?>
<!-- Generator: Adobe Illustrator 16.0.0, SVG Export Plug-In . SVG Version: 6.00 Build 0)  -->

<svg
   xmlns:dc="http://purl.org/dc/elements/1.1/"
   xmlns:cc="http://creativecommons.org/ns#"
   xmlns:rdf="http://www.w3.org/1999/02/22-rdf-syntax-ns#"
   xmlns:svg="http://www.w3.org/2000/svg"
   xmlns="http://www.w3.org/2000/svg"
   xmlns:xlink="http://www.w3.org/1999/xlink"
   xmlns:sodipodi="http://sodipodi.sourceforge.net/DTD/sodipodi-0.dtd"
   xmlns:inkscape="http://www.inkscape.org/namespaces/inkscape"
   version="1.1"
   x="0px"
   y="0px"
   width="441.94"
   height="437.94"
   viewBox="0 0 441.94 437.94001"
   xml:space="preserve"
   id="svg2"
   inkscape:version="0.91 r13725"
   sodipodi:docname="logo_simplified_for_view3dscene.svg"><metadata
     id="metadata186"><rdf:RDF><cc:Work
         rdf:about=""><dc:format>image/svg+xml</dc:format><dc:type
           rdf:resource="http://purl.org/dc/dcmitype/StillImage" /><dc:title></dc:title></cc:Work></rdf:RDF></metadata><defs
     id="defs184" /><sodipodi:namedview
     pagecolor="#ffffff"
     bordercolor="#666666"
     borderopacity="0.41176471"
     objecttolerance="10"
     gridtolerance="10"
     guidetolerance="10"
     inkscape:pageopacity="0"
     inkscape:pageshadow="2"
     inkscape:window-width="1920"
     inkscape:window-height="976"
     id="namedview182"
     showgrid="false"
     fit-margin-top="0"
     fit-margin-left="0"
     fit-margin-right="0"
     fit-margin-bottom="0"
     inkscape:showpageshadow="false"
     inkscape:snap-page="true"
     inkscape:snap-bbox="true"
     inkscape:bbox-paths="true"
     inkscape:bbox-nodes="true"
     inkscape:zoom="0.86162835"
     inkscape:cx="234.72818"
     inkscape:cy="163.51192"
     inkscape:window-x="0"
     inkscape:window-y="42"
     inkscape:window-maximized="1"
     inkscape:current-layer="svg2" /><g
     id="Background_xA0_Obraz_1_"
     style="display:none"
     transform="translate(-89.5,-23.100008)"><image
       sodipodi:absref="/home/michalis/sources/castle-engine/castle-engine/doc/logo/unused/9909F56E.jpg"
       xlink:href="9909F56E.jpg"
       transform="scale(0.24,0.24)"
       id="Background_xA0_Obraz"
       height="9130"
       width="7200"
       style="display:inline;overflow:visible" /></g><g
     id="Group_1_1_"
     transform="matrix(0.99999999,0,0,0.990949,-89.499996,-18.927132)"><defs
       id="defs7"><circle
         id="SVGID_1_"
         cx="310.47"
         cy="240.07001"
         r="220.97" /></defs><use
       xlink:href="#SVGID_1_"
       style="overflow:visible;fill:#ffffff"
       id="use10"
       x="0"
       y="0"
       width="100%"
       height="100%" /><clipPath
       id="SVGID_2_"><use
         xlink:href="#SVGID_1_"
         style="overflow:visible"
         id="use13"
         x="0"
         y="0"
         width="100%"
         height="100%" /></clipPath><g
       id="Warstwa_7"
       clip-path="url(#SVGID_2_)" /><circle
       style="fill:#c1c1c1"
       cx="309.97"
       cy="240.07001"
       r="220.97"
       id="circle16"
       clip-path="url(#SVGID_2_)" /><g
       id="g18"
       clip-path="url(#SVGID_2_)"><polyline
         style="fill:#828282"
         points="198.97,222.899 284.303,172.899 414.637,209.566 311.303,250.898   "
         id="polyline20" /><g
         id="g22"><line
           style="fill:none;stroke:#000000;stroke-miterlimit:10"
           x1="198.97"
           y1="222.899"
           x2="204.147"
           y2="219.866"
           id="line24" /><line
           style="fill:none;stroke:#000000;stroke-miterlimit:10;stroke-dasharray:12.4147, 12.4147"
           x1="214.858"
           y1="213.59"
           x2="273.771"
           y2="179.071"
           id="line26" /><polyline
           style="fill:none;stroke:#000000;stroke-miterlimit:10"
           points="279.126,175.933 284.303,172.899 290.079,174.524         "
           id="polyline28" /><line
           style="fill:none;stroke:#000000;stroke-miterlimit:10;stroke-dasharray:11.2176, 11.2176"
           x1="300.87701"
           y1="177.562"
           x2="403.46201"
           y2="206.422"
           id="line30" /><polyline
           style="fill:none;stroke:#000000;stroke-miterlimit:10"
           points="408.861,207.941 414.637,209.566 409.066,211.794         "
           id="polyline32" /><line
           style="fill:none;stroke:#000000;stroke-miterlimit:10;stroke-dasharray:11.0326, 11.0326"
           x1="398.82199"
           y1="215.892"
           x2="321.996"
           y2="246.62199"
           id="line34" /><line
           style="fill:none;stroke:#000000;stroke-miterlimit:10"
           x1="316.87399"
           y1="248.67"
           x2="311.30301"
           y2="250.89799"
           id="line36" /></g></g><g
       id="g38"
       clip-path="url(#SVGID_2_)"><polyline
         style="fill:#828282"
         points="373.887,139.149 372.637,157.399 392.637,162.565 391.97,129.899   "
         id="polyline40" /><g
         id="g42"><line
           style="fill:none;stroke:#000000;stroke-miterlimit:10"
           x1="373.88699"
           y1="139.149"
           x2="373.47699"
           y2="145.13499"
           id="line44" /><polyline
           style="fill:none;stroke:#000000;stroke-miterlimit:10"
           points="373.047,151.414 372.637,157.399 378.446,158.9    "
           id="polyline46" /><polyline
           style="fill:none;stroke:#000000;stroke-miterlimit:10"
           points="386.827,161.064 392.637,162.565 392.514,156.566         "
           id="polyline48" /><line
           style="fill:none;stroke:#000000;stroke-miterlimit:10;stroke-dasharray:6.8908, 6.8908"
           x1="392.37399"
           y1="149.677"
           x2="392.16299"
           y2="139.343"
           id="line50" /><line
           style="fill:none;stroke:#000000;stroke-miterlimit:10"
           x1="392.09299"
           y1="135.89799"
           x2="391.97"
           y2="129.899"
           id="line52" /></g></g><polyline
       style="fill:#828282;stroke:#000000;stroke-miterlimit:10;stroke-dasharray:12"
       points="   212.47,144.233 212.47,167.899 228.67,157.399 228.67,148.649  "
       id="polyline54"
       clip-path="url(#SVGID_2_)" /><polyline
       style="fill:#828282;stroke:#000000;stroke-miterlimit:10"
       points="245.47,127.566    245.47,144.899 261.689,141.261 261.97,132.274  "
       id="polyline56"
       clip-path="url(#SVGID_2_)" /><g
       id="g58"
       clip-path="url(#SVGID_2_)"><polyline
         style="fill:#828282"
         points="340.625,119.899 340.625,138.566 322.705,132.656 323.75,129.233   "
         id="polyline60" /><g
         id="g62"><line
           style="fill:none;stroke:#000000;stroke-width:0.75;stroke-miterlimit:10"
           x1="340.625"
           y1="119.899"
           x2="340.625"
           y2="125.899"
           id="line64" /><polyline
           style="fill:none;stroke:#000000;stroke-width:0.75;stroke-miterlimit:10"
           points="340.625,132.566 340.625,138.566      334.927,136.687    "
           id="polyline66" /><polyline
           style="fill:none;stroke:#000000;stroke-width:0.75;stroke-miterlimit:10"
           points="328.403,134.536 322.705,132.656      323.75,129.233    "
           id="polyline68" /></g></g><g
       id="g70"
       clip-path="url(#SVGID_2_)"><polyline
         style="fill:#cccccc"
         points="284.137,91.899 266.804,104.566 266.804,131.899 245.47,144.899 245.47,127.566     230.47,138.233 230.47,156.233 212.47,167.899 212.47,144.233 200.102,152.981 198.804,222.899 284.137,172.899 284.137,91.899       "
         id="polyline72" /><g
         id="g74"><line
           style="fill:none;stroke:#000000;stroke-width:0.75;stroke-miterlimit:10"
           x1="284.13699"
           y1="91.899002"
           x2="279.29199"
           y2="95.439003"
           id="line76" /><polyline
           style="fill:none;stroke:#000000;stroke-width:0.75;stroke-miterlimit:10"
           points="271.648,101.026 266.804,104.566      266.804,110.566    "
           id="polyline78" /><polyline
           style="fill:none;stroke:#000000;stroke-width:0.75;stroke-miterlimit:10"
           points="266.804,125.899 266.804,131.899      261.68,135.021    "
           id="polyline80" /><polyline
           style="fill:none;stroke:#000000;stroke-width:0.75;stroke-miterlimit:10"
           points="250.594,141.777 245.47,144.899      245.47,138.899    "
           id="polyline82" /><polyline
           style="fill:none;stroke:#000000;stroke-width:0.75;stroke-miterlimit:10"
           points="245.47,133.566 245.47,127.566      240.581,131.043    "
           id="polyline84" /><polyline
           style="fill:none;stroke:#000000;stroke-width:0.75;stroke-miterlimit:10"
           points="235.36,134.756 230.47,138.233      230.47,144.233    "
           id="polyline86" /><polyline
           style="fill:none;stroke:#000000;stroke-width:0.75;stroke-miterlimit:10"
           points="230.47,150.233 230.47,156.233      225.435,159.496    "
           id="polyline88" /><polyline
           style="fill:none;stroke:#000000;stroke-width:0.75;stroke-miterlimit:10"
           points="217.505,164.636 212.47,167.899      212.47,161.899    "
           id="polyline90" /><polyline
           style="fill:none;stroke:#000000;stroke-width:0.75;stroke-miterlimit:10"
           points="212.47,150.233 212.47,144.233      207.572,147.698    "
           id="polyline92" /><polyline
           style="fill:none;stroke:#000000;stroke-width:0.75;stroke-miterlimit:10"
           points="205,149.517 200.102,152.981      199.99,158.98    "
           id="polyline94" /><line
           style="fill:none;stroke:#000000;stroke-width:0.75;stroke-miterlimit:10;stroke-dasharray:11.586, 11.586"
           x1="199.77499"
           y1="170.564"
           x2="199.022"
           y2="211.108"
           id="line96" /><polyline
           style="fill:none;stroke:#000000;stroke-width:0.75;stroke-miterlimit:10"
           points="198.915,216.9 198.804,222.899      203.98,219.866    "
           id="polyline98" /><line
           style="fill:none;stroke:#000000;stroke-width:0.75;stroke-miterlimit:10;stroke-dasharray:12.4147, 12.4147"
           x1="214.692"
           y1="213.59"
           x2="273.604"
           y2="179.071"
           id="line100" /><polyline
           style="fill:none;stroke:#000000;stroke-width:0.75;stroke-miterlimit:10"
           points="278.96,175.933 284.137,172.899      284.137,166.899    "
           id="polyline102" /><line
           style="fill:none;stroke:#000000;stroke-width:0.75;stroke-miterlimit:10;stroke-dasharray:13.8, 13.8"
           x1="284.13699"
           y1="153.099"
           x2="284.13699"
           y2="104.799"
           id="line104" /><line
           style="fill:none;stroke:#000000;stroke-width:0.75;stroke-miterlimit:10"
           x1="284.13699"
           y1="97.899002"
           x2="284.13699"
           y2="91.899002"
           id="line106" /></g></g><g
       id="g108"
       clip-path="url(#SVGID_2_)"><polygon
         style="fill:#ffffff"
         points="340.637,138.566 309.303,128.233 308.08,100.459 284.303,91.899 284.303,172.899 414.637,209.566 411.97,138.233 391.97,129.899 391.97,155.566 362.97,145.899 362.97,127.566 340.637,119.899 "
         id="polygon110" /><g
         id="g112"><polygon
           points="290.074,174.541 284.303,172.899 284.303,172.899 284.286,166.899 284.32,166.899 284.303,172.899 284.303,172.899 290.083,174.508 "
           id="polygon114" /><polygon
           points="300.891,177.515 311.698,180.522 311.654,180.678 300.864,177.609 "
           id="polygon116" /><polygon
           points="322.505,183.529 333.312,186.537 333.233,186.815 322.443,183.747 "
           id="polygon118" /><polygon
           points="344.119,189.544 354.922,192.564 354.816,192.939 344.023,189.884 "
           id="polygon120" /><polygon
           points="365.723,195.592 376.524,198.619 376.407,199.037 365.612,195.988 "
           id="polygon122" /><polygon
           points="387.326,201.646 398.127,204.674 397.998,205.133 387.203,202.085 "
           id="polygon124" /><polygon
           points="414.381,209.576 414.151,203.581 414.674,203.561 414.892,209.557 414.905,209.908 414.567,209.813 408.793,208.182 408.929,207.701 414.706,209.32 "
           id="polygon126" /><polygon
           points="413.696,191.712 413.241,179.844 413.81,179.823 414.242,191.692 "
           id="polygon128" /><polygon
           points="412.785,167.977 412.33,156.109 412.946,156.085 413.378,167.955 "
           id="polygon130" /><polygon
           points="411.845,138.534 406.304,136.231 406.559,135.619 412.095,137.932 412.288,138.013 412.296,138.221 412.514,144.217 411.875,144.241 411.645,138.245 "
           id="polygon132" /><polygon
           points="392.317,129.899 392.323,135.899 391.617,135.899 391.623,129.899 391.624,129.378 392.104,129.579 397.64,131.892 397.377,132.522 391.837,130.22 "
           id="polygon134" /><polygon
           points="392.343,156.083 391.853,155.919 386.161,154.022 386.396,153.316 392.088,155.213 391.598,155.566 391.604,149.566 392.336,149.566 392.342,155.566 "
           id="polygon136" /><polygon
           points="380.291,152.059 374.42,150.095 374.648,149.413 380.522,151.365 "
           id="polygon138" /><polygon
           points="362.622,146.15 362.623,145.899 362.628,139.899 363.312,139.899 363.318,145.899 363.08,145.57 368.774,147.461 368.55,148.132 362.86,146.229 "
           id="polygon140" /><polygon
           points="362.863,127.878 357.19,125.924 357.4,125.312 363.077,127.254 363.3,127.331 363.3,127.566 363.306,133.566 362.635,133.566 362.641,127.566 "
           id="polygon142" /><polygon
           points="340.943,119.899 340.937,125.899 340.336,125.899 340.331,119.899 340.33,119.471 340.736,119.61 346.413,121.552 346.21,122.143 340.538,120.189 "
           id="polygon144" /><polygon
           points="340.924,138.965 340.546,138.84 334.85,136.955 335.027,136.419 340.727,138.293 340.349,138.566 340.343,132.566 340.931,132.566 340.924,138.566 "
           id="polygon146" /><polygon
           points="328.207,134.757 321.563,132.558 321.731,132.049 328.379,134.234 "
           id="polygon148" /><polygon
           points="309.056,128.42 309.048,128.244 308.79,122.25 309.289,122.228 309.558,128.222 309.383,127.991 315.083,129.864 314.919,130.36 309.223,128.475 "
           id="polygon150" /><polygon
           points="308.003,100.673 302.359,98.635 302.51,98.218 308.157,100.245 308.301,100.296 308.308,100.449 308.578,106.443 308.11,106.463 307.853,100.469 "
           id="polygon152" /><polygon
           points="284.506,91.899 284.5,97.899 284.106,97.899 284.101,91.899 284.1,91.611 284.372,91.708 290.02,93.735 289.878,94.128 284.234,92.09 "
           id="polygon154" /><polygon
           points="284.479,111.7 284.439,125.5 284.167,125.5 284.128,111.7 "
           id="polygon156" /><polygon
           points="284.399,139.299 284.36,153.099 284.247,153.099 284.207,139.299 "
           id="polygon158" /></g></g><polyline
       style="fill:#cccccc;stroke:#000000;stroke-miterlimit:10;stroke-dasharray:12"
       points="   288.97,190.562 230.849,222.847 224.137,469.563 288.97,486.561  "
       id="polyline160"
       clip-path="url(#SVGID_2_)" /><polyline
       style="fill:#ffffff;stroke:#000000;stroke-miterlimit:10;stroke-dasharray:12"
       points="   288.97,491.891 380.637,489.063 372.637,213.733 288.97,190.562  "
       id="polyline162"
       clip-path="url(#SVGID_2_)" /><line
       style="fill:none;stroke:#000000;stroke-miterlimit:10;stroke-dasharray:12"
       x1="288.97"
       y1="188.935"
       x2="288.97"
       y2="469.60101"
       id="line164"
       clip-path="url(#SVGID_2_)" /><line
       style="fill:none;stroke:#000000;stroke-miterlimit:10;stroke-dasharray:12"
       x1="198.97"
       y1="222.899"
       x2="230.75"
       y2="231.64799"
       id="line166"
       clip-path="url(#SVGID_2_)" /><path
       style="fill:none;stroke:#000000;stroke-miterlimit:10;stroke-dasharray:12"
       d="M 578.333,241.601"
       id="path168"
       clip-path="url(#SVGID_2_)"
       inkscape:connector-curvature="0" /><path
       style="fill:none;stroke:#000000;stroke-miterlimit:10;stroke-dasharray:12"
       d="M 212.637,144.233"
       id="path170"
       clip-path="url(#SVGID_2_)"
       inkscape:connector-curvature="0" /><line
       style="fill:none"
       x1="342.25"
       y1="119.899"
       x2="322.71701"
       y2="129.899"
       id="line172"
       clip-path="url(#SVGID_2_)" /><line
       style="fill:none;stroke:#000000;stroke-miterlimit:10;stroke-dasharray:12"
       x1="212.63699"
       y1="143.899"
       x2="228.67"
       y2="148.649"
       id="line174"
       clip-path="url(#SVGID_2_)" /><line
       style="fill:none;stroke:#000000;stroke-miterlimit:10;stroke-dasharray:12"
       x1="245.63699"
       y1="127.566"
       x2="262.13699"
       y2="132.274"
       id="line176"
       clip-path="url(#SVGID_2_)" /><line
       style="fill:none;stroke:#000000;stroke-miterlimit:10;stroke-dasharray:12"
       x1="327"
       y1="127.566"
       x2="339.625"
       y2="120.899"
       id="line178"
       clip-path="url(#SVGID_2_)" /><line
       style="fill:none;stroke:#000000;stroke-miterlimit:10;stroke-dasharray:12"
       x1="377.20599"
       y1="137.257"
       x2="392.63699"
       y2="129.899"
       id="line180"
       clip-path="url(#SVGID_2_)" /></g></svg>