<?xml version="1.0" encoding="UTF-8" standalone="no"?>
<!-- Generator: Adobe Illustrator 16.0.0, SVG Export Plug-In . SVG Version: 6.00 Build 0)  -->

<svg
   version="1.1"
   x="0px"
   y="0px"
   width="256"
   height="256"
   viewBox="0 0 256 256.00001"
   xml:space="preserve"
   id="svg2"
   inkscape:version="1.1.1 (3bf5ae0d25, 2021-09-20)"
   sodipodi:docname="castle_game_engine_icon_fit_in_square.svg"
   inkscape:export-filename="/home/michalis/sources/castle-engine/castle-engine/doc/pasdoc/logo/castle_game_engine_icon_fit_in_square.png"
   inkscape:export-xdpi="96"
   inkscape:export-ydpi="96"
   xmlns:inkscape="http://www.inkscape.org/namespaces/inkscape"
   xmlns:sodipodi="http://sodipodi.sourceforge.net/DTD/sodipodi-0.dtd"
   xmlns:xlink="http://www.w3.org/1999/xlink"
   xmlns="http://www.w3.org/2000/svg"
   xmlns:svg="http://www.w3.org/2000/svg"
   xmlns:rdf="http://www.w3.org/1999/02/22-rdf-syntax-ns#"
   xmlns:cc="http://creativecommons.org/ns#"
   xmlns:dc="http://purl.org/dc/elements/1.1/"><metadata
     id="metadata50"><rdf:RDF><cc:Work
         rdf:about=""><dc:format>image/svg+xml</dc:format><dc:type
           rdf:resource="http://purl.org/dc/dcmitype/StillImage" /></cc:Work></rdf:RDF></metadata><defs
     id="defs48"><defs
       id="defs7"><circle
         r="220.97"
         cy="240.07001"
         cx="310.47"
         id="SVGID_1_" /></defs><clipPath
       id="SVGID_2_"><use
         height="100%"
         width="100%"
         y="0"
         x="0"
         id="use13"
         style="overflow:visible"
         xlink:href="#SVGID_1_" /></clipPath></defs><sodipodi:namedview
     pagecolor="#ffffff"
     bordercolor="#666666"
     borderopacity="0.28235294"
     objecttolerance="10"
     gridtolerance="10"
     guidetolerance="10"
     inkscape:pageopacity="0"
     inkscape:pageshadow="2"
     inkscape:window-width="1852"
     inkscape:window-height="1009"
     id="namedview46"
     showgrid="false"
     inkscape:showpageshadow="true"
     fit-margin-top="0"
     fit-margin-left="0"
     fit-margin-right="0"
     fit-margin-bottom="0"
     inkscape:snap-bbox="true"
     inkscape:bbox-paths="true"
     inkscape:bbox-nodes="true"
     inkscape:snap-page="true"
     inkscape:zoom="1"
     inkscape:cx="237.49999"
     inkscape:cy="80.499998"
     inkscape:window-x="1988"
     inkscape:window-y="34"
     inkscape:window-maximized="1"
     inkscape:current-layer="svg2"
     borderlayer="true"
     inkscape:pagecheckerboard="0" /><use
     xlink:href="#SVGID_1_"
     style="overflow:visible"
     id="use4615"
     x="0"
     y="0"
     width="100%"
     height="100%"
     transform="matrix(0.57926415,0,0,0.57926412,-51.844141,-11.063948)" /><rect
     style="fill:#d9fef6;fill-opacity:1;stroke:none;stroke-width:47.05191422;stroke-linecap:butt;stroke-linejoin:miter;stroke-miterlimit:4;stroke-dasharray:none;stroke-opacity:1;paint-order:stroke fill markers"
     id="rect4597"
     width="394.59293"
     height="353.58072"
     x="-60.811184"
     y="-49.497475"
     ry="104.10205"
     rx="0" /><g
     id="Background_xA0_Obraz_1_"
     style="display:none"
     transform="translate(-89.5,-205.04002)"><image
       transform="scale(0.24,0.24)"
       id="Background_xA0_Obraz"
       height="9130"
       width="7200"
       style="display:inline;overflow:visible" /></g><g
     clip-path="url(#SVGID_2_)"
     id="Warstwa_7"
     transform="matrix(0.57926415,0,0,0.57926412,-51.844141,-11.063948)" /><path
     transform="matrix(0.57926415,0,0,0.57926412,-51.844141,-11.063948)"
     style="fill:#ab3a58"
     clip-path="url(#SVGID_2_)"
     d="m 164,122.934 -6.10349,24.73411 22.30349,5.36908 V 127.267"
     id="polyline32"
     inkscape:connector-curvature="0"
     sodipodi:nodetypes="cccc" /><circle
     clip-path="url(#SVGID_2_)"
     id="circle18"
     r="106.587"
     cy="196.60001"
     cx="371.5"
     style="fill:#ffffff"
     transform="matrix(0.57926415,0,0,0.57926412,-51.844141,-11.063948)" /><path
     inkscape:connector-curvature="0"
     clip-path="url(#SVGID_2_)"
     id="path20"
     d="m 391.75,298.51 -141.5,-46.5 -248,146 101,65 c 0,0 165,8.5 166.5,7.5 1.5,-1 122,-172 122,-172 z"
     style="fill:#c6f4e7"
     transform="matrix(0.57926415,0,0,0.57926412,-51.844141,-11.063948)" /><path
     inkscape:connector-curvature="0"
     clip-path="none"
     id="path22"
     d="M 544.5,301.1 403,254.6 l -248,146 -9.485,136.64262 c 0,0 415.31758,5.04735 416.81758,4.04735 C 563.83258,540.28997 544.5,301.1 544.5,301.1 Z"
     style="fill:#ade7db;stroke:none"
     transform="matrix(0.57926415,0,0,0.57926412,-51.844141,-11.063948)"
     sodipodi:nodetypes="ccccsc" /><path
     transform="matrix(0.57926415,0,0,0.57926412,-51.844141,-11.063948)"
     style="fill:#ab3a58"
     clip-path="url(#SVGID_2_)"
     d="m 292,98.6 8.62118,24.84679 -26.54118,4.09454 V 108.6"
     id="polyline36"
     inkscape:connector-curvature="0"
     sodipodi:nodetypes="cccc"
     inkscape:export-filename="/home/michalis/ownCloud/dev/castle-engine/polyline36.png"
     inkscape:export-xdpi="384"
     inkscape:export-ydpi="384" /><path
     transform="matrix(0.57926415,0,0,0.57926412,-51.844141,-11.063948)"
     style="fill:#ab3a58"
     clip-path="url(#SVGID_2_)"
     d="M 324,118.266 V 136.1 L 352.20006,148.17131 343.333,108.6"
     id="polyline30"
     inkscape:connector-curvature="0"
     sodipodi:nodetypes="cccc" /><path
     transform="matrix(0.57926415,0,0,0.57926412,-51.844141,-11.063948)"
     style="fill:#f9a65a;fill-opacity:1"
     clip-path="url(#SVGID_2_)"
     d="M 260.667,106.934 V 79.6 l -25,-9 -15.25873,95.95356 L 366,188.267 l -2.667,-71.333 -20,-8.334 v 25.667 l -29,-9.667 V 106.267 L 292,98.6 v 18.667 z"
     id="polygon40"
     inkscape:connector-curvature="0"
     sodipodi:nodetypes="ccccccccccccc" /><path
     transform="matrix(0.57926415,0,0,0.57926412,-51.844141,-11.063948)"
     style="fill:#ab3a58"
     clip-path="url(#SVGID_2_)"
     d="m 197,106.267 -6.90531,37.18577 25.06731,-13.65649 V 110.933"
     id="polyline34"
     inkscape:connector-curvature="0"
     sodipodi:nodetypes="cccc" /><path
     transform="matrix(0.57926415,0,0,0.57926412,-51.844141,-11.063948)"
     style="fill:#f37e58"
     clip-path="url(#SVGID_2_)"
     d="M 235.667,70.6 218.333,83.267 V 110.6 L 197,123.6 v -17.333 l -15,10.667 v 18 L 164,146.6 v -23.666 l -13.667,9.666 v 69 l 85.334,-36.87749 V 70.6"
     id="polyline38"
     inkscape:connector-curvature="0"
     sodipodi:nodetypes="ccccccccccccc" /><polyline
     clip-path="url(#SVGID_2_)"
     id="polyline28"
     points="150.333,201.6 235.667,151.6 366,188.267 262.667,229.599  "
     style="fill:#f15e56"
     transform="matrix(0.57926415,0,0,0.57926412,-51.844141,-11.063948)" /><path
     transform="matrix(0.57926415,0,0,0.57926412,-51.844141,-11.063948)"
     style="fill:#9acbc1;stroke:none;paint-order:stroke fill markers"
     clip-path="none"
     d="M 402,492.1 75.015586,497.82692 34,324.1 l 128,-69 555.61262,251.74309"
     id="polyline24"
     inkscape:connector-curvature="0"
     sodipodi:nodetypes="ccccc" /><path
     style="fill:#7ba99f;stroke-width:0.579264"
     clip-path="none"
     d="M 650.02882,366.02515 194.90742,177.69305 -17.335576,300.66906 59.019783,367.66193"
     id="polyline26"
     inkscape:connector-curvature="0"
     sodipodi:nodetypes="cccc"
     inkscape:export-xdpi="96"
     inkscape:export-ydpi="96" /><path
     transform="matrix(0.57926415,0,0,0.57926412,-51.844141,-11.063948)"
     style="fill:#c34056;stroke:none"
     clip-path="none"
     d="m 240.333,169.263 -58.121,32.285 -3.879,340.66105 81.53117,-20.26915"
     id="polyline42"
     inkscape:connector-curvature="0"
     sodipodi:nodetypes="cccc" /><path
     transform="matrix(0.57926415,0,0,0.57926412,-51.844141,-11.063948)"
     style="fill:#e54858;stroke:none"
     clip-path="none"
     d="M 240.333,530.58191 330.667,508.45546 323.388,193.961 240.333,169.263"
     id="polyline44"
     inkscape:connector-curvature="0"
     sodipodi:nodetypes="cccc" /></svg>
