<?xml version="1.0" encoding="UTF-8" standalone="no"?>
<svg
   width="700pt"
   height="700pt"
   version="1.1"
   viewBox="0 0 700 700"
   id="svg232"
   sodipodi:docname="light_environment.svg"
   inkscape:version="1.1.1 (3bf5ae0d25, 2021-09-20)"
   inkscape:export-filename="/home/michalis/sources/castle-engine/castle-engine/tools/castle-editor/gfx/gizmos/light/light_environment.png"
   inkscape:export-xdpi="26.33"
   inkscape:export-ydpi="26.33"
   xmlns:inkscape="http://www.inkscape.org/namespaces/inkscape"
   xmlns:sodipodi="http://sodipodi.sourceforge.net/DTD/sodipodi-0.dtd"
   xmlns="http://www.w3.org/2000/svg"
   xmlns:svg="http://www.w3.org/2000/svg">
  <sodipodi:namedview
     id="namedview234"
     pagecolor="#ffffff"
     bordercolor="#666666"
     borderopacity="1.0"
     inkscape:pageshadow="2"
     inkscape:pageopacity="0.0"
     inkscape:pagecheckerboard="0"
     inkscape:document-units="pt"
     showgrid="false"
     inkscape:zoom="0.43928571"
     inkscape:cx="547.47967"
     inkscape:cy="636.26016"
     inkscape:window-width="1852"
     inkscape:window-height="1043"
     inkscape:window-x="68"
     inkscape:window-y="0"
     inkscape:window-maximized="1"
     inkscape:current-layer="svg232" />
  <defs
     id="defs74">
    <symbol
       id="x"
       overflow="visible">
      <path
         d="m18.766-1.125c-0.96875 0.5-1.9805 0.875-3.0312 1.125-1.043 0.25781-2.1367 0.39062-3.2812 0.39062-3.3984 0-6.0898-0.94531-8.0781-2.8438-1.9922-1.9062-2.9844-4.4844-2.9844-7.7344 0-3.2578 0.99219-5.8359 2.9844-7.7344 1.9883-1.9062 4.6797-2.8594 8.0781-2.8594 1.1445 0 2.2383 0.13281 3.2812 0.39062 1.0508 0.25 2.0625 0.625 3.0312 1.125v4.2188c-0.98047-0.65625-1.9453-1.1406-2.8906-1.4531-0.94922-0.3125-1.9492-0.46875-3-0.46875-1.875 0-3.3516 0.60547-4.4219 1.8125-1.0742 1.1992-1.6094 2.8555-1.6094 4.9688 0 2.1055 0.53516 3.7617 1.6094 4.9688 1.0703 1.1992 2.5469 1.7969 4.4219 1.7969 1.0508 0 2.0508-0.14844 3-0.45312 0.94531-0.3125 1.9102-0.80078 2.8906-1.4688z"
         id="path2" />
    </symbol>
    <symbol
       id="c"
       overflow="visible">
      <path
         d="m13.734-11.141c-0.4375-0.19531-0.87109-0.34375-1.2969-0.4375-0.41797-0.10156-0.83984-0.15625-1.2656-0.15625-1.2617 0-2.2305 0.40625-2.9062 1.2188-0.67969 0.80469-1.0156 1.9531-1.0156 3.4531v7.0625h-4.8906v-15.312h4.8906v2.5156c0.625-1 1.3438-1.7266 2.1562-2.1875 0.82031-0.46875 1.8008-0.70312 2.9375-0.70312 0.16406 0 0.34375 0.011719 0.53125 0.03125 0.19531 0.011719 0.47656 0.039062 0.84375 0.078125z"
         id="path5" />
    </symbol>
    <symbol
       id="a"
       overflow="visible">
      <path
         d="m17.641-7.7031v1.4062h-11.453c0.125 1.1484 0.53906 2.0078 1.25 2.5781 0.70703 0.57422 1.7031 0.85938 2.9844 0.85938 1.0312 0 2.082-0.14844 3.1562-0.45312 1.082-0.3125 2.1914-0.77344 3.3281-1.3906v3.7656c-1.1562 0.4375-2.3125 0.76562-3.4688 0.98438-1.1562 0.22656-2.3125 0.34375-3.4688 0.34375-2.7734 0-4.9297-0.70312-6.4688-2.1094-1.5312-1.4062-2.2969-3.3789-2.2969-5.9219 0-2.5 0.75391-4.4609 2.2656-5.8906 1.5078-1.4375 3.582-2.1562 6.2188-2.1562 2.4062 0 4.332 0.73047 5.7812 2.1875 1.4453 1.4492 2.1719 3.3828 2.1719 5.7969zm-5.0312-1.625c0-0.92578-0.27344-1.6719-0.8125-2.2344-0.54297-0.57031-1.25-0.85938-2.125-0.85938-0.94922 0-1.7188 0.26562-2.3125 0.79688s-0.96484 1.2969-1.1094 2.2969z"
         id="path8" />
    </symbol>
    <symbol
       id="g"
       overflow="visible">
      <path
         d="m9.2188-6.8906c-1.0234 0-1.793 0.17188-2.3125 0.51562-0.51172 0.34375-0.76562 0.85547-0.76562 1.5312 0 0.625 0.20703 1.1172 0.625 1.4688 0.41406 0.34375 0.98828 0.51562 1.7188 0.51562 0.92578 0 1.7031-0.32812 2.3281-0.98438 0.63281-0.66406 0.95312-1.4922 0.95312-2.4844v-0.5625zm7.4688-1.8438v8.7344h-4.9219v-2.2656c-0.65625 0.92969-1.3984 1.6055-2.2188 2.0312-0.82422 0.41406-1.8242 0.625-3 0.625-1.5859 0-2.8711-0.45703-3.8594-1.375-0.99219-0.92578-1.4844-2.1289-1.4844-3.6094 0-1.7891 0.61328-3.1016 1.8438-3.9375 1.2383-0.84375 3.1797-1.2656 5.8281-1.2656h2.8906v-0.39062c0-0.76953-0.30859-1.332-0.92188-1.6875-0.61719-0.36328-1.5703-0.54688-2.8594-0.54688-1.0547 0-2.0312 0.10547-2.9375 0.3125-0.89844 0.21094-1.7305 0.52344-2.5 0.9375v-3.7344c1.0391-0.25 2.0859-0.44141 3.1406-0.57812 1.0625-0.13281 2.125-0.20312 3.1875-0.20312 2.7578 0 4.75 0.54688 5.9688 1.6406 1.2266 1.0859 1.8438 2.8555 1.8438 5.3125z"
         id="path11" />
    </symbol>
    <symbol
       id="b"
       overflow="visible">
      <path
         d="m7.7031-19.656v4.3438h5.0469v3.5h-5.0469v6.5c0 0.71094 0.14062 1.1875 0.42188 1.4375s0.83594 0.375 1.6719 0.375h2.5156v3.5h-4.1875c-1.9375 0-3.3125-0.39844-4.125-1.2031-0.80469-0.8125-1.2031-2.1797-1.2031-4.1094v-6.5h-2.4219v-3.5h2.4219v-4.3438z"
         id="path14" />
    </symbol>
    <symbol
       id="k"
       overflow="visible">
      <path
         d="m12.766-13.078v-8.2031h4.9219v21.281h-4.9219v-2.2188c-0.66797 0.90625-1.4062 1.5703-2.2188 1.9844s-1.7578 0.625-2.8281 0.625c-1.8867 0-3.4336-0.75-4.6406-2.25-1.2109-1.5-1.8125-3.4258-1.8125-5.7812 0-2.3633 0.60156-4.2969 1.8125-5.7969 1.207-1.5 2.7539-2.25 4.6406-2.25 1.0625 0 2 0.21484 2.8125 0.64062 0.82031 0.42969 1.5664 1.0859 2.2344 1.9688zm-3.2188 9.9219c1.0391 0 1.8359-0.37891 2.3906-1.1406 0.55078-0.76953 0.82812-1.8828 0.82812-3.3438 0-1.457-0.27734-2.5664-0.82812-3.3281-0.55469-0.76953-1.3516-1.1562-2.3906-1.1562-1.043 0-1.8398 0.38672-2.3906 1.1562-0.55469 0.76172-0.82812 1.8711-0.82812 3.3281 0 1.4609 0.27344 2.5742 0.82812 3.3438 0.55078 0.76172 1.3477 1.1406 2.3906 1.1406z"
         id="path17" />
    </symbol>
    <symbol
       id="j"
       overflow="visible">
      <path
         d="m10.5-3.1562c1.0508 0 1.8516-0.37891 2.4062-1.1406 0.55078-0.76953 0.82812-1.8828 0.82812-3.3438 0-1.457-0.27734-2.5664-0.82812-3.3281-0.55469-0.76953-1.3555-1.1562-2.4062-1.1562-1.0547 0-1.8594 0.38672-2.4219 1.1562-0.55469 0.77344-0.82812 1.8828-0.82812 3.3281 0 1.4492 0.27344 2.5586 0.82812 3.3281 0.5625 0.77344 1.3672 1.1562 2.4219 1.1562zm-3.25-9.9219c0.67578-0.88281 1.4219-1.5391 2.2344-1.9688 0.82031-0.42578 1.7656-0.64062 2.8281-0.64062 1.8945 0 3.4453 0.75 4.6562 2.25 1.207 1.5 1.8125 3.4336 1.8125 5.7969 0 2.3555-0.60547 4.2812-1.8125 5.7812-1.2109 1.5-2.7617 2.25-4.6562 2.25-1.0625 0-2.0078-0.21094-2.8281-0.625-0.8125-0.42578-1.5586-1.0859-2.2344-1.9844v2.2188h-4.8906v-21.281h4.8906z"
         id="path20" />
    </symbol>
    <symbol
       id="f"
       overflow="visible">
      <path
         d="m0.34375-15.312h4.8906l4.125 10.391 3.5-10.391h4.8906l-6.4375 16.766c-0.64844 1.6953-1.4023 2.8828-2.2656 3.5625-0.86719 0.6875-2 1.0312-3.4062 1.0312h-2.8438v-3.2188h1.5312c0.83203 0 1.4375-0.13672 1.8125-0.40625 0.38281-0.26172 0.67969-0.73047 0.89062-1.4062l0.14062-0.42188z"
         id="path23" />
    </symbol>
    <symbol
       id="i"
       overflow="visible">
      <path
         d="m7.8281-16.438v12.453h1.8906c2.1562 0 3.8008-0.53125 4.9375-1.5938 1.1328-1.0625 1.7031-2.6133 1.7031-4.6562 0-2.0195-0.57031-3.5547-1.7031-4.6094-1.125-1.0625-2.7734-1.5938-4.9375-1.5938zm-5.25-3.9688h5.5469c3.0938 0 5.3984 0.21875 6.9219 0.65625 1.5195 0.4375 2.8203 1.1875 3.9062 2.25 0.95703 0.91797 1.6641 1.9805 2.125 3.1875 0.46875 1.1992 0.70312 2.5586 0.70312 4.0781 0 1.543-0.23438 2.918-0.70312 4.125-0.46094 1.2109-1.168 2.2773-2.125 3.2031-1.0938 1.0547-2.4062 1.8047-3.9375 2.25-1.5312 0.4375-3.8281 0.65625-6.8906 0.65625h-5.5469z"
         id="path26" />
    </symbol>
    <symbol
       id="h"
       overflow="visible">
      <path
         d="m16.547-12.766c0.61328-0.94531 1.3477-1.6719 2.2031-2.1719 0.85156-0.5 1.7891-0.75 2.8125-0.75 1.7578 0 3.0977 0.54688 4.0156 1.6406 0.92578 1.0859 1.3906 2.6562 1.3906 4.7188v9.3281h-4.9219v-7.9844-0.35938c0.007813-0.13281 0.015625-0.32031 0.015625-0.5625 0-1.082-0.16406-1.8633-0.48438-2.3438-0.3125-0.48828-0.82422-0.73438-1.5312-0.73438-0.92969 0-1.6484 0.38672-2.1562 1.1562-0.51172 0.76172-0.77344 1.8672-0.78125 3.3125v7.5156h-4.9219v-7.9844c0-1.6953-0.14844-2.7852-0.4375-3.2656-0.29297-0.48828-0.8125-0.73438-1.5625-0.73438-0.9375 0-1.6641 0.38672-2.1719 1.1562-0.51172 0.76172-0.76562 1.8594-0.76562 3.2969v7.5312h-4.9219v-15.312h4.9219v2.2344c0.60156-0.86328 1.2891-1.5156 2.0625-1.9531 0.78125-0.4375 1.6406-0.65625 2.5781-0.65625 1.0625 0 2 0.25781 2.8125 0.76562 0.8125 0.51172 1.4258 1.2305 1.8438 2.1562z"
         id="path29" />
    </symbol>
    <symbol
       id="e"
       overflow="visible">
      <path
         d="m2.3594-15.312h4.8906v15.312h-4.8906zm0-5.9688h4.8906v4h-4.8906z"
         id="path32" />
    </symbol>
    <symbol
       id="w"
       overflow="visible">
      <path
         d="m0.14062-20.406h5.2812l5.4219 15.062 5.4062-15.062h5.2812l-7.5625 20.406h-6.2656z"
         id="path35" />
    </symbol>
    <symbol
       id="v"
       overflow="visible">
      <path
         d="m14.312-14.828v3.7188c-1.043-0.4375-2.0547-0.76562-3.0312-0.98438-0.98047-0.21875-1.9023-0.32812-2.7656-0.32812-0.92969 0-1.6211 0.11719-2.0781 0.34375-0.44922 0.23047-0.67188 0.58984-0.67188 1.0781 0 0.38672 0.17188 0.68359 0.51562 0.89062 0.34375 0.21094 0.95703 0.36719 1.8438 0.46875l0.85938 0.125c2.5078 0.32422 4.1953 0.85156 5.0625 1.5781 0.86328 0.73047 1.2969 1.8711 1.2969 3.4219 0 1.6367-0.60547 2.8672-1.8125 3.6875-1.1992 0.8125-2.9922 1.2188-5.375 1.2188-1.0234 0-2.0742-0.078125-3.1562-0.23438-1.0742-0.15625-2.1797-0.39453-3.3125-0.71875v-3.7188c0.96875 0.48047 1.9609 0.83984 2.9844 1.0781 1.0312 0.23047 2.0781 0.34375 3.1406 0.34375 0.95703 0 1.6758-0.12891 2.1562-0.39062 0.47656-0.26953 0.71875-0.66406 0.71875-1.1875 0-0.4375-0.16797-0.75781-0.5-0.96875-0.33594-0.21875-0.99609-0.38281-1.9844-0.5l-0.85938-0.10938c-2.1797-0.26953-3.7031-0.77344-4.5781-1.5156-0.875-0.73828-1.3125-1.8594-1.3125-3.3594 0-1.625 0.55078-2.8281 1.6562-3.6094 1.1133-0.78906 2.8203-1.1875 5.125-1.1875 0.89453 0 1.8359 0.074219 2.8281 0.21875 1 0.13672 2.082 0.35156 3.25 0.64062z"
         id="path38" />
    </symbol>
    <symbol
       id="u"
       overflow="visible">
      <path
         d="m2.3594-21.281h4.8906v21.281h-4.8906z"
         id="path41" />
    </symbol>
    <symbol
       id="t"
       overflow="visible">
      <path
         d="m0.42188-15.312h4.8906l3.8281 10.578 3.7969-10.578h4.9062l-6.0312 15.312h-5.375z"
         id="path44" />
    </symbol>
    <symbol
       id="s"
       overflow="visible">
      <path
         d="m12.422-21.281v3.2188h-2.7031c-0.6875 0-1.1719 0.125-1.4531 0.375-0.27344 0.25-0.40625 0.6875-0.40625 1.3125v1.0625h4.1875v3.5h-4.1875v11.812h-4.8906v-11.812h-2.4375v-3.5h2.4375v-1.0625c0-1.6641 0.46094-2.8984 1.3906-3.7031 0.92578-0.80078 2.3672-1.2031 4.3281-1.2031z"
         id="path47" />
    </symbol>
    <symbol
       id="d"
       overflow="visible">
      <path
         d="m9.6406-12.188c-1.0859 0-1.9141 0.39062-2.4844 1.1719-0.57422 0.78125-0.85938 1.9062-0.85938 3.375s0.28516 2.5938 0.85938 3.375c0.57031 0.77344 1.3984 1.1562 2.4844 1.1562 1.0625 0 1.875-0.38281 2.4375-1.1562 0.57031-0.78125 0.85938-1.9062 0.85938-3.375s-0.28906-2.5938-0.85938-3.375c-0.5625-0.78125-1.375-1.1719-2.4375-1.1719zm0-3.5c2.6328 0 4.6914 0.71484 6.1719 2.1406 1.4766 1.418 2.2188 3.3867 2.2188 5.9062 0 2.5117-0.74219 4.4805-2.2188 5.9062-1.4805 1.418-3.5391 2.125-6.1719 2.125-2.6484 0-4.7148-0.70703-6.2031-2.125-1.4922-1.4258-2.2344-3.3945-2.2344-5.9062 0-2.5195 0.74219-4.4883 2.2344-5.9062 1.4883-1.4258 3.5547-2.1406 6.2031-2.1406z"
         id="path50" />
    </symbol>
    <symbol
       id="r"
       overflow="visible">
      <path
         d="m17.75-9.3281v9.3281h-4.9219v-7.1094c0-1.3438-0.03125-2.2656-0.09375-2.7656s-0.16797-0.86719-0.3125-1.1094c-0.1875-0.3125-0.44922-0.55469-0.78125-0.73438-0.32422-0.17578-0.69531-0.26562-1.1094-0.26562-1.0234 0-1.8242 0.39844-2.4062 1.1875-0.58594 0.78125-0.875 1.8711-0.875 3.2656v7.5312h-4.8906v-21.281h4.8906v8.2031c0.73828-0.88281 1.5195-1.5391 2.3438-1.9688 0.83203-0.42578 1.75-0.64062 2.75-0.64062 1.7695 0 3.1133 0.54688 4.0312 1.6406 0.91406 1.0859 1.375 2.6562 1.375 4.7188z"
         id="path53" />
    </symbol>
    <symbol
       id="q"
       overflow="visible">
      <path
         d="m2.5781-20.406h5.875l7.4219 14v-14h4.9844v20.406h-5.875l-7.4219-14v14h-4.9844z"
         id="path56" />
    </symbol>
    <symbol
       id="p"
       overflow="visible">
      <path
         d="m2.1875-5.9688v-9.3438h4.9219v1.5312c0 0.83594-0.007813 1.875-0.015625 3.125-0.011719 1.25-0.015625 2.0859-0.015625 2.5 0 1.2422 0.03125 2.1328 0.09375 2.6719 0.070313 0.54297 0.17969 0.93359 0.32812 1.1719 0.20703 0.32422 0.47266 0.57422 0.79688 0.75 0.32031 0.16797 0.69141 0.25 1.1094 0.25 1.0195 0 1.8203-0.39062 2.4062-1.1719 0.58203-0.78125 0.875-1.8672 0.875-3.2656v-7.5625h4.8906v15.312h-4.8906v-2.2188c-0.74219 0.89844-1.5234 1.5586-2.3438 1.9844-0.82422 0.41406-1.7344 0.625-2.7344 0.625-1.7617 0-3.1055-0.53906-4.0312-1.625-0.92969-1.082-1.3906-2.6602-1.3906-4.7344z"
         id="path59" />
    </symbol>
    <symbol
       id="o"
       overflow="visible">
      <path
         d="m17.75-9.3281v9.3281h-4.9219v-7.1406c0-1.3203-0.03125-2.2344-0.09375-2.7344s-0.16797-0.86719-0.3125-1.1094c-0.1875-0.3125-0.44922-0.55469-0.78125-0.73438-0.32422-0.17578-0.69531-0.26562-1.1094-0.26562-1.0234 0-1.8242 0.39844-2.4062 1.1875-0.58594 0.78125-0.875 1.8711-0.875 3.2656v7.5312h-4.8906v-15.312h4.8906v2.2344c0.73828-0.88281 1.5195-1.5391 2.3438-1.9688 0.83203-0.42578 1.75-0.64062 2.75-0.64062 1.7695 0 3.1133 0.54688 4.0312 1.6406 0.91406 1.0859 1.375 2.6562 1.375 4.7188z"
         id="path62" />
    </symbol>
    <symbol
       id="n"
       overflow="visible">
      <path
         d="m2.5781-20.406h8.7344c2.5938 0 4.582 0.57812 5.9688 1.7344 1.3945 1.1484 2.0938 2.7891 2.0938 4.9219 0 2.1367-0.69922 3.7812-2.0938 4.9375-1.3867 1.1562-3.375 1.7344-5.9688 1.7344h-3.4844v7.0781h-5.25zm5.25 3.8125v5.7031h2.9219c1.0195 0 1.8047-0.25 2.3594-0.75 0.5625-0.5 0.84375-1.2031 0.84375-2.1094 0-0.91406-0.28125-1.6172-0.84375-2.1094-0.55469-0.48828-1.3398-0.73438-2.3594-0.73438z"
         id="path65" />
    </symbol>
    <symbol
       id="m"
       overflow="visible">
      <path
         d="m2.3594-15.312h4.8906v15.031c0 2.0508-0.49609 3.6172-1.4844 4.7031-0.98047 1.082-2.4062 1.625-4.2812 1.625h-2.4219v-3.2188h0.85938c0.92578 0 1.5625-0.21094 1.9062-0.625 0.35156-0.41797 0.53125-1.2461 0.53125-2.4844zm0-5.9688h4.8906v4h-4.8906z"
         id="path68" />
    </symbol>
    <symbol
       id="l"
       overflow="visible">
      <path
         d="m14.719-14.828v3.9844c-0.65625-0.45703-1.3242-0.79688-2-1.0156-0.66797-0.21875-1.3594-0.32812-2.0781-0.32812-1.3672 0-2.4336 0.40234-3.2031 1.2031-0.76172 0.79297-1.1406 1.9062-1.1406 3.3438 0 1.4297 0.37891 2.543 1.1406 3.3438 0.76953 0.79297 1.8359 1.1875 3.2031 1.1875 0.75781 0 1.4844-0.10938 2.1719-0.32812 0.6875-0.22656 1.3203-0.56641 1.9062-1.0156v4c-0.76172 0.28125-1.5391 0.48828-2.3281 0.625-0.78125 0.14453-1.5742 0.21875-2.375 0.21875-2.7617 0-4.9219-0.70703-6.4844-2.125-1.5547-1.4141-2.3281-3.3828-2.3281-5.9062 0-2.5312 0.77344-4.5039 2.3281-5.9219 1.5625-1.4141 3.7227-2.125 6.4844-2.125 0.80078 0 1.5938 0.074219 2.375 0.21875 0.78125 0.13672 1.5547 0.35156 2.3281 0.64062z"
         id="path71" />
    </symbol>
  </defs>
  <path
     d="m 350.33502,5.1731901 c -15.79657,0 -28.60721,12.8096129 -28.60721,28.6072089 V 57.72919 c 0,15.796574 12.80962,28.607216 28.60721,28.607216 15.79759,0 28.60721,-12.809616 28.60721,-28.607216 V 33.780399 c 0,-15.796574 -12.80962,-28.6072089 -28.60721,-28.6072089 z"
     id="path76"
     style="stroke-width:1.4594" />
  <path
     d="m 350.33502,612.30216 c -15.79657,0 -28.60721,12.80961 -28.60721,28.60721 v 23.94879 c 0,15.79658 12.80962,28.60721 28.60721,28.60721 15.79759,0 28.60721,-12.80961 28.60721,-28.60721 v -23.94879 c 0,-15.79657 -12.80962,-28.60721 -28.60721,-28.60721 z"
     id="path78"
     style="stroke-width:1.4594" />
  <path
     d="m 665.87244,320.71353 h -23.94879 c -15.79657,0 -28.60721,12.80962 -28.60721,28.60721 0,15.79759 12.80961,28.60721 28.60721,28.60721 h 23.94879 c 15.79658,0 28.60721,-12.80962 28.60721,-28.60721 0,-15.79759 -12.80961,-28.60721 -28.60721,-28.60721 z"
     id="path80"
     style="stroke-width:1.4594" />
  <path
     d="m 87.350675,349.31782 c 0,-15.79657 -12.809613,-28.60721 -28.607213,-28.60721 H 34.794669 c -15.796574,0 -28.6072067,12.80962 -28.6072067,28.60721 0,15.7976 12.8096157,28.60721 28.6072067,28.60721 h 23.948793 c 15.796574,-0.006 28.607213,-12.8153 28.607213,-28.60721 z"
     id="path82"
     style="stroke-width:1.4594" />
  <path
     d="M 83.512445,470.34608 62.767036,482.3177 c -13.681894,7.89566 -18.373871,25.38631 -10.472381,39.07258 5.301722,9.17834 14.907797,14.30901 24.798173,14.30901 4.851347,0 9.771137,-1.23708 14.280547,-3.83663 l 20.745415,-11.97162 c 13.68189,-7.89566 18.37387,-25.38631 10.47238,-39.07258 -7.90135,-13.6876 -25.380485,-18.37388 -39.078425,-10.47238 z"
     id="path84"
     style="stroke-width:1.4594" />
  <path
     d="m 602.88463,232.14239 c 4.85135,0 9.77683,-1.23708 14.28055,-3.83662 l 20.74541,-11.97732 c 13.68189,-7.90135 18.37387,-25.39652 10.47238,-39.07258 -7.90135,-13.68759 -25.40236,-18.37388 -39.07259,-10.47239 l -20.7454,11.97732 c -13.68191,7.90135 -18.37388,25.39652 -10.47238,39.07258 5.29602,9.17834 14.91363,14.30901 24.79232,14.30901 z"
     id="path86"
     style="stroke-width:1.4594" />
  <path
     d="m 179.77465,111.09954 c 5.30171,9.17833 14.91947,14.30901 24.79816,14.30901 4.85135,0 9.77683,-1.23708 14.28055,-3.83662 13.6819,-7.90135 18.37388,-25.396527 10.47238,-39.072593 L 217.34842,61.753938 c -7.90135,-13.687594 -25.41404,-18.362206 -39.07258,-10.472384 -13.6819,7.901354 -18.37388,25.396523 -10.47238,39.072584 z"
     id="path88"
     style="stroke-width:1.4594" />
  <path
     d="m 520.89539,587.5361 c -7.90135,-13.68759 -25.40235,-18.3622 -39.07258,-10.47238 -13.6819,7.90135 -18.37388,25.39652 -10.47238,39.07258 l 11.97732,20.74541 c 5.30172,9.17833 14.91947,14.30901 24.79816,14.30901 4.85136,0 9.77683,-1.23708 14.28055,-3.83663 13.6819,-7.90135 18.37388,-25.39652 10.47238,-39.07258 z"
     id="path90"
     style="stroke-width:1.4594" />
  <path
     d="m 637.8957,482.31317 -20.74541,-11.97162 c -13.68759,-7.90135 -31.17138,-3.21521 -39.07258,10.47238 -7.90136,13.6876 -3.20952,31.18305 10.47238,39.07258 l 20.74541,11.97163 c 4.50926,2.59949 9.42336,3.83662 14.28054,3.83662 9.87942,0 19.49616,-5.13067 24.79817,-14.309 7.89566,-13.6819 3.20382,-31.17722 -10.47807,-39.07259 z"
     id="path92"
     style="stroke-width:1.4594" />
  <path
     d="m 62.774338,216.32247 20.745407,11.97731 c 4.50357,2.5995 9.41767,3.83663 14.28055,3.83663 9.879425,0 19.496165,-5.13068 24.798165,-14.30901 7.90136,-13.6819 3.20953,-31.17138 -10.47238,-39.07258 L 91.380665,166.7775 c -13.647746,-7.88413 -31.165535,-3.22659 -39.07258,10.47239 -7.907045,13.6762 -3.215206,31.17137 10.466687,39.07258 z"
     id="path94"
     style="stroke-width:1.4594" />
  <path
     d="m 218.84285,577.05759 c -13.65343,-7.89566 -31.17138,-3.22659 -39.07258,10.47238 l -11.97732,20.7454 c -7.90135,13.68191 -3.20951,31.17138 10.47238,39.07259 4.50357,2.59949 9.41768,3.83662 14.28055,3.83662 9.87942,0 19.49615,-5.13067 24.79816,-14.309 l 11.97732,-20.74541 c 7.89566,-13.6762 3.20383,-31.17137 -10.47807,-39.07258 z"
     id="path96"
     style="stroke-width:1.4594" />
  <path
     d="m 481.82719,121.56346 c 4.50357,2.59949 9.41767,3.83663 14.28055,3.83663 9.87942,0 19.49615,-5.13069 24.79816,-14.30901 l 11.97732,-20.745409 c 7.90135,-13.681893 3.20952,-31.171378 -10.47238,-39.072582 -13.65344,-7.88413 -31.17138,-3.226593 -39.07258,10.472382 l -11.97732,20.745408 c -7.90705,13.681894 -3.21522,31.171381 10.46669,39.072581 z"
     id="path98"
     style="stroke-width:1.4594" />
  <path
     d="m 517.15933,210.22217 c 7.66186,-7.65617 7.66186,-20.07263 0,-27.72866 -7.64479,-7.66186 -20.07847,-7.66186 -27.72866,0 l -11.60677,11.60678 c -7.66186,7.65618 -7.66186,20.07262 0,27.72865 3.82525,3.83093 8.84194,5.7464 13.86433,5.7464 5.02239,0 10.03909,-1.91547 13.86432,-5.7464 z"
     id="path100"
     style="stroke-width:1.4594" />
  <path
     d="m 183.51071,488.41348 c -7.65617,7.66186 -7.65617,20.07846 0.006,27.73449 3.83093,3.82524 8.84194,5.7407 13.86432,5.7407 5.02239,0 10.03909,-1.91546 13.87002,-5.7464 l 11.60677,-11.61246 c 7.65617,-7.66187 7.65617,-20.07846 -0.006,-27.73449 -7.66187,-7.64479 -20.07263,-7.65617 -27.73449,0.006 z"
     id="path102"
     style="stroke-width:1.4594" />
  <path
     d="m 477.81383,504.53988 11.60678,11.61246 c 3.83093,3.83093 8.85331,5.7464 13.87001,5.7464 5.02239,0 10.03339,-1.91547 13.86433,-5.74071 7.66186,-7.65616 7.66186,-20.07262 0.006,-27.73448 l -11.60648,-11.61247 c -7.66186,-7.66186 -20.07262,-7.65617 -27.73448,-0.006 -7.65618,7.65617 -7.65618,20.07263 -0.006,27.73449 z"
     id="path104"
     style="stroke-width:1.4594" />
  <path
     d="m 222.84161,194.09577 -11.60677,-11.60678 c -7.64479,-7.66186 -20.07846,-7.66186 -27.72865,0 -7.66186,7.65617 -7.66186,20.07263 0,27.72865 l 11.60678,11.60677 c 3.82524,3.83093 8.84194,5.7464 13.86432,5.7464 5.02239,0 10.03909,-1.91547 13.86432,-5.7464 7.66187,-7.65617 7.66187,-20.07845 0,-27.72864 z"
     id="path106"
     style="stroke-width:1.4594" />
  <path
     d="m 136.29905,312.26359 15.86516,4.25284 c 1.69889,0.45607 3.40901,0.6784 5.09083,0.6784 8.65382,0 16.57735,-5.78055 18.92116,-14.54266 2.81052,-10.4553 -3.39764,-21.21241 -13.86432,-24.01738 l -15.86517,-4.25285 c -10.42101,-2.79913 -21.21242,3.39194 -24.01739,13.86432 -2.79913,10.45531 3.40902,21.21826 13.87001,24.01739 z"
     id="path108"
     style="stroke-width:1.4594" />
  <path
     d="m 564.35641,386.35746 -15.86517,-4.24715 c -10.43808,-2.74777 -21.21242,3.4147 -24.01739,13.88139 -2.79344,10.461 3.41472,21.21242 13.8814,24.01739 l 15.86516,4.24715 c 1.6989,0.44467 3.39764,0.67271 5.08515,0.67271 8.65951,0 16.58318,-5.78625 18.93282,-14.5485 2.79345,-10.47238 -3.4147,-21.21826 -13.88139,-24.02323 z"
     id="path110"
     style="stroke-width:1.4594" />
  <path
     d="m 397.00671,175.16732 c 1.6932,0.45606 3.39764,0.67838 5.08515,0.67838 8.65951,0 16.57735,-5.78623 18.92115,-14.54849 l 4.24715,-15.85932 c 2.79914,-10.45531 -3.40901,-21.20658 -13.87001,-24.00571 -10.39824,-2.79345 -21.20658,3.39763 -24.00572,13.87001 l -4.24714,15.85933 c -2.79914,10.4553 3.40901,21.20074 13.87,24.0057 z"
     id="path112"
     style="stroke-width:1.4594" />
  <path
     d="m 303.66333,523.45374 c -10.44961,-2.73639 -21.21242,3.4147 -24.01739,13.88139 l -4.24715,15.86517 c -2.79345,10.46099 3.4147,21.21242 13.88139,24.01739 1.69889,0.44466 3.39764,0.67269 5.08515,0.67269 8.65951,0 16.58319,-5.78623 18.93282,-14.54849 l 4.24716,-15.86516 c 2.78775,-10.46669 -3.42054,-21.21826 -13.8814,-24.02323 z"
     id="path114"
     style="stroke-width:1.4594" />
  <path
     d="m 421.02848,537.33265 c -2.79913,-10.461 -13.56223,-16.60654 -24.01739,-13.8814 -10.46099,2.79914 -16.67513,13.55085 -13.88139,24.01739 l 4.24714,15.86517 c 2.34876,8.7621 10.27288,14.54848 18.93284,14.54848 1.68167,0 3.38625,-0.22232 5.08513,-0.67269 10.46101,-2.79913 16.67514,-13.55085 13.88141,-24.01739 z"
     id="path116"
     style="stroke-width:1.4594" />
  <path
     d="m 279.65616,161.30299 c 2.34876,8.76211 10.26135,14.54849 18.92115,14.54849 1.68166,0 3.39194,-0.22232 5.08514,-0.67839 10.46099,-2.79913 16.67514,-13.55084 13.87002,-24.00571 l -4.24716,-15.85933 c -2.79913,-10.46099 -13.61345,-16.65762 -24.00571,-13.87001 -10.46099,2.79914 -16.67513,13.55084 -13.87002,24.00571 z"
     id="path118"
     style="stroke-width:1.4594" />
  <path
     d="m 176.19911,395.98952 c -2.79914,-10.461 -13.56792,-16.61823 -24.01739,-13.8814 l -15.85932,4.24715 c -10.46101,2.79913 -16.67514,13.55084 -13.88141,24.01739 2.34876,8.7621 10.27288,14.54849 18.93283,14.54849 1.68168,0 3.38625,-0.22233 5.08514,-0.6727 l 15.86517,-4.24715 c 10.461,-2.79913 16.6693,-13.55084 13.8757,-24.01155 z"
     id="path120"
     style="stroke-width:1.4594" />
  <path
     d="m 524.48552,302.66072 c 2.34877,8.76211 10.27288,14.54266 18.92116,14.54266 1.68167,0 3.39194,-0.22233 5.09083,-0.67839 l 15.86517,-4.25285 c 10.461,-2.79913 16.67513,-13.56223 13.86433,-24.01739 -2.79914,-10.47238 -13.59069,-16.66345 -24.01739,-13.86432 l -15.86517,4.25285 c -10.461,2.80483 -16.6693,13.56223 -13.85863,24.01738 z"
     id="path122"
     style="stroke-width:1.4594" />
  <path
     d="m 468.138,349.31782 c 0,7.08044 5.7407,12.81531 12.8153,12.81531 h 10.73463 c 7.08044,0 12.81531,-5.74071 12.81531,-12.81531 0,-7.08043 -5.74071,-12.8153 -12.81531,-12.8153 H 480.9533 c -7.07475,-0.006 -12.8153,5.73501 -12.8153,12.8153 z"
     id="path124"
     style="stroke-width:1.4594" />
  <path
     d="m 232.53204,349.31782 c 0,-7.08043 -5.7407,-12.8153 -12.8153,-12.8153 h -10.73463 c -7.08044,0 -12.81531,5.7407 -12.81531,12.8153 0,7.08044 5.74071,12.81531 12.81531,12.81531 h 10.73463 c 7.07475,0 12.8153,-5.73502 12.8153,-12.81531 z"
     id="path126"
     style="stroke-width:1.4594" />
  <path
     d="m 337.52147,490.67555 c 0,7.08044 5.7407,12.81531 12.8153,12.81531 7.08044,0 12.81531,-5.74071 12.81531,-12.81531 v -10.72894 c 0,-7.08044 -5.74071,-12.8153 -12.81531,-12.8153 -7.08043,0 -12.8153,5.7407 -12.8153,12.8153 z"
     id="path128"
     style="stroke-width:1.4594" />
  <path
     d="m 350.33502,231.51485 c 7.08044,0 12.81531,-5.74071 12.81531,-12.81531 v -10.73463 c 0,-7.08044 -5.74071,-12.81531 -12.81531,-12.81531 -7.08044,0 -12.8153,5.74071 -12.8153,12.81531 v 10.73463 c 0,7.07475 5.73501,12.81531 12.8153,12.81531 z"
     id="path130"
     style="stroke-width:1.4594" />
  <path
     d="m 273.9353,242.6063 c 2.37153,4.11027 6.68129,6.40766 11.09948,6.40766 2.17772,0 4.38391,-0.55867 6.40196,-1.72166 6.12833,-3.53452 8.22622,-11.37312 4.686,-17.50115 l -5.36447,-9.29231 c -3.53453,-6.13971 -11.39021,-8.22052 -17.50115,-4.68599 -6.12833,3.53452 -8.22622,11.37312 -4.686,17.50115 z"
     id="path132"
     style="stroke-width:1.4594" />
  <path
     d="m 426.73474,456.02933 c -3.53452,-6.1397 -11.37881,-8.21483 -17.50115,-4.68599 -6.12832,3.53453 -8.22622,11.37313 -4.68599,17.50116 l 5.36446,9.2923 c 2.37153,4.11026 6.68129,6.40766 11.09949,6.40766 2.17772,0 4.3839,-0.55868 6.40196,-1.72166 6.12833,-3.53453 8.22622,-11.37313 4.686,-17.50116 z"
     id="path134"
     style="stroke-width:1.4594" />
  <path
     d="m 463.46791,296.82311 c 2.17772,0 4.38389,-0.55867 6.40196,-1.72166 l 9.29231,-5.36447 c 6.12832,-3.53452 8.22621,-11.37312 4.68599,-17.50115 -3.53453,-6.13971 -11.37882,-8.21484 -17.50116,-4.686 l -9.2923,5.36448 c -6.12832,3.53452 -8.22622,11.37312 -4.686,17.50115 2.36584,4.11026 6.6756,6.40765 11.09948,6.40765 z"
     id="path136"
     style="stroke-width:1.4594" />
  <path
     d="m 230.79536,403.53463 -9.29231,5.36446 c -6.12833,3.53454 -8.22621,11.37313 -4.686,17.50116 2.37153,4.11026 6.68129,6.40766 11.09949,6.40766 2.17772,0 4.3839,-0.55868 6.40196,-1.72166 l 9.29231,-5.36447 c 6.12832,-3.53453 8.22622,-11.37312 4.68599,-17.50116 -3.53452,-6.1397 -11.3845,-8.22052 -17.50115,-4.68599 z"
     id="path138"
     style="stroke-width:1.4594" />
  <path
     d="m 290.76221,478.13928 5.36447,-9.29231 c 3.54591,-6.12831 1.4423,-13.96691 -4.686,-17.50115 -6.12262,-3.52883 -13.96122,-1.4537 -17.50115,4.686 l -5.36447,9.29231 c -3.54591,6.12832 -1.4423,13.96691 4.68599,17.50115 2.01806,1.16297 4.22424,1.72166 6.40196,1.72166 4.41805,0 8.72796,-2.29739 11.09949,-6.40766 z"
     id="path140"
     style="stroke-width:1.4594" />
  <path
     d="m 427.42066,215.81167 c -6.11124,-3.53452 -13.96691,-1.45369 -17.50115,4.686 l -5.36447,9.29231 c -3.54591,6.12832 -1.44231,13.96692 4.68599,17.50116 2.01806,1.16296 4.22424,1.72165 6.40196,1.72165 4.42375,0 8.73365,-2.29739 11.09949,-6.40765 l 5.36447,-9.29231 c 3.54591,-6.12832 1.4423,-13.96692 -4.68599,-17.50116 z"
     id="path142"
     style="stroke-width:1.4594" />
  <path
     d="m 243.62351,272.9181 -9.29231,-5.36447 c -6.12263,-3.52884 -13.96123,-1.4537 -17.50116,4.68599 -3.54591,6.12833 -1.44229,13.96692 4.686,17.50116 l 9.2923,5.36447 c 2.01807,1.16297 4.22424,1.72165 6.40196,1.72165 4.42375,0 8.73365,-2.29738 11.0995,-6.40764 3.54021,-6.12833 1.44229,-13.96693 -4.686,-17.50116 z"
     id="path144"
     style="stroke-width:1.4594" />
  <path
     d="m 483.84117,426.40346 c 3.54591,-6.12832 1.4423,-13.96691 -4.686,-17.50115 l -9.29231,-5.36447 c -6.11124,-3.53453 -13.96123,-1.4537 -17.50116,4.68599 -3.54591,6.12833 -1.44229,13.96693 4.686,17.50116 l 9.29231,5.36447 c 2.01806,1.16297 4.22424,1.72166 6.40196,1.72166 4.41805,0 8.72795,-2.29739 11.09949,-6.40766 z"
     id="path146"
     style="stroke-width:1.4594" />
</svg>
