<?xml version="1.0" encoding="UTF-8" standalone="no"?>
<svg
   width="700pt"
   height="700pt"
   version="1.1"
   viewBox="0 0 700 700"
   id="svg232"
   sodipodi:docname="light_environment.svg"
   inkscape:version="1.1.1 (3bf5ae0d25, 2021-09-20)"
   inkscape:export-filename="/home/michalis/sources/castle-engine/castle-engine/tools/castle-editor/gfx/gizmos/light/light_environment.png"
   inkscape:export-xdpi="26.33"
   inkscape:export-ydpi="26.33"
   xmlns:inkscape="http://www.inkscape.org/namespaces/inkscape"
   xmlns:sodipodi="http://sodipodi.sourceforge.net/DTD/sodipodi-0.dtd"
   xmlns="http://www.w3.org/2000/svg"
   xmlns:svg="http://www.w3.org/2000/svg">
  <sodipodi:namedview
     id="namedview234"
     pagecolor="#000000"
     bordercolor="#666666"
     borderopacity="1.0"
     inkscape:pageshadow="2"
     inkscape:pageopacity="0"
     inkscape:pagecheckerboard="true"
     inkscape:document-units="pt"
     showgrid="false"
     inkscape:zoom="0.43928571"
     inkscape:cx="547.47968"
     inkscape:cy="636.26017"
     inkscape:window-width="1852"
     inkscape:window-height="1009"
     inkscape:window-x="1988"
     inkscape:window-y="34"
     inkscape:window-maximized="1"
     inkscape:current-layer="svg232" />
  <defs
     id="defs74">
    <symbol
       id="x"
       overflow="visible">
      <path
         d="m18.766-1.125c-0.96875 0.5-1.9805 0.875-3.0312 1.125-1.043 0.25781-2.1367 0.39062-3.2812 0.39062-3.3984 0-6.0898-0.94531-8.0781-2.8438-1.9922-1.9062-2.9844-4.4844-2.9844-7.7344 0-3.2578 0.99219-5.8359 2.9844-7.7344 1.9883-1.9062 4.6797-2.8594 8.0781-2.8594 1.1445 0 2.2383 0.13281 3.2812 0.39062 1.0508 0.25 2.0625 0.625 3.0312 1.125v4.2188c-0.98047-0.65625-1.9453-1.1406-2.8906-1.4531-0.94922-0.3125-1.9492-0.46875-3-0.46875-1.875 0-3.3516 0.60547-4.4219 1.8125-1.0742 1.1992-1.6094 2.8555-1.6094 4.9688 0 2.1055 0.53516 3.7617 1.6094 4.9688 1.0703 1.1992 2.5469 1.7969 4.4219 1.7969 1.0508 0 2.0508-0.14844 3-0.45312 0.94531-0.3125 1.9102-0.80078 2.8906-1.4688z"
         id="path2" />
    </symbol>
    <symbol
       id="c"
       overflow="visible">
      <path
         d="m13.734-11.141c-0.4375-0.19531-0.87109-0.34375-1.2969-0.4375-0.41797-0.10156-0.83984-0.15625-1.2656-0.15625-1.2617 0-2.2305 0.40625-2.9062 1.2188-0.67969 0.80469-1.0156 1.9531-1.0156 3.4531v7.0625h-4.8906v-15.312h4.8906v2.5156c0.625-1 1.3438-1.7266 2.1562-2.1875 0.82031-0.46875 1.8008-0.70312 2.9375-0.70312 0.16406 0 0.34375 0.011719 0.53125 0.03125 0.19531 0.011719 0.47656 0.039062 0.84375 0.078125z"
         id="path5" />
    </symbol>
    <symbol
       id="a"
       overflow="visible">
      <path
         d="m17.641-7.7031v1.4062h-11.453c0.125 1.1484 0.53906 2.0078 1.25 2.5781 0.70703 0.57422 1.7031 0.85938 2.9844 0.85938 1.0312 0 2.082-0.14844 3.1562-0.45312 1.082-0.3125 2.1914-0.77344 3.3281-1.3906v3.7656c-1.1562 0.4375-2.3125 0.76562-3.4688 0.98438-1.1562 0.22656-2.3125 0.34375-3.4688 0.34375-2.7734 0-4.9297-0.70312-6.4688-2.1094-1.5312-1.4062-2.2969-3.3789-2.2969-5.9219 0-2.5 0.75391-4.4609 2.2656-5.8906 1.5078-1.4375 3.582-2.1562 6.2188-2.1562 2.4062 0 4.332 0.73047 5.7812 2.1875 1.4453 1.4492 2.1719 3.3828 2.1719 5.7969zm-5.0312-1.625c0-0.92578-0.27344-1.6719-0.8125-2.2344-0.54297-0.57031-1.25-0.85938-2.125-0.85938-0.94922 0-1.7188 0.26562-2.3125 0.79688s-0.96484 1.2969-1.1094 2.2969z"
         id="path8" />
    </symbol>
    <symbol
       id="g"
       overflow="visible">
      <path
         d="m9.2188-6.8906c-1.0234 0-1.793 0.17188-2.3125 0.51562-0.51172 0.34375-0.76562 0.85547-0.76562 1.5312 0 0.625 0.20703 1.1172 0.625 1.4688 0.41406 0.34375 0.98828 0.51562 1.7188 0.51562 0.92578 0 1.7031-0.32812 2.3281-0.98438 0.63281-0.66406 0.95312-1.4922 0.95312-2.4844v-0.5625zm7.4688-1.8438v8.7344h-4.9219v-2.2656c-0.65625 0.92969-1.3984 1.6055-2.2188 2.0312-0.82422 0.41406-1.8242 0.625-3 0.625-1.5859 0-2.8711-0.45703-3.8594-1.375-0.99219-0.92578-1.4844-2.1289-1.4844-3.6094 0-1.7891 0.61328-3.1016 1.8438-3.9375 1.2383-0.84375 3.1797-1.2656 5.8281-1.2656h2.8906v-0.39062c0-0.76953-0.30859-1.332-0.92188-1.6875-0.61719-0.36328-1.5703-0.54688-2.8594-0.54688-1.0547 0-2.0312 0.10547-2.9375 0.3125-0.89844 0.21094-1.7305 0.52344-2.5 0.9375v-3.7344c1.0391-0.25 2.0859-0.44141 3.1406-0.57812 1.0625-0.13281 2.125-0.20312 3.1875-0.20312 2.7578 0 4.75 0.54688 5.9688 1.6406 1.2266 1.0859 1.8438 2.8555 1.8438 5.3125z"
         id="path11" />
    </symbol>
    <symbol
       id="b"
       overflow="visible">
      <path
         d="m7.7031-19.656v4.3438h5.0469v3.5h-5.0469v6.5c0 0.71094 0.14062 1.1875 0.42188 1.4375s0.83594 0.375 1.6719 0.375h2.5156v3.5h-4.1875c-1.9375 0-3.3125-0.39844-4.125-1.2031-0.80469-0.8125-1.2031-2.1797-1.2031-4.1094v-6.5h-2.4219v-3.5h2.4219v-4.3438z"
         id="path14" />
    </symbol>
    <symbol
       id="k"
       overflow="visible">
      <path
         d="m12.766-13.078v-8.2031h4.9219v21.281h-4.9219v-2.2188c-0.66797 0.90625-1.4062 1.5703-2.2188 1.9844s-1.7578 0.625-2.8281 0.625c-1.8867 0-3.4336-0.75-4.6406-2.25-1.2109-1.5-1.8125-3.4258-1.8125-5.7812 0-2.3633 0.60156-4.2969 1.8125-5.7969 1.207-1.5 2.7539-2.25 4.6406-2.25 1.0625 0 2 0.21484 2.8125 0.64062 0.82031 0.42969 1.5664 1.0859 2.2344 1.9688zm-3.2188 9.9219c1.0391 0 1.8359-0.37891 2.3906-1.1406 0.55078-0.76953 0.82812-1.8828 0.82812-3.3438 0-1.457-0.27734-2.5664-0.82812-3.3281-0.55469-0.76953-1.3516-1.1562-2.3906-1.1562-1.043 0-1.8398 0.38672-2.3906 1.1562-0.55469 0.76172-0.82812 1.8711-0.82812 3.3281 0 1.4609 0.27344 2.5742 0.82812 3.3438 0.55078 0.76172 1.3477 1.1406 2.3906 1.1406z"
         id="path17" />
    </symbol>
    <symbol
       id="j"
       overflow="visible">
      <path
         d="m10.5-3.1562c1.0508 0 1.8516-0.37891 2.4062-1.1406 0.55078-0.76953 0.82812-1.8828 0.82812-3.3438 0-1.457-0.27734-2.5664-0.82812-3.3281-0.55469-0.76953-1.3555-1.1562-2.4062-1.1562-1.0547 0-1.8594 0.38672-2.4219 1.1562-0.55469 0.77344-0.82812 1.8828-0.82812 3.3281 0 1.4492 0.27344 2.5586 0.82812 3.3281 0.5625 0.77344 1.3672 1.1562 2.4219 1.1562zm-3.25-9.9219c0.67578-0.88281 1.4219-1.5391 2.2344-1.9688 0.82031-0.42578 1.7656-0.64062 2.8281-0.64062 1.8945 0 3.4453 0.75 4.6562 2.25 1.207 1.5 1.8125 3.4336 1.8125 5.7969 0 2.3555-0.60547 4.2812-1.8125 5.7812-1.2109 1.5-2.7617 2.25-4.6562 2.25-1.0625 0-2.0078-0.21094-2.8281-0.625-0.8125-0.42578-1.5586-1.0859-2.2344-1.9844v2.2188h-4.8906v-21.281h4.8906z"
         id="path20" />
    </symbol>
    <symbol
       id="f"
       overflow="visible">
      <path
         d="m0.34375-15.312h4.8906l4.125 10.391 3.5-10.391h4.8906l-6.4375 16.766c-0.64844 1.6953-1.4023 2.8828-2.2656 3.5625-0.86719 0.6875-2 1.0312-3.4062 1.0312h-2.8438v-3.2188h1.5312c0.83203 0 1.4375-0.13672 1.8125-0.40625 0.38281-0.26172 0.67969-0.73047 0.89062-1.4062l0.14062-0.42188z"
         id="path23" />
    </symbol>
    <symbol
       id="i"
       overflow="visible">
      <path
         d="m7.8281-16.438v12.453h1.8906c2.1562 0 3.8008-0.53125 4.9375-1.5938 1.1328-1.0625 1.7031-2.6133 1.7031-4.6562 0-2.0195-0.57031-3.5547-1.7031-4.6094-1.125-1.0625-2.7734-1.5938-4.9375-1.5938zm-5.25-3.9688h5.5469c3.0938 0 5.3984 0.21875 6.9219 0.65625 1.5195 0.4375 2.8203 1.1875 3.9062 2.25 0.95703 0.91797 1.6641 1.9805 2.125 3.1875 0.46875 1.1992 0.70312 2.5586 0.70312 4.0781 0 1.543-0.23438 2.918-0.70312 4.125-0.46094 1.2109-1.168 2.2773-2.125 3.2031-1.0938 1.0547-2.4062 1.8047-3.9375 2.25-1.5312 0.4375-3.8281 0.65625-6.8906 0.65625h-5.5469z"
         id="path26" />
    </symbol>
    <symbol
       id="h"
       overflow="visible">
      <path
         d="m16.547-12.766c0.61328-0.94531 1.3477-1.6719 2.2031-2.1719 0.85156-0.5 1.7891-0.75 2.8125-0.75 1.7578 0 3.0977 0.54688 4.0156 1.6406 0.92578 1.0859 1.3906 2.6562 1.3906 4.7188v9.3281h-4.9219v-7.9844-0.35938c0.007813-0.13281 0.015625-0.32031 0.015625-0.5625 0-1.082-0.16406-1.8633-0.48438-2.3438-0.3125-0.48828-0.82422-0.73438-1.5312-0.73438-0.92969 0-1.6484 0.38672-2.1562 1.1562-0.51172 0.76172-0.77344 1.8672-0.78125 3.3125v7.5156h-4.9219v-7.9844c0-1.6953-0.14844-2.7852-0.4375-3.2656-0.29297-0.48828-0.8125-0.73438-1.5625-0.73438-0.9375 0-1.6641 0.38672-2.1719 1.1562-0.51172 0.76172-0.76562 1.8594-0.76562 3.2969v7.5312h-4.9219v-15.312h4.9219v2.2344c0.60156-0.86328 1.2891-1.5156 2.0625-1.9531 0.78125-0.4375 1.6406-0.65625 2.5781-0.65625 1.0625 0 2 0.25781 2.8125 0.76562 0.8125 0.51172 1.4258 1.2305 1.8438 2.1562z"
         id="path29" />
    </symbol>
    <symbol
       id="e"
       overflow="visible">
      <path
         d="m2.3594-15.312h4.8906v15.312h-4.8906zm0-5.9688h4.8906v4h-4.8906z"
         id="path32" />
    </symbol>
    <symbol
       id="w"
       overflow="visible">
      <path
         d="m0.14062-20.406h5.2812l5.4219 15.062 5.4062-15.062h5.2812l-7.5625 20.406h-6.2656z"
         id="path35" />
    </symbol>
    <symbol
       id="v"
       overflow="visible">
      <path
         d="m14.312-14.828v3.7188c-1.043-0.4375-2.0547-0.76562-3.0312-0.98438-0.98047-0.21875-1.9023-0.32812-2.7656-0.32812-0.92969 0-1.6211 0.11719-2.0781 0.34375-0.44922 0.23047-0.67188 0.58984-0.67188 1.0781 0 0.38672 0.17188 0.68359 0.51562 0.89062 0.34375 0.21094 0.95703 0.36719 1.8438 0.46875l0.85938 0.125c2.5078 0.32422 4.1953 0.85156 5.0625 1.5781 0.86328 0.73047 1.2969 1.8711 1.2969 3.4219 0 1.6367-0.60547 2.8672-1.8125 3.6875-1.1992 0.8125-2.9922 1.2188-5.375 1.2188-1.0234 0-2.0742-0.078125-3.1562-0.23438-1.0742-0.15625-2.1797-0.39453-3.3125-0.71875v-3.7188c0.96875 0.48047 1.9609 0.83984 2.9844 1.0781 1.0312 0.23047 2.0781 0.34375 3.1406 0.34375 0.95703 0 1.6758-0.12891 2.1562-0.39062 0.47656-0.26953 0.71875-0.66406 0.71875-1.1875 0-0.4375-0.16797-0.75781-0.5-0.96875-0.33594-0.21875-0.99609-0.38281-1.9844-0.5l-0.85938-0.10938c-2.1797-0.26953-3.7031-0.77344-4.5781-1.5156-0.875-0.73828-1.3125-1.8594-1.3125-3.3594 0-1.625 0.55078-2.8281 1.6562-3.6094 1.1133-0.78906 2.8203-1.1875 5.125-1.1875 0.89453 0 1.8359 0.074219 2.8281 0.21875 1 0.13672 2.082 0.35156 3.25 0.64062z"
         id="path38" />
    </symbol>
    <symbol
       id="u"
       overflow="visible">
      <path
         d="m2.3594-21.281h4.8906v21.281h-4.8906z"
         id="path41" />
    </symbol>
    <symbol
       id="t"
       overflow="visible">
      <path
         d="m0.42188-15.312h4.8906l3.8281 10.578 3.7969-10.578h4.9062l-6.0312 15.312h-5.375z"
         id="path44" />
    </symbol>
    <symbol
       id="s"
       overflow="visible">
      <path
         d="m12.422-21.281v3.2188h-2.7031c-0.6875 0-1.1719 0.125-1.4531 0.375-0.27344 0.25-0.40625 0.6875-0.40625 1.3125v1.0625h4.1875v3.5h-4.1875v11.812h-4.8906v-11.812h-2.4375v-3.5h2.4375v-1.0625c0-1.6641 0.46094-2.8984 1.3906-3.7031 0.92578-0.80078 2.3672-1.2031 4.3281-1.2031z"
         id="path47" />
    </symbol>
    <symbol
       id="d"
       overflow="visible">
      <path
         d="m9.6406-12.188c-1.0859 0-1.9141 0.39062-2.4844 1.1719-0.57422 0.78125-0.85938 1.9062-0.85938 3.375s0.28516 2.5938 0.85938 3.375c0.57031 0.77344 1.3984 1.1562 2.4844 1.1562 1.0625 0 1.875-0.38281 2.4375-1.1562 0.57031-0.78125 0.85938-1.9062 0.85938-3.375s-0.28906-2.5938-0.85938-3.375c-0.5625-0.78125-1.375-1.1719-2.4375-1.1719zm0-3.5c2.6328 0 4.6914 0.71484 6.1719 2.1406 1.4766 1.418 2.2188 3.3867 2.2188 5.9062 0 2.5117-0.74219 4.4805-2.2188 5.9062-1.4805 1.418-3.5391 2.125-6.1719 2.125-2.6484 0-4.7148-0.70703-6.2031-2.125-1.4922-1.4258-2.2344-3.3945-2.2344-5.9062 0-2.5195 0.74219-4.4883 2.2344-5.9062 1.4883-1.4258 3.5547-2.1406 6.2031-2.1406z"
         id="path50" />
    </symbol>
    <symbol
       id="r"
       overflow="visible">
      <path
         d="m17.75-9.3281v9.3281h-4.9219v-7.1094c0-1.3438-0.03125-2.2656-0.09375-2.7656s-0.16797-0.86719-0.3125-1.1094c-0.1875-0.3125-0.44922-0.55469-0.78125-0.73438-0.32422-0.17578-0.69531-0.26562-1.1094-0.26562-1.0234 0-1.8242 0.39844-2.4062 1.1875-0.58594 0.78125-0.875 1.8711-0.875 3.2656v7.5312h-4.8906v-21.281h4.8906v8.2031c0.73828-0.88281 1.5195-1.5391 2.3438-1.9688 0.83203-0.42578 1.75-0.64062 2.75-0.64062 1.7695 0 3.1133 0.54688 4.0312 1.6406 0.91406 1.0859 1.375 2.6562 1.375 4.7188z"
         id="path53" />
    </symbol>
    <symbol
       id="q"
       overflow="visible">
      <path
         d="m2.5781-20.406h5.875l7.4219 14v-14h4.9844v20.406h-5.875l-7.4219-14v14h-4.9844z"
         id="path56" />
    </symbol>
    <symbol
       id="p"
       overflow="visible">
      <path
         d="m2.1875-5.9688v-9.3438h4.9219v1.5312c0 0.83594-0.007813 1.875-0.015625 3.125-0.011719 1.25-0.015625 2.0859-0.015625 2.5 0 1.2422 0.03125 2.1328 0.09375 2.6719 0.070313 0.54297 0.17969 0.93359 0.32812 1.1719 0.20703 0.32422 0.47266 0.57422 0.79688 0.75 0.32031 0.16797 0.69141 0.25 1.1094 0.25 1.0195 0 1.8203-0.39062 2.4062-1.1719 0.58203-0.78125 0.875-1.8672 0.875-3.2656v-7.5625h4.8906v15.312h-4.8906v-2.2188c-0.74219 0.89844-1.5234 1.5586-2.3438 1.9844-0.82422 0.41406-1.7344 0.625-2.7344 0.625-1.7617 0-3.1055-0.53906-4.0312-1.625-0.92969-1.082-1.3906-2.6602-1.3906-4.7344z"
         id="path59" />
    </symbol>
    <symbol
       id="o"
       overflow="visible">
      <path
         d="m17.75-9.3281v9.3281h-4.9219v-7.1406c0-1.3203-0.03125-2.2344-0.09375-2.7344s-0.16797-0.86719-0.3125-1.1094c-0.1875-0.3125-0.44922-0.55469-0.78125-0.73438-0.32422-0.17578-0.69531-0.26562-1.1094-0.26562-1.0234 0-1.8242 0.39844-2.4062 1.1875-0.58594 0.78125-0.875 1.8711-0.875 3.2656v7.5312h-4.8906v-15.312h4.8906v2.2344c0.73828-0.88281 1.5195-1.5391 2.3438-1.9688 0.83203-0.42578 1.75-0.64062 2.75-0.64062 1.7695 0 3.1133 0.54688 4.0312 1.6406 0.91406 1.0859 1.375 2.6562 1.375 4.7188z"
         id="path62" />
    </symbol>
    <symbol
       id="n"
       overflow="visible">
      <path
         d="m2.5781-20.406h8.7344c2.5938 0 4.582 0.57812 5.9688 1.7344 1.3945 1.1484 2.0938 2.7891 2.0938 4.9219 0 2.1367-0.69922 3.7812-2.0938 4.9375-1.3867 1.1562-3.375 1.7344-5.9688 1.7344h-3.4844v7.0781h-5.25zm5.25 3.8125v5.7031h2.9219c1.0195 0 1.8047-0.25 2.3594-0.75 0.5625-0.5 0.84375-1.2031 0.84375-2.1094 0-0.91406-0.28125-1.6172-0.84375-2.1094-0.55469-0.48828-1.3398-0.73438-2.3594-0.73438z"
         id="path65" />
    </symbol>
    <symbol
       id="m"
       overflow="visible">
      <path
         d="m2.3594-15.312h4.8906v15.031c0 2.0508-0.49609 3.6172-1.4844 4.7031-0.98047 1.082-2.4062 1.625-4.2812 1.625h-2.4219v-3.2188h0.85938c0.92578 0 1.5625-0.21094 1.9062-0.625 0.35156-0.41797 0.53125-1.2461 0.53125-2.4844zm0-5.9688h4.8906v4h-4.8906z"
         id="path68" />
    </symbol>
    <symbol
       id="l"
       overflow="visible">
      <path
         d="m14.719-14.828v3.9844c-0.65625-0.45703-1.3242-0.79688-2-1.0156-0.66797-0.21875-1.3594-0.32812-2.0781-0.32812-1.3672 0-2.4336 0.40234-3.2031 1.2031-0.76172 0.79297-1.1406 1.9062-1.1406 3.3438 0 1.4297 0.37891 2.543 1.1406 3.3438 0.76953 0.79297 1.8359 1.1875 3.2031 1.1875 0.75781 0 1.4844-0.10938 2.1719-0.32812 0.6875-0.22656 1.3203-0.56641 1.9062-1.0156v4c-0.76172 0.28125-1.5391 0.48828-2.3281 0.625-0.78125 0.14453-1.5742 0.21875-2.375 0.21875-2.7617 0-4.9219-0.70703-6.4844-2.125-1.5547-1.4141-2.3281-3.3828-2.3281-5.9062 0-2.5312 0.77344-4.5039 2.3281-5.9219 1.5625-1.4141 3.7227-2.125 6.4844-2.125 0.80078 0 1.5938 0.074219 2.375 0.21875 0.78125 0.13672 1.5547 0.35156 2.3281 0.64062z"
         id="path71" />
    </symbol>
  </defs>
  <path
     d="m 350.3349,33.834933 c -14.48098,0 -26.2247,11.742781 -26.2247,26.224696 v 21.954248 c 0,14.480978 11.74279,26.224703 26.2247,26.224703 14.48191,0 26.2247,-11.742785 26.2247,-26.224703 V 60.059629 c 0,-14.480978 -11.74279,-26.224696 -26.2247,-26.224696 z"
     id="path76"
     style="fill:#fc9c2d;fill-opacity:1;stroke:#000000;stroke-width:9.16716;stroke-miterlimit:4;stroke-dasharray:none;stroke-opacity:1" />
  <path
     d="m 350.3349,590.39999 c -14.48098,0 -26.2247,11.74277 -26.2247,26.22469 v 21.95425 c 0,14.48098 11.74279,26.2247 26.2247,26.2247 14.48191,0 26.2247,-11.74278 26.2247,-26.2247 v -21.95425 c 0,-14.48097 -11.74279,-26.22469 -26.2247,-26.22469 z"
     id="path78"
     style="fill:#fc9c2d;fill-opacity:1;stroke:#000000;stroke-width:9.16716;stroke-miterlimit:4;stroke-dasharray:none;stroke-opacity:1" />
  <path
     d="m 639.59321,323.09592 h -21.95425 c -14.48097,0 -26.22469,11.74279 -26.22469,26.2247 0,14.48191 11.74277,26.2247 26.22469,26.2247 h 21.95425 c 14.48098,0 26.2247,-11.74279 26.2247,-26.2247 0,-14.48191 -11.74278,-26.2247 -26.2247,-26.2247 z"
     id="path80"
     style="fill:#fc9c2d;fill-opacity:1;stroke:#000000;stroke-width:9.16716;stroke-miterlimit:4;stroke-dasharray:none;stroke-opacity:1" />
  <path
     d="m 109.25285,349.31794 c 0,-14.48097 -11.742782,-26.2247 -26.224701,-26.2247 h -21.95425 c -14.480977,0 -26.224694,11.74279 -26.224694,26.2247 0,14.48192 11.742784,26.2247 26.224694,26.2247 h 21.95425 c 14.480978,-0.005 26.224701,-11.748 26.224701,-26.2247 z"
     id="path82"
     style="fill:#fc9c2d;fill-opacity:1;stroke:#000000;stroke-width:9.16716;stroke-miterlimit:4;stroke-dasharray:none;stroke-opacity:1" />
  <path
     d="m 105.73428,460.26653 -19.017655,10.97458 c -12.542416,7.23808 -16.843628,23.27204 -9.600203,35.81847 4.860176,8.41393 13.666222,13.1173 22.732891,13.1173 4.447307,0 8.957357,-1.13405 13.091207,-3.5171 l 19.01767,-10.97458 c 12.54241,-7.23808 16.84362,-23.27204 9.6002,-35.81847 -7.2433,-12.54765 -23.26671,-16.84364 -35.82383,-9.6002 z"
     id="path84"
     style="fill:#fc9c2d;fill-opacity:1;stroke:#000000;stroke-width:9.16716;stroke-miterlimit:4;stroke-dasharray:none;stroke-opacity:1" />
  <path
     d="m 581.85125,241.90131 c 4.44732,0 8.96258,-1.13405 13.09122,-3.51709 l 19.01766,-10.97981 c 12.54241,-7.2433 16.84362,-23.2814 9.6002,-35.81847 -7.2433,-12.54764 -23.28676,-16.84364 -35.81849,-9.60021 l -19.01764,10.9798 c -12.54243,7.2433 -16.84364,23.28141 -9.6002,35.81848 4.85494,8.41393 13.67156,13.1173 22.72752,13.1173 z"
     id="path86"
     style="fill:#fc9c2d;fill-opacity:1;stroke:#000000;stroke-width:9.16716;stroke-miterlimit:4;stroke-dasharray:none;stroke-opacity:1" />
  <path
     d="m 193.97942,130.93935 c 4.86016,8.41392 13.67692,13.1173 22.73288,13.1173 4.44731,0 8.96258,-1.13405 13.09121,-3.51709 12.54242,-7.2433 16.84364,-23.28141 9.6002,-35.81848 l -10.9798,-19.017651 c -7.2433,-12.547641 -23.29747,-16.832934 -35.81848,-9.600205 -12.54242,7.2433 -16.84363,23.281407 -9.6002,35.818476 z"
     id="path88"
     style="fill:#fc9c2d;fill-opacity:1;stroke:#000000;stroke-width:9.16716;stroke-miterlimit:4;stroke-dasharray:none;stroke-opacity:1" />
  <path
     d="m 506.69038,567.69653 c -7.2433,-12.54763 -23.28675,-16.83293 -35.81847,-9.6002 -12.54243,7.2433 -16.84364,23.28141 -9.60021,35.81847 l 10.97981,19.01766 c 4.86017,8.41393 13.67692,13.1173 22.73288,13.1173 4.44732,0 8.96258,-1.13405 13.09121,-3.5171 12.54242,-7.24329 16.84364,-23.2814 9.6002,-35.81847 z"
     id="path90"
     style="fill:#fc9c2d;fill-opacity:1;stroke:#000000;stroke-width:9.16716;stroke-miterlimit:4;stroke-dasharray:none;stroke-opacity:1" />
  <path
     d="m 613.94648,471.23695 -19.01766,-10.97458 c -12.54764,-7.24329 -28.57532,-2.94743 -35.81847,9.60021 -7.24331,12.54764 -2.94222,28.58601 9.6002,35.81847 l 19.01765,10.97459 c 4.13372,2.38299 8.63855,3.51709 13.09121,3.51709 9.05662,0 17.87245,-4.70337 22.73289,-13.11729 7.23808,-12.54243 2.93699,-28.58067 -9.60542,-35.81849 z"
     id="path92"
     style="fill:#fc9c2d;fill-opacity:1;stroke:#000000;stroke-width:9.16716;stroke-miterlimit:4;stroke-dasharray:none;stroke-opacity:1" />
  <path
     d="m 86.723319,227.39893 19.017651,10.9798 c 4.1285,2.383 8.63334,3.5171 13.09122,3.5171 9.05663,0 17.87245,-4.70338 22.73288,-13.11731 7.24331,-12.54242 2.94223,-28.57531 -9.6002,-35.81847 l -19.01766,-10.9798 c -12.51111,-7.22752 -28.569959,-2.95787 -35.818476,9.60021 -7.248517,12.53719 -2.947432,28.5753 9.594983,35.81847 z"
     id="path94"
     style="fill:#fc9c2d;fill-opacity:1;stroke:#000000;stroke-width:9.16716;stroke-miterlimit:4;stroke-dasharray:none;stroke-opacity:1" />
  <path
     d="m 229.79388,558.09071 c -12.51633,-7.23808 -28.57532,-2.95787 -35.81848,9.6002 l -10.9798,19.01765 c -7.2433,12.54243 -2.94221,28.57532 9.6002,35.81848 4.1285,2.383 8.63334,3.5171 13.09121,3.5171 9.05663,0 17.87244,-4.70337 22.73288,-13.1173 l 10.97981,-19.01765 c 7.23808,-12.5372 2.937,-28.57531 -9.60542,-35.81848 z"
     id="path96"
     style="fill:#fc9c2d;fill-opacity:1;stroke:#000000;stroke-width:9.16716;stroke-miterlimit:4;stroke-dasharray:none;stroke-opacity:1" />
  <path
     d="m 470.87592,140.5318 c 4.1285,2.38299 8.63333,3.5171 13.09121,3.5171 9.05663,0 17.87244,-4.70339 22.73288,-13.11731 l 10.97981,-19.01765 c 7.24329,-12.542417 2.94222,-28.575314 -9.6002,-35.818476 -12.51634,-7.227511 -28.57532,-2.957871 -35.81848,9.600203 l -10.9798,19.017653 c -7.24852,12.54242 -2.94745,28.57532 9.59498,35.81848 z"
     id="path98"
     style="fill:#fc9c2d;fill-opacity:1;stroke:#000000;stroke-width:9.16716;stroke-miterlimit:4;stroke-dasharray:none;stroke-opacity:1" />
  <path
     d="m 503.26547,221.80669 c 7.02375,-7.01854 7.02375,-18.40091 0,-25.41932 -7.0081,-7.02375 -18.40626,-7.02375 -25.41932,0 l -10.64011,10.64012 c -7.02375,7.01855 -7.02375,18.4009 0,25.41931 3.50667,3.51188 8.10555,5.26782 12.70966,5.26782 4.6041,0 9.20299,-1.75594 12.70965,-5.26782 z"
     id="path100"
     style="fill:#fc9c2d;fill-opacity:1;stroke:#000000;stroke-width:9.16716;stroke-miterlimit:4;stroke-dasharray:none;stroke-opacity:1" />
  <path
     d="m 197.40433,476.82921 c -7.01854,7.02375 -7.01854,18.40625 0.006,25.42466 3.51187,3.50666 8.10555,5.26259 12.70964,5.26259 4.60411,0 9.203,-1.75593 12.71488,-5.26782 l 10.64011,-10.64533 c 7.01854,-7.02376 7.01854,-18.40625 -0.005,-25.42466 -7.02376,-7.0081 -18.4009,-7.01854 -25.42466,0.005 z"
     id="path102"
     style="fill:#fc9c2d;fill-opacity:1;stroke:#000000;stroke-width:9.16716;stroke-miterlimit:4;stroke-dasharray:none;stroke-opacity:1" />
  <path
     d="m 467.19681,491.61254 10.64012,10.64533 c 3.51188,3.51188 8.11598,5.26782 12.71487,5.26782 4.6041,0 9.19777,-1.75594 12.70966,-5.2626 7.02375,-7.01853 7.02375,-18.4009 0.005,-25.42465 L 492.62711,466.1931 c -7.02376,-7.02375 -18.4009,-7.01854 -25.42466,-0.006 -7.01854,7.01853 -7.01854,18.40091 -0.005,25.42466 z"
     id="path104"
     style="fill:#fc9c2d;fill-opacity:1;stroke:#000000;stroke-width:9.16716;stroke-miterlimit:4;stroke-dasharray:none;stroke-opacity:1" />
  <path
     d="m 233.4596,207.02335 -10.64011,-10.64012 c -7.00811,-7.02376 -18.40625,-7.02376 -25.41931,0 -7.02375,7.01853 -7.02375,18.4009 0,25.4193 l 10.64013,10.64012 c 3.50666,3.51187 8.10555,5.26782 12.70965,5.26782 4.6041,0 9.20299,-1.75595 12.70964,-5.26782 7.02377,-7.01854 7.02377,-18.40625 0,-25.4193 z"
     id="path106"
     style="fill:#fc9c2d;fill-opacity:1;stroke:#000000;stroke-width:9.16716;stroke-miterlimit:4;stroke-dasharray:none;stroke-opacity:1" />
  <path
     d="m 154.12462,315.34972 14.54386,3.89865 c 1.5574,0.41809 3.12509,0.6219 4.66684,0.6219 7.9331,0 15.19673,-5.29912 17.34534,-13.33149 2.57645,-9.58455 -3.11467,-19.44577 -12.70965,-22.01713 L 163.42715,280.623 c -9.55311,-2.56601 -19.44577,3.10944 -22.01713,12.70964 -2.56601,9.58456 3.1251,19.45113 12.71486,22.01714 z"
     id="path108"
     style="fill:#fc9c2d;fill-opacity:1;stroke:#000000;stroke-width:9.16716;stroke-miterlimit:4;stroke-dasharray:none;stroke-opacity:1" />
  <path
     d="m 546.53181,383.27279 -14.54387,-3.89344 c -9.56875,-2.51892 -19.44577,3.13031 -22.01713,12.7253 -2.56079,9.58977 3.13033,19.44577 12.72531,22.01713 l 14.54385,3.89344 c 1.55741,0.40763 3.11467,0.61668 4.66164,0.61668 7.93831,0 15.20207,-5.30435 17.35602,-13.33685 2.56081,-9.6002 -3.13031,-19.45112 -12.72529,-22.02248 z"
     id="path110"
     style="fill:#fc9c2d;fill-opacity:1;stroke:#000000;stroke-width:9.16716;stroke-miterlimit:4;stroke-dasharray:none;stroke-opacity:1" />
  <path
     d="m 393.1196,189.67133 c 1.55218,0.41808 3.11467,0.62188 4.66164,0.62188 7.93831,0 15.19673,-5.30433 17.34533,-13.33684 L 419.02,162.41788 c 2.56602,-9.58456 -3.1251,-19.44042 -12.71487,-22.00643 -9.53223,-2.5608 -19.44041,3.11466 -22.00643,12.71486 l -3.89342,14.53851 c -2.56602,9.58455 3.12509,19.43507 12.71485,22.00642 z"
     id="path112"
     style="fill:#fc9c2d;fill-opacity:1;stroke:#000000;stroke-width:9.16716;stroke-miterlimit:4;stroke-dasharray:none;stroke-opacity:1" />
  <path
     d="m 307.5502,508.95119 c -9.57933,-2.5085 -19.44578,3.13031 -22.01714,12.72529 l -3.89343,14.54386 c -2.5608,9.58977 3.13031,19.44578 12.7253,22.01714 1.5574,0.40763 3.11467,0.61666 4.66164,0.61666 7.93831,0 15.20208,-5.30433 17.35602,-13.33683 l 3.89344,-14.54386 c 2.55558,-9.59498 -3.13566,-19.45112 -12.7253,-22.02248 z"
     id="path114"
     style="fill:#fc9c2d;fill-opacity:1;stroke:#000000;stroke-width:9.16716;stroke-miterlimit:4;stroke-dasharray:none;stroke-opacity:1" />
  <path
     d="m 415.14075,521.67421 c -2.56601,-9.58977 -12.43272,-15.22349 -22.01714,-12.72531 -9.58976,2.56602 -15.28636,12.42229 -12.72529,22.01714 l 3.89342,14.54386 c 2.15315,8.03236 9.41732,13.33683 17.35604,13.33683 1.54162,0 3.10423,-0.20381 4.66163,-0.61667 9.58977,-2.56601 15.28637,-12.42228 12.72531,-22.01713 z"
     id="path116"
     style="fill:#fc9c2d;fill-opacity:1;stroke:#000000;stroke-width:9.16716;stroke-miterlimit:4;stroke-dasharray:none;stroke-opacity:1" />
  <path
     d="m 285.54243,176.96167 c 2.15315,8.03237 9.40675,13.33684 17.34533,13.33684 1.5416,0 3.10945,-0.2038 4.66163,-0.62189 9.58976,-2.56601 15.28637,-12.42228 12.71487,-22.00643 l -3.89344,-14.5385 c -2.56601,-9.58976 -12.47967,-15.27032 -22.00642,-12.71487 -9.58976,2.56602 -15.28637,12.42228 -12.71488,22.00643 z"
     id="path118"
     style="fill:#fc9c2d;fill-opacity:1;stroke:#000000;stroke-width:9.16716;stroke-miterlimit:4;stroke-dasharray:none;stroke-opacity:1" />
  <path
     d="m 190.70166,392.10265 c -2.56602,-9.58977 -12.43793,-15.2342 -22.01713,-12.7253 l -14.5385,3.89343 c -9.58978,2.56601 -15.28637,12.42227 -12.72532,22.01713 2.15315,8.03236 9.41732,13.33684 17.35604,13.33684 1.54162,0 3.10423,-0.20381 4.66163,-0.61667 l 14.54386,-3.89344 c 9.58977,-2.566 15.28102,-12.42227 12.72008,-22.01178 z"
     id="path120"
     style="fill:#fc9c2d;fill-opacity:1;stroke:#000000;stroke-width:9.16716;stroke-miterlimit:4;stroke-dasharray:none;stroke-opacity:1" />
  <path
     d="m 509.98151,306.54662 c 2.15315,8.03236 9.41732,13.33149 17.34534,13.33149 1.54161,0 3.10944,-0.20381 4.66684,-0.62189 l 14.54386,-3.89866 c 9.58977,-2.56601 15.28637,-12.43272 12.70966,-22.01713 -2.56602,-9.60021 -12.45881,-15.27566 -22.01713,-12.70965 l -14.54386,3.89866 c -9.58977,2.57123 -15.28102,12.43271 -12.70444,22.01712 z"
     id="path122"
     style="fill:#fc9c2d;fill-opacity:1;stroke:#000000;stroke-width:9.16716;stroke-miterlimit:4;stroke-dasharray:none;stroke-opacity:1" />
  <path
     d="m 458.32682,349.31794 c 0,6.49076 5.26259,11.74801 11.74799,11.74801 h 9.84061 c 6.49076,0 11.74801,-5.26261 11.74801,-11.74801 0,-6.49074 -5.26261,-11.74799 -11.74801,-11.74799 h -9.84061 c -6.48554,-0.005 -11.74799,5.25737 -11.74799,11.74799 z"
     id="path124"
     style="fill:#fc9c2d;fill-opacity:1;stroke:#000000;stroke-width:9.16716;stroke-miterlimit:4;stroke-dasharray:none;stroke-opacity:1" />
  <path
     d="m 242.34298,349.31794 c 0,-6.49074 -5.26259,-11.74799 -11.74799,-11.74799 h -9.84062 c -6.49075,0 -11.748,5.26259 -11.748,11.74799 0,6.49076 5.2626,11.74801 11.748,11.74801 h 9.84062 c 6.48553,0 11.74799,-5.25739 11.74799,-11.74801 z"
     id="path126"
     style="fill:#fc9c2d;fill-opacity:1;stroke:#000000;stroke-width:9.16716;stroke-miterlimit:4;stroke-dasharray:none;stroke-opacity:1" />
  <path
     d="m 338.58851,478.90288 c 0,6.49076 5.26259,11.74801 11.74799,11.74801 6.49076,0 11.74801,-5.2626 11.74801,-11.74801 v -9.83539 c 0,-6.49076 -5.26261,-11.748 -11.74801,-11.748 -6.49074,0 -11.74799,5.2626 -11.74799,11.748 z"
     id="path128"
     style="fill:#fc9c2d;fill-opacity:1;stroke:#000000;stroke-width:9.16716;stroke-miterlimit:4;stroke-dasharray:none;stroke-opacity:1" />
  <path
     d="m 350.3349,241.32603 c 6.49075,0 11.748,-5.2626 11.748,-11.748 v -9.84061 c 0,-6.49076 -5.2626,-11.74801 -11.748,-11.74801 -6.49076,0 -11.748,5.26261 -11.748,11.74801 v 9.84061 c 0,6.48554 5.25738,11.748 11.748,11.748 z"
     id="path130"
     style="fill:#fc9c2d;fill-opacity:1;stroke:#000000;stroke-width:9.16716;stroke-miterlimit:4;stroke-dasharray:none;stroke-opacity:1" />
  <path
     d="m 280.29803,251.49375 c 2.17402,3.76795 6.12484,5.874 10.17507,5.874 1.99635,0 4.0188,-0.51214 5.86878,-1.57827 5.61794,-3.24015 7.54111,-10.42593 4.29573,-16.04359 l -4.91769,-8.51841 c -3.24016,-5.62838 -10.44159,-7.53589 -16.04359,-4.29573 -5.61794,3.24016 -7.54111,10.42593 -4.29574,16.04359 z"
     id="path132"
     style="fill:#fc9c2d;fill-opacity:1;stroke:#000000;stroke-width:9.16716;stroke-miterlimit:4;stroke-dasharray:none;stroke-opacity:1" />
  <path
     d="m 420.37177,447.14213 c -3.24015,-5.62837 -10.43114,-7.53067 -16.04359,-4.29573 -5.61793,3.24017 -7.54111,10.42594 -4.29572,16.0436 l 4.91768,8.51841 c 2.17403,3.76794 6.12485,5.874 10.17509,5.874 1.99635,0 4.01879,-0.51215 5.86878,-1.57827 5.61794,-3.24016 7.54111,-10.42593 4.29573,-16.0436 z"
     id="path134"
     style="fill:#fc9c2d;fill-opacity:1;stroke:#000000;stroke-width:9.16716;stroke-miterlimit:4;stroke-dasharray:none;stroke-opacity:1" />
  <path
     d="m 454.04567,301.19518 c 1.99635,0 4.01878,-0.51214 5.86878,-1.57827 l 8.51841,-4.9177 c 5.61793,-3.24015 7.5411,-10.42592 4.29573,-16.04359 -3.24017,-5.62837 -10.43115,-7.53068 -16.0436,-4.29573 l -8.51841,4.9177 c -5.61793,3.24016 -7.54111,10.42593 -4.29573,16.0436 2.1688,3.76794 6.11963,5.87399 10.17507,5.87399 z"
     id="path136"
     style="fill:#fc9c2d;fill-opacity:1;stroke:#000000;stroke-width:9.16716;stroke-miterlimit:4;stroke-dasharray:none;stroke-opacity:1" />
  <path
     d="m 240.75094,399.01938 -8.51842,4.91769 c -5.61794,3.24017 -7.5411,10.42593 -4.29573,16.0436 2.17402,3.76794 6.12485,5.874 10.17509,5.874 1.99635,0 4.01879,-0.51215 5.86878,-1.57827 l 8.51841,-4.9177 c 5.61793,-3.24016 7.54111,-10.42592 4.29572,-16.0436 -3.24015,-5.62836 -10.43635,-7.53588 -16.04359,-4.29572 z"
     id="path138"
     style="fill:#fc9c2d;fill-opacity:1;stroke:#000000;stroke-width:9.16716;stroke-miterlimit:4;stroke-dasharray:none;stroke-opacity:1" />
  <path
     d="m 295.72353,467.41068 4.9177,-8.51841 c 3.25059,-5.61792 1.32218,-12.8037 -4.29574,-16.04359 -5.6127,-3.23494 -12.79847,-1.33263 -16.04359,4.29573 l -4.91769,8.51841 c -3.2506,5.61793 -1.32218,12.8037 4.29572,16.04359 1.84999,1.06612 3.87243,1.57828 5.86878,1.57828 4.0501,0 8.00106,-2.10606 10.17508,-5.87401 z"
     id="path140"
     style="fill:#fc9c2d;fill-opacity:1;stroke:#000000;stroke-width:9.16716;stroke-miterlimit:4;stroke-dasharray:none;stroke-opacity:1" />
  <path
     d="m 421.00056,226.93067 c -5.60227,-3.24015 -12.80369,-1.33262 -16.04359,4.29573 l -4.91769,8.51842 c -3.2506,5.61793 -1.32219,12.8037 4.29572,16.0436 1.84999,1.0661 3.87243,1.57826 5.86878,1.57826 4.05533,0 8.00628,-2.10605 10.17509,-5.874 l 4.91769,-8.51841 c 3.2506,-5.61793 1.32218,-12.8037 -4.29572,-16.0436 z"
     id="path142"
     style="fill:#fc9c2d;fill-opacity:1;stroke:#000000;stroke-width:9.16716;stroke-miterlimit:4;stroke-dasharray:none;stroke-opacity:1" />
  <path
     d="m 252.51071,279.28107 -8.51841,-4.9177 c -5.61272,-3.23494 -12.79849,-1.33263 -16.0436,4.29573 -3.25059,5.61794 -1.32217,12.8037 4.29573,16.04359 l 8.51841,4.9177 c 1.84999,1.06612 3.87243,1.57827 5.86878,1.57827 4.05532,0 8.00628,-2.10605 10.17509,-5.87399 3.24537,-5.61794 1.32217,-12.80371 -4.29573,-16.0436 z"
     id="path144"
     style="fill:#fc9c2d;fill-opacity:1;stroke:#000000;stroke-width:9.16716;stroke-miterlimit:4;stroke-dasharray:none;stroke-opacity:1" />
  <path
     d="m 472.72217,419.98361 c 3.25059,-5.61793 1.32218,-12.8037 -4.29573,-16.04359 l -8.51842,-4.9177 c -5.60227,-3.24016 -12.79848,-1.33263 -16.0436,4.29572 -3.25059,5.61794 -1.32217,12.80372 4.29574,16.0436 l 8.51841,4.9177 c 1.84999,1.06611 3.87243,1.57827 5.86878,1.57827 4.0501,0 8.00105,-2.10605 10.17508,-5.874 z"
     id="path146"
     style="fill:#fc9c2d;fill-opacity:1;stroke:#000000;stroke-width:9.16716;stroke-miterlimit:4;stroke-dasharray:none;stroke-opacity:1" />
</svg>
