{
    "asset" : {
        "generator" : "Khronos glTF Blender I/O v3.3.27",
        "version" : "2.0"
    },
    "scene" : 0,
    "scenes" : [
        {
            "name" : "Scene",
            "nodes" : [
                0
            ]
        }
    ],
    "nodes" : [
        {
            "mesh" : 0,
            "name" : "Grid",
            "scale" : [
                100,
                100,
                100
            ]
        }
    ],
    "meshes" : [
        {
            "name" : "Grid",
            "primitives" : [
                {
                    "attributes" : {
                        "POSITION" : 0,
                        "NORMAL" : 1,
                        "TEXCOORD_0" : 2
                    },
                    "indices" : 3
                }
            ]
        }
    ],
    "accessors" : [
        {
            "bufferView" : 0,
            "componentType" : 5126,
            "count" : 14783,
            "max" : [
                1,
                0.34422001242637634,
                1
            ],
            "min" : [
                -1,
                0,
                -1.0199999809265137
            ],
            "type" : "VEC3"
        },
        {
            "bufferView" : 1,
            "componentType" : 5126,
            "count" : 14783,
            "type" : "VEC3"
        },
        {
            "bufferView" : 2,
            "componentType" : 5126,
            "count" : 14783,
            "type" : "VEC2"
        },
        {
            "bufferView" : 3,
            "componentType" : 5123,
            "count" : 67872,
            "type" : "SCALAR"
        }
    ],
    "bufferViews" : [
        {
            "buffer" : 0,
            "byteLength" : 177396,
            "byteOffset" : 0,
            "target" : 34962
        },
        {
            "buffer" : 0,
            "byteLength" : 177396,
            "byteOffset" : 177396,
            "target" : 34962
        },
        {
            "buffer" : 0,
            "byteLength" : 118264,
            "byteOffset" : 354792,
            "target" : 34962
        },
        {
            "buffer" : 0,
            "byteLength" : 135744,
            "byteOffset" : 473056,
            "target" : 34963
        }
    ],
    "buffers" : [
        {
            "byteLength" : 608800,
            "uri" : "level.bin"
        }
    ]
}
